<?xml version="1.0" encoding="utf-8" standalone="no"?>
<!DOCTYPE svg PUBLIC "-//W3C//DTD SVG 1.1//EN"
  "http://www.w3.org/Graphics/SVG/1.1/DTD/svg11.dtd">
<svg xmlns:xlink="http://www.w3.org/1999/xlink" width="644.795425pt" height="310.86825pt" viewBox="0 0 644.795425 310.86825" xmlns="http://www.w3.org/2000/svg" version="1.1">
 <metadata>
  <rdf:RDF xmlns:dc="http://purl.org/dc/elements/1.1/" xmlns:cc="http://creativecommons.org/ns#" xmlns:rdf="http://www.w3.org/1999/02/22-rdf-syntax-ns#">
   <cc:Work>
    <dc:type rdf:resource="http://purl.org/dc/dcmitype/StillImage"/>
    <dc:date>2025-06-27T20:13:31.447563</dc:date>
    <dc:format>image/svg+xml</dc:format>
    <dc:creator>
     <cc:Agent>
      <dc:title>Matplotlib v3.9.2, https://matplotlib.org/</dc:title>
     </cc:Agent>
    </dc:creator>
   </cc:Work>
  </rdf:RDF>
 </metadata>
 <defs>
  <style type="text/css">*{stroke-linejoin: round; stroke-linecap: butt}</style>
 </defs>
 <g id="figure_1">
  <g id="patch_1">
   <path d="M 0 310.86825 
L 644.795425 310.86825 
L 644.795425 0 
L 0 0 
z
" style="fill: #ffffff"/>
  </g>
  <g id="axes_1">
   <g id="patch_2">
    <path d="M 43.78125 273.312 
L 400.90125 273.312 
L 400.90125 7.2 
L 43.78125 7.2 
z
" style="fill: #ffffff"/>
   </g>
   <g id="matplotlib.axis_1">
    <g id="xtick_1">
     <g id="line2d_1">
      <defs>
       <path id="m95746a3a58" d="M 0 0 
L 0 3.5 
" style="stroke: #000000; stroke-width: 0.8"/>
      </defs>
      <g>
       <use xlink:href="#m95746a3a58" x="60.013977" y="273.312" style="stroke: #000000; stroke-width: 0.8"/>
      </g>
     </g>
     <g id="text_1">
      <!-- 0 -->
      <g transform="translate(56.832727 287.910437) scale(0.1 -0.1)">
       <defs>
        <path id="DejaVuSans-30" d="M 2034 4250 
Q 1547 4250 1301 3770 
Q 1056 3291 1056 2328 
Q 1056 1369 1301 889 
Q 1547 409 2034 409 
Q 2525 409 2770 889 
Q 3016 1369 3016 2328 
Q 3016 3291 2770 3770 
Q 2525 4250 2034 4250 
z
M 2034 4750 
Q 2819 4750 3233 4129 
Q 3647 3509 3647 2328 
Q 3647 1150 3233 529 
Q 2819 -91 2034 -91 
Q 1250 -91 836 529 
Q 422 1150 422 2328 
Q 422 3509 836 4129 
Q 1250 4750 2034 4750 
z
" transform="scale(0.015625)"/>
       </defs>
       <use xlink:href="#DejaVuSans-30"/>
      </g>
     </g>
    </g>
    <g id="xtick_2">
     <g id="line2d_2">
      <g>
       <use xlink:href="#m95746a3a58" x="124.944886" y="273.312" style="stroke: #000000; stroke-width: 0.8"/>
      </g>
     </g>
     <g id="text_2">
      <!-- 1 -->
      <g transform="translate(121.763636 287.910437) scale(0.1 -0.1)">
       <defs>
        <path id="DejaVuSans-31" d="M 794 531 
L 1825 531 
L 1825 4091 
L 703 3866 
L 703 4441 
L 1819 4666 
L 2450 4666 
L 2450 531 
L 3481 531 
L 3481 0 
L 794 0 
L 794 531 
z
" transform="scale(0.015625)"/>
       </defs>
       <use xlink:href="#DejaVuSans-31"/>
      </g>
     </g>
    </g>
    <g id="xtick_3">
     <g id="line2d_3">
      <g>
       <use xlink:href="#m95746a3a58" x="189.875795" y="273.312" style="stroke: #000000; stroke-width: 0.8"/>
      </g>
     </g>
     <g id="text_3">
      <!-- 2 -->
      <g transform="translate(186.694545 287.910437) scale(0.1 -0.1)">
       <defs>
        <path id="DejaVuSans-32" d="M 1228 531 
L 3431 531 
L 3431 0 
L 469 0 
L 469 531 
Q 828 903 1448 1529 
Q 2069 2156 2228 2338 
Q 2531 2678 2651 2914 
Q 2772 3150 2772 3378 
Q 2772 3750 2511 3984 
Q 2250 4219 1831 4219 
Q 1534 4219 1204 4116 
Q 875 4013 500 3803 
L 500 4441 
Q 881 4594 1212 4672 
Q 1544 4750 1819 4750 
Q 2544 4750 2975 4387 
Q 3406 4025 3406 3419 
Q 3406 3131 3298 2873 
Q 3191 2616 2906 2266 
Q 2828 2175 2409 1742 
Q 1991 1309 1228 531 
z
" transform="scale(0.015625)"/>
       </defs>
       <use xlink:href="#DejaVuSans-32"/>
      </g>
     </g>
    </g>
    <g id="xtick_4">
     <g id="line2d_4">
      <g>
       <use xlink:href="#m95746a3a58" x="254.806705" y="273.312" style="stroke: #000000; stroke-width: 0.8"/>
      </g>
     </g>
     <g id="text_4">
      <!-- 3 -->
      <g transform="translate(251.625455 287.910437) scale(0.1 -0.1)">
       <defs>
        <path id="DejaVuSans-33" d="M 2597 2516 
Q 3050 2419 3304 2112 
Q 3559 1806 3559 1356 
Q 3559 666 3084 287 
Q 2609 -91 1734 -91 
Q 1441 -91 1130 -33 
Q 819 25 488 141 
L 488 750 
Q 750 597 1062 519 
Q 1375 441 1716 441 
Q 2309 441 2620 675 
Q 2931 909 2931 1356 
Q 2931 1769 2642 2001 
Q 2353 2234 1838 2234 
L 1294 2234 
L 1294 2753 
L 1863 2753 
Q 2328 2753 2575 2939 
Q 2822 3125 2822 3475 
Q 2822 3834 2567 4026 
Q 2313 4219 1838 4219 
Q 1578 4219 1281 4162 
Q 984 4106 628 3988 
L 628 4550 
Q 988 4650 1302 4700 
Q 1616 4750 1894 4750 
Q 2613 4750 3031 4423 
Q 3450 4097 3450 3541 
Q 3450 3153 3228 2886 
Q 3006 2619 2597 2516 
z
" transform="scale(0.015625)"/>
       </defs>
       <use xlink:href="#DejaVuSans-33"/>
      </g>
     </g>
    </g>
    <g id="xtick_5">
     <g id="line2d_5">
      <g>
       <use xlink:href="#m95746a3a58" x="319.737614" y="273.312" style="stroke: #000000; stroke-width: 0.8"/>
      </g>
     </g>
     <g id="text_5">
      <!-- 4 -->
      <g transform="translate(316.556364 287.910437) scale(0.1 -0.1)">
       <defs>
        <path id="DejaVuSans-34" d="M 2419 4116 
L 825 1625 
L 2419 1625 
L 2419 4116 
z
M 2253 4666 
L 3047 4666 
L 3047 1625 
L 3713 1625 
L 3713 1100 
L 3047 1100 
L 3047 0 
L 2419 0 
L 2419 1100 
L 313 1100 
L 313 1709 
L 2253 4666 
z
" transform="scale(0.015625)"/>
       </defs>
       <use xlink:href="#DejaVuSans-34"/>
      </g>
     </g>
    </g>
    <g id="xtick_6">
     <g id="line2d_6">
      <g>
       <use xlink:href="#m95746a3a58" x="384.668523" y="273.312" style="stroke: #000000; stroke-width: 0.8"/>
      </g>
     </g>
     <g id="text_6">
      <!-- 5 -->
      <g transform="translate(381.487273 287.910437) scale(0.1 -0.1)">
       <defs>
        <path id="DejaVuSans-35" d="M 691 4666 
L 3169 4666 
L 3169 4134 
L 1269 4134 
L 1269 2991 
Q 1406 3038 1543 3061 
Q 1681 3084 1819 3084 
Q 2600 3084 3056 2656 
Q 3513 2228 3513 1497 
Q 3513 744 3044 326 
Q 2575 -91 1722 -91 
Q 1428 -91 1123 -41 
Q 819 9 494 109 
L 494 744 
Q 775 591 1075 516 
Q 1375 441 1709 441 
Q 2250 441 2565 725 
Q 2881 1009 2881 1497 
Q 2881 1984 2565 2268 
Q 2250 2553 1709 2553 
Q 1456 2553 1204 2497 
Q 953 2441 691 2322 
L 691 4666 
z
" transform="scale(0.015625)"/>
       </defs>
       <use xlink:href="#DejaVuSans-35"/>
      </g>
     </g>
    </g>
    <g id="text_7">
     <!-- Time (ms) -->
     <g transform="translate(197.142031 301.588562) scale(0.1 -0.1)">
      <defs>
       <path id="DejaVuSans-54" d="M -19 4666 
L 3928 4666 
L 3928 4134 
L 2272 4134 
L 2272 0 
L 1638 0 
L 1638 4134 
L -19 4134 
L -19 4666 
z
" transform="scale(0.015625)"/>
       <path id="DejaVuSans-69" d="M 603 3500 
L 1178 3500 
L 1178 0 
L 603 0 
L 603 3500 
z
M 603 4863 
L 1178 4863 
L 1178 4134 
L 603 4134 
L 603 4863 
z
" transform="scale(0.015625)"/>
       <path id="DejaVuSans-6d" d="M 3328 2828 
Q 3544 3216 3844 3400 
Q 4144 3584 4550 3584 
Q 5097 3584 5394 3201 
Q 5691 2819 5691 2113 
L 5691 0 
L 5113 0 
L 5113 2094 
Q 5113 2597 4934 2840 
Q 4756 3084 4391 3084 
Q 3944 3084 3684 2787 
Q 3425 2491 3425 1978 
L 3425 0 
L 2847 0 
L 2847 2094 
Q 2847 2600 2669 2842 
Q 2491 3084 2119 3084 
Q 1678 3084 1418 2786 
Q 1159 2488 1159 1978 
L 1159 0 
L 581 0 
L 581 3500 
L 1159 3500 
L 1159 2956 
Q 1356 3278 1631 3431 
Q 1906 3584 2284 3584 
Q 2666 3584 2933 3390 
Q 3200 3197 3328 2828 
z
" transform="scale(0.015625)"/>
       <path id="DejaVuSans-65" d="M 3597 1894 
L 3597 1613 
L 953 1613 
Q 991 1019 1311 708 
Q 1631 397 2203 397 
Q 2534 397 2845 478 
Q 3156 559 3463 722 
L 3463 178 
Q 3153 47 2828 -22 
Q 2503 -91 2169 -91 
Q 1331 -91 842 396 
Q 353 884 353 1716 
Q 353 2575 817 3079 
Q 1281 3584 2069 3584 
Q 2775 3584 3186 3129 
Q 3597 2675 3597 1894 
z
M 3022 2063 
Q 3016 2534 2758 2815 
Q 2500 3097 2075 3097 
Q 1594 3097 1305 2825 
Q 1016 2553 972 2059 
L 3022 2063 
z
" transform="scale(0.015625)"/>
       <path id="DejaVuSans-20" transform="scale(0.015625)"/>
       <path id="DejaVuSans-28" d="M 1984 4856 
Q 1566 4138 1362 3434 
Q 1159 2731 1159 2009 
Q 1159 1288 1364 580 
Q 1569 -128 1984 -844 
L 1484 -844 
Q 1016 -109 783 600 
Q 550 1309 550 2009 
Q 550 2706 781 3412 
Q 1013 4119 1484 4856 
L 1984 4856 
z
" transform="scale(0.015625)"/>
       <path id="DejaVuSans-73" d="M 2834 3397 
L 2834 2853 
Q 2591 2978 2328 3040 
Q 2066 3103 1784 3103 
Q 1356 3103 1142 2972 
Q 928 2841 928 2578 
Q 928 2378 1081 2264 
Q 1234 2150 1697 2047 
L 1894 2003 
Q 2506 1872 2764 1633 
Q 3022 1394 3022 966 
Q 3022 478 2636 193 
Q 2250 -91 1575 -91 
Q 1294 -91 989 -36 
Q 684 19 347 128 
L 347 722 
Q 666 556 975 473 
Q 1284 391 1588 391 
Q 1994 391 2212 530 
Q 2431 669 2431 922 
Q 2431 1156 2273 1281 
Q 2116 1406 1581 1522 
L 1381 1569 
Q 847 1681 609 1914 
Q 372 2147 372 2553 
Q 372 3047 722 3315 
Q 1072 3584 1716 3584 
Q 2034 3584 2315 3537 
Q 2597 3491 2834 3397 
z
" transform="scale(0.015625)"/>
       <path id="DejaVuSans-29" d="M 513 4856 
L 1013 4856 
Q 1481 4119 1714 3412 
Q 1947 2706 1947 2009 
Q 1947 1309 1714 600 
Q 1481 -109 1013 -844 
L 513 -844 
Q 928 -128 1133 580 
Q 1338 1288 1338 2009 
Q 1338 2731 1133 3434 
Q 928 4138 513 4856 
z
" transform="scale(0.015625)"/>
      </defs>
      <use xlink:href="#DejaVuSans-54"/>
      <use xlink:href="#DejaVuSans-69" x="57.958984"/>
      <use xlink:href="#DejaVuSans-6d" x="85.742188"/>
      <use xlink:href="#DejaVuSans-65" x="183.154297"/>
      <use xlink:href="#DejaVuSans-20" x="244.677734"/>
      <use xlink:href="#DejaVuSans-28" x="276.464844"/>
      <use xlink:href="#DejaVuSans-6d" x="315.478516"/>
      <use xlink:href="#DejaVuSans-73" x="412.890625"/>
      <use xlink:href="#DejaVuSans-29" x="464.990234"/>
     </g>
    </g>
    <g id="text_8">
     <!-- 1e−7 -->
     <g transform="translate(373.643438 300.588562) scale(0.1 -0.1)">
      <defs>
       <path id="DejaVuSans-2212" d="M 678 2272 
L 4684 2272 
L 4684 1741 
L 678 1741 
L 678 2272 
z
" transform="scale(0.015625)"/>
       <path id="DejaVuSans-37" d="M 525 4666 
L 3525 4666 
L 3525 4397 
L 1831 0 
L 1172 0 
L 2766 4134 
L 525 4134 
L 525 4666 
z
" transform="scale(0.015625)"/>
      </defs>
      <use xlink:href="#DejaVuSans-31"/>
      <use xlink:href="#DejaVuSans-65" x="63.623047"/>
      <use xlink:href="#DejaVuSans-2212" x="125.146484"/>
      <use xlink:href="#DejaVuSans-37" x="208.935547"/>
     </g>
    </g>
   </g>
   <g id="matplotlib.axis_2">
    <g id="ytick_1">
     <g id="line2d_7">
      <defs>
       <path id="m66e2837e53" d="M 0 0 
L -3.5 0 
" style="stroke: #000000; stroke-width: 0.8"/>
      </defs>
      <g>
       <use xlink:href="#m66e2837e53" x="43.78125" y="261.216" style="stroke: #000000; stroke-width: 0.8"/>
      </g>
     </g>
     <g id="text_9">
      <!-- 0.0 -->
      <g transform="translate(20.878125 265.015219) scale(0.1 -0.1)">
       <defs>
        <path id="DejaVuSans-2e" d="M 684 794 
L 1344 794 
L 1344 0 
L 684 0 
L 684 794 
z
" transform="scale(0.015625)"/>
       </defs>
       <use xlink:href="#DejaVuSans-30"/>
       <use xlink:href="#DejaVuSans-2e" x="63.623047"/>
       <use xlink:href="#DejaVuSans-30" x="95.410156"/>
      </g>
     </g>
    </g>
    <g id="ytick_2">
     <g id="line2d_8">
      <g>
       <use xlink:href="#m66e2837e53" x="43.78125" y="228.96" style="stroke: #000000; stroke-width: 0.8"/>
      </g>
     </g>
     <g id="text_10">
      <!-- 0.2 -->
      <g transform="translate(20.878125 232.759219) scale(0.1 -0.1)">
       <use xlink:href="#DejaVuSans-30"/>
       <use xlink:href="#DejaVuSans-2e" x="63.623047"/>
       <use xlink:href="#DejaVuSans-32" x="95.410156"/>
      </g>
     </g>
    </g>
    <g id="ytick_3">
     <g id="line2d_9">
      <g>
       <use xlink:href="#m66e2837e53" x="43.78125" y="196.704" style="stroke: #000000; stroke-width: 0.8"/>
      </g>
     </g>
     <g id="text_11">
      <!-- 0.4 -->
      <g transform="translate(20.878125 200.503219) scale(0.1 -0.1)">
       <use xlink:href="#DejaVuSans-30"/>
       <use xlink:href="#DejaVuSans-2e" x="63.623047"/>
       <use xlink:href="#DejaVuSans-34" x="95.410156"/>
      </g>
     </g>
    </g>
    <g id="ytick_4">
     <g id="line2d_10">
      <g>
       <use xlink:href="#m66e2837e53" x="43.78125" y="164.448" style="stroke: #000000; stroke-width: 0.8"/>
      </g>
     </g>
     <g id="text_12">
      <!-- 0.6 -->
      <g transform="translate(20.878125 168.247219) scale(0.1 -0.1)">
       <defs>
        <path id="DejaVuSans-36" d="M 2113 2584 
Q 1688 2584 1439 2293 
Q 1191 2003 1191 1497 
Q 1191 994 1439 701 
Q 1688 409 2113 409 
Q 2538 409 2786 701 
Q 3034 994 3034 1497 
Q 3034 2003 2786 2293 
Q 2538 2584 2113 2584 
z
M 3366 4563 
L 3366 3988 
Q 3128 4100 2886 4159 
Q 2644 4219 2406 4219 
Q 1781 4219 1451 3797 
Q 1122 3375 1075 2522 
Q 1259 2794 1537 2939 
Q 1816 3084 2150 3084 
Q 2853 3084 3261 2657 
Q 3669 2231 3669 1497 
Q 3669 778 3244 343 
Q 2819 -91 2113 -91 
Q 1303 -91 875 529 
Q 447 1150 447 2328 
Q 447 3434 972 4092 
Q 1497 4750 2381 4750 
Q 2619 4750 2861 4703 
Q 3103 4656 3366 4563 
z
" transform="scale(0.015625)"/>
       </defs>
       <use xlink:href="#DejaVuSans-30"/>
       <use xlink:href="#DejaVuSans-2e" x="63.623047"/>
       <use xlink:href="#DejaVuSans-36" x="95.410156"/>
      </g>
     </g>
    </g>
    <g id="ytick_5">
     <g id="line2d_11">
      <g>
       <use xlink:href="#m66e2837e53" x="43.78125" y="132.192" style="stroke: #000000; stroke-width: 0.8"/>
      </g>
     </g>
     <g id="text_13">
      <!-- 0.8 -->
      <g transform="translate(20.878125 135.991219) scale(0.1 -0.1)">
       <defs>
        <path id="DejaVuSans-38" d="M 2034 2216 
Q 1584 2216 1326 1975 
Q 1069 1734 1069 1313 
Q 1069 891 1326 650 
Q 1584 409 2034 409 
Q 2484 409 2743 651 
Q 3003 894 3003 1313 
Q 3003 1734 2745 1975 
Q 2488 2216 2034 2216 
z
M 1403 2484 
Q 997 2584 770 2862 
Q 544 3141 544 3541 
Q 544 4100 942 4425 
Q 1341 4750 2034 4750 
Q 2731 4750 3128 4425 
Q 3525 4100 3525 3541 
Q 3525 3141 3298 2862 
Q 3072 2584 2669 2484 
Q 3125 2378 3379 2068 
Q 3634 1759 3634 1313 
Q 3634 634 3220 271 
Q 2806 -91 2034 -91 
Q 1263 -91 848 271 
Q 434 634 434 1313 
Q 434 1759 690 2068 
Q 947 2378 1403 2484 
z
M 1172 3481 
Q 1172 3119 1398 2916 
Q 1625 2713 2034 2713 
Q 2441 2713 2670 2916 
Q 2900 3119 2900 3481 
Q 2900 3844 2670 4047 
Q 2441 4250 2034 4250 
Q 1625 4250 1398 4047 
Q 1172 3844 1172 3481 
z
" transform="scale(0.015625)"/>
       </defs>
       <use xlink:href="#DejaVuSans-30"/>
       <use xlink:href="#DejaVuSans-2e" x="63.623047"/>
       <use xlink:href="#DejaVuSans-38" x="95.410156"/>
      </g>
     </g>
    </g>
    <g id="ytick_6">
     <g id="line2d_12">
      <g>
       <use xlink:href="#m66e2837e53" x="43.78125" y="99.936" style="stroke: #000000; stroke-width: 0.8"/>
      </g>
     </g>
     <g id="text_14">
      <!-- 1.0 -->
      <g transform="translate(20.878125 103.735219) scale(0.1 -0.1)">
       <use xlink:href="#DejaVuSans-31"/>
       <use xlink:href="#DejaVuSans-2e" x="63.623047"/>
       <use xlink:href="#DejaVuSans-30" x="95.410156"/>
      </g>
     </g>
    </g>
    <g id="ytick_7">
     <g id="line2d_13">
      <g>
       <use xlink:href="#m66e2837e53" x="43.78125" y="67.68" style="stroke: #000000; stroke-width: 0.8"/>
      </g>
     </g>
     <g id="text_15">
      <!-- 1.2 -->
      <g transform="translate(20.878125 71.479219) scale(0.1 -0.1)">
       <use xlink:href="#DejaVuSans-31"/>
       <use xlink:href="#DejaVuSans-2e" x="63.623047"/>
       <use xlink:href="#DejaVuSans-32" x="95.410156"/>
      </g>
     </g>
    </g>
    <g id="ytick_8">
     <g id="line2d_14">
      <g>
       <use xlink:href="#m66e2837e53" x="43.78125" y="35.424" style="stroke: #000000; stroke-width: 0.8"/>
      </g>
     </g>
     <g id="text_16">
      <!-- 1.4 -->
      <g transform="translate(20.878125 39.223219) scale(0.1 -0.1)">
       <use xlink:href="#DejaVuSans-31"/>
       <use xlink:href="#DejaVuSans-2e" x="63.623047"/>
       <use xlink:href="#DejaVuSans-34" x="95.410156"/>
      </g>
     </g>
    </g>
    <g id="text_17">
     <!-- Vout (V), Vinp (V) -->
     <g transform="translate(14.798438 183.516937) rotate(-90) scale(0.1 -0.1)">
      <defs>
       <path id="DejaVuSans-56" d="M 1831 0 
L 50 4666 
L 709 4666 
L 2188 738 
L 3669 4666 
L 4325 4666 
L 2547 0 
L 1831 0 
z
" transform="scale(0.015625)"/>
       <path id="DejaVuSans-6f" d="M 1959 3097 
Q 1497 3097 1228 2736 
Q 959 2375 959 1747 
Q 959 1119 1226 758 
Q 1494 397 1959 397 
Q 2419 397 2687 759 
Q 2956 1122 2956 1747 
Q 2956 2369 2687 2733 
Q 2419 3097 1959 3097 
z
M 1959 3584 
Q 2709 3584 3137 3096 
Q 3566 2609 3566 1747 
Q 3566 888 3137 398 
Q 2709 -91 1959 -91 
Q 1206 -91 779 398 
Q 353 888 353 1747 
Q 353 2609 779 3096 
Q 1206 3584 1959 3584 
z
" transform="scale(0.015625)"/>
       <path id="DejaVuSans-75" d="M 544 1381 
L 544 3500 
L 1119 3500 
L 1119 1403 
Q 1119 906 1312 657 
Q 1506 409 1894 409 
Q 2359 409 2629 706 
Q 2900 1003 2900 1516 
L 2900 3500 
L 3475 3500 
L 3475 0 
L 2900 0 
L 2900 538 
Q 2691 219 2414 64 
Q 2138 -91 1772 -91 
Q 1169 -91 856 284 
Q 544 659 544 1381 
z
M 1991 3584 
L 1991 3584 
z
" transform="scale(0.015625)"/>
       <path id="DejaVuSans-74" d="M 1172 4494 
L 1172 3500 
L 2356 3500 
L 2356 3053 
L 1172 3053 
L 1172 1153 
Q 1172 725 1289 603 
Q 1406 481 1766 481 
L 2356 481 
L 2356 0 
L 1766 0 
Q 1100 0 847 248 
Q 594 497 594 1153 
L 594 3053 
L 172 3053 
L 172 3500 
L 594 3500 
L 594 4494 
L 1172 4494 
z
" transform="scale(0.015625)"/>
       <path id="DejaVuSans-2c" d="M 750 794 
L 1409 794 
L 1409 256 
L 897 -744 
L 494 -744 
L 750 256 
L 750 794 
z
" transform="scale(0.015625)"/>
       <path id="DejaVuSans-6e" d="M 3513 2113 
L 3513 0 
L 2938 0 
L 2938 2094 
Q 2938 2591 2744 2837 
Q 2550 3084 2163 3084 
Q 1697 3084 1428 2787 
Q 1159 2491 1159 1978 
L 1159 0 
L 581 0 
L 581 3500 
L 1159 3500 
L 1159 2956 
Q 1366 3272 1645 3428 
Q 1925 3584 2291 3584 
Q 2894 3584 3203 3211 
Q 3513 2838 3513 2113 
z
" transform="scale(0.015625)"/>
       <path id="DejaVuSans-70" d="M 1159 525 
L 1159 -1331 
L 581 -1331 
L 581 3500 
L 1159 3500 
L 1159 2969 
Q 1341 3281 1617 3432 
Q 1894 3584 2278 3584 
Q 2916 3584 3314 3078 
Q 3713 2572 3713 1747 
Q 3713 922 3314 415 
Q 2916 -91 2278 -91 
Q 1894 -91 1617 61 
Q 1341 213 1159 525 
z
M 3116 1747 
Q 3116 2381 2855 2742 
Q 2594 3103 2138 3103 
Q 1681 3103 1420 2742 
Q 1159 2381 1159 1747 
Q 1159 1113 1420 752 
Q 1681 391 2138 391 
Q 2594 391 2855 752 
Q 3116 1113 3116 1747 
z
" transform="scale(0.015625)"/>
      </defs>
      <use xlink:href="#DejaVuSans-56"/>
      <use xlink:href="#DejaVuSans-6f" x="60.658203"/>
      <use xlink:href="#DejaVuSans-75" x="121.839844"/>
      <use xlink:href="#DejaVuSans-74" x="185.21875"/>
      <use xlink:href="#DejaVuSans-20" x="224.427734"/>
      <use xlink:href="#DejaVuSans-28" x="256.214844"/>
      <use xlink:href="#DejaVuSans-56" x="295.228516"/>
      <use xlink:href="#DejaVuSans-29" x="363.636719"/>
      <use xlink:href="#DejaVuSans-2c" x="402.650391"/>
      <use xlink:href="#DejaVuSans-20" x="434.4375"/>
      <use xlink:href="#DejaVuSans-56" x="466.224609"/>
      <use xlink:href="#DejaVuSans-69" x="532.382812"/>
      <use xlink:href="#DejaVuSans-6e" x="560.166016"/>
      <use xlink:href="#DejaVuSans-70" x="623.544922"/>
      <use xlink:href="#DejaVuSans-20" x="687.021484"/>
      <use xlink:href="#DejaVuSans-28" x="718.808594"/>
      <use xlink:href="#DejaVuSans-56" x="757.822266"/>
      <use xlink:href="#DejaVuSans-29" x="826.230469"/>
     </g>
    </g>
   </g>
   <g id="line2d_15">
    <path d="M 60.013977 254.92394 
L 60.046443 254.92394 
L 60.078908 254.92394 
L 60.143839 254.92394 
L 60.273701 254.92394 
L 60.533425 254.92394 
L 61.052872 254.92394 
L 62.091766 254.92394 
L 64.169555 254.92394 
L 68.325134 254.92394 
L 74.818225 254.92394 
L 81.311315 254.92394 
L 87.804406 254.92394 
L 94.297497 254.92394 
L 100.790588 254.92394 
L 107.283679 254.92394 
L 113.77677 254.92394 
L 120.269861 254.92394 
L 124.944886 254.92394 
L 124.951379 254.916255 
L 124.964366 254.901285 
L 124.990338 254.880454 
L 125.009817 254.884324 
L 125.013981 254.892125 
L 125.022309 254.904799 
L 125.038963 254.919809 
L 125.072274 254.934622 
L 125.124222 254.947664 
L 125.211467 254.968485 
L 125.372583 254.975367 
L 125.694816 254.918149 
L 126.224108 254.677879 
L 127.282694 253.627749 
L 129.399864 249.745461 
L 133.634206 238.978404 
L 137.657226 227.946742 
L 144.103668 210.451413 
L 150.596759 192.869096 
L 157.08985 175.350302 
L 163.582941 157.897279 
L 170.076032 140.521753 
L 176.569122 123.237592 
L 183.062213 106.066898 
L 189.555304 89.116428 
L 196.048395 74.290732 
L 202.541486 64.895773 
L 209.034577 60.488093 
L 215.527668 58.437014 
L 222.020759 57.492389 
L 228.51385 57.026309 
L 235.006941 56.812817 
L 241.500032 56.700538 
L 247.993122 56.653538 
L 254.486213 56.625427 
L 260.979304 56.615948 
L 267.472395 56.608354 
L 273.965486 56.606894 
L 280.458577 56.604607 
L 286.951668 56.604604 
L 293.444759 56.603864 
L 299.93785 56.603961 
L 306.430941 56.603765 
L 312.924032 56.603748 
L 319.417122 56.603785 
L 325.910213 56.603661 
L 332.403304 56.603814 
L 338.896395 56.603619 
L 345.389486 56.603835 
L 351.882577 56.603596 
L 358.375668 56.603848 
L 364.868759 56.603585 
L 371.36185 56.603854 
L 377.854941 56.603578 
L 384.348032 56.603859 
L 384.668523 56.603577 
" clip-path="url(#p5f315fd2b5)" style="fill: none; stroke: #1f77b4; stroke-width: 1.5; stroke-linecap: square"/>
   </g>
   <g id="line2d_16">
    <path d="M 60.013977 261.216 
L 60.046443 261.216 
L 60.078908 261.216 
L 60.143839 261.216 
L 60.273701 261.216 
L 60.533425 261.216 
L 61.052872 261.216 
L 62.091766 261.216 
L 64.169555 261.216 
L 68.325134 261.216 
L 74.818225 261.216 
L 81.311315 261.216 
L 87.804406 261.216 
L 94.297497 261.216 
L 100.790588 261.216 
L 107.283679 261.216 
L 113.77677 261.216 
L 120.269861 261.216 
L 124.944886 261.216 
L 124.951379 237.024 
L 124.964366 188.64 
L 124.990338 91.872 
L 125.009817 19.296 
L 125.013981 19.296 
L 125.022309 19.296 
L 125.038963 19.296 
L 125.072274 19.296 
L 125.124222 19.296 
L 125.211467 19.296 
L 125.372583 19.296 
L 125.694816 19.296 
L 126.224108 19.296 
L 127.282694 19.296 
L 129.399864 19.296 
L 133.634206 19.296 
L 137.657226 19.296 
L 144.103668 19.296 
L 150.596759 19.296 
L 157.08985 19.296 
L 163.582941 19.296 
L 170.076032 19.296 
L 176.569122 19.296 
L 183.062213 19.296 
L 189.555304 19.296 
L 196.048395 19.296 
L 202.541486 19.296 
L 209.034577 19.296 
L 215.527668 19.296 
L 222.020759 19.296 
L 228.51385 19.296 
L 235.006941 19.296 
L 241.500032 19.296 
L 247.993122 19.296 
L 254.486213 19.296 
L 260.979304 19.296 
L 267.472395 19.296 
L 273.965486 19.296 
L 280.458577 19.296 
L 286.951668 19.296 
L 293.444759 19.296 
L 299.93785 19.296 
L 306.430941 19.296 
L 312.924032 19.296 
L 319.417122 19.296 
L 325.910213 19.296 
L 332.403304 19.296 
L 338.896395 19.296 
L 345.389486 19.296 
L 351.882577 19.296 
L 358.375668 19.296 
L 364.868759 19.296 
L 371.36185 19.296 
L 377.854941 19.296 
L 384.348032 19.296 
L 384.668523 19.296 
" clip-path="url(#p5f315fd2b5)" style="fill: none; stroke: #ff7f0e; stroke-width: 1.5; stroke-linecap: square"/>
   </g>
   <g id="line2d_17">
    <path d="M 60.013977 254.426828 
L 60.046443 254.426828 
L 60.078908 254.426828 
L 60.143839 254.426828 
L 60.273701 254.426828 
L 60.533425 254.426828 
L 61.052872 254.426828 
L 62.091766 254.426828 
L 64.169555 254.426828 
L 68.325134 254.426828 
L 74.818225 254.426828 
L 81.311315 254.426828 
L 87.804406 254.426828 
L 94.297497 254.426828 
L 100.790588 254.426828 
L 107.283679 254.426828 
L 113.77677 254.426828 
L 120.269861 254.426828 
L 124.944886 254.426828 
L 124.951379 254.419029 
L 124.964366 254.403933 
L 124.990338 254.383367 
L 125.009817 254.386311 
L 125.014597 254.394905 
L 125.024157 254.408957 
L 125.043277 254.425812 
L 125.081516 254.44685 
L 125.138514 254.469606 
L 125.236255 254.47847 
L 125.406624 254.461288 
L 125.722044 254.38392 
L 126.352887 254.055717 
L 127.61457 252.704718 
L 130.137938 247.911093 
L 134.47879 236.879908 
L 139.095943 224.383438 
L 145.589034 206.913201 
L 152.082125 189.484337 
L 158.575216 172.111049 
L 165.068307 154.798447 
L 171.561398 137.557556 
L 178.054488 120.404543 
L 184.547579 103.425269 
L 191.04067 87.831788 
L 197.533761 76.649932 
L 204.026852 70.510262 
L 210.519943 67.323655 
L 217.013034 65.667208 
L 223.506125 64.777244 
L 229.999216 64.311001 
L 236.492307 64.054103 
L 242.985398 63.91987 
L 249.478488 63.844347 
L 255.971579 63.805854 
L 262.46467 63.783499 
L 268.957761 63.772545 
L 275.450852 63.76588 
L 281.943943 63.762781 
L 288.437034 63.760798 
L 294.930125 63.759903 
L 301.423216 63.759343 
L 307.916307 63.759046 
L 314.409398 63.758933 
L 320.902488 63.758786 
L 327.395579 63.75882 
L 333.88867 63.758706 
L 340.381761 63.75879 
L 346.874852 63.75868 
L 353.367943 63.758783 
L 359.861034 63.758672 
L 366.354125 63.758782 
L 372.847216 63.758669 
L 379.340307 63.758782 
L 384.668523 63.758667 
" clip-path="url(#p5f315fd2b5)" style="fill: none; stroke: #2ca02c; stroke-width: 1.5; stroke-linecap: square"/>
   </g>
   <g id="line2d_18">
    <path d="M 60.013977 261.216 
L 60.046443 261.216 
L 60.078908 261.216 
L 60.143839 261.216 
L 60.273701 261.216 
L 60.533425 261.216 
L 61.052872 261.216 
L 62.091766 261.216 
L 64.169555 261.216 
L 68.325134 261.216 
L 74.818225 261.216 
L 81.311315 261.216 
L 87.804406 261.216 
L 94.297497 261.216 
L 100.790588 261.216 
L 107.283679 261.216 
L 113.77677 261.216 
L 120.269861 261.216 
L 124.944886 261.216 
L 124.951379 237.024 
L 124.964366 188.64 
L 124.990338 91.872 
L 125.009817 19.296 
L 125.014597 19.296 
L 125.024157 19.296 
L 125.043277 19.296 
L 125.081516 19.296 
L 125.138514 19.296 
L 125.236255 19.296 
L 125.406624 19.296 
L 125.722044 19.296 
L 126.352887 19.296 
L 127.61457 19.296 
L 130.137938 19.296 
L 134.47879 19.296 
L 139.095943 19.296 
L 145.589034 19.296 
L 152.082125 19.296 
L 158.575216 19.296 
L 165.068307 19.296 
L 171.561398 19.296 
L 178.054488 19.296 
L 184.547579 19.296 
L 191.04067 19.296 
L 197.533761 19.296 
L 204.026852 19.296 
L 210.519943 19.296 
L 217.013034 19.296 
L 223.506125 19.296 
L 229.999216 19.296 
L 236.492307 19.296 
L 242.985398 19.296 
L 249.478488 19.296 
L 255.971579 19.296 
L 262.46467 19.296 
L 268.957761 19.296 
L 275.450852 19.296 
L 281.943943 19.296 
L 288.437034 19.296 
L 294.930125 19.296 
L 301.423216 19.296 
L 307.916307 19.296 
L 314.409398 19.296 
L 320.902488 19.296 
L 327.395579 19.296 
L 333.88867 19.296 
L 340.381761 19.296 
L 346.874852 19.296 
L 353.367943 19.296 
L 359.861034 19.296 
L 366.354125 19.296 
L 372.847216 19.296 
L 379.340307 19.296 
L 384.668523 19.296 
" clip-path="url(#p5f315fd2b5)" style="fill: none; stroke: #d62728; stroke-width: 1.5; stroke-linecap: square"/>
   </g>
   <g id="line2d_19">
    <path d="M 60.013977 252.39348 
L 60.046443 252.39348 
L 60.078908 252.39348 
L 60.143839 252.39348 
L 60.273701 252.39348 
L 60.533425 252.39348 
L 61.052872 252.39348 
L 62.091766 252.39348 
L 64.169555 252.39348 
L 68.325134 252.39348 
L 74.818225 252.39348 
L 81.311315 252.39348 
L 87.804406 252.39348 
L 94.297497 252.39348 
L 100.790588 252.39348 
L 107.283679 252.39348 
L 113.77677 252.39348 
L 120.269861 252.39348 
L 124.944886 252.39348 
L 124.951379 252.380027 
L 124.964366 252.361273 
L 124.990338 252.340554 
L 125.009817 252.340596 
L 125.014534 252.348733 
L 125.023966 252.362672 
L 125.042831 252.38607 
L 125.080562 252.42542 
L 125.14543 252.43823 
L 125.236985 252.423121 
L 125.388487 252.384263 
L 125.691492 252.26621 
L 126.297503 251.885735 
L 127.509524 250.57333 
L 129.933566 246.204527 
L 134.78165 234.214727 
L 139.664644 220.975523 
L 146.157734 203.495509 
L 152.650825 186.094193 
L 159.143916 168.765515 
L 165.637007 151.508691 
L 172.130098 134.336979 
L 178.623189 117.393308 
L 185.11628 101.84174 
L 191.609371 90.08753 
L 198.102462 82.789223 
L 204.595553 78.50044 
L 211.088644 75.983535 
L 217.581734 74.486513 
L 224.074825 73.590681 
L 230.567916 73.047953 
L 237.061007 72.721906 
L 243.554098 72.523579 
L 250.047189 72.404427 
L 256.54028 72.33176 
L 263.033371 72.28816 
L 269.526462 72.261502 
L 276.019553 72.245545 
L 282.512644 72.235757 
L 289.005734 72.22992 
L 295.498825 72.226322 
L 301.991916 72.22419 
L 308.485007 72.222866 
L 314.978098 72.222088 
L 321.471189 72.221598 
L 327.96428 72.221317 
L 334.457371 72.221135 
L 340.950462 72.221034 
L 347.443553 72.220964 
L 353.936644 72.22093 
L 360.429734 72.220903 
L 366.922825 72.220892 
L 373.415916 72.22088 
L 379.909007 72.220877 
L 384.668523 72.220872 
" clip-path="url(#p5f315fd2b5)" style="fill: none; stroke: #9467bd; stroke-width: 1.5; stroke-linecap: square"/>
   </g>
   <g id="line2d_20">
    <path d="M 60.013977 261.216 
L 60.046443 261.216 
L 60.078908 261.216 
L 60.143839 261.216 
L 60.273701 261.216 
L 60.533425 261.216 
L 61.052872 261.216 
L 62.091766 261.216 
L 64.169555 261.216 
L 68.325134 261.216 
L 74.818225 261.216 
L 81.311315 261.216 
L 87.804406 261.216 
L 94.297497 261.216 
L 100.790588 261.216 
L 107.283679 261.216 
L 113.77677 261.216 
L 120.269861 261.216 
L 124.944886 261.216 
L 124.951379 237.024 
L 124.964366 188.64 
L 124.990338 91.872 
L 125.009817 19.296 
L 125.014534 19.296 
L 125.023966 19.296 
L 125.042831 19.296 
L 125.080562 19.296 
L 125.14543 19.296 
L 125.236985 19.296 
L 125.388487 19.296 
L 125.691492 19.296 
L 126.297503 19.296 
L 127.509524 19.296 
L 129.933566 19.296 
L 134.78165 19.296 
L 139.664644 19.296 
L 146.157734 19.296 
L 152.650825 19.296 
L 159.143916 19.296 
L 165.637007 19.296 
L 172.130098 19.296 
L 178.623189 19.296 
L 185.11628 19.296 
L 191.609371 19.296 
L 198.102462 19.296 
L 204.595553 19.296 
L 211.088644 19.296 
L 217.581734 19.296 
L 224.074825 19.296 
L 230.567916 19.296 
L 237.061007 19.296 
L 243.554098 19.296 
L 250.047189 19.296 
L 256.54028 19.296 
L 263.033371 19.296 
L 269.526462 19.296 
L 276.019553 19.296 
L 282.512644 19.296 
L 289.005734 19.296 
L 295.498825 19.296 
L 301.991916 19.296 
L 308.485007 19.296 
L 314.978098 19.296 
L 321.471189 19.296 
L 327.96428 19.296 
L 334.457371 19.296 
L 340.950462 19.296 
L 347.443553 19.296 
L 353.936644 19.296 
L 360.429734 19.296 
L 366.922825 19.296 
L 373.415916 19.296 
L 379.909007 19.296 
L 384.668523 19.296 
" clip-path="url(#p5f315fd2b5)" style="fill: none; stroke: #8c564b; stroke-width: 1.5; stroke-linecap: square"/>
   </g>
   <g id="line2d_21">
    <path d="M 60.013977 255.313733 
L 60.046443 255.313733 
L 60.078908 255.313733 
L 60.143839 255.313733 
L 60.273701 255.313733 
L 60.533425 255.313733 
L 61.052872 255.313733 
L 62.091766 255.313733 
L 64.169555 255.313733 
L 68.325134 255.313733 
L 74.818225 255.313732 
L 81.311315 255.313732 
L 87.804406 255.313732 
L 94.297497 255.313732 
L 100.790588 255.313732 
L 107.283679 255.313732 
L 113.77677 255.313732 
L 120.269861 255.313732 
L 124.944886 255.313732 
L 124.951379 255.305826 
L 124.964366 255.290434 
L 124.990338 255.270977 
L 125.009817 255.275921 
L 125.014381 255.284298 
L 125.023507 255.297717 
L 125.041759 255.313082 
L 125.078264 255.329152 
L 125.131727 255.349483 
L 125.227181 255.365838 
L 125.404726 255.350395 
L 125.749232 255.250507 
L 126.287906 254.925711 
L 127.365256 253.66719 
L 129.519955 249.356139 
L 133.829353 237.885971 
L 137.84388 226.506308 
L 144.336971 208.279836 
L 150.830062 190.098955 
L 157.323153 171.987118 
L 163.816244 153.947941 
L 170.309335 135.995196 
L 176.802426 118.145682 
L 183.295517 100.431154 
L 189.788608 83.224362 
L 196.281698 69.749585 
L 202.774789 62.362661 
L 209.26788 59.034142 
L 215.760971 57.51456 
L 222.254062 56.803199 
L 228.747153 56.471401 
L 235.240244 56.311805 
L 241.733335 56.237365 
L 248.226426 56.200815 
L 254.719517 56.184383 
L 261.212608 56.17582 
L 267.705698 56.172366 
L 274.198789 56.170221 
L 280.69188 56.169621 
L 287.184971 56.168982 
L 293.678062 56.168982 
L 300.171153 56.168717 
L 306.664244 56.168827 
L 313.157335 56.168667 
L 319.650426 56.168785 
L 326.143517 56.168663 
L 332.636608 56.168772 
L 339.129698 56.168664 
L 345.622789 56.168766 
L 352.11588 56.168667 
L 358.608971 56.168764 
L 365.102062 56.168669 
L 371.595153 56.168761 
L 378.088244 56.168671 
L 384.581335 56.168761 
L 384.668523 56.168685 
" clip-path="url(#p5f315fd2b5)" style="fill: none; stroke: #e377c2; stroke-width: 1.5; stroke-linecap: square"/>
   </g>
   <g id="line2d_22">
    <path d="M 60.013977 261.216 
L 60.046443 261.216 
L 60.078908 261.216 
L 60.143839 261.216 
L 60.273701 261.216 
L 60.533425 261.216 
L 61.052872 261.216 
L 62.091766 261.216 
L 64.169555 261.216 
L 68.325134 261.216 
L 74.818225 261.216 
L 81.311315 261.216 
L 87.804406 261.216 
L 94.297497 261.216 
L 100.790588 261.216 
L 107.283679 261.216 
L 113.77677 261.216 
L 120.269861 261.216 
L 124.944886 261.216 
L 124.951379 237.024 
L 124.964366 188.64 
L 124.990338 91.872 
L 125.009817 19.296 
L 125.014381 19.296 
L 125.023507 19.296 
L 125.041759 19.296 
L 125.078264 19.296 
L 125.131727 19.296 
L 125.227181 19.296 
L 125.404726 19.296 
L 125.749232 19.296 
L 126.287906 19.296 
L 127.365256 19.296 
L 129.519955 19.296 
L 133.829353 19.296 
L 137.84388 19.296 
L 144.336971 19.296 
L 150.830062 19.296 
L 157.323153 19.296 
L 163.816244 19.296 
L 170.309335 19.296 
L 176.802426 19.296 
L 183.295517 19.296 
L 189.788608 19.296 
L 196.281698 19.296 
L 202.774789 19.296 
L 209.26788 19.296 
L 215.760971 19.296 
L 222.254062 19.296 
L 228.747153 19.296 
L 235.240244 19.296 
L 241.733335 19.296 
L 248.226426 19.296 
L 254.719517 19.296 
L 261.212608 19.296 
L 267.705698 19.296 
L 274.198789 19.296 
L 280.69188 19.296 
L 287.184971 19.296 
L 293.678062 19.296 
L 300.171153 19.296 
L 306.664244 19.296 
L 313.157335 19.296 
L 319.650426 19.296 
L 326.143517 19.296 
L 332.636608 19.296 
L 339.129698 19.296 
L 345.622789 19.296 
L 352.11588 19.296 
L 358.608971 19.296 
L 365.102062 19.296 
L 371.595153 19.296 
L 378.088244 19.296 
L 384.581335 19.296 
L 384.668523 19.296 
" clip-path="url(#p5f315fd2b5)" style="fill: none; stroke: #7f7f7f; stroke-width: 1.5; stroke-linecap: square"/>
   </g>
   <g id="line2d_23">
    <path d="M 60.013977 254.366696 
L 60.046443 254.366696 
L 60.078908 254.366696 
L 60.143839 254.366696 
L 60.273701 254.366696 
L 60.533425 254.366696 
L 61.052872 254.366696 
L 62.091766 254.366696 
L 64.169555 254.366696 
L 68.325134 254.366696 
L 74.818225 254.366696 
L 81.311315 254.366696 
L 87.804406 254.366696 
L 94.297497 254.366696 
L 100.790588 254.366696 
L 107.283679 254.366696 
L 113.77677 254.366696 
L 120.269861 254.366696 
L 124.944886 254.366696 
L 124.951379 254.3582 
L 124.964366 254.342421 
L 124.990338 254.323654 
L 125.009817 254.327166 
L 125.014436 254.335549 
L 125.023674 254.349257 
L 125.042148 254.366397 
L 125.079098 254.394802 
L 125.135989 254.415633 
L 125.231786 254.414676 
L 125.391058 254.388465 
L 125.691974 254.294042 
L 126.293805 253.934914 
L 127.497468 252.556172 
L 129.904795 247.826886 
L 134.222091 236.534755 
L 138.73665 223.916771 
L 145.229741 205.88086 
L 151.722832 187.892758 
L 158.215923 169.966041 
L 164.709014 152.106457 
L 171.202105 134.326361 
L 177.695196 116.646703 
L 184.188287 99.238033 
L 190.681378 83.999181 
L 197.174469 73.899665 
L 203.667559 68.63021 
L 210.16065 65.926575 
L 216.653741 64.54711 
L 223.146832 63.812236 
L 229.639923 63.427927 
L 236.133014 63.219424 
L 242.626105 63.11201 
L 249.119196 63.052588 
L 255.612287 63.022688 
L 262.105378 63.005664 
L 268.598469 62.997376 
L 275.091559 62.992495 
L 281.58465 62.990174 
L 288.077741 62.988816 
L 294.570832 62.988112 
L 301.063923 62.987799 
L 307.557014 62.987515 
L 314.050105 62.987521 
L 320.543196 62.987337 
L 327.036287 62.987447 
L 333.529378 62.987284 
L 340.022469 62.987429 
L 346.515559 62.987266 
L 353.00865 62.987426 
L 359.501741 62.987262 
L 365.994832 62.987425 
L 372.487923 62.98726 
L 378.981014 62.987425 
L 384.668523 62.98726 
" clip-path="url(#p5f315fd2b5)" style="fill: none; stroke: #bcbd22; stroke-width: 1.5; stroke-linecap: square"/>
   </g>
   <g id="line2d_24">
    <path d="M 60.013977 261.216 
L 60.046443 261.216 
L 60.078908 261.216 
L 60.143839 261.216 
L 60.273701 261.216 
L 60.533425 261.216 
L 61.052872 261.216 
L 62.091766 261.216 
L 64.169555 261.216 
L 68.325134 261.216 
L 74.818225 261.216 
L 81.311315 261.216 
L 87.804406 261.216 
L 94.297497 261.216 
L 100.790588 261.216 
L 107.283679 261.216 
L 113.77677 261.216 
L 120.269861 261.216 
L 124.944886 261.216 
L 124.951379 237.024 
L 124.964366 188.64 
L 124.990338 91.872 
L 125.009817 19.296 
L 125.014436 19.296 
L 125.023674 19.296 
L 125.042148 19.296 
L 125.079098 19.296 
L 125.135989 19.296 
L 125.231786 19.296 
L 125.391058 19.296 
L 125.691974 19.296 
L 126.293805 19.296 
L 127.497468 19.296 
L 129.904795 19.296 
L 134.222091 19.296 
L 138.73665 19.296 
L 145.229741 19.296 
L 151.722832 19.296 
L 158.215923 19.296 
L 164.709014 19.296 
L 171.202105 19.296 
L 177.695196 19.296 
L 184.188287 19.296 
L 190.681378 19.296 
L 197.174469 19.296 
L 203.667559 19.296 
L 210.16065 19.296 
L 216.653741 19.296 
L 223.146832 19.296 
L 229.639923 19.296 
L 236.133014 19.296 
L 242.626105 19.296 
L 249.119196 19.296 
L 255.612287 19.296 
L 262.105378 19.296 
L 268.598469 19.296 
L 275.091559 19.296 
L 281.58465 19.296 
L 288.077741 19.296 
L 294.570832 19.296 
L 301.063923 19.296 
L 307.557014 19.296 
L 314.050105 19.296 
L 320.543196 19.296 
L 327.036287 19.296 
L 333.529378 19.296 
L 340.022469 19.296 
L 346.515559 19.296 
L 353.00865 19.296 
L 359.501741 19.296 
L 365.994832 19.296 
L 372.487923 19.296 
L 378.981014 19.296 
L 384.668523 19.296 
" clip-path="url(#p5f315fd2b5)" style="fill: none; stroke: #17becf; stroke-width: 1.5; stroke-linecap: square"/>
   </g>
   <g id="line2d_25">
    <path d="M 60.013977 252.019261 
L 60.046443 252.019261 
L 60.078908 252.019261 
L 60.143839 252.019261 
L 60.273701 252.019261 
L 60.533425 252.019261 
L 61.052872 252.019261 
L 62.091766 252.019261 
L 64.169555 252.019261 
L 68.325134 252.019261 
L 74.818225 252.019261 
L 81.311315 252.019261 
L 87.804406 252.019261 
L 94.297497 252.019261 
L 100.790588 252.019261 
L 107.283679 252.019261 
L 113.77677 252.019261 
L 120.269861 252.019261 
L 124.944886 252.019261 
L 124.951379 252.000041 
L 124.964366 251.973403 
L 124.990338 251.952289 
L 125.009817 251.951255 
L 125.013924 251.958351 
L 125.022137 251.971086 
L 125.038564 251.997748 
L 125.071417 252.036019 
L 125.135939 252.041342 
L 125.216415 252.016823 
L 125.358232 251.963268 
L 125.638219 251.817558 
L 126.198191 251.390916 
L 127.318136 250.032773 
L 129.558026 245.728245 
L 134.037807 234.093086 
L 138.814542 220.511428 
L 145.307632 202.252537 
L 151.800723 184.181821 
L 158.293814 166.253076 
L 164.786905 148.443883 
L 171.279996 130.75822 
L 177.773087 113.411409 
L 184.266178 97.96152 
L 190.759269 86.845014 
L 197.25236 80.188833 
L 203.745451 76.335351 
L 210.238542 74.101728 
L 216.731632 72.786515 
L 223.224723 72.014947 
L 229.717814 71.554073 
L 236.210905 71.281016 
L 242.703996 71.117319 
L 249.197087 71.020294 
L 255.690178 70.962071 
L 262.183269 70.927513 
L 268.67636 70.906832 
L 275.169451 70.894475 
L 281.662542 70.887172 
L 288.155632 70.882706 
L 294.648723 70.880174 
L 301.141814 70.878515 
L 307.634905 70.877684 
L 314.127996 70.87702 
L 320.621087 70.876799 
L 327.114178 70.876487 
L 333.607269 70.876483 
L 340.10036 70.876299 
L 346.593451 70.87637 
L 353.086542 70.876231 
L 359.579632 70.876329 
L 366.072723 70.876207 
L 372.565814 70.876315 
L 379.058905 70.876199 
L 384.668523 70.87631 
" clip-path="url(#p5f315fd2b5)" style="fill: none; stroke: #1f77b4; stroke-width: 1.5; stroke-linecap: square"/>
   </g>
   <g id="line2d_26">
    <path d="M 60.013977 261.216 
L 60.046443 261.216 
L 60.078908 261.216 
L 60.143839 261.216 
L 60.273701 261.216 
L 60.533425 261.216 
L 61.052872 261.216 
L 62.091766 261.216 
L 64.169555 261.216 
L 68.325134 261.216 
L 74.818225 261.216 
L 81.311315 261.216 
L 87.804406 261.216 
L 94.297497 261.216 
L 100.790588 261.216 
L 107.283679 261.216 
L 113.77677 261.216 
L 120.269861 261.216 
L 124.944886 261.216 
L 124.951379 237.024 
L 124.964366 188.64 
L 124.990338 91.872 
L 125.009817 19.296 
L 125.013924 19.296 
L 125.022137 19.296 
L 125.038564 19.296 
L 125.071417 19.296 
L 125.135939 19.296 
L 125.216415 19.296 
L 125.358232 19.296 
L 125.638219 19.296 
L 126.198191 19.296 
L 127.318136 19.296 
L 129.558026 19.296 
L 134.037807 19.296 
L 138.814542 19.296 
L 145.307632 19.296 
L 151.800723 19.296 
L 158.293814 19.296 
L 164.786905 19.296 
L 171.279996 19.296 
L 177.773087 19.296 
L 184.266178 19.296 
L 190.759269 19.296 
L 197.25236 19.296 
L 203.745451 19.296 
L 210.238542 19.296 
L 216.731632 19.296 
L 223.224723 19.296 
L 229.717814 19.296 
L 236.210905 19.296 
L 242.703996 19.296 
L 249.197087 19.296 
L 255.690178 19.296 
L 262.183269 19.296 
L 268.67636 19.296 
L 275.169451 19.296 
L 281.662542 19.296 
L 288.155632 19.296 
L 294.648723 19.296 
L 301.141814 19.296 
L 307.634905 19.296 
L 314.127996 19.296 
L 320.621087 19.296 
L 327.114178 19.296 
L 333.607269 19.296 
L 340.10036 19.296 
L 346.593451 19.296 
L 353.086542 19.296 
L 359.579632 19.296 
L 366.072723 19.296 
L 372.565814 19.296 
L 379.058905 19.296 
L 384.668523 19.296 
" clip-path="url(#p5f315fd2b5)" style="fill: none; stroke: #ff7f0e; stroke-width: 1.5; stroke-linecap: square"/>
   </g>
   <g id="line2d_27">
    <path d="M 60.013977 255.478323 
L 60.046443 255.478323 
L 60.078908 255.478323 
L 60.143839 255.478323 
L 60.273701 255.478323 
L 60.533425 255.478323 
L 61.052872 255.478323 
L 62.091766 255.478323 
L 64.169555 255.478323 
L 68.325134 255.478323 
L 74.818225 255.478323 
L 81.311315 255.478323 
L 87.804406 255.478323 
L 94.297497 255.478323 
L 100.790588 255.478323 
L 107.283679 255.478323 
L 113.77677 255.478323 
L 120.269861 255.478323 
L 124.944886 255.478323 
L 124.951379 255.470158 
L 124.964366 255.45429 
L 124.990338 255.436898 
L 125.009817 255.442319 
L 125.015012 255.451527 
L 125.025401 255.465972 
L 125.046179 255.481989 
L 125.087734 255.506832 
L 125.1438 255.527687 
L 125.253439 255.52848 
L 125.443517 255.488001 
L 125.777157 255.348222 
L 126.444438 254.811812 
L 127.779 252.815535 
L 130.448124 246.532489 
L 134.502343 234.962953 
L 139.021282 221.76209 
L 145.514373 202.890297 
L 152.007464 184.076574 
L 158.500555 165.33867 
L 164.993646 146.684156 
L 171.486737 128.129789 
L 177.979828 109.698365 
L 184.472919 91.461792 
L 190.966009 74.913181 
L 197.4591 63.980877 
L 203.952191 58.913306 
L 210.445282 56.652035 
L 216.938373 55.65874 
L 223.431464 55.180266 
L 229.924555 54.974325 
L 236.417646 54.865514 
L 242.910737 54.825411 
L 249.403828 54.798916 
L 255.896919 54.792643 
L 262.390009 54.785232 
L 268.8831 54.785158 
L 275.376191 54.782645 
L 281.869282 54.783282 
L 288.362373 54.78229 
L 294.855464 54.782717 
L 301.348555 54.78233 
L 307.841646 54.7825 
L 314.334737 54.782405 
L 320.827828 54.782396 
L 327.320919 54.782459 
L 333.814009 54.782342 
L 340.3071 54.782493 
L 346.800191 54.782311 
L 353.293282 54.782514 
L 359.786373 54.782293 
L 366.279464 54.782525 
L 372.772555 54.782282 
L 379.265646 54.782534 
L 384.668523 54.782277 
" clip-path="url(#p5f315fd2b5)" style="fill: none; stroke: #2ca02c; stroke-width: 1.5; stroke-linecap: square"/>
   </g>
   <g id="line2d_28">
    <path d="M 60.013977 261.216 
L 60.046443 261.216 
L 60.078908 261.216 
L 60.143839 261.216 
L 60.273701 261.216 
L 60.533425 261.216 
L 61.052872 261.216 
L 62.091766 261.216 
L 64.169555 261.216 
L 68.325134 261.216 
L 74.818225 261.216 
L 81.311315 261.216 
L 87.804406 261.216 
L 94.297497 261.216 
L 100.790588 261.216 
L 107.283679 261.216 
L 113.77677 261.216 
L 120.269861 261.216 
L 124.944886 261.216 
L 124.951379 237.024 
L 124.964366 188.64 
L 124.990338 91.872 
L 125.009817 19.296 
L 125.015012 19.296 
L 125.025401 19.296 
L 125.046179 19.296 
L 125.087734 19.296 
L 125.1438 19.296 
L 125.253439 19.296 
L 125.443517 19.296 
L 125.777157 19.296 
L 126.444438 19.296 
L 127.779 19.296 
L 130.448124 19.296 
L 134.502343 19.296 
L 139.021282 19.296 
L 145.514373 19.296 
L 152.007464 19.296 
L 158.500555 19.296 
L 164.993646 19.296 
L 171.486737 19.296 
L 177.979828 19.296 
L 184.472919 19.296 
L 190.966009 19.296 
L 197.4591 19.296 
L 203.952191 19.296 
L 210.445282 19.296 
L 216.938373 19.296 
L 223.431464 19.296 
L 229.924555 19.296 
L 236.417646 19.296 
L 242.910737 19.296 
L 249.403828 19.296 
L 255.896919 19.296 
L 262.390009 19.296 
L 268.8831 19.296 
L 275.376191 19.296 
L 281.869282 19.296 
L 288.362373 19.296 
L 294.855464 19.296 
L 301.348555 19.296 
L 307.841646 19.296 
L 314.334737 19.296 
L 320.827828 19.296 
L 327.320919 19.296 
L 333.814009 19.296 
L 340.3071 19.296 
L 346.800191 19.296 
L 353.293282 19.296 
L 359.786373 19.296 
L 366.279464 19.296 
L 372.772555 19.296 
L 379.265646 19.296 
L 384.668523 19.296 
" clip-path="url(#p5f315fd2b5)" style="fill: none; stroke: #d62728; stroke-width: 1.5; stroke-linecap: square"/>
   </g>
   <g id="line2d_29">
    <path d="M 60.013977 254.357518 
L 60.046443 254.357518 
L 60.078908 254.357518 
L 60.143839 254.357518 
L 60.273701 254.357518 
L 60.533425 254.357518 
L 61.052872 254.357518 
L 62.091766 254.357518 
L 64.169555 254.357518 
L 68.325134 254.357518 
L 74.818225 254.357518 
L 81.311315 254.357518 
L 87.804406 254.357518 
L 94.297497 254.357518 
L 100.790588 254.357518 
L 107.283679 254.357518 
L 113.77677 254.357518 
L 120.269861 254.357518 
L 124.944886 254.357518 
L 124.951379 254.347099 
L 124.964366 254.330347 
L 124.990338 254.313593 
L 125.009817 254.317187 
L 125.014215 254.325219 
L 125.02301 254.338392 
L 125.040601 254.357183 
L 125.075782 254.392383 
L 125.132724 254.408905 
L 125.224161 254.399287 
L 125.375228 254.362832 
L 125.673359 254.241239 
L 126.269621 253.817313 
L 127.462146 252.293966 
L 129.847195 247.302804 
L 134.120421 235.666303 
L 138.586995 222.751939 
L 145.080086 204.101302 
L 151.573177 185.51263 
L 158.066268 166.995958 
L 164.559359 148.556574 
L 171.05245 130.207567 
L 177.54554 111.976955 
L 184.038631 94.182451 
L 190.531722 79.430712 
L 197.024813 70.384467 
L 203.517904 65.856518 
L 210.010995 63.58817 
L 216.504086 62.443398 
L 222.997177 61.846762 
L 229.490268 61.538529 
L 235.983359 61.376408 
L 242.47645 61.293289 
L 248.96954 61.249137 
L 255.462631 61.226776 
L 261.955722 61.21472 
L 268.448813 61.208714 
L 274.941904 61.205427 
L 281.434995 61.203798 
L 287.928086 61.202924 
L 294.421177 61.202455 
L 300.914268 61.202255 
L 307.407359 61.202086 
L 313.90045 61.202078 
L 320.39354 61.201982 
L 326.886631 61.202032 
L 333.379722 61.201952 
L 339.872813 61.202019 
L 346.365904 61.201944 
L 352.858995 61.202018 
L 359.352086 61.201942 
L 365.845177 61.202016 
L 372.338268 61.20194 
L 378.831359 61.202016 
L 384.668523 61.20194 
" clip-path="url(#p5f315fd2b5)" style="fill: none; stroke: #9467bd; stroke-width: 1.5; stroke-linecap: square"/>
   </g>
   <g id="line2d_30">
    <path d="M 60.013977 261.216 
L 60.046443 261.216 
L 60.078908 261.216 
L 60.143839 261.216 
L 60.273701 261.216 
L 60.533425 261.216 
L 61.052872 261.216 
L 62.091766 261.216 
L 64.169555 261.216 
L 68.325134 261.216 
L 74.818225 261.216 
L 81.311315 261.216 
L 87.804406 261.216 
L 94.297497 261.216 
L 100.790588 261.216 
L 107.283679 261.216 
L 113.77677 261.216 
L 120.269861 261.216 
L 124.944886 261.216 
L 124.951379 237.024 
L 124.964366 188.64 
L 124.990338 91.872 
L 125.009817 19.296 
L 125.014215 19.296 
L 125.02301 19.296 
L 125.040601 19.296 
L 125.075782 19.296 
L 125.132724 19.296 
L 125.224161 19.296 
L 125.375228 19.296 
L 125.673359 19.296 
L 126.269621 19.296 
L 127.462146 19.296 
L 129.847195 19.296 
L 134.120421 19.296 
L 138.586995 19.296 
L 145.080086 19.296 
L 151.573177 19.296 
L 158.066268 19.296 
L 164.559359 19.296 
L 171.05245 19.296 
L 177.54554 19.296 
L 184.038631 19.296 
L 190.531722 19.296 
L 197.024813 19.296 
L 203.517904 19.296 
L 210.010995 19.296 
L 216.504086 19.296 
L 222.997177 19.296 
L 229.490268 19.296 
L 235.983359 19.296 
L 242.47645 19.296 
L 248.96954 19.296 
L 255.462631 19.296 
L 261.955722 19.296 
L 268.448813 19.296 
L 274.941904 19.296 
L 281.434995 19.296 
L 287.928086 19.296 
L 294.421177 19.296 
L 300.914268 19.296 
L 307.407359 19.296 
L 313.90045 19.296 
L 320.39354 19.296 
L 326.886631 19.296 
L 333.379722 19.296 
L 339.872813 19.296 
L 346.365904 19.296 
L 352.858995 19.296 
L 359.352086 19.296 
L 365.845177 19.296 
L 372.338268 19.296 
L 378.831359 19.296 
L 384.668523 19.296 
" clip-path="url(#p5f315fd2b5)" style="fill: none; stroke: #8c564b; stroke-width: 1.5; stroke-linecap: square"/>
   </g>
   <g id="line2d_31">
    <path d="M 60.013977 251.399297 
L 60.046443 251.399297 
L 60.078908 251.399297 
L 60.143839 251.399297 
L 60.273701 251.399297 
L 60.533425 251.399297 
L 61.052872 251.399297 
L 62.091766 251.399297 
L 64.169555 251.399297 
L 68.325134 251.399297 
L 74.818225 251.399297 
L 81.311315 251.399297 
L 87.804406 251.399297 
L 94.297497 251.399297 
L 100.790588 251.399297 
L 107.283679 251.399297 
L 113.77677 251.399297 
L 120.269861 251.399297 
L 124.944886 251.399297 
L 124.951379 251.376582 
L 124.964366 251.33668 
L 124.990338 251.310835 
L 125.009817 251.30645 
L 125.013782 251.312931 
L 125.021712 251.326338 
L 125.037572 251.358261 
L 125.069291 251.38919 
L 125.131491 251.376323 
L 125.209033 251.332952 
L 125.346762 251.24555 
L 125.622219 251.026526 
L 126.173134 250.440747 
L 127.274963 248.734057 
L 129.478621 243.718568 
L 133.885937 230.884567 
L 138.374763 217.016906 
L 144.867853 197.522398 
L 151.360944 178.49465 
L 157.854035 159.786531 
L 164.347126 141.31598 
L 170.840217 123.069196 
L 177.333308 105.513468 
L 183.826399 90.942887 
L 190.31949 81.366385 
L 196.812581 75.883415 
L 203.305672 72.772306 
L 209.798763 70.99678 
L 216.291853 69.965273 
L 222.784944 69.362749 
L 229.278035 69.010329 
L 235.771126 68.803922 
L 242.264217 68.683121 
L 248.757308 68.612171 
L 255.250399 68.570783 
L 261.74349 68.546295 
L 268.236581 68.532189 
L 274.729672 68.523654 
L 281.222763 68.518929 
L 287.715853 68.515871 
L 294.208944 68.514371 
L 300.702035 68.513195 
L 307.195126 68.512805 
L 313.688217 68.512276 
L 320.181308 68.512266 
L 326.674399 68.51196 
L 333.16749 68.512081 
L 339.660581 68.511852 
L 346.153672 68.512016 
L 352.646763 68.511816 
L 359.139853 68.511995 
L 365.632944 68.511805 
L 372.126035 68.511987 
L 378.619126 68.5118 
L 384.668523 68.511984 
" clip-path="url(#p5f315fd2b5)" style="fill: none; stroke: #e377c2; stroke-width: 1.5; stroke-linecap: square"/>
   </g>
   <g id="line2d_32">
    <path d="M 60.013977 261.216 
L 60.046443 261.216 
L 60.078908 261.216 
L 60.143839 261.216 
L 60.273701 261.216 
L 60.533425 261.216 
L 61.052872 261.216 
L 62.091766 261.216 
L 64.169555 261.216 
L 68.325134 261.216 
L 74.818225 261.216 
L 81.311315 261.216 
L 87.804406 261.216 
L 94.297497 261.216 
L 100.790588 261.216 
L 107.283679 261.216 
L 113.77677 261.216 
L 120.269861 261.216 
L 124.944886 261.216 
L 124.951379 237.024 
L 124.964366 188.64 
L 124.990338 91.872 
L 125.009817 19.296 
L 125.013782 19.296 
L 125.021712 19.296 
L 125.037572 19.296 
L 125.069291 19.296 
L 125.131491 19.296 
L 125.209033 19.296 
L 125.346762 19.296 
L 125.622219 19.296 
L 126.173134 19.296 
L 127.274963 19.296 
L 129.478621 19.296 
L 133.885937 19.296 
L 138.374763 19.296 
L 144.867853 19.296 
L 151.360944 19.296 
L 157.854035 19.296 
L 164.347126 19.296 
L 170.840217 19.296 
L 177.333308 19.296 
L 183.826399 19.296 
L 190.31949 19.296 
L 196.812581 19.296 
L 203.305672 19.296 
L 209.798763 19.296 
L 216.291853 19.296 
L 222.784944 19.296 
L 229.278035 19.296 
L 235.771126 19.296 
L 242.264217 19.296 
L 248.757308 19.296 
L 255.250399 19.296 
L 261.74349 19.296 
L 268.236581 19.296 
L 274.729672 19.296 
L 281.222763 19.296 
L 287.715853 19.296 
L 294.208944 19.296 
L 300.702035 19.296 
L 307.195126 19.296 
L 313.688217 19.296 
L 320.181308 19.296 
L 326.674399 19.296 
L 333.16749 19.296 
L 339.660581 19.296 
L 346.153672 19.296 
L 352.646763 19.296 
L 359.139853 19.296 
L 365.632944 19.296 
L 372.126035 19.296 
L 378.619126 19.296 
L 384.668523 19.296 
" clip-path="url(#p5f315fd2b5)" style="fill: none; stroke: #7f7f7f; stroke-width: 1.5; stroke-linecap: square"/>
   </g>
   <g id="patch_3">
    <path d="M 43.78125 273.312 
L 43.78125 7.2 
" style="fill: none; stroke: #000000; stroke-width: 0.8; stroke-linejoin: miter; stroke-linecap: square"/>
   </g>
   <g id="patch_4">
    <path d="M 400.90125 273.312 
L 400.90125 7.2 
" style="fill: none; stroke: #000000; stroke-width: 0.8; stroke-linejoin: miter; stroke-linecap: square"/>
   </g>
   <g id="patch_5">
    <path d="M 43.78125 273.312 
L 400.90125 273.312 
" style="fill: none; stroke: #000000; stroke-width: 0.8; stroke-linejoin: miter; stroke-linecap: square"/>
   </g>
   <g id="patch_6">
    <path d="M 43.78125 7.2 
L 400.90125 7.2 
" style="fill: none; stroke: #000000; stroke-width: 0.8; stroke-linejoin: miter; stroke-linecap: square"/>
   </g>
   <g id="legend_1">
    <g id="patch_7">
     <path d="M 417.18605 279.4125 
L 635.595425 279.4125 
Q 637.595425 279.4125 637.595425 277.4125 
L 637.595425 9.2 
Q 637.595425 7.2 635.595425 7.2 
L 417.18605 7.2 
Q 415.18605 7.2 415.18605 9.2 
L 415.18605 277.4125 
Q 415.18605 279.4125 417.18605 279.4125 
z
" style="fill: #ffffff; opacity: 0.8; stroke: #cccccc; stroke-linejoin: miter"/>
    </g>
    <g id="line2d_33">
     <path d="M 419.18605 15.298437 
L 429.18605 15.298437 
L 439.18605 15.298437 
" style="fill: none; stroke: #1f77b4; stroke-width: 1.5; stroke-linecap: square"/>
    </g>
    <g id="text_18">
     <!-- temperature = -40, corner = mos_ss -->
     <g transform="translate(447.18605 18.798437) scale(0.1 -0.1)">
      <defs>
       <path id="DejaVuSans-72" d="M 2631 2963 
Q 2534 3019 2420 3045 
Q 2306 3072 2169 3072 
Q 1681 3072 1420 2755 
Q 1159 2438 1159 1844 
L 1159 0 
L 581 0 
L 581 3500 
L 1159 3500 
L 1159 2956 
Q 1341 3275 1631 3429 
Q 1922 3584 2338 3584 
Q 2397 3584 2469 3576 
Q 2541 3569 2628 3553 
L 2631 2963 
z
" transform="scale(0.015625)"/>
       <path id="DejaVuSans-61" d="M 2194 1759 
Q 1497 1759 1228 1600 
Q 959 1441 959 1056 
Q 959 750 1161 570 
Q 1363 391 1709 391 
Q 2188 391 2477 730 
Q 2766 1069 2766 1631 
L 2766 1759 
L 2194 1759 
z
M 3341 1997 
L 3341 0 
L 2766 0 
L 2766 531 
Q 2569 213 2275 61 
Q 1981 -91 1556 -91 
Q 1019 -91 701 211 
Q 384 513 384 1019 
Q 384 1609 779 1909 
Q 1175 2209 1959 2209 
L 2766 2209 
L 2766 2266 
Q 2766 2663 2505 2880 
Q 2244 3097 1772 3097 
Q 1472 3097 1187 3025 
Q 903 2953 641 2809 
L 641 3341 
Q 956 3463 1253 3523 
Q 1550 3584 1831 3584 
Q 2591 3584 2966 3190 
Q 3341 2797 3341 1997 
z
" transform="scale(0.015625)"/>
       <path id="DejaVuSans-3d" d="M 678 2906 
L 4684 2906 
L 4684 2381 
L 678 2381 
L 678 2906 
z
M 678 1631 
L 4684 1631 
L 4684 1100 
L 678 1100 
L 678 1631 
z
" transform="scale(0.015625)"/>
       <path id="DejaVuSans-2d" d="M 313 2009 
L 1997 2009 
L 1997 1497 
L 313 1497 
L 313 2009 
z
" transform="scale(0.015625)"/>
       <path id="DejaVuSans-63" d="M 3122 3366 
L 3122 2828 
Q 2878 2963 2633 3030 
Q 2388 3097 2138 3097 
Q 1578 3097 1268 2742 
Q 959 2388 959 1747 
Q 959 1106 1268 751 
Q 1578 397 2138 397 
Q 2388 397 2633 464 
Q 2878 531 3122 666 
L 3122 134 
Q 2881 22 2623 -34 
Q 2366 -91 2075 -91 
Q 1284 -91 818 406 
Q 353 903 353 1747 
Q 353 2603 823 3093 
Q 1294 3584 2113 3584 
Q 2378 3584 2631 3529 
Q 2884 3475 3122 3366 
z
" transform="scale(0.015625)"/>
       <path id="DejaVuSans-5f" d="M 3263 -1063 
L 3263 -1509 
L -63 -1509 
L -63 -1063 
L 3263 -1063 
z
" transform="scale(0.015625)"/>
      </defs>
      <use xlink:href="#DejaVuSans-74"/>
      <use xlink:href="#DejaVuSans-65" x="39.208984"/>
      <use xlink:href="#DejaVuSans-6d" x="100.732422"/>
      <use xlink:href="#DejaVuSans-70" x="198.144531"/>
      <use xlink:href="#DejaVuSans-65" x="261.621094"/>
      <use xlink:href="#DejaVuSans-72" x="323.144531"/>
      <use xlink:href="#DejaVuSans-61" x="364.257812"/>
      <use xlink:href="#DejaVuSans-74" x="425.537109"/>
      <use xlink:href="#DejaVuSans-75" x="464.746094"/>
      <use xlink:href="#DejaVuSans-72" x="528.125"/>
      <use xlink:href="#DejaVuSans-65" x="566.988281"/>
      <use xlink:href="#DejaVuSans-20" x="628.511719"/>
      <use xlink:href="#DejaVuSans-3d" x="660.298828"/>
      <use xlink:href="#DejaVuSans-20" x="744.087891"/>
      <use xlink:href="#DejaVuSans-2d" x="775.875"/>
      <use xlink:href="#DejaVuSans-34" x="811.958984"/>
      <use xlink:href="#DejaVuSans-30" x="875.582031"/>
      <use xlink:href="#DejaVuSans-2c" x="939.205078"/>
      <use xlink:href="#DejaVuSans-20" x="970.992188"/>
      <use xlink:href="#DejaVuSans-63" x="1002.779297"/>
      <use xlink:href="#DejaVuSans-6f" x="1057.759766"/>
      <use xlink:href="#DejaVuSans-72" x="1118.941406"/>
      <use xlink:href="#DejaVuSans-6e" x="1158.304688"/>
      <use xlink:href="#DejaVuSans-65" x="1221.683594"/>
      <use xlink:href="#DejaVuSans-72" x="1283.207031"/>
      <use xlink:href="#DejaVuSans-20" x="1324.320312"/>
      <use xlink:href="#DejaVuSans-3d" x="1356.107422"/>
      <use xlink:href="#DejaVuSans-20" x="1439.896484"/>
      <use xlink:href="#DejaVuSans-6d" x="1471.683594"/>
      <use xlink:href="#DejaVuSans-6f" x="1569.095703"/>
      <use xlink:href="#DejaVuSans-73" x="1630.277344"/>
      <use xlink:href="#DejaVuSans-5f" x="1682.376953"/>
      <use xlink:href="#DejaVuSans-73" x="1732.376953"/>
      <use xlink:href="#DejaVuSans-73" x="1784.476562"/>
     </g>
    </g>
    <g id="line2d_34">
     <path d="M 419.18605 30.254687 
L 429.18605 30.254687 
L 439.18605 30.254687 
" style="fill: none; stroke: #ff7f0e; stroke-width: 1.5; stroke-linecap: square"/>
    </g>
    <g id="text_19">
     <!-- temperature = -40, corner = mos_ss -->
     <g transform="translate(447.18605 33.754687) scale(0.1 -0.1)">
      <use xlink:href="#DejaVuSans-74"/>
      <use xlink:href="#DejaVuSans-65" x="39.208984"/>
      <use xlink:href="#DejaVuSans-6d" x="100.732422"/>
      <use xlink:href="#DejaVuSans-70" x="198.144531"/>
      <use xlink:href="#DejaVuSans-65" x="261.621094"/>
      <use xlink:href="#DejaVuSans-72" x="323.144531"/>
      <use xlink:href="#DejaVuSans-61" x="364.257812"/>
      <use xlink:href="#DejaVuSans-74" x="425.537109"/>
      <use xlink:href="#DejaVuSans-75" x="464.746094"/>
      <use xlink:href="#DejaVuSans-72" x="528.125"/>
      <use xlink:href="#DejaVuSans-65" x="566.988281"/>
      <use xlink:href="#DejaVuSans-20" x="628.511719"/>
      <use xlink:href="#DejaVuSans-3d" x="660.298828"/>
      <use xlink:href="#DejaVuSans-20" x="744.087891"/>
      <use xlink:href="#DejaVuSans-2d" x="775.875"/>
      <use xlink:href="#DejaVuSans-34" x="811.958984"/>
      <use xlink:href="#DejaVuSans-30" x="875.582031"/>
      <use xlink:href="#DejaVuSans-2c" x="939.205078"/>
      <use xlink:href="#DejaVuSans-20" x="970.992188"/>
      <use xlink:href="#DejaVuSans-63" x="1002.779297"/>
      <use xlink:href="#DejaVuSans-6f" x="1057.759766"/>
      <use xlink:href="#DejaVuSans-72" x="1118.941406"/>
      <use xlink:href="#DejaVuSans-6e" x="1158.304688"/>
      <use xlink:href="#DejaVuSans-65" x="1221.683594"/>
      <use xlink:href="#DejaVuSans-72" x="1283.207031"/>
      <use xlink:href="#DejaVuSans-20" x="1324.320312"/>
      <use xlink:href="#DejaVuSans-3d" x="1356.107422"/>
      <use xlink:href="#DejaVuSans-20" x="1439.896484"/>
      <use xlink:href="#DejaVuSans-6d" x="1471.683594"/>
      <use xlink:href="#DejaVuSans-6f" x="1569.095703"/>
      <use xlink:href="#DejaVuSans-73" x="1630.277344"/>
      <use xlink:href="#DejaVuSans-5f" x="1682.376953"/>
      <use xlink:href="#DejaVuSans-73" x="1732.376953"/>
      <use xlink:href="#DejaVuSans-73" x="1784.476562"/>
     </g>
    </g>
    <g id="line2d_35">
     <path d="M 419.18605 45.210938 
L 429.18605 45.210938 
L 439.18605 45.210938 
" style="fill: none; stroke: #2ca02c; stroke-width: 1.5; stroke-linecap: square"/>
    </g>
    <g id="text_20">
     <!-- temperature = 27, corner = mos_ss -->
     <g transform="translate(447.18605 48.710938) scale(0.1 -0.1)">
      <use xlink:href="#DejaVuSans-74"/>
      <use xlink:href="#DejaVuSans-65" x="39.208984"/>
      <use xlink:href="#DejaVuSans-6d" x="100.732422"/>
      <use xlink:href="#DejaVuSans-70" x="198.144531"/>
      <use xlink:href="#DejaVuSans-65" x="261.621094"/>
      <use xlink:href="#DejaVuSans-72" x="323.144531"/>
      <use xlink:href="#DejaVuSans-61" x="364.257812"/>
      <use xlink:href="#DejaVuSans-74" x="425.537109"/>
      <use xlink:href="#DejaVuSans-75" x="464.746094"/>
      <use xlink:href="#DejaVuSans-72" x="528.125"/>
      <use xlink:href="#DejaVuSans-65" x="566.988281"/>
      <use xlink:href="#DejaVuSans-20" x="628.511719"/>
      <use xlink:href="#DejaVuSans-3d" x="660.298828"/>
      <use xlink:href="#DejaVuSans-20" x="744.087891"/>
      <use xlink:href="#DejaVuSans-32" x="775.875"/>
      <use xlink:href="#DejaVuSans-37" x="839.498047"/>
      <use xlink:href="#DejaVuSans-2c" x="903.121094"/>
      <use xlink:href="#DejaVuSans-20" x="934.908203"/>
      <use xlink:href="#DejaVuSans-63" x="966.695312"/>
      <use xlink:href="#DejaVuSans-6f" x="1021.675781"/>
      <use xlink:href="#DejaVuSans-72" x="1082.857422"/>
      <use xlink:href="#DejaVuSans-6e" x="1122.220703"/>
      <use xlink:href="#DejaVuSans-65" x="1185.599609"/>
      <use xlink:href="#DejaVuSans-72" x="1247.123047"/>
      <use xlink:href="#DejaVuSans-20" x="1288.236328"/>
      <use xlink:href="#DejaVuSans-3d" x="1320.023438"/>
      <use xlink:href="#DejaVuSans-20" x="1403.8125"/>
      <use xlink:href="#DejaVuSans-6d" x="1435.599609"/>
      <use xlink:href="#DejaVuSans-6f" x="1533.011719"/>
      <use xlink:href="#DejaVuSans-73" x="1594.193359"/>
      <use xlink:href="#DejaVuSans-5f" x="1646.292969"/>
      <use xlink:href="#DejaVuSans-73" x="1696.292969"/>
      <use xlink:href="#DejaVuSans-73" x="1748.392578"/>
     </g>
    </g>
    <g id="line2d_36">
     <path d="M 419.18605 60.167188 
L 429.18605 60.167188 
L 439.18605 60.167188 
" style="fill: none; stroke: #d62728; stroke-width: 1.5; stroke-linecap: square"/>
    </g>
    <g id="text_21">
     <!-- temperature = 27, corner = mos_ss -->
     <g transform="translate(447.18605 63.667188) scale(0.1 -0.1)">
      <use xlink:href="#DejaVuSans-74"/>
      <use xlink:href="#DejaVuSans-65" x="39.208984"/>
      <use xlink:href="#DejaVuSans-6d" x="100.732422"/>
      <use xlink:href="#DejaVuSans-70" x="198.144531"/>
      <use xlink:href="#DejaVuSans-65" x="261.621094"/>
      <use xlink:href="#DejaVuSans-72" x="323.144531"/>
      <use xlink:href="#DejaVuSans-61" x="364.257812"/>
      <use xlink:href="#DejaVuSans-74" x="425.537109"/>
      <use xlink:href="#DejaVuSans-75" x="464.746094"/>
      <use xlink:href="#DejaVuSans-72" x="528.125"/>
      <use xlink:href="#DejaVuSans-65" x="566.988281"/>
      <use xlink:href="#DejaVuSans-20" x="628.511719"/>
      <use xlink:href="#DejaVuSans-3d" x="660.298828"/>
      <use xlink:href="#DejaVuSans-20" x="744.087891"/>
      <use xlink:href="#DejaVuSans-32" x="775.875"/>
      <use xlink:href="#DejaVuSans-37" x="839.498047"/>
      <use xlink:href="#DejaVuSans-2c" x="903.121094"/>
      <use xlink:href="#DejaVuSans-20" x="934.908203"/>
      <use xlink:href="#DejaVuSans-63" x="966.695312"/>
      <use xlink:href="#DejaVuSans-6f" x="1021.675781"/>
      <use xlink:href="#DejaVuSans-72" x="1082.857422"/>
      <use xlink:href="#DejaVuSans-6e" x="1122.220703"/>
      <use xlink:href="#DejaVuSans-65" x="1185.599609"/>
      <use xlink:href="#DejaVuSans-72" x="1247.123047"/>
      <use xlink:href="#DejaVuSans-20" x="1288.236328"/>
      <use xlink:href="#DejaVuSans-3d" x="1320.023438"/>
      <use xlink:href="#DejaVuSans-20" x="1403.8125"/>
      <use xlink:href="#DejaVuSans-6d" x="1435.599609"/>
      <use xlink:href="#DejaVuSans-6f" x="1533.011719"/>
      <use xlink:href="#DejaVuSans-73" x="1594.193359"/>
      <use xlink:href="#DejaVuSans-5f" x="1646.292969"/>
      <use xlink:href="#DejaVuSans-73" x="1696.292969"/>
      <use xlink:href="#DejaVuSans-73" x="1748.392578"/>
     </g>
    </g>
    <g id="line2d_37">
     <path d="M 419.18605 75.123437 
L 429.18605 75.123437 
L 439.18605 75.123437 
" style="fill: none; stroke: #9467bd; stroke-width: 1.5; stroke-linecap: square"/>
    </g>
    <g id="text_22">
     <!-- temperature = 130, corner = mos_ss -->
     <g transform="translate(447.18605 78.623437) scale(0.1 -0.1)">
      <use xlink:href="#DejaVuSans-74"/>
      <use xlink:href="#DejaVuSans-65" x="39.208984"/>
      <use xlink:href="#DejaVuSans-6d" x="100.732422"/>
      <use xlink:href="#DejaVuSans-70" x="198.144531"/>
      <use xlink:href="#DejaVuSans-65" x="261.621094"/>
      <use xlink:href="#DejaVuSans-72" x="323.144531"/>
      <use xlink:href="#DejaVuSans-61" x="364.257812"/>
      <use xlink:href="#DejaVuSans-74" x="425.537109"/>
      <use xlink:href="#DejaVuSans-75" x="464.746094"/>
      <use xlink:href="#DejaVuSans-72" x="528.125"/>
      <use xlink:href="#DejaVuSans-65" x="566.988281"/>
      <use xlink:href="#DejaVuSans-20" x="628.511719"/>
      <use xlink:href="#DejaVuSans-3d" x="660.298828"/>
      <use xlink:href="#DejaVuSans-20" x="744.087891"/>
      <use xlink:href="#DejaVuSans-31" x="775.875"/>
      <use xlink:href="#DejaVuSans-33" x="839.498047"/>
      <use xlink:href="#DejaVuSans-30" x="903.121094"/>
      <use xlink:href="#DejaVuSans-2c" x="966.744141"/>
      <use xlink:href="#DejaVuSans-20" x="998.53125"/>
      <use xlink:href="#DejaVuSans-63" x="1030.318359"/>
      <use xlink:href="#DejaVuSans-6f" x="1085.298828"/>
      <use xlink:href="#DejaVuSans-72" x="1146.480469"/>
      <use xlink:href="#DejaVuSans-6e" x="1185.84375"/>
      <use xlink:href="#DejaVuSans-65" x="1249.222656"/>
      <use xlink:href="#DejaVuSans-72" x="1310.746094"/>
      <use xlink:href="#DejaVuSans-20" x="1351.859375"/>
      <use xlink:href="#DejaVuSans-3d" x="1383.646484"/>
      <use xlink:href="#DejaVuSans-20" x="1467.435547"/>
      <use xlink:href="#DejaVuSans-6d" x="1499.222656"/>
      <use xlink:href="#DejaVuSans-6f" x="1596.634766"/>
      <use xlink:href="#DejaVuSans-73" x="1657.816406"/>
      <use xlink:href="#DejaVuSans-5f" x="1709.916016"/>
      <use xlink:href="#DejaVuSans-73" x="1759.916016"/>
      <use xlink:href="#DejaVuSans-73" x="1812.015625"/>
     </g>
    </g>
    <g id="line2d_38">
     <path d="M 419.18605 90.079687 
L 429.18605 90.079687 
L 439.18605 90.079687 
" style="fill: none; stroke: #8c564b; stroke-width: 1.5; stroke-linecap: square"/>
    </g>
    <g id="text_23">
     <!-- temperature = 130, corner = mos_ss -->
     <g transform="translate(447.18605 93.579687) scale(0.1 -0.1)">
      <use xlink:href="#DejaVuSans-74"/>
      <use xlink:href="#DejaVuSans-65" x="39.208984"/>
      <use xlink:href="#DejaVuSans-6d" x="100.732422"/>
      <use xlink:href="#DejaVuSans-70" x="198.144531"/>
      <use xlink:href="#DejaVuSans-65" x="261.621094"/>
      <use xlink:href="#DejaVuSans-72" x="323.144531"/>
      <use xlink:href="#DejaVuSans-61" x="364.257812"/>
      <use xlink:href="#DejaVuSans-74" x="425.537109"/>
      <use xlink:href="#DejaVuSans-75" x="464.746094"/>
      <use xlink:href="#DejaVuSans-72" x="528.125"/>
      <use xlink:href="#DejaVuSans-65" x="566.988281"/>
      <use xlink:href="#DejaVuSans-20" x="628.511719"/>
      <use xlink:href="#DejaVuSans-3d" x="660.298828"/>
      <use xlink:href="#DejaVuSans-20" x="744.087891"/>
      <use xlink:href="#DejaVuSans-31" x="775.875"/>
      <use xlink:href="#DejaVuSans-33" x="839.498047"/>
      <use xlink:href="#DejaVuSans-30" x="903.121094"/>
      <use xlink:href="#DejaVuSans-2c" x="966.744141"/>
      <use xlink:href="#DejaVuSans-20" x="998.53125"/>
      <use xlink:href="#DejaVuSans-63" x="1030.318359"/>
      <use xlink:href="#DejaVuSans-6f" x="1085.298828"/>
      <use xlink:href="#DejaVuSans-72" x="1146.480469"/>
      <use xlink:href="#DejaVuSans-6e" x="1185.84375"/>
      <use xlink:href="#DejaVuSans-65" x="1249.222656"/>
      <use xlink:href="#DejaVuSans-72" x="1310.746094"/>
      <use xlink:href="#DejaVuSans-20" x="1351.859375"/>
      <use xlink:href="#DejaVuSans-3d" x="1383.646484"/>
      <use xlink:href="#DejaVuSans-20" x="1467.435547"/>
      <use xlink:href="#DejaVuSans-6d" x="1499.222656"/>
      <use xlink:href="#DejaVuSans-6f" x="1596.634766"/>
      <use xlink:href="#DejaVuSans-73" x="1657.816406"/>
      <use xlink:href="#DejaVuSans-5f" x="1709.916016"/>
      <use xlink:href="#DejaVuSans-73" x="1759.916016"/>
      <use xlink:href="#DejaVuSans-73" x="1812.015625"/>
     </g>
    </g>
    <g id="line2d_39">
     <path d="M 419.18605 105.035937 
L 429.18605 105.035937 
L 439.18605 105.035937 
" style="fill: none; stroke: #e377c2; stroke-width: 1.5; stroke-linecap: square"/>
    </g>
    <g id="text_24">
     <!-- temperature = -40, corner = mos_tt -->
     <g transform="translate(447.18605 108.535937) scale(0.1 -0.1)">
      <use xlink:href="#DejaVuSans-74"/>
      <use xlink:href="#DejaVuSans-65" x="39.208984"/>
      <use xlink:href="#DejaVuSans-6d" x="100.732422"/>
      <use xlink:href="#DejaVuSans-70" x="198.144531"/>
      <use xlink:href="#DejaVuSans-65" x="261.621094"/>
      <use xlink:href="#DejaVuSans-72" x="323.144531"/>
      <use xlink:href="#DejaVuSans-61" x="364.257812"/>
      <use xlink:href="#DejaVuSans-74" x="425.537109"/>
      <use xlink:href="#DejaVuSans-75" x="464.746094"/>
      <use xlink:href="#DejaVuSans-72" x="528.125"/>
      <use xlink:href="#DejaVuSans-65" x="566.988281"/>
      <use xlink:href="#DejaVuSans-20" x="628.511719"/>
      <use xlink:href="#DejaVuSans-3d" x="660.298828"/>
      <use xlink:href="#DejaVuSans-20" x="744.087891"/>
      <use xlink:href="#DejaVuSans-2d" x="775.875"/>
      <use xlink:href="#DejaVuSans-34" x="811.958984"/>
      <use xlink:href="#DejaVuSans-30" x="875.582031"/>
      <use xlink:href="#DejaVuSans-2c" x="939.205078"/>
      <use xlink:href="#DejaVuSans-20" x="970.992188"/>
      <use xlink:href="#DejaVuSans-63" x="1002.779297"/>
      <use xlink:href="#DejaVuSans-6f" x="1057.759766"/>
      <use xlink:href="#DejaVuSans-72" x="1118.941406"/>
      <use xlink:href="#DejaVuSans-6e" x="1158.304688"/>
      <use xlink:href="#DejaVuSans-65" x="1221.683594"/>
      <use xlink:href="#DejaVuSans-72" x="1283.207031"/>
      <use xlink:href="#DejaVuSans-20" x="1324.320312"/>
      <use xlink:href="#DejaVuSans-3d" x="1356.107422"/>
      <use xlink:href="#DejaVuSans-20" x="1439.896484"/>
      <use xlink:href="#DejaVuSans-6d" x="1471.683594"/>
      <use xlink:href="#DejaVuSans-6f" x="1569.095703"/>
      <use xlink:href="#DejaVuSans-73" x="1630.277344"/>
      <use xlink:href="#DejaVuSans-5f" x="1682.376953"/>
      <use xlink:href="#DejaVuSans-74" x="1732.376953"/>
      <use xlink:href="#DejaVuSans-74" x="1771.585938"/>
     </g>
    </g>
    <g id="line2d_40">
     <path d="M 419.18605 119.992188 
L 429.18605 119.992188 
L 439.18605 119.992188 
" style="fill: none; stroke: #7f7f7f; stroke-width: 1.5; stroke-linecap: square"/>
    </g>
    <g id="text_25">
     <!-- temperature = -40, corner = mos_tt -->
     <g transform="translate(447.18605 123.492188) scale(0.1 -0.1)">
      <use xlink:href="#DejaVuSans-74"/>
      <use xlink:href="#DejaVuSans-65" x="39.208984"/>
      <use xlink:href="#DejaVuSans-6d" x="100.732422"/>
      <use xlink:href="#DejaVuSans-70" x="198.144531"/>
      <use xlink:href="#DejaVuSans-65" x="261.621094"/>
      <use xlink:href="#DejaVuSans-72" x="323.144531"/>
      <use xlink:href="#DejaVuSans-61" x="364.257812"/>
      <use xlink:href="#DejaVuSans-74" x="425.537109"/>
      <use xlink:href="#DejaVuSans-75" x="464.746094"/>
      <use xlink:href="#DejaVuSans-72" x="528.125"/>
      <use xlink:href="#DejaVuSans-65" x="566.988281"/>
      <use xlink:href="#DejaVuSans-20" x="628.511719"/>
      <use xlink:href="#DejaVuSans-3d" x="660.298828"/>
      <use xlink:href="#DejaVuSans-20" x="744.087891"/>
      <use xlink:href="#DejaVuSans-2d" x="775.875"/>
      <use xlink:href="#DejaVuSans-34" x="811.958984"/>
      <use xlink:href="#DejaVuSans-30" x="875.582031"/>
      <use xlink:href="#DejaVuSans-2c" x="939.205078"/>
      <use xlink:href="#DejaVuSans-20" x="970.992188"/>
      <use xlink:href="#DejaVuSans-63" x="1002.779297"/>
      <use xlink:href="#DejaVuSans-6f" x="1057.759766"/>
      <use xlink:href="#DejaVuSans-72" x="1118.941406"/>
      <use xlink:href="#DejaVuSans-6e" x="1158.304688"/>
      <use xlink:href="#DejaVuSans-65" x="1221.683594"/>
      <use xlink:href="#DejaVuSans-72" x="1283.207031"/>
      <use xlink:href="#DejaVuSans-20" x="1324.320312"/>
      <use xlink:href="#DejaVuSans-3d" x="1356.107422"/>
      <use xlink:href="#DejaVuSans-20" x="1439.896484"/>
      <use xlink:href="#DejaVuSans-6d" x="1471.683594"/>
      <use xlink:href="#DejaVuSans-6f" x="1569.095703"/>
      <use xlink:href="#DejaVuSans-73" x="1630.277344"/>
      <use xlink:href="#DejaVuSans-5f" x="1682.376953"/>
      <use xlink:href="#DejaVuSans-74" x="1732.376953"/>
      <use xlink:href="#DejaVuSans-74" x="1771.585938"/>
     </g>
    </g>
    <g id="line2d_41">
     <path d="M 419.18605 134.948437 
L 429.18605 134.948437 
L 439.18605 134.948437 
" style="fill: none; stroke: #bcbd22; stroke-width: 1.5; stroke-linecap: square"/>
    </g>
    <g id="text_26">
     <!-- temperature = 27, corner = mos_tt -->
     <g transform="translate(447.18605 138.448437) scale(0.1 -0.1)">
      <use xlink:href="#DejaVuSans-74"/>
      <use xlink:href="#DejaVuSans-65" x="39.208984"/>
      <use xlink:href="#DejaVuSans-6d" x="100.732422"/>
      <use xlink:href="#DejaVuSans-70" x="198.144531"/>
      <use xlink:href="#DejaVuSans-65" x="261.621094"/>
      <use xlink:href="#DejaVuSans-72" x="323.144531"/>
      <use xlink:href="#DejaVuSans-61" x="364.257812"/>
      <use xlink:href="#DejaVuSans-74" x="425.537109"/>
      <use xlink:href="#DejaVuSans-75" x="464.746094"/>
      <use xlink:href="#DejaVuSans-72" x="528.125"/>
      <use xlink:href="#DejaVuSans-65" x="566.988281"/>
      <use xlink:href="#DejaVuSans-20" x="628.511719"/>
      <use xlink:href="#DejaVuSans-3d" x="660.298828"/>
      <use xlink:href="#DejaVuSans-20" x="744.087891"/>
      <use xlink:href="#DejaVuSans-32" x="775.875"/>
      <use xlink:href="#DejaVuSans-37" x="839.498047"/>
      <use xlink:href="#DejaVuSans-2c" x="903.121094"/>
      <use xlink:href="#DejaVuSans-20" x="934.908203"/>
      <use xlink:href="#DejaVuSans-63" x="966.695312"/>
      <use xlink:href="#DejaVuSans-6f" x="1021.675781"/>
      <use xlink:href="#DejaVuSans-72" x="1082.857422"/>
      <use xlink:href="#DejaVuSans-6e" x="1122.220703"/>
      <use xlink:href="#DejaVuSans-65" x="1185.599609"/>
      <use xlink:href="#DejaVuSans-72" x="1247.123047"/>
      <use xlink:href="#DejaVuSans-20" x="1288.236328"/>
      <use xlink:href="#DejaVuSans-3d" x="1320.023438"/>
      <use xlink:href="#DejaVuSans-20" x="1403.8125"/>
      <use xlink:href="#DejaVuSans-6d" x="1435.599609"/>
      <use xlink:href="#DejaVuSans-6f" x="1533.011719"/>
      <use xlink:href="#DejaVuSans-73" x="1594.193359"/>
      <use xlink:href="#DejaVuSans-5f" x="1646.292969"/>
      <use xlink:href="#DejaVuSans-74" x="1696.292969"/>
      <use xlink:href="#DejaVuSans-74" x="1735.501953"/>
     </g>
    </g>
    <g id="line2d_42">
     <path d="M 419.18605 149.904687 
L 429.18605 149.904687 
L 439.18605 149.904687 
" style="fill: none; stroke: #17becf; stroke-width: 1.5; stroke-linecap: square"/>
    </g>
    <g id="text_27">
     <!-- temperature = 27, corner = mos_tt -->
     <g transform="translate(447.18605 153.404687) scale(0.1 -0.1)">
      <use xlink:href="#DejaVuSans-74"/>
      <use xlink:href="#DejaVuSans-65" x="39.208984"/>
      <use xlink:href="#DejaVuSans-6d" x="100.732422"/>
      <use xlink:href="#DejaVuSans-70" x="198.144531"/>
      <use xlink:href="#DejaVuSans-65" x="261.621094"/>
      <use xlink:href="#DejaVuSans-72" x="323.144531"/>
      <use xlink:href="#DejaVuSans-61" x="364.257812"/>
      <use xlink:href="#DejaVuSans-74" x="425.537109"/>
      <use xlink:href="#DejaVuSans-75" x="464.746094"/>
      <use xlink:href="#DejaVuSans-72" x="528.125"/>
      <use xlink:href="#DejaVuSans-65" x="566.988281"/>
      <use xlink:href="#DejaVuSans-20" x="628.511719"/>
      <use xlink:href="#DejaVuSans-3d" x="660.298828"/>
      <use xlink:href="#DejaVuSans-20" x="744.087891"/>
      <use xlink:href="#DejaVuSans-32" x="775.875"/>
      <use xlink:href="#DejaVuSans-37" x="839.498047"/>
      <use xlink:href="#DejaVuSans-2c" x="903.121094"/>
      <use xlink:href="#DejaVuSans-20" x="934.908203"/>
      <use xlink:href="#DejaVuSans-63" x="966.695312"/>
      <use xlink:href="#DejaVuSans-6f" x="1021.675781"/>
      <use xlink:href="#DejaVuSans-72" x="1082.857422"/>
      <use xlink:href="#DejaVuSans-6e" x="1122.220703"/>
      <use xlink:href="#DejaVuSans-65" x="1185.599609"/>
      <use xlink:href="#DejaVuSans-72" x="1247.123047"/>
      <use xlink:href="#DejaVuSans-20" x="1288.236328"/>
      <use xlink:href="#DejaVuSans-3d" x="1320.023438"/>
      <use xlink:href="#DejaVuSans-20" x="1403.8125"/>
      <use xlink:href="#DejaVuSans-6d" x="1435.599609"/>
      <use xlink:href="#DejaVuSans-6f" x="1533.011719"/>
      <use xlink:href="#DejaVuSans-73" x="1594.193359"/>
      <use xlink:href="#DejaVuSans-5f" x="1646.292969"/>
      <use xlink:href="#DejaVuSans-74" x="1696.292969"/>
      <use xlink:href="#DejaVuSans-74" x="1735.501953"/>
     </g>
    </g>
    <g id="line2d_43">
     <path d="M 419.18605 164.860937 
L 429.18605 164.860937 
L 439.18605 164.860937 
" style="fill: none; stroke: #1f77b4; stroke-width: 1.5; stroke-linecap: square"/>
    </g>
    <g id="text_28">
     <!-- temperature = 130, corner = mos_tt -->
     <g transform="translate(447.18605 168.360937) scale(0.1 -0.1)">
      <use xlink:href="#DejaVuSans-74"/>
      <use xlink:href="#DejaVuSans-65" x="39.208984"/>
      <use xlink:href="#DejaVuSans-6d" x="100.732422"/>
      <use xlink:href="#DejaVuSans-70" x="198.144531"/>
      <use xlink:href="#DejaVuSans-65" x="261.621094"/>
      <use xlink:href="#DejaVuSans-72" x="323.144531"/>
      <use xlink:href="#DejaVuSans-61" x="364.257812"/>
      <use xlink:href="#DejaVuSans-74" x="425.537109"/>
      <use xlink:href="#DejaVuSans-75" x="464.746094"/>
      <use xlink:href="#DejaVuSans-72" x="528.125"/>
      <use xlink:href="#DejaVuSans-65" x="566.988281"/>
      <use xlink:href="#DejaVuSans-20" x="628.511719"/>
      <use xlink:href="#DejaVuSans-3d" x="660.298828"/>
      <use xlink:href="#DejaVuSans-20" x="744.087891"/>
      <use xlink:href="#DejaVuSans-31" x="775.875"/>
      <use xlink:href="#DejaVuSans-33" x="839.498047"/>
      <use xlink:href="#DejaVuSans-30" x="903.121094"/>
      <use xlink:href="#DejaVuSans-2c" x="966.744141"/>
      <use xlink:href="#DejaVuSans-20" x="998.53125"/>
      <use xlink:href="#DejaVuSans-63" x="1030.318359"/>
      <use xlink:href="#DejaVuSans-6f" x="1085.298828"/>
      <use xlink:href="#DejaVuSans-72" x="1146.480469"/>
      <use xlink:href="#DejaVuSans-6e" x="1185.84375"/>
      <use xlink:href="#DejaVuSans-65" x="1249.222656"/>
      <use xlink:href="#DejaVuSans-72" x="1310.746094"/>
      <use xlink:href="#DejaVuSans-20" x="1351.859375"/>
      <use xlink:href="#DejaVuSans-3d" x="1383.646484"/>
      <use xlink:href="#DejaVuSans-20" x="1467.435547"/>
      <use xlink:href="#DejaVuSans-6d" x="1499.222656"/>
      <use xlink:href="#DejaVuSans-6f" x="1596.634766"/>
      <use xlink:href="#DejaVuSans-73" x="1657.816406"/>
      <use xlink:href="#DejaVuSans-5f" x="1709.916016"/>
      <use xlink:href="#DejaVuSans-74" x="1759.916016"/>
      <use xlink:href="#DejaVuSans-74" x="1799.125"/>
     </g>
    </g>
    <g id="line2d_44">
     <path d="M 419.18605 179.817187 
L 429.18605 179.817187 
L 439.18605 179.817187 
" style="fill: none; stroke: #ff7f0e; stroke-width: 1.5; stroke-linecap: square"/>
    </g>
    <g id="text_29">
     <!-- temperature = 130, corner = mos_tt -->
     <g transform="translate(447.18605 183.317187) scale(0.1 -0.1)">
      <use xlink:href="#DejaVuSans-74"/>
      <use xlink:href="#DejaVuSans-65" x="39.208984"/>
      <use xlink:href="#DejaVuSans-6d" x="100.732422"/>
      <use xlink:href="#DejaVuSans-70" x="198.144531"/>
      <use xlink:href="#DejaVuSans-65" x="261.621094"/>
      <use xlink:href="#DejaVuSans-72" x="323.144531"/>
      <use xlink:href="#DejaVuSans-61" x="364.257812"/>
      <use xlink:href="#DejaVuSans-74" x="425.537109"/>
      <use xlink:href="#DejaVuSans-75" x="464.746094"/>
      <use xlink:href="#DejaVuSans-72" x="528.125"/>
      <use xlink:href="#DejaVuSans-65" x="566.988281"/>
      <use xlink:href="#DejaVuSans-20" x="628.511719"/>
      <use xlink:href="#DejaVuSans-3d" x="660.298828"/>
      <use xlink:href="#DejaVuSans-20" x="744.087891"/>
      <use xlink:href="#DejaVuSans-31" x="775.875"/>
      <use xlink:href="#DejaVuSans-33" x="839.498047"/>
      <use xlink:href="#DejaVuSans-30" x="903.121094"/>
      <use xlink:href="#DejaVuSans-2c" x="966.744141"/>
      <use xlink:href="#DejaVuSans-20" x="998.53125"/>
      <use xlink:href="#DejaVuSans-63" x="1030.318359"/>
      <use xlink:href="#DejaVuSans-6f" x="1085.298828"/>
      <use xlink:href="#DejaVuSans-72" x="1146.480469"/>
      <use xlink:href="#DejaVuSans-6e" x="1185.84375"/>
      <use xlink:href="#DejaVuSans-65" x="1249.222656"/>
      <use xlink:href="#DejaVuSans-72" x="1310.746094"/>
      <use xlink:href="#DejaVuSans-20" x="1351.859375"/>
      <use xlink:href="#DejaVuSans-3d" x="1383.646484"/>
      <use xlink:href="#DejaVuSans-20" x="1467.435547"/>
      <use xlink:href="#DejaVuSans-6d" x="1499.222656"/>
      <use xlink:href="#DejaVuSans-6f" x="1596.634766"/>
      <use xlink:href="#DejaVuSans-73" x="1657.816406"/>
      <use xlink:href="#DejaVuSans-5f" x="1709.916016"/>
      <use xlink:href="#DejaVuSans-74" x="1759.916016"/>
      <use xlink:href="#DejaVuSans-74" x="1799.125"/>
     </g>
    </g>
    <g id="line2d_45">
     <path d="M 419.18605 194.773438 
L 429.18605 194.773438 
L 439.18605 194.773438 
" style="fill: none; stroke: #2ca02c; stroke-width: 1.5; stroke-linecap: square"/>
    </g>
    <g id="text_30">
     <!-- temperature = -40, corner = mos_ff -->
     <g transform="translate(447.18605 198.273438) scale(0.1 -0.1)">
      <defs>
       <path id="DejaVuSans-66" d="M 2375 4863 
L 2375 4384 
L 1825 4384 
Q 1516 4384 1395 4259 
Q 1275 4134 1275 3809 
L 1275 3500 
L 2222 3500 
L 2222 3053 
L 1275 3053 
L 1275 0 
L 697 0 
L 697 3053 
L 147 3053 
L 147 3500 
L 697 3500 
L 697 3744 
Q 697 4328 969 4595 
Q 1241 4863 1831 4863 
L 2375 4863 
z
" transform="scale(0.015625)"/>
      </defs>
      <use xlink:href="#DejaVuSans-74"/>
      <use xlink:href="#DejaVuSans-65" x="39.208984"/>
      <use xlink:href="#DejaVuSans-6d" x="100.732422"/>
      <use xlink:href="#DejaVuSans-70" x="198.144531"/>
      <use xlink:href="#DejaVuSans-65" x="261.621094"/>
      <use xlink:href="#DejaVuSans-72" x="323.144531"/>
      <use xlink:href="#DejaVuSans-61" x="364.257812"/>
      <use xlink:href="#DejaVuSans-74" x="425.537109"/>
      <use xlink:href="#DejaVuSans-75" x="464.746094"/>
      <use xlink:href="#DejaVuSans-72" x="528.125"/>
      <use xlink:href="#DejaVuSans-65" x="566.988281"/>
      <use xlink:href="#DejaVuSans-20" x="628.511719"/>
      <use xlink:href="#DejaVuSans-3d" x="660.298828"/>
      <use xlink:href="#DejaVuSans-20" x="744.087891"/>
      <use xlink:href="#DejaVuSans-2d" x="775.875"/>
      <use xlink:href="#DejaVuSans-34" x="811.958984"/>
      <use xlink:href="#DejaVuSans-30" x="875.582031"/>
      <use xlink:href="#DejaVuSans-2c" x="939.205078"/>
      <use xlink:href="#DejaVuSans-20" x="970.992188"/>
      <use xlink:href="#DejaVuSans-63" x="1002.779297"/>
      <use xlink:href="#DejaVuSans-6f" x="1057.759766"/>
      <use xlink:href="#DejaVuSans-72" x="1118.941406"/>
      <use xlink:href="#DejaVuSans-6e" x="1158.304688"/>
      <use xlink:href="#DejaVuSans-65" x="1221.683594"/>
      <use xlink:href="#DejaVuSans-72" x="1283.207031"/>
      <use xlink:href="#DejaVuSans-20" x="1324.320312"/>
      <use xlink:href="#DejaVuSans-3d" x="1356.107422"/>
      <use xlink:href="#DejaVuSans-20" x="1439.896484"/>
      <use xlink:href="#DejaVuSans-6d" x="1471.683594"/>
      <use xlink:href="#DejaVuSans-6f" x="1569.095703"/>
      <use xlink:href="#DejaVuSans-73" x="1630.277344"/>
      <use xlink:href="#DejaVuSans-5f" x="1682.376953"/>
      <use xlink:href="#DejaVuSans-66" x="1732.376953"/>
      <use xlink:href="#DejaVuSans-66" x="1767.582031"/>
     </g>
    </g>
    <g id="line2d_46">
     <path d="M 419.18605 209.729688 
L 429.18605 209.729688 
L 439.18605 209.729688 
" style="fill: none; stroke: #d62728; stroke-width: 1.5; stroke-linecap: square"/>
    </g>
    <g id="text_31">
     <!-- temperature = -40, corner = mos_ff -->
     <g transform="translate(447.18605 213.229688) scale(0.1 -0.1)">
      <use xlink:href="#DejaVuSans-74"/>
      <use xlink:href="#DejaVuSans-65" x="39.208984"/>
      <use xlink:href="#DejaVuSans-6d" x="100.732422"/>
      <use xlink:href="#DejaVuSans-70" x="198.144531"/>
      <use xlink:href="#DejaVuSans-65" x="261.621094"/>
      <use xlink:href="#DejaVuSans-72" x="323.144531"/>
      <use xlink:href="#DejaVuSans-61" x="364.257812"/>
      <use xlink:href="#DejaVuSans-74" x="425.537109"/>
      <use xlink:href="#DejaVuSans-75" x="464.746094"/>
      <use xlink:href="#DejaVuSans-72" x="528.125"/>
      <use xlink:href="#DejaVuSans-65" x="566.988281"/>
      <use xlink:href="#DejaVuSans-20" x="628.511719"/>
      <use xlink:href="#DejaVuSans-3d" x="660.298828"/>
      <use xlink:href="#DejaVuSans-20" x="744.087891"/>
      <use xlink:href="#DejaVuSans-2d" x="775.875"/>
      <use xlink:href="#DejaVuSans-34" x="811.958984"/>
      <use xlink:href="#DejaVuSans-30" x="875.582031"/>
      <use xlink:href="#DejaVuSans-2c" x="939.205078"/>
      <use xlink:href="#DejaVuSans-20" x="970.992188"/>
      <use xlink:href="#DejaVuSans-63" x="1002.779297"/>
      <use xlink:href="#DejaVuSans-6f" x="1057.759766"/>
      <use xlink:href="#DejaVuSans-72" x="1118.941406"/>
      <use xlink:href="#DejaVuSans-6e" x="1158.304688"/>
      <use xlink:href="#DejaVuSans-65" x="1221.683594"/>
      <use xlink:href="#DejaVuSans-72" x="1283.207031"/>
      <use xlink:href="#DejaVuSans-20" x="1324.320312"/>
      <use xlink:href="#DejaVuSans-3d" x="1356.107422"/>
      <use xlink:href="#DejaVuSans-20" x="1439.896484"/>
      <use xlink:href="#DejaVuSans-6d" x="1471.683594"/>
      <use xlink:href="#DejaVuSans-6f" x="1569.095703"/>
      <use xlink:href="#DejaVuSans-73" x="1630.277344"/>
      <use xlink:href="#DejaVuSans-5f" x="1682.376953"/>
      <use xlink:href="#DejaVuSans-66" x="1732.376953"/>
      <use xlink:href="#DejaVuSans-66" x="1767.582031"/>
     </g>
    </g>
    <g id="line2d_47">
     <path d="M 419.18605 224.685938 
L 429.18605 224.685938 
L 439.18605 224.685938 
" style="fill: none; stroke: #9467bd; stroke-width: 1.5; stroke-linecap: square"/>
    </g>
    <g id="text_32">
     <!-- temperature = 27, corner = mos_ff -->
     <g transform="translate(447.18605 228.185938) scale(0.1 -0.1)">
      <use xlink:href="#DejaVuSans-74"/>
      <use xlink:href="#DejaVuSans-65" x="39.208984"/>
      <use xlink:href="#DejaVuSans-6d" x="100.732422"/>
      <use xlink:href="#DejaVuSans-70" x="198.144531"/>
      <use xlink:href="#DejaVuSans-65" x="261.621094"/>
      <use xlink:href="#DejaVuSans-72" x="323.144531"/>
      <use xlink:href="#DejaVuSans-61" x="364.257812"/>
      <use xlink:href="#DejaVuSans-74" x="425.537109"/>
      <use xlink:href="#DejaVuSans-75" x="464.746094"/>
      <use xlink:href="#DejaVuSans-72" x="528.125"/>
      <use xlink:href="#DejaVuSans-65" x="566.988281"/>
      <use xlink:href="#DejaVuSans-20" x="628.511719"/>
      <use xlink:href="#DejaVuSans-3d" x="660.298828"/>
      <use xlink:href="#DejaVuSans-20" x="744.087891"/>
      <use xlink:href="#DejaVuSans-32" x="775.875"/>
      <use xlink:href="#DejaVuSans-37" x="839.498047"/>
      <use xlink:href="#DejaVuSans-2c" x="903.121094"/>
      <use xlink:href="#DejaVuSans-20" x="934.908203"/>
      <use xlink:href="#DejaVuSans-63" x="966.695312"/>
      <use xlink:href="#DejaVuSans-6f" x="1021.675781"/>
      <use xlink:href="#DejaVuSans-72" x="1082.857422"/>
      <use xlink:href="#DejaVuSans-6e" x="1122.220703"/>
      <use xlink:href="#DejaVuSans-65" x="1185.599609"/>
      <use xlink:href="#DejaVuSans-72" x="1247.123047"/>
      <use xlink:href="#DejaVuSans-20" x="1288.236328"/>
      <use xlink:href="#DejaVuSans-3d" x="1320.023438"/>
      <use xlink:href="#DejaVuSans-20" x="1403.8125"/>
      <use xlink:href="#DejaVuSans-6d" x="1435.599609"/>
      <use xlink:href="#DejaVuSans-6f" x="1533.011719"/>
      <use xlink:href="#DejaVuSans-73" x="1594.193359"/>
      <use xlink:href="#DejaVuSans-5f" x="1646.292969"/>
      <use xlink:href="#DejaVuSans-66" x="1696.292969"/>
      <use xlink:href="#DejaVuSans-66" x="1731.498047"/>
     </g>
    </g>
    <g id="line2d_48">
     <path d="M 419.18605 239.642188 
L 429.18605 239.642188 
L 439.18605 239.642188 
" style="fill: none; stroke: #8c564b; stroke-width: 1.5; stroke-linecap: square"/>
    </g>
    <g id="text_33">
     <!-- temperature = 27, corner = mos_ff -->
     <g transform="translate(447.18605 243.142188) scale(0.1 -0.1)">
      <use xlink:href="#DejaVuSans-74"/>
      <use xlink:href="#DejaVuSans-65" x="39.208984"/>
      <use xlink:href="#DejaVuSans-6d" x="100.732422"/>
      <use xlink:href="#DejaVuSans-70" x="198.144531"/>
      <use xlink:href="#DejaVuSans-65" x="261.621094"/>
      <use xlink:href="#DejaVuSans-72" x="323.144531"/>
      <use xlink:href="#DejaVuSans-61" x="364.257812"/>
      <use xlink:href="#DejaVuSans-74" x="425.537109"/>
      <use xlink:href="#DejaVuSans-75" x="464.746094"/>
      <use xlink:href="#DejaVuSans-72" x="528.125"/>
      <use xlink:href="#DejaVuSans-65" x="566.988281"/>
      <use xlink:href="#DejaVuSans-20" x="628.511719"/>
      <use xlink:href="#DejaVuSans-3d" x="660.298828"/>
      <use xlink:href="#DejaVuSans-20" x="744.087891"/>
      <use xlink:href="#DejaVuSans-32" x="775.875"/>
      <use xlink:href="#DejaVuSans-37" x="839.498047"/>
      <use xlink:href="#DejaVuSans-2c" x="903.121094"/>
      <use xlink:href="#DejaVuSans-20" x="934.908203"/>
      <use xlink:href="#DejaVuSans-63" x="966.695312"/>
      <use xlink:href="#DejaVuSans-6f" x="1021.675781"/>
      <use xlink:href="#DejaVuSans-72" x="1082.857422"/>
      <use xlink:href="#DejaVuSans-6e" x="1122.220703"/>
      <use xlink:href="#DejaVuSans-65" x="1185.599609"/>
      <use xlink:href="#DejaVuSans-72" x="1247.123047"/>
      <use xlink:href="#DejaVuSans-20" x="1288.236328"/>
      <use xlink:href="#DejaVuSans-3d" x="1320.023438"/>
      <use xlink:href="#DejaVuSans-20" x="1403.8125"/>
      <use xlink:href="#DejaVuSans-6d" x="1435.599609"/>
      <use xlink:href="#DejaVuSans-6f" x="1533.011719"/>
      <use xlink:href="#DejaVuSans-73" x="1594.193359"/>
      <use xlink:href="#DejaVuSans-5f" x="1646.292969"/>
      <use xlink:href="#DejaVuSans-66" x="1696.292969"/>
      <use xlink:href="#DejaVuSans-66" x="1731.498047"/>
     </g>
    </g>
    <g id="line2d_49">
     <path d="M 419.18605 254.598438 
L 429.18605 254.598438 
L 439.18605 254.598438 
" style="fill: none; stroke: #e377c2; stroke-width: 1.5; stroke-linecap: square"/>
    </g>
    <g id="text_34">
     <!-- temperature = 130, corner = mos_ff -->
     <g transform="translate(447.18605 258.098438) scale(0.1 -0.1)">
      <use xlink:href="#DejaVuSans-74"/>
      <use xlink:href="#DejaVuSans-65" x="39.208984"/>
      <use xlink:href="#DejaVuSans-6d" x="100.732422"/>
      <use xlink:href="#DejaVuSans-70" x="198.144531"/>
      <use xlink:href="#DejaVuSans-65" x="261.621094"/>
      <use xlink:href="#DejaVuSans-72" x="323.144531"/>
      <use xlink:href="#DejaVuSans-61" x="364.257812"/>
      <use xlink:href="#DejaVuSans-74" x="425.537109"/>
      <use xlink:href="#DejaVuSans-75" x="464.746094"/>
      <use xlink:href="#DejaVuSans-72" x="528.125"/>
      <use xlink:href="#DejaVuSans-65" x="566.988281"/>
      <use xlink:href="#DejaVuSans-20" x="628.511719"/>
      <use xlink:href="#DejaVuSans-3d" x="660.298828"/>
      <use xlink:href="#DejaVuSans-20" x="744.087891"/>
      <use xlink:href="#DejaVuSans-31" x="775.875"/>
      <use xlink:href="#DejaVuSans-33" x="839.498047"/>
      <use xlink:href="#DejaVuSans-30" x="903.121094"/>
      <use xlink:href="#DejaVuSans-2c" x="966.744141"/>
      <use xlink:href="#DejaVuSans-20" x="998.53125"/>
      <use xlink:href="#DejaVuSans-63" x="1030.318359"/>
      <use xlink:href="#DejaVuSans-6f" x="1085.298828"/>
      <use xlink:href="#DejaVuSans-72" x="1146.480469"/>
      <use xlink:href="#DejaVuSans-6e" x="1185.84375"/>
      <use xlink:href="#DejaVuSans-65" x="1249.222656"/>
      <use xlink:href="#DejaVuSans-72" x="1310.746094"/>
      <use xlink:href="#DejaVuSans-20" x="1351.859375"/>
      <use xlink:href="#DejaVuSans-3d" x="1383.646484"/>
      <use xlink:href="#DejaVuSans-20" x="1467.435547"/>
      <use xlink:href="#DejaVuSans-6d" x="1499.222656"/>
      <use xlink:href="#DejaVuSans-6f" x="1596.634766"/>
      <use xlink:href="#DejaVuSans-73" x="1657.816406"/>
      <use xlink:href="#DejaVuSans-5f" x="1709.916016"/>
      <use xlink:href="#DejaVuSans-66" x="1759.916016"/>
      <use xlink:href="#DejaVuSans-66" x="1795.121094"/>
     </g>
    </g>
    <g id="line2d_50">
     <path d="M 419.18605 269.554688 
L 429.18605 269.554688 
L 439.18605 269.554688 
" style="fill: none; stroke: #7f7f7f; stroke-width: 1.5; stroke-linecap: square"/>
    </g>
    <g id="text_35">
     <!-- temperature = 130, corner = mos_ff -->
     <g transform="translate(447.18605 273.054688) scale(0.1 -0.1)">
      <use xlink:href="#DejaVuSans-74"/>
      <use xlink:href="#DejaVuSans-65" x="39.208984"/>
      <use xlink:href="#DejaVuSans-6d" x="100.732422"/>
      <use xlink:href="#DejaVuSans-70" x="198.144531"/>
      <use xlink:href="#DejaVuSans-65" x="261.621094"/>
      <use xlink:href="#DejaVuSans-72" x="323.144531"/>
      <use xlink:href="#DejaVuSans-61" x="364.257812"/>
      <use xlink:href="#DejaVuSans-74" x="425.537109"/>
      <use xlink:href="#DejaVuSans-75" x="464.746094"/>
      <use xlink:href="#DejaVuSans-72" x="528.125"/>
      <use xlink:href="#DejaVuSans-65" x="566.988281"/>
      <use xlink:href="#DejaVuSans-20" x="628.511719"/>
      <use xlink:href="#DejaVuSans-3d" x="660.298828"/>
      <use xlink:href="#DejaVuSans-20" x="744.087891"/>
      <use xlink:href="#DejaVuSans-31" x="775.875"/>
      <use xlink:href="#DejaVuSans-33" x="839.498047"/>
      <use xlink:href="#DejaVuSans-30" x="903.121094"/>
      <use xlink:href="#DejaVuSans-2c" x="966.744141"/>
      <use xlink:href="#DejaVuSans-20" x="998.53125"/>
      <use xlink:href="#DejaVuSans-63" x="1030.318359"/>
      <use xlink:href="#DejaVuSans-6f" x="1085.298828"/>
      <use xlink:href="#DejaVuSans-72" x="1146.480469"/>
      <use xlink:href="#DejaVuSans-6e" x="1185.84375"/>
      <use xlink:href="#DejaVuSans-65" x="1249.222656"/>
      <use xlink:href="#DejaVuSans-72" x="1310.746094"/>
      <use xlink:href="#DejaVuSans-20" x="1351.859375"/>
      <use xlink:href="#DejaVuSans-3d" x="1383.646484"/>
      <use xlink:href="#DejaVuSans-20" x="1467.435547"/>
      <use xlink:href="#DejaVuSans-6d" x="1499.222656"/>
      <use xlink:href="#DejaVuSans-6f" x="1596.634766"/>
      <use xlink:href="#DejaVuSans-73" x="1657.816406"/>
      <use xlink:href="#DejaVuSans-5f" x="1709.916016"/>
      <use xlink:href="#DejaVuSans-66" x="1759.916016"/>
      <use xlink:href="#DejaVuSans-66" x="1795.121094"/>
     </g>
    </g>
   </g>
  </g>
 </g>
 <defs>
  <clipPath id="p5f315fd2b5">
   <rect x="43.78125" y="7.2" width="357.12" height="266.112"/>
  </clipPath>
 </defs>
</svg>
