<?xml version="1.0" encoding="utf-8" standalone="no"?>
<!DOCTYPE svg PUBLIC "-//W3C//DTD SVG 1.1//EN"
  "http://www.w3.org/Graphics/SVG/1.1/DTD/svg11.dtd">
<svg xmlns:xlink="http://www.w3.org/1999/xlink" width="644.795425pt" height="310.86825pt" viewBox="0 0 644.795425 310.86825" xmlns="http://www.w3.org/2000/svg" version="1.1">
 <metadata>
  <rdf:RDF xmlns:dc="http://purl.org/dc/elements/1.1/" xmlns:cc="http://creativecommons.org/ns#" xmlns:rdf="http://www.w3.org/1999/02/22-rdf-syntax-ns#">
   <cc:Work>
    <dc:type rdf:resource="http://purl.org/dc/dcmitype/StillImage"/>
    <dc:date>2025-06-27T20:13:58.176349</dc:date>
    <dc:format>image/svg+xml</dc:format>
    <dc:creator>
     <cc:Agent>
      <dc:title>Matplotlib v3.9.2, https://matplotlib.org/</dc:title>
     </cc:Agent>
    </dc:creator>
   </cc:Work>
  </rdf:RDF>
 </metadata>
 <defs>
  <style type="text/css">*{stroke-linejoin: round; stroke-linecap: butt}</style>
 </defs>
 <g id="figure_1">
  <g id="patch_1">
   <path d="M 0 310.86825 
L 644.795425 310.86825 
L 644.795425 0 
L 0 0 
z
" style="fill: #ffffff"/>
  </g>
  <g id="axes_1">
   <g id="patch_2">
    <path d="M 43.78125 273.312 
L 400.90125 273.312 
L 400.90125 7.2 
L 43.78125 7.2 
z
" style="fill: #ffffff"/>
   </g>
   <g id="matplotlib.axis_1">
    <g id="xtick_1">
     <g id="line2d_1">
      <defs>
       <path id="m3deb9900ad" d="M 0 0 
L 0 3.5 
" style="stroke: #000000; stroke-width: 0.8"/>
      </defs>
      <g>
       <use xlink:href="#m3deb9900ad" x="60.013977" y="273.312" style="stroke: #000000; stroke-width: 0.8"/>
      </g>
     </g>
     <g id="text_1">
      <!-- 0 -->
      <g transform="translate(56.832727 287.910437) scale(0.1 -0.1)">
       <defs>
        <path id="DejaVuSans-30" d="M 2034 4250 
Q 1547 4250 1301 3770 
Q 1056 3291 1056 2328 
Q 1056 1369 1301 889 
Q 1547 409 2034 409 
Q 2525 409 2770 889 
Q 3016 1369 3016 2328 
Q 3016 3291 2770 3770 
Q 2525 4250 2034 4250 
z
M 2034 4750 
Q 2819 4750 3233 4129 
Q 3647 3509 3647 2328 
Q 3647 1150 3233 529 
Q 2819 -91 2034 -91 
Q 1250 -91 836 529 
Q 422 1150 422 2328 
Q 422 3509 836 4129 
Q 1250 4750 2034 4750 
z
" transform="scale(0.015625)"/>
       </defs>
       <use xlink:href="#DejaVuSans-30"/>
      </g>
     </g>
    </g>
    <g id="xtick_2">
     <g id="line2d_2">
      <g>
       <use xlink:href="#m3deb9900ad" x="124.944886" y="273.312" style="stroke: #000000; stroke-width: 0.8"/>
      </g>
     </g>
     <g id="text_2">
      <!-- 1 -->
      <g transform="translate(121.763636 287.910437) scale(0.1 -0.1)">
       <defs>
        <path id="DejaVuSans-31" d="M 794 531 
L 1825 531 
L 1825 4091 
L 703 3866 
L 703 4441 
L 1819 4666 
L 2450 4666 
L 2450 531 
L 3481 531 
L 3481 0 
L 794 0 
L 794 531 
z
" transform="scale(0.015625)"/>
       </defs>
       <use xlink:href="#DejaVuSans-31"/>
      </g>
     </g>
    </g>
    <g id="xtick_3">
     <g id="line2d_3">
      <g>
       <use xlink:href="#m3deb9900ad" x="189.875795" y="273.312" style="stroke: #000000; stroke-width: 0.8"/>
      </g>
     </g>
     <g id="text_3">
      <!-- 2 -->
      <g transform="translate(186.694545 287.910437) scale(0.1 -0.1)">
       <defs>
        <path id="DejaVuSans-32" d="M 1228 531 
L 3431 531 
L 3431 0 
L 469 0 
L 469 531 
Q 828 903 1448 1529 
Q 2069 2156 2228 2338 
Q 2531 2678 2651 2914 
Q 2772 3150 2772 3378 
Q 2772 3750 2511 3984 
Q 2250 4219 1831 4219 
Q 1534 4219 1204 4116 
Q 875 4013 500 3803 
L 500 4441 
Q 881 4594 1212 4672 
Q 1544 4750 1819 4750 
Q 2544 4750 2975 4387 
Q 3406 4025 3406 3419 
Q 3406 3131 3298 2873 
Q 3191 2616 2906 2266 
Q 2828 2175 2409 1742 
Q 1991 1309 1228 531 
z
" transform="scale(0.015625)"/>
       </defs>
       <use xlink:href="#DejaVuSans-32"/>
      </g>
     </g>
    </g>
    <g id="xtick_4">
     <g id="line2d_4">
      <g>
       <use xlink:href="#m3deb9900ad" x="254.806705" y="273.312" style="stroke: #000000; stroke-width: 0.8"/>
      </g>
     </g>
     <g id="text_4">
      <!-- 3 -->
      <g transform="translate(251.625455 287.910437) scale(0.1 -0.1)">
       <defs>
        <path id="DejaVuSans-33" d="M 2597 2516 
Q 3050 2419 3304 2112 
Q 3559 1806 3559 1356 
Q 3559 666 3084 287 
Q 2609 -91 1734 -91 
Q 1441 -91 1130 -33 
Q 819 25 488 141 
L 488 750 
Q 750 597 1062 519 
Q 1375 441 1716 441 
Q 2309 441 2620 675 
Q 2931 909 2931 1356 
Q 2931 1769 2642 2001 
Q 2353 2234 1838 2234 
L 1294 2234 
L 1294 2753 
L 1863 2753 
Q 2328 2753 2575 2939 
Q 2822 3125 2822 3475 
Q 2822 3834 2567 4026 
Q 2313 4219 1838 4219 
Q 1578 4219 1281 4162 
Q 984 4106 628 3988 
L 628 4550 
Q 988 4650 1302 4700 
Q 1616 4750 1894 4750 
Q 2613 4750 3031 4423 
Q 3450 4097 3450 3541 
Q 3450 3153 3228 2886 
Q 3006 2619 2597 2516 
z
" transform="scale(0.015625)"/>
       </defs>
       <use xlink:href="#DejaVuSans-33"/>
      </g>
     </g>
    </g>
    <g id="xtick_5">
     <g id="line2d_5">
      <g>
       <use xlink:href="#m3deb9900ad" x="319.737614" y="273.312" style="stroke: #000000; stroke-width: 0.8"/>
      </g>
     </g>
     <g id="text_5">
      <!-- 4 -->
      <g transform="translate(316.556364 287.910437) scale(0.1 -0.1)">
       <defs>
        <path id="DejaVuSans-34" d="M 2419 4116 
L 825 1625 
L 2419 1625 
L 2419 4116 
z
M 2253 4666 
L 3047 4666 
L 3047 1625 
L 3713 1625 
L 3713 1100 
L 3047 1100 
L 3047 0 
L 2419 0 
L 2419 1100 
L 313 1100 
L 313 1709 
L 2253 4666 
z
" transform="scale(0.015625)"/>
       </defs>
       <use xlink:href="#DejaVuSans-34"/>
      </g>
     </g>
    </g>
    <g id="xtick_6">
     <g id="line2d_6">
      <g>
       <use xlink:href="#m3deb9900ad" x="384.668523" y="273.312" style="stroke: #000000; stroke-width: 0.8"/>
      </g>
     </g>
     <g id="text_6">
      <!-- 5 -->
      <g transform="translate(381.487273 287.910437) scale(0.1 -0.1)">
       <defs>
        <path id="DejaVuSans-35" d="M 691 4666 
L 3169 4666 
L 3169 4134 
L 1269 4134 
L 1269 2991 
Q 1406 3038 1543 3061 
Q 1681 3084 1819 3084 
Q 2600 3084 3056 2656 
Q 3513 2228 3513 1497 
Q 3513 744 3044 326 
Q 2575 -91 1722 -91 
Q 1428 -91 1123 -41 
Q 819 9 494 109 
L 494 744 
Q 775 591 1075 516 
Q 1375 441 1709 441 
Q 2250 441 2565 725 
Q 2881 1009 2881 1497 
Q 2881 1984 2565 2268 
Q 2250 2553 1709 2553 
Q 1456 2553 1204 2497 
Q 953 2441 691 2322 
L 691 4666 
z
" transform="scale(0.015625)"/>
       </defs>
       <use xlink:href="#DejaVuSans-35"/>
      </g>
     </g>
    </g>
    <g id="text_7">
     <!-- Time (ms) -->
     <g transform="translate(197.142031 301.588562) scale(0.1 -0.1)">
      <defs>
       <path id="DejaVuSans-54" d="M -19 4666 
L 3928 4666 
L 3928 4134 
L 2272 4134 
L 2272 0 
L 1638 0 
L 1638 4134 
L -19 4134 
L -19 4666 
z
" transform="scale(0.015625)"/>
       <path id="DejaVuSans-69" d="M 603 3500 
L 1178 3500 
L 1178 0 
L 603 0 
L 603 3500 
z
M 603 4863 
L 1178 4863 
L 1178 4134 
L 603 4134 
L 603 4863 
z
" transform="scale(0.015625)"/>
       <path id="DejaVuSans-6d" d="M 3328 2828 
Q 3544 3216 3844 3400 
Q 4144 3584 4550 3584 
Q 5097 3584 5394 3201 
Q 5691 2819 5691 2113 
L 5691 0 
L 5113 0 
L 5113 2094 
Q 5113 2597 4934 2840 
Q 4756 3084 4391 3084 
Q 3944 3084 3684 2787 
Q 3425 2491 3425 1978 
L 3425 0 
L 2847 0 
L 2847 2094 
Q 2847 2600 2669 2842 
Q 2491 3084 2119 3084 
Q 1678 3084 1418 2786 
Q 1159 2488 1159 1978 
L 1159 0 
L 581 0 
L 581 3500 
L 1159 3500 
L 1159 2956 
Q 1356 3278 1631 3431 
Q 1906 3584 2284 3584 
Q 2666 3584 2933 3390 
Q 3200 3197 3328 2828 
z
" transform="scale(0.015625)"/>
       <path id="DejaVuSans-65" d="M 3597 1894 
L 3597 1613 
L 953 1613 
Q 991 1019 1311 708 
Q 1631 397 2203 397 
Q 2534 397 2845 478 
Q 3156 559 3463 722 
L 3463 178 
Q 3153 47 2828 -22 
Q 2503 -91 2169 -91 
Q 1331 -91 842 396 
Q 353 884 353 1716 
Q 353 2575 817 3079 
Q 1281 3584 2069 3584 
Q 2775 3584 3186 3129 
Q 3597 2675 3597 1894 
z
M 3022 2063 
Q 3016 2534 2758 2815 
Q 2500 3097 2075 3097 
Q 1594 3097 1305 2825 
Q 1016 2553 972 2059 
L 3022 2063 
z
" transform="scale(0.015625)"/>
       <path id="DejaVuSans-20" transform="scale(0.015625)"/>
       <path id="DejaVuSans-28" d="M 1984 4856 
Q 1566 4138 1362 3434 
Q 1159 2731 1159 2009 
Q 1159 1288 1364 580 
Q 1569 -128 1984 -844 
L 1484 -844 
Q 1016 -109 783 600 
Q 550 1309 550 2009 
Q 550 2706 781 3412 
Q 1013 4119 1484 4856 
L 1984 4856 
z
" transform="scale(0.015625)"/>
       <path id="DejaVuSans-73" d="M 2834 3397 
L 2834 2853 
Q 2591 2978 2328 3040 
Q 2066 3103 1784 3103 
Q 1356 3103 1142 2972 
Q 928 2841 928 2578 
Q 928 2378 1081 2264 
Q 1234 2150 1697 2047 
L 1894 2003 
Q 2506 1872 2764 1633 
Q 3022 1394 3022 966 
Q 3022 478 2636 193 
Q 2250 -91 1575 -91 
Q 1294 -91 989 -36 
Q 684 19 347 128 
L 347 722 
Q 666 556 975 473 
Q 1284 391 1588 391 
Q 1994 391 2212 530 
Q 2431 669 2431 922 
Q 2431 1156 2273 1281 
Q 2116 1406 1581 1522 
L 1381 1569 
Q 847 1681 609 1914 
Q 372 2147 372 2553 
Q 372 3047 722 3315 
Q 1072 3584 1716 3584 
Q 2034 3584 2315 3537 
Q 2597 3491 2834 3397 
z
" transform="scale(0.015625)"/>
       <path id="DejaVuSans-29" d="M 513 4856 
L 1013 4856 
Q 1481 4119 1714 3412 
Q 1947 2706 1947 2009 
Q 1947 1309 1714 600 
Q 1481 -109 1013 -844 
L 513 -844 
Q 928 -128 1133 580 
Q 1338 1288 1338 2009 
Q 1338 2731 1133 3434 
Q 928 4138 513 4856 
z
" transform="scale(0.015625)"/>
      </defs>
      <use xlink:href="#DejaVuSans-54"/>
      <use xlink:href="#DejaVuSans-69" x="57.958984"/>
      <use xlink:href="#DejaVuSans-6d" x="85.742188"/>
      <use xlink:href="#DejaVuSans-65" x="183.154297"/>
      <use xlink:href="#DejaVuSans-20" x="244.677734"/>
      <use xlink:href="#DejaVuSans-28" x="276.464844"/>
      <use xlink:href="#DejaVuSans-6d" x="315.478516"/>
      <use xlink:href="#DejaVuSans-73" x="412.890625"/>
      <use xlink:href="#DejaVuSans-29" x="464.990234"/>
     </g>
    </g>
    <g id="text_8">
     <!-- 1e−7 -->
     <g transform="translate(373.643438 300.588562) scale(0.1 -0.1)">
      <defs>
       <path id="DejaVuSans-2212" d="M 678 2272 
L 4684 2272 
L 4684 1741 
L 678 1741 
L 678 2272 
z
" transform="scale(0.015625)"/>
       <path id="DejaVuSans-37" d="M 525 4666 
L 3525 4666 
L 3525 4397 
L 1831 0 
L 1172 0 
L 2766 4134 
L 525 4134 
L 525 4666 
z
" transform="scale(0.015625)"/>
      </defs>
      <use xlink:href="#DejaVuSans-31"/>
      <use xlink:href="#DejaVuSans-65" x="63.623047"/>
      <use xlink:href="#DejaVuSans-2212" x="125.146484"/>
      <use xlink:href="#DejaVuSans-37" x="208.935547"/>
     </g>
    </g>
   </g>
   <g id="matplotlib.axis_2">
    <g id="ytick_1">
     <g id="line2d_7">
      <defs>
       <path id="m801e5f3466" d="M 0 0 
L -3.5 0 
" style="stroke: #000000; stroke-width: 0.8"/>
      </defs>
      <g>
       <use xlink:href="#m801e5f3466" x="43.78125" y="261.216" style="stroke: #000000; stroke-width: 0.8"/>
      </g>
     </g>
     <g id="text_9">
      <!-- 0.0 -->
      <g transform="translate(20.878125 265.015219) scale(0.1 -0.1)">
       <defs>
        <path id="DejaVuSans-2e" d="M 684 794 
L 1344 794 
L 1344 0 
L 684 0 
L 684 794 
z
" transform="scale(0.015625)"/>
       </defs>
       <use xlink:href="#DejaVuSans-30"/>
       <use xlink:href="#DejaVuSans-2e" x="63.623047"/>
       <use xlink:href="#DejaVuSans-30" x="95.410156"/>
      </g>
     </g>
    </g>
    <g id="ytick_2">
     <g id="line2d_8">
      <g>
       <use xlink:href="#m801e5f3466" x="43.78125" y="228.96" style="stroke: #000000; stroke-width: 0.8"/>
      </g>
     </g>
     <g id="text_10">
      <!-- 0.2 -->
      <g transform="translate(20.878125 232.759219) scale(0.1 -0.1)">
       <use xlink:href="#DejaVuSans-30"/>
       <use xlink:href="#DejaVuSans-2e" x="63.623047"/>
       <use xlink:href="#DejaVuSans-32" x="95.410156"/>
      </g>
     </g>
    </g>
    <g id="ytick_3">
     <g id="line2d_9">
      <g>
       <use xlink:href="#m801e5f3466" x="43.78125" y="196.704" style="stroke: #000000; stroke-width: 0.8"/>
      </g>
     </g>
     <g id="text_11">
      <!-- 0.4 -->
      <g transform="translate(20.878125 200.503219) scale(0.1 -0.1)">
       <use xlink:href="#DejaVuSans-30"/>
       <use xlink:href="#DejaVuSans-2e" x="63.623047"/>
       <use xlink:href="#DejaVuSans-34" x="95.410156"/>
      </g>
     </g>
    </g>
    <g id="ytick_4">
     <g id="line2d_10">
      <g>
       <use xlink:href="#m801e5f3466" x="43.78125" y="164.448" style="stroke: #000000; stroke-width: 0.8"/>
      </g>
     </g>
     <g id="text_12">
      <!-- 0.6 -->
      <g transform="translate(20.878125 168.247219) scale(0.1 -0.1)">
       <defs>
        <path id="DejaVuSans-36" d="M 2113 2584 
Q 1688 2584 1439 2293 
Q 1191 2003 1191 1497 
Q 1191 994 1439 701 
Q 1688 409 2113 409 
Q 2538 409 2786 701 
Q 3034 994 3034 1497 
Q 3034 2003 2786 2293 
Q 2538 2584 2113 2584 
z
M 3366 4563 
L 3366 3988 
Q 3128 4100 2886 4159 
Q 2644 4219 2406 4219 
Q 1781 4219 1451 3797 
Q 1122 3375 1075 2522 
Q 1259 2794 1537 2939 
Q 1816 3084 2150 3084 
Q 2853 3084 3261 2657 
Q 3669 2231 3669 1497 
Q 3669 778 3244 343 
Q 2819 -91 2113 -91 
Q 1303 -91 875 529 
Q 447 1150 447 2328 
Q 447 3434 972 4092 
Q 1497 4750 2381 4750 
Q 2619 4750 2861 4703 
Q 3103 4656 3366 4563 
z
" transform="scale(0.015625)"/>
       </defs>
       <use xlink:href="#DejaVuSans-30"/>
       <use xlink:href="#DejaVuSans-2e" x="63.623047"/>
       <use xlink:href="#DejaVuSans-36" x="95.410156"/>
      </g>
     </g>
    </g>
    <g id="ytick_5">
     <g id="line2d_11">
      <g>
       <use xlink:href="#m801e5f3466" x="43.78125" y="132.192" style="stroke: #000000; stroke-width: 0.8"/>
      </g>
     </g>
     <g id="text_13">
      <!-- 0.8 -->
      <g transform="translate(20.878125 135.991219) scale(0.1 -0.1)">
       <defs>
        <path id="DejaVuSans-38" d="M 2034 2216 
Q 1584 2216 1326 1975 
Q 1069 1734 1069 1313 
Q 1069 891 1326 650 
Q 1584 409 2034 409 
Q 2484 409 2743 651 
Q 3003 894 3003 1313 
Q 3003 1734 2745 1975 
Q 2488 2216 2034 2216 
z
M 1403 2484 
Q 997 2584 770 2862 
Q 544 3141 544 3541 
Q 544 4100 942 4425 
Q 1341 4750 2034 4750 
Q 2731 4750 3128 4425 
Q 3525 4100 3525 3541 
Q 3525 3141 3298 2862 
Q 3072 2584 2669 2484 
Q 3125 2378 3379 2068 
Q 3634 1759 3634 1313 
Q 3634 634 3220 271 
Q 2806 -91 2034 -91 
Q 1263 -91 848 271 
Q 434 634 434 1313 
Q 434 1759 690 2068 
Q 947 2378 1403 2484 
z
M 1172 3481 
Q 1172 3119 1398 2916 
Q 1625 2713 2034 2713 
Q 2441 2713 2670 2916 
Q 2900 3119 2900 3481 
Q 2900 3844 2670 4047 
Q 2441 4250 2034 4250 
Q 1625 4250 1398 4047 
Q 1172 3844 1172 3481 
z
" transform="scale(0.015625)"/>
       </defs>
       <use xlink:href="#DejaVuSans-30"/>
       <use xlink:href="#DejaVuSans-2e" x="63.623047"/>
       <use xlink:href="#DejaVuSans-38" x="95.410156"/>
      </g>
     </g>
    </g>
    <g id="ytick_6">
     <g id="line2d_12">
      <g>
       <use xlink:href="#m801e5f3466" x="43.78125" y="99.936" style="stroke: #000000; stroke-width: 0.8"/>
      </g>
     </g>
     <g id="text_14">
      <!-- 1.0 -->
      <g transform="translate(20.878125 103.735219) scale(0.1 -0.1)">
       <use xlink:href="#DejaVuSans-31"/>
       <use xlink:href="#DejaVuSans-2e" x="63.623047"/>
       <use xlink:href="#DejaVuSans-30" x="95.410156"/>
      </g>
     </g>
    </g>
    <g id="ytick_7">
     <g id="line2d_13">
      <g>
       <use xlink:href="#m801e5f3466" x="43.78125" y="67.68" style="stroke: #000000; stroke-width: 0.8"/>
      </g>
     </g>
     <g id="text_15">
      <!-- 1.2 -->
      <g transform="translate(20.878125 71.479219) scale(0.1 -0.1)">
       <use xlink:href="#DejaVuSans-31"/>
       <use xlink:href="#DejaVuSans-2e" x="63.623047"/>
       <use xlink:href="#DejaVuSans-32" x="95.410156"/>
      </g>
     </g>
    </g>
    <g id="ytick_8">
     <g id="line2d_14">
      <g>
       <use xlink:href="#m801e5f3466" x="43.78125" y="35.424" style="stroke: #000000; stroke-width: 0.8"/>
      </g>
     </g>
     <g id="text_16">
      <!-- 1.4 -->
      <g transform="translate(20.878125 39.223219) scale(0.1 -0.1)">
       <use xlink:href="#DejaVuSans-31"/>
       <use xlink:href="#DejaVuSans-2e" x="63.623047"/>
       <use xlink:href="#DejaVuSans-34" x="95.410156"/>
      </g>
     </g>
    </g>
    <g id="text_17">
     <!-- Vout (V), Vinp (V) -->
     <g transform="translate(14.798438 183.516937) rotate(-90) scale(0.1 -0.1)">
      <defs>
       <path id="DejaVuSans-56" d="M 1831 0 
L 50 4666 
L 709 4666 
L 2188 738 
L 3669 4666 
L 4325 4666 
L 2547 0 
L 1831 0 
z
" transform="scale(0.015625)"/>
       <path id="DejaVuSans-6f" d="M 1959 3097 
Q 1497 3097 1228 2736 
Q 959 2375 959 1747 
Q 959 1119 1226 758 
Q 1494 397 1959 397 
Q 2419 397 2687 759 
Q 2956 1122 2956 1747 
Q 2956 2369 2687 2733 
Q 2419 3097 1959 3097 
z
M 1959 3584 
Q 2709 3584 3137 3096 
Q 3566 2609 3566 1747 
Q 3566 888 3137 398 
Q 2709 -91 1959 -91 
Q 1206 -91 779 398 
Q 353 888 353 1747 
Q 353 2609 779 3096 
Q 1206 3584 1959 3584 
z
" transform="scale(0.015625)"/>
       <path id="DejaVuSans-75" d="M 544 1381 
L 544 3500 
L 1119 3500 
L 1119 1403 
Q 1119 906 1312 657 
Q 1506 409 1894 409 
Q 2359 409 2629 706 
Q 2900 1003 2900 1516 
L 2900 3500 
L 3475 3500 
L 3475 0 
L 2900 0 
L 2900 538 
Q 2691 219 2414 64 
Q 2138 -91 1772 -91 
Q 1169 -91 856 284 
Q 544 659 544 1381 
z
M 1991 3584 
L 1991 3584 
z
" transform="scale(0.015625)"/>
       <path id="DejaVuSans-74" d="M 1172 4494 
L 1172 3500 
L 2356 3500 
L 2356 3053 
L 1172 3053 
L 1172 1153 
Q 1172 725 1289 603 
Q 1406 481 1766 481 
L 2356 481 
L 2356 0 
L 1766 0 
Q 1100 0 847 248 
Q 594 497 594 1153 
L 594 3053 
L 172 3053 
L 172 3500 
L 594 3500 
L 594 4494 
L 1172 4494 
z
" transform="scale(0.015625)"/>
       <path id="DejaVuSans-2c" d="M 750 794 
L 1409 794 
L 1409 256 
L 897 -744 
L 494 -744 
L 750 256 
L 750 794 
z
" transform="scale(0.015625)"/>
       <path id="DejaVuSans-6e" d="M 3513 2113 
L 3513 0 
L 2938 0 
L 2938 2094 
Q 2938 2591 2744 2837 
Q 2550 3084 2163 3084 
Q 1697 3084 1428 2787 
Q 1159 2491 1159 1978 
L 1159 0 
L 581 0 
L 581 3500 
L 1159 3500 
L 1159 2956 
Q 1366 3272 1645 3428 
Q 1925 3584 2291 3584 
Q 2894 3584 3203 3211 
Q 3513 2838 3513 2113 
z
" transform="scale(0.015625)"/>
       <path id="DejaVuSans-70" d="M 1159 525 
L 1159 -1331 
L 581 -1331 
L 581 3500 
L 1159 3500 
L 1159 2969 
Q 1341 3281 1617 3432 
Q 1894 3584 2278 3584 
Q 2916 3584 3314 3078 
Q 3713 2572 3713 1747 
Q 3713 922 3314 415 
Q 2916 -91 2278 -91 
Q 1894 -91 1617 61 
Q 1341 213 1159 525 
z
M 3116 1747 
Q 3116 2381 2855 2742 
Q 2594 3103 2138 3103 
Q 1681 3103 1420 2742 
Q 1159 2381 1159 1747 
Q 1159 1113 1420 752 
Q 1681 391 2138 391 
Q 2594 391 2855 752 
Q 3116 1113 3116 1747 
z
" transform="scale(0.015625)"/>
      </defs>
      <use xlink:href="#DejaVuSans-56"/>
      <use xlink:href="#DejaVuSans-6f" x="60.658203"/>
      <use xlink:href="#DejaVuSans-75" x="121.839844"/>
      <use xlink:href="#DejaVuSans-74" x="185.21875"/>
      <use xlink:href="#DejaVuSans-20" x="224.427734"/>
      <use xlink:href="#DejaVuSans-28" x="256.214844"/>
      <use xlink:href="#DejaVuSans-56" x="295.228516"/>
      <use xlink:href="#DejaVuSans-29" x="363.636719"/>
      <use xlink:href="#DejaVuSans-2c" x="402.650391"/>
      <use xlink:href="#DejaVuSans-20" x="434.4375"/>
      <use xlink:href="#DejaVuSans-56" x="466.224609"/>
      <use xlink:href="#DejaVuSans-69" x="532.382812"/>
      <use xlink:href="#DejaVuSans-6e" x="560.166016"/>
      <use xlink:href="#DejaVuSans-70" x="623.544922"/>
      <use xlink:href="#DejaVuSans-20" x="687.021484"/>
      <use xlink:href="#DejaVuSans-28" x="718.808594"/>
      <use xlink:href="#DejaVuSans-56" x="757.822266"/>
      <use xlink:href="#DejaVuSans-29" x="826.230469"/>
     </g>
    </g>
   </g>
   <g id="line2d_15">
    <path d="M 60.013977 257.027446 
L 60.046443 257.027447 
L 60.078908 257.027447 
L 60.143839 257.027448 
L 60.273701 257.027448 
L 60.533425 257.027444 
L 61.052872 257.027434 
L 62.091766 257.027413 
L 64.169555 257.027371 
L 68.325134 257.027287 
L 74.818225 257.027156 
L 81.311315 257.027025 
L 87.804406 257.026894 
L 94.297497 257.026763 
L 100.790588 257.026632 
L 107.283679 257.026502 
L 113.77677 257.026371 
L 120.269861 257.026241 
L 124.944886 257.026147 
L 124.951379 256.997902 
L 124.964366 256.939941 
L 124.990338 256.75365 
L 125.009817 256.605193 
L 125.013518 256.6084 
L 125.020918 256.61397 
L 125.035718 256.621559 
L 125.065319 256.636752 
L 125.112738 256.662528 
L 125.18909 256.668721 
L 125.32049 256.650339 
L 125.535719 256.589087 
L 125.966176 256.370214 
L 126.827089 255.572705 
L 128.548917 252.770548 
L 131.992574 244.622946 
L 136.349891 232.888062 
L 142.070118 217.440466 
L 148.563209 199.961764 
L 155.0563 182.536766 
L 161.549391 165.175023 
L 168.042482 147.884481 
L 174.535573 130.677339 
L 181.028664 113.570913 
L 187.521755 96.602341 
L 194.014845 80.399526 
L 200.507936 68.370983 
L 207.001027 62.085144 
L 213.494118 59.193103 
L 219.987209 57.855179 
L 226.4803 57.206361 
L 232.973391 56.899521 
L 239.466482 56.744121 
L 245.959573 56.674022 
L 252.452664 56.635991 
L 258.945755 56.620719 
L 265.438845 56.610879 
L 271.931936 56.608026 
L 278.425027 56.605143 
L 284.918118 56.604948 
L 291.411209 56.603885 
L 297.9043 56.604167 
L 304.397391 56.603641 
L 310.890482 56.603952 
L 317.383573 56.603614 
L 323.876664 56.603881 
L 330.369755 56.603625 
L 336.862845 56.603854 
L 343.355936 56.603638 
L 349.849027 56.603841 
L 356.342118 56.603646 
L 362.835209 56.603835 
L 369.3283 56.603652 
L 375.821391 56.60383 
L 382.314482 56.603657 
L 384.668523 56.603827 
" clip-path="url(#p16e4e017fa)" style="fill: none; stroke: #1f77b4; stroke-width: 1.5; stroke-linecap: square"/>
   </g>
   <g id="line2d_16">
    <path d="M 60.013977 261.216 
L 60.046443 261.216 
L 60.078908 261.216 
L 60.143839 261.216 
L 60.273701 261.216 
L 60.533425 261.216 
L 61.052872 261.216 
L 62.091766 261.216 
L 64.169555 261.216 
L 68.325134 261.216 
L 74.818225 261.216 
L 81.311315 261.216 
L 87.804406 261.216 
L 94.297497 261.216 
L 100.790588 261.216 
L 107.283679 261.216 
L 113.77677 261.216 
L 120.269861 261.216 
L 124.944886 261.216 
L 124.951379 237.024 
L 124.964366 188.64 
L 124.990338 91.872 
L 125.009817 19.296 
L 125.013518 19.296 
L 125.020918 19.296 
L 125.035718 19.296 
L 125.065319 19.296 
L 125.112738 19.296 
L 125.18909 19.296 
L 125.32049 19.296 
L 125.535719 19.296 
L 125.966176 19.296 
L 126.827089 19.296 
L 128.548917 19.296 
L 131.992574 19.296 
L 136.349891 19.296 
L 142.070118 19.296 
L 148.563209 19.296 
L 155.0563 19.296 
L 161.549391 19.296 
L 168.042482 19.296 
L 174.535573 19.296 
L 181.028664 19.296 
L 187.521755 19.296 
L 194.014845 19.296 
L 200.507936 19.296 
L 207.001027 19.296 
L 213.494118 19.296 
L 219.987209 19.296 
L 226.4803 19.296 
L 232.973391 19.296 
L 239.466482 19.296 
L 245.959573 19.296 
L 252.452664 19.296 
L 258.945755 19.296 
L 265.438845 19.296 
L 271.931936 19.296 
L 278.425027 19.296 
L 284.918118 19.296 
L 291.411209 19.296 
L 297.9043 19.296 
L 304.397391 19.296 
L 310.890482 19.296 
L 317.383573 19.296 
L 323.876664 19.296 
L 330.369755 19.296 
L 336.862845 19.296 
L 343.355936 19.296 
L 349.849027 19.296 
L 356.342118 19.296 
L 362.835209 19.296 
L 369.3283 19.296 
L 375.821391 19.296 
L 382.314482 19.296 
L 384.668523 19.296 
" clip-path="url(#p16e4e017fa)" style="fill: none; stroke: #ff7f0e; stroke-width: 1.5; stroke-linecap: square"/>
   </g>
   <g id="line2d_17">
    <path d="M 60.013977 255.908387 
L 60.046443 255.908383 
L 60.078908 255.908379 
L 60.143839 255.908371 
L 60.273701 255.908355 
L 60.533425 255.90832 
L 61.052872 255.908249 
L 62.091766 255.908108 
L 64.169555 255.907824 
L 68.325134 255.907256 
L 74.818225 255.90637 
L 81.311315 255.905484 
L 87.804406 255.904599 
L 94.297497 255.903714 
L 100.790588 255.902829 
L 107.283679 255.901945 
L 113.77677 255.901062 
L 120.269861 255.900179 
L 124.944886 255.899543 
L 124.951379 255.871417 
L 124.964366 255.810117 
L 124.990338 255.621717 
L 125.009817 255.473566 
L 125.014421 255.477087 
L 125.023627 255.483212 
L 125.042041 255.492677 
L 125.078867 255.522117 
L 125.132681 255.53733 
L 125.222957 255.531929 
L 125.358757 255.505599 
L 125.630358 255.413648 
L 126.173559 255.097012 
L 127.259962 253.973273 
L 129.432767 250.168933 
L 133.778378 239.604459 
L 138.684524 226.43669 
L 145.177615 209.078109 
L 151.670706 191.763289 
L 158.163797 174.501052 
L 164.656887 157.297911 
L 171.149978 140.163308 
L 177.643069 123.111975 
L 184.13616 106.198136 
L 190.629251 90.243045 
L 197.122342 78.19114 
L 203.615433 71.324925 
L 210.108524 67.761363 
L 216.601615 65.907789 
L 223.094706 64.916633 
L 229.587797 64.38779 
L 236.080887 64.097255 
L 242.573978 63.943381 
L 249.067069 63.857732 
L 255.56016 63.813002 
L 262.053251 63.787672 
L 268.546342 63.774689 
L 275.039433 63.767196 
L 281.532524 63.763409 
L 288.025615 63.761223 
L 294.518706 63.760077 
L 301.011797 63.759486 
L 307.504887 63.75909 
L 313.997978 63.758985 
L 320.491069 63.758795 
L 326.98416 63.758841 
L 333.477251 63.758706 
L 339.970342 63.758799 
L 346.463433 63.758678 
L 352.956524 63.758788 
L 359.449615 63.75867 
L 365.942706 63.758785 
L 372.435797 63.758669 
L 378.928887 63.758783 
L 384.668523 63.758669 
" clip-path="url(#p16e4e017fa)" style="fill: none; stroke: #2ca02c; stroke-width: 1.5; stroke-linecap: square"/>
   </g>
   <g id="line2d_18">
    <path d="M 60.013977 261.216 
L 60.046443 261.216 
L 60.078908 261.216 
L 60.143839 261.216 
L 60.273701 261.216 
L 60.533425 261.216 
L 61.052872 261.216 
L 62.091766 261.216 
L 64.169555 261.216 
L 68.325134 261.216 
L 74.818225 261.216 
L 81.311315 261.216 
L 87.804406 261.216 
L 94.297497 261.216 
L 100.790588 261.216 
L 107.283679 261.216 
L 113.77677 261.216 
L 120.269861 261.216 
L 124.944886 261.216 
L 124.951379 237.024 
L 124.964366 188.64 
L 124.990338 91.872 
L 125.009817 19.296 
L 125.014421 19.296 
L 125.023627 19.296 
L 125.042041 19.296 
L 125.078867 19.296 
L 125.132681 19.296 
L 125.222957 19.296 
L 125.358757 19.296 
L 125.630358 19.296 
L 126.173559 19.296 
L 127.259962 19.296 
L 129.432767 19.296 
L 133.778378 19.296 
L 138.684524 19.296 
L 145.177615 19.296 
L 151.670706 19.296 
L 158.163797 19.296 
L 164.656887 19.296 
L 171.149978 19.296 
L 177.643069 19.296 
L 184.13616 19.296 
L 190.629251 19.296 
L 197.122342 19.296 
L 203.615433 19.296 
L 210.108524 19.296 
L 216.601615 19.296 
L 223.094706 19.296 
L 229.587797 19.296 
L 236.080887 19.296 
L 242.573978 19.296 
L 249.067069 19.296 
L 255.56016 19.296 
L 262.053251 19.296 
L 268.546342 19.296 
L 275.039433 19.296 
L 281.532524 19.296 
L 288.025615 19.296 
L 294.518706 19.296 
L 301.011797 19.296 
L 307.504887 19.296 
L 313.997978 19.296 
L 320.491069 19.296 
L 326.98416 19.296 
L 333.477251 19.296 
L 339.970342 19.296 
L 346.463433 19.296 
L 352.956524 19.296 
L 359.449615 19.296 
L 365.942706 19.296 
L 372.435797 19.296 
L 378.928887 19.296 
L 384.668523 19.296 
" clip-path="url(#p16e4e017fa)" style="fill: none; stroke: #d62728; stroke-width: 1.5; stroke-linecap: square"/>
   </g>
   <g id="line2d_19">
    <path d="M 60.013977 252.393211 
L 60.046443 252.393211 
L 60.078908 252.393211 
L 60.143839 252.393211 
L 60.273701 252.393211 
L 60.533425 252.39321 
L 61.052872 252.39321 
L 62.091766 252.39321 
L 64.169555 252.39321 
L 68.325134 252.39321 
L 74.818225 252.39321 
L 81.311315 252.39321 
L 87.804406 252.39321 
L 94.297497 252.39321 
L 100.790588 252.39321 
L 107.283679 252.39321 
L 113.77677 252.39321 
L 120.269861 252.39321 
L 124.944886 252.39321 
L 124.951379 252.359815 
L 124.964366 252.286342 
L 124.990338 252.095937 
L 125.009817 251.947424 
L 125.014383 251.950466 
L 125.023514 251.956526 
L 125.041776 251.977833 
L 125.0783 252.013098 
L 125.14232 252.014313 
L 125.223224 251.992883 
L 125.358297 251.94514 
L 125.628445 251.810719 
L 126.168739 251.421487 
L 127.249327 250.226018 
L 129.190293 246.942511 
L 133.072223 237.942237 
L 138.786714 222.805667 
L 145.245379 205.503595 
L 151.73847 188.215822 
L 158.231561 170.996018 
L 164.724652 153.847387 
L 171.217743 136.778354 
L 177.710834 119.884678 
L 184.203925 104.04903 
L 190.697016 91.625725 
L 197.190107 83.720215 
L 203.683197 79.062952 
L 210.176288 76.322111 
L 216.669379 74.688916 
L 223.16247 73.712988 
L 229.655561 73.124613 
L 236.148652 72.769407 
L 242.641743 72.553467 
L 249.134834 72.422871 
L 255.627925 72.343424 
L 262.121016 72.295285 
L 268.614107 72.266068 
L 275.107197 72.248269 
L 281.600288 72.237563 
L 288.093379 72.230938 
L 294.58647 72.227057 
L 301.079561 72.224548 
L 307.572652 72.223185 
L 314.065743 72.222193 
L 320.558834 72.221758 
L 327.051925 72.221324 
L 333.545016 72.221232 
L 340.038107 72.221005 
L 346.531197 72.221038 
L 353.024288 72.220887 
L 359.517379 72.220966 
L 366.01047 72.220845 
L 372.503561 72.220938 
L 378.996652 72.220829 
L 384.668523 72.220929 
" clip-path="url(#p16e4e017fa)" style="fill: none; stroke: #9467bd; stroke-width: 1.5; stroke-linecap: square"/>
   </g>
   <g id="line2d_20">
    <path d="M 60.013977 261.216 
L 60.046443 261.216 
L 60.078908 261.216 
L 60.143839 261.216 
L 60.273701 261.216 
L 60.533425 261.216 
L 61.052872 261.216 
L 62.091766 261.216 
L 64.169555 261.216 
L 68.325134 261.216 
L 74.818225 261.216 
L 81.311315 261.216 
L 87.804406 261.216 
L 94.297497 261.216 
L 100.790588 261.216 
L 107.283679 261.216 
L 113.77677 261.216 
L 120.269861 261.216 
L 124.944886 261.216 
L 124.951379 237.024 
L 124.964366 188.64 
L 124.990338 91.872 
L 125.009817 19.296 
L 125.014383 19.296 
L 125.023514 19.296 
L 125.041776 19.296 
L 125.0783 19.296 
L 125.14232 19.296 
L 125.223224 19.296 
L 125.358297 19.296 
L 125.628445 19.296 
L 126.168739 19.296 
L 127.249327 19.296 
L 129.190293 19.296 
L 133.072223 19.296 
L 138.786714 19.296 
L 145.245379 19.296 
L 151.73847 19.296 
L 158.231561 19.296 
L 164.724652 19.296 
L 171.217743 19.296 
L 177.710834 19.296 
L 184.203925 19.296 
L 190.697016 19.296 
L 197.190107 19.296 
L 203.683197 19.296 
L 210.176288 19.296 
L 216.669379 19.296 
L 223.16247 19.296 
L 229.655561 19.296 
L 236.148652 19.296 
L 242.641743 19.296 
L 249.134834 19.296 
L 255.627925 19.296 
L 262.121016 19.296 
L 268.614107 19.296 
L 275.107197 19.296 
L 281.600288 19.296 
L 288.093379 19.296 
L 294.58647 19.296 
L 301.079561 19.296 
L 307.572652 19.296 
L 314.065743 19.296 
L 320.558834 19.296 
L 327.051925 19.296 
L 333.545016 19.296 
L 340.038107 19.296 
L 346.531197 19.296 
L 353.024288 19.296 
L 359.517379 19.296 
L 366.01047 19.296 
L 372.503561 19.296 
L 378.996652 19.296 
L 384.668523 19.296 
" clip-path="url(#p16e4e017fa)" style="fill: none; stroke: #8c564b; stroke-width: 1.5; stroke-linecap: square"/>
   </g>
   <g id="line2d_21">
    <path d="M 60.013977 256.779069 
L 60.046443 256.77907 
L 60.078908 256.77907 
L 60.143839 256.77907 
L 60.273701 256.77907 
L 60.533425 256.779065 
L 61.052872 256.779054 
L 62.091766 256.779029 
L 64.169555 256.778981 
L 68.325134 256.778884 
L 74.818225 256.778733 
L 81.311315 256.778582 
L 87.804406 256.778431 
L 94.297497 256.77828 
L 100.790588 256.778129 
L 107.283679 256.777978 
L 113.77677 256.777828 
L 120.269861 256.777677 
L 124.944886 256.777569 
L 124.951379 256.748723 
L 124.964366 256.686253 
L 124.990338 256.492188 
L 125.009817 256.34242 
L 125.014286 256.346335 
L 125.023223 256.352964 
L 125.041097 256.362396 
L 125.076845 256.39267 
L 125.126363 256.407725 
L 125.216685 256.400768 
L 125.353193 256.367935 
L 125.624033 256.256602 
L 126.165711 255.876189 
L 127.249069 254.543675 
L 129.415785 250.212266 
L 133.700806 238.950987 
L 138.160078 226.420767 
L 144.653168 208.31857 
L 151.146259 190.262508 
L 157.63935 172.273524 
L 164.132441 154.356251 
L 170.625532 136.523528 
L 177.118623 118.791798 
L 183.611714 101.190742 
L 190.104805 84.02333 
L 196.597896 70.319907 
L 203.090987 62.646272 
L 209.584078 59.185558 
L 216.077168 57.609209 
L 222.570259 56.858912 
L 229.06335 56.497793 
L 235.556441 56.326467 
L 242.049532 56.243517 
L 248.542623 56.204831 
L 255.035714 56.185595 
L 261.528805 56.17706 
L 268.021896 56.172432 
L 274.514987 56.170708 
L 281.008078 56.169454 
L 287.501168 56.169246 
L 293.994259 56.168788 
L 300.48735 56.168904 
L 306.980441 56.168645 
L 313.473532 56.168822 
L 319.966623 56.168617 
L 326.459714 56.1688 
L 332.952805 56.168614 
L 339.445896 56.168793 
L 345.938987 56.168616 
L 352.432078 56.16879 
L 358.925168 56.168617 
L 365.418259 56.16879 
L 371.91135 56.168619 
L 378.404441 56.168788 
L 384.668523 56.168621 
" clip-path="url(#p16e4e017fa)" style="fill: none; stroke: #e377c2; stroke-width: 1.5; stroke-linecap: square"/>
   </g>
   <g id="line2d_22">
    <path d="M 60.013977 261.216 
L 60.046443 261.216 
L 60.078908 261.216 
L 60.143839 261.216 
L 60.273701 261.216 
L 60.533425 261.216 
L 61.052872 261.216 
L 62.091766 261.216 
L 64.169555 261.216 
L 68.325134 261.216 
L 74.818225 261.216 
L 81.311315 261.216 
L 87.804406 261.216 
L 94.297497 261.216 
L 100.790588 261.216 
L 107.283679 261.216 
L 113.77677 261.216 
L 120.269861 261.216 
L 124.944886 261.216 
L 124.951379 237.024 
L 124.964366 188.64 
L 124.990338 91.872 
L 125.009817 19.296 
L 125.014286 19.296 
L 125.023223 19.296 
L 125.041097 19.296 
L 125.076845 19.296 
L 125.126363 19.296 
L 125.216685 19.296 
L 125.353193 19.296 
L 125.624033 19.296 
L 126.165711 19.296 
L 127.249069 19.296 
L 129.415785 19.296 
L 133.700806 19.296 
L 138.160078 19.296 
L 144.653168 19.296 
L 151.146259 19.296 
L 157.63935 19.296 
L 164.132441 19.296 
L 170.625532 19.296 
L 177.118623 19.296 
L 183.611714 19.296 
L 190.104805 19.296 
L 196.597896 19.296 
L 203.090987 19.296 
L 209.584078 19.296 
L 216.077168 19.296 
L 222.570259 19.296 
L 229.06335 19.296 
L 235.556441 19.296 
L 242.049532 19.296 
L 248.542623 19.296 
L 255.035714 19.296 
L 261.528805 19.296 
L 268.021896 19.296 
L 274.514987 19.296 
L 281.008078 19.296 
L 287.501168 19.296 
L 293.994259 19.296 
L 300.48735 19.296 
L 306.980441 19.296 
L 313.473532 19.296 
L 319.966623 19.296 
L 326.459714 19.296 
L 332.952805 19.296 
L 339.445896 19.296 
L 345.938987 19.296 
L 352.432078 19.296 
L 358.925168 19.296 
L 365.418259 19.296 
L 371.91135 19.296 
L 378.404441 19.296 
L 384.668523 19.296 
" clip-path="url(#p16e4e017fa)" style="fill: none; stroke: #7f7f7f; stroke-width: 1.5; stroke-linecap: square"/>
   </g>
   <g id="line2d_23">
    <path d="M 60.013977 254.450217 
L 60.046443 254.450216 
L 60.078908 254.450215 
L 60.143839 254.450212 
L 60.273701 254.450207 
L 60.533425 254.450195 
L 61.052872 254.45017 
L 62.091766 254.450119 
L 64.169555 254.450017 
L 68.325134 254.449814 
L 74.818225 254.449498 
L 81.311315 254.449183 
L 87.804406 254.44887 
L 94.297497 254.448557 
L 100.790588 254.448245 
L 107.283679 254.447935 
L 113.77677 254.447626 
L 120.269861 254.447318 
L 124.944886 254.447097 
L 124.951379 254.417795 
L 124.964366 254.349716 
L 124.990338 254.15508 
L 125.009817 254.005206 
L 125.01419 254.008801 
L 125.022937 254.015114 
L 125.04043 254.029872 
L 125.075416 254.06488 
L 125.129255 254.072521 
L 125.212023 254.059241 
L 125.340377 254.023685 
L 125.597085 253.912427 
L 126.110501 253.562235 
L 127.137333 252.404576 
L 129.190997 248.659047 
L 133.298324 238.398912 
L 138.17179 224.926219 
L 144.664881 207.004814 
L 151.157972 189.138029 
L 157.651063 171.328867 
L 164.144153 153.585921 
L 170.637244 135.919544 
L 177.130335 118.349199 
L 183.623426 100.996618 
L 190.116517 85.432393 
L 196.609608 74.747711 
L 203.102699 69.078802 
L 209.59579 66.16794 
L 216.088881 64.676512 
L 222.581972 63.882256 
L 229.075063 63.467636 
L 235.568153 63.240771 
L 242.061244 63.124295 
L 248.554335 63.05902 
L 255.047426 63.026522 
L 261.540517 63.007547 
L 268.033608 62.998622 
L 274.526699 62.993002 
L 281.01979 62.990636 
L 287.512881 62.98891 
L 294.005972 62.988337 
L 300.499063 62.987766 
L 306.992153 62.98767 
L 313.485244 62.987452 
L 319.978335 62.987473 
L 326.471426 62.987368 
L 332.964517 62.987413 
L 339.457608 62.987346 
L 345.950699 62.987396 
L 352.44379 62.987341 
L 358.936881 62.987389 
L 365.429972 62.987341 
L 371.923063 62.987387 
L 378.416153 62.987341 
L 384.668523 62.987386 
" clip-path="url(#p16e4e017fa)" style="fill: none; stroke: #bcbd22; stroke-width: 1.5; stroke-linecap: square"/>
   </g>
   <g id="line2d_24">
    <path d="M 60.013977 261.216 
L 60.046443 261.216 
L 60.078908 261.216 
L 60.143839 261.216 
L 60.273701 261.216 
L 60.533425 261.216 
L 61.052872 261.216 
L 62.091766 261.216 
L 64.169555 261.216 
L 68.325134 261.216 
L 74.818225 261.216 
L 81.311315 261.216 
L 87.804406 261.216 
L 94.297497 261.216 
L 100.790588 261.216 
L 107.283679 261.216 
L 113.77677 261.216 
L 120.269861 261.216 
L 124.944886 261.216 
L 124.951379 237.024 
L 124.964366 188.64 
L 124.990338 91.872 
L 125.009817 19.296 
L 125.01419 19.296 
L 125.022937 19.296 
L 125.04043 19.296 
L 125.075416 19.296 
L 125.129255 19.296 
L 125.212023 19.296 
L 125.340377 19.296 
L 125.597085 19.296 
L 126.110501 19.296 
L 127.137333 19.296 
L 129.190997 19.296 
L 133.298324 19.296 
L 138.17179 19.296 
L 144.664881 19.296 
L 151.157972 19.296 
L 157.651063 19.296 
L 164.144153 19.296 
L 170.637244 19.296 
L 177.130335 19.296 
L 183.623426 19.296 
L 190.116517 19.296 
L 196.609608 19.296 
L 203.102699 19.296 
L 209.59579 19.296 
L 216.088881 19.296 
L 222.581972 19.296 
L 229.075063 19.296 
L 235.568153 19.296 
L 242.061244 19.296 
L 248.554335 19.296 
L 255.047426 19.296 
L 261.540517 19.296 
L 268.033608 19.296 
L 274.526699 19.296 
L 281.01979 19.296 
L 287.512881 19.296 
L 294.005972 19.296 
L 300.499063 19.296 
L 306.992153 19.296 
L 313.485244 19.296 
L 319.978335 19.296 
L 326.471426 19.296 
L 332.964517 19.296 
L 339.457608 19.296 
L 345.950699 19.296 
L 352.44379 19.296 
L 358.936881 19.296 
L 365.429972 19.296 
L 371.923063 19.296 
L 378.416153 19.296 
L 384.668523 19.296 
" clip-path="url(#p16e4e017fa)" style="fill: none; stroke: #17becf; stroke-width: 1.5; stroke-linecap: square"/>
   </g>
   <g id="line2d_25">
    <path d="M 60.013977 252.019165 
L 60.046443 252.019166 
L 60.078908 252.019166 
L 60.143839 252.019167 
L 60.273701 252.019168 
L 60.533425 252.019169 
L 61.052872 252.019169 
L 62.091766 252.01917 
L 64.169555 252.01917 
L 68.325134 252.01917 
L 74.818225 252.01917 
L 81.311315 252.01917 
L 87.804406 252.01917 
L 94.297497 252.01917 
L 100.790588 252.01917 
L 107.283679 252.01917 
L 113.77677 252.01917 
L 120.269861 252.01917 
L 124.944886 252.01917 
L 124.951379 251.979196 
L 124.964366 251.891924 
L 124.990338 251.694974 
L 125.009817 251.543329 
L 125.0136 251.546004 
L 125.021165 251.552568 
L 125.036295 251.57876 
L 125.066557 251.611588 
L 125.126722 251.606995 
L 125.195985 251.578602 
L 125.316819 251.519468 
L 125.558487 251.364848 
L 126.041825 250.947506 
L 127.008498 249.752416 
L 128.699924 246.723912 
L 132.082776 238.580275 
L 137.74356 222.916613 
L 143.675295 206.277927 
L 150.168386 188.296327 
L 156.661477 170.458444 
L 163.154567 152.743083 
L 169.647658 135.143315 
L 176.140749 117.763866 
L 182.63384 101.644276 
L 189.126931 89.289967 
L 195.620022 81.627596 
L 202.113113 77.183339 
L 208.606204 74.609189 
L 215.099295 73.097721 
L 221.592386 72.204059 
L 228.085477 71.668616 
L 234.578567 71.350728 
L 241.071658 71.159613 
L 247.564749 71.046022 
L 254.05784 70.97771 
L 260.550931 70.936995 
L 267.044022 70.912624 
L 273.537113 70.897952 
L 280.030204 70.889327 
L 286.523295 70.883969 
L 293.016386 70.880985 
L 299.509477 70.87896 
L 306.002567 70.877999 
L 312.495658 70.877166 
L 318.988749 70.876929 
L 325.48184 70.876524 
L 331.974931 70.876545 
L 338.468022 70.876295 
L 344.961113 70.876408 
L 351.454204 70.876213 
L 357.947295 70.876358 
L 364.440386 70.876186 
L 370.933477 70.876341 
L 377.426567 70.876176 
L 383.919658 70.876333 
L 384.668523 70.876179 
" clip-path="url(#p16e4e017fa)" style="fill: none; stroke: #1f77b4; stroke-width: 1.5; stroke-linecap: square"/>
   </g>
   <g id="line2d_26">
    <path d="M 60.013977 261.216 
L 60.046443 261.216 
L 60.078908 261.216 
L 60.143839 261.216 
L 60.273701 261.216 
L 60.533425 261.216 
L 61.052872 261.216 
L 62.091766 261.216 
L 64.169555 261.216 
L 68.325134 261.216 
L 74.818225 261.216 
L 81.311315 261.216 
L 87.804406 261.216 
L 94.297497 261.216 
L 100.790588 261.216 
L 107.283679 261.216 
L 113.77677 261.216 
L 120.269861 261.216 
L 124.944886 261.216 
L 124.951379 237.024 
L 124.964366 188.64 
L 124.990338 91.872 
L 125.009817 19.296 
L 125.0136 19.296 
L 125.021165 19.296 
L 125.036295 19.296 
L 125.066557 19.296 
L 125.126722 19.296 
L 125.195985 19.296 
L 125.316819 19.296 
L 125.558487 19.296 
L 126.041825 19.296 
L 127.008498 19.296 
L 128.699924 19.296 
L 132.082776 19.296 
L 137.74356 19.296 
L 143.675295 19.296 
L 150.168386 19.296 
L 156.661477 19.296 
L 163.154567 19.296 
L 169.647658 19.296 
L 176.140749 19.296 
L 182.63384 19.296 
L 189.126931 19.296 
L 195.620022 19.296 
L 202.113113 19.296 
L 208.606204 19.296 
L 215.099295 19.296 
L 221.592386 19.296 
L 228.085477 19.296 
L 234.578567 19.296 
L 241.071658 19.296 
L 247.564749 19.296 
L 254.05784 19.296 
L 260.550931 19.296 
L 267.044022 19.296 
L 273.537113 19.296 
L 280.030204 19.296 
L 286.523295 19.296 
L 293.016386 19.296 
L 299.509477 19.296 
L 306.002567 19.296 
L 312.495658 19.296 
L 318.988749 19.296 
L 325.48184 19.296 
L 331.974931 19.296 
L 338.468022 19.296 
L 344.961113 19.296 
L 351.454204 19.296 
L 357.947295 19.296 
L 364.440386 19.296 
L 370.933477 19.296 
L 377.426567 19.296 
L 383.919658 19.296 
L 384.668523 19.296 
" clip-path="url(#p16e4e017fa)" style="fill: none; stroke: #ff7f0e; stroke-width: 1.5; stroke-linecap: square"/>
   </g>
   <g id="line2d_27">
    <path d="M 60.013977 256.300379 
L 60.046443 256.300378 
L 60.078908 256.300377 
L 60.143839 256.300374 
L 60.273701 256.300368 
L 60.533425 256.300352 
L 61.052872 256.300318 
L 62.091766 256.300248 
L 64.169555 256.300109 
L 68.325134 256.299832 
L 74.818225 256.299398 
L 81.311315 256.298964 
L 87.804406 256.298531 
L 94.297497 256.298098 
L 100.790588 256.297665 
L 107.283679 256.297232 
L 113.77677 256.2968 
L 120.269861 256.296368 
L 124.944886 256.296057 
L 124.951379 256.266484 
L 124.964366 256.197207 
L 124.990338 255.997397 
L 125.009817 255.84597 
L 125.014259 255.850055 
L 125.023142 255.856975 
L 125.040909 255.872503 
L 125.076442 255.909653 
L 125.126574 255.915737 
L 125.213412 255.898014 
L 125.339698 255.853781 
L 125.59227 255.719885 
L 126.097412 255.30519 
L 127.107698 253.95856 
L 129.12827 249.765967 
L 133.169413 238.831388 
L 137.591431 225.976709 
L 144.084522 207.221423 
L 150.577613 188.520918 
L 157.070704 169.892594 
L 163.563795 151.343822 
L 170.056886 132.888811 
L 176.549977 114.547954 
L 183.043068 96.363024 
L 189.536159 79.025129 
L 196.02925 66.349058 
L 202.522341 59.964221 
L 209.015431 57.136267 
L 215.508522 55.881376 
L 222.001613 55.289759 
L 228.494704 55.024096 
L 234.987795 54.891202 
L 241.480886 54.836124 
L 247.973977 54.805171 
L 254.467068 54.794747 
L 260.960159 54.786869 
L 267.45325 54.785483 
L 273.946341 54.783114 
L 280.439431 54.783316 
L 286.932522 54.782422 
L 293.425613 54.782756 
L 299.918704 54.78234 
L 306.411795 54.782585 
L 312.904886 54.782361 
L 319.397977 54.782519 
L 325.891068 54.782387 
L 332.384159 54.78249 
L 338.87725 54.782406 
L 345.370341 54.782474 
L 351.863431 54.782416 
L 358.356522 54.782466 
L 364.849613 54.782422 
L 371.342704 54.782461 
L 377.835795 54.782425 
L 384.328886 54.782458 
L 384.668523 54.782432 
" clip-path="url(#p16e4e017fa)" style="fill: none; stroke: #2ca02c; stroke-width: 1.5; stroke-linecap: square"/>
   </g>
   <g id="line2d_28">
    <path d="M 60.013977 261.216 
L 60.046443 261.216 
L 60.078908 261.216 
L 60.143839 261.216 
L 60.273701 261.216 
L 60.533425 261.216 
L 61.052872 261.216 
L 62.091766 261.216 
L 64.169555 261.216 
L 68.325134 261.216 
L 74.818225 261.216 
L 81.311315 261.216 
L 87.804406 261.216 
L 94.297497 261.216 
L 100.790588 261.216 
L 107.283679 261.216 
L 113.77677 261.216 
L 120.269861 261.216 
L 124.944886 261.216 
L 124.951379 237.024 
L 124.964366 188.64 
L 124.990338 91.872 
L 125.009817 19.296 
L 125.014259 19.296 
L 125.023142 19.296 
L 125.040909 19.296 
L 125.076442 19.296 
L 125.126574 19.296 
L 125.213412 19.296 
L 125.339698 19.296 
L 125.59227 19.296 
L 126.097412 19.296 
L 127.107698 19.296 
L 129.12827 19.296 
L 133.169413 19.296 
L 137.591431 19.296 
L 144.084522 19.296 
L 150.577613 19.296 
L 157.070704 19.296 
L 163.563795 19.296 
L 170.056886 19.296 
L 176.549977 19.296 
L 183.043068 19.296 
L 189.536159 19.296 
L 196.02925 19.296 
L 202.522341 19.296 
L 209.015431 19.296 
L 215.508522 19.296 
L 222.001613 19.296 
L 228.494704 19.296 
L 234.987795 19.296 
L 241.480886 19.296 
L 247.973977 19.296 
L 254.467068 19.296 
L 260.960159 19.296 
L 267.45325 19.296 
L 273.946341 19.296 
L 280.439431 19.296 
L 286.932522 19.296 
L 293.425613 19.296 
L 299.918704 19.296 
L 306.411795 19.296 
L 312.904886 19.296 
L 319.397977 19.296 
L 325.891068 19.296 
L 332.384159 19.296 
L 338.87725 19.296 
L 345.370341 19.296 
L 351.863431 19.296 
L 358.356522 19.296 
L 364.849613 19.296 
L 371.342704 19.296 
L 377.835795 19.296 
L 384.328886 19.296 
L 384.668523 19.296 
" clip-path="url(#p16e4e017fa)" style="fill: none; stroke: #d62728; stroke-width: 1.5; stroke-linecap: square"/>
   </g>
   <g id="line2d_29">
    <path d="M 60.013977 254.356765 
L 60.046443 254.356766 
L 60.078908 254.356766 
L 60.143839 254.356766 
L 60.273701 254.356767 
L 60.533425 254.356768 
L 61.052872 254.356768 
L 62.091766 254.356768 
L 64.169555 254.356768 
L 68.325134 254.356768 
L 74.818225 254.356768 
L 81.311315 254.356768 
L 87.804406 254.356768 
L 94.297497 254.356768 
L 100.790588 254.356768 
L 107.283679 254.356768 
L 113.77677 254.356768 
L 120.269861 254.356768 
L 124.944886 254.356768 
L 124.951379 254.325006 
L 124.964366 254.248823 
L 124.990338 254.04927 
L 125.009817 253.897397 
L 125.013845 253.900928 
L 125.021901 253.907518 
L 125.038012 253.931145 
L 125.070235 253.966287 
L 125.124065 253.967469 
L 125.198079 253.947501 
L 125.318344 253.901637 
L 125.558874 253.769558 
L 126.039934 253.383467 
L 127.002053 252.191181 
L 128.867914 248.641142 
L 132.599635 239.082515 
L 137.486239 225.15725 
L 143.716113 207.363089 
L 150.209204 188.89274 
L 156.702295 170.488428 
L 163.195386 152.159716 
L 169.688476 133.916433 
L 176.181567 115.780674 
L 182.674658 97.913887 
L 189.167749 82.252393 
L 195.66084 71.942208 
L 202.153931 66.658594 
L 208.647022 63.996558 
L 215.140113 62.658549 
L 221.633204 61.958042 
L 228.126295 61.600105 
L 234.619386 61.407451 
L 241.112476 61.311096 
L 247.605567 61.257645 
L 254.098658 61.232021 
L 260.591749 61.216941 
L 267.08484 61.210335 
L 273.577931 61.205919 
L 280.071022 61.204363 
L 286.564113 61.202955 
L 293.057204 61.202707 
L 299.550295 61.202168 
L 306.043386 61.202242 
L 312.536476 61.201965 
L 319.029567 61.202108 
L 325.522658 61.201915 
L 332.015749 61.202068 
L 338.50884 61.201905 
L 345.001931 61.202055 
L 351.495022 61.201903 
L 357.988113 61.20205 
L 364.481204 61.201905 
L 370.974295 61.202048 
L 377.467386 61.201905 
L 383.960476 61.202047 
L 384.668523 61.20191 
" clip-path="url(#p16e4e017fa)" style="fill: none; stroke: #9467bd; stroke-width: 1.5; stroke-linecap: square"/>
   </g>
   <g id="line2d_30">
    <path d="M 60.013977 261.216 
L 60.046443 261.216 
L 60.078908 261.216 
L 60.143839 261.216 
L 60.273701 261.216 
L 60.533425 261.216 
L 61.052872 261.216 
L 62.091766 261.216 
L 64.169555 261.216 
L 68.325134 261.216 
L 74.818225 261.216 
L 81.311315 261.216 
L 87.804406 261.216 
L 94.297497 261.216 
L 100.790588 261.216 
L 107.283679 261.216 
L 113.77677 261.216 
L 120.269861 261.216 
L 124.944886 261.216 
L 124.951379 237.024 
L 124.964366 188.64 
L 124.990338 91.872 
L 125.009817 19.296 
L 125.013845 19.296 
L 125.021901 19.296 
L 125.038012 19.296 
L 125.070235 19.296 
L 125.124065 19.296 
L 125.198079 19.296 
L 125.318344 19.296 
L 125.558874 19.296 
L 126.039934 19.296 
L 127.002053 19.296 
L 128.867914 19.296 
L 132.599635 19.296 
L 137.486239 19.296 
L 143.716113 19.296 
L 150.209204 19.296 
L 156.702295 19.296 
L 163.195386 19.296 
L 169.688476 19.296 
L 176.181567 19.296 
L 182.674658 19.296 
L 189.167749 19.296 
L 195.66084 19.296 
L 202.153931 19.296 
L 208.647022 19.296 
L 215.140113 19.296 
L 221.633204 19.296 
L 228.126295 19.296 
L 234.619386 19.296 
L 241.112476 19.296 
L 247.605567 19.296 
L 254.098658 19.296 
L 260.591749 19.296 
L 267.08484 19.296 
L 273.577931 19.296 
L 280.071022 19.296 
L 286.564113 19.296 
L 293.057204 19.296 
L 299.550295 19.296 
L 306.043386 19.296 
L 312.536476 19.296 
L 319.029567 19.296 
L 325.522658 19.296 
L 332.015749 19.296 
L 338.50884 19.296 
L 345.001931 19.296 
L 351.495022 19.296 
L 357.988113 19.296 
L 364.481204 19.296 
L 370.974295 19.296 
L 377.467386 19.296 
L 383.960476 19.296 
L 384.668523 19.296 
" clip-path="url(#p16e4e017fa)" style="fill: none; stroke: #8c564b; stroke-width: 1.5; stroke-linecap: square"/>
   </g>
   <g id="line2d_31">
    <path d="M 60.013977 251.399247 
L 60.046443 251.399248 
L 60.078908 251.399249 
L 60.143839 251.399251 
L 60.273701 251.399253 
L 60.533425 251.399256 
L 61.052872 251.399257 
L 62.091766 251.399257 
L 64.169555 251.399257 
L 68.325134 251.399257 
L 74.818225 251.399257 
L 81.311315 251.399257 
L 87.804406 251.399257 
L 94.297497 251.399257 
L 100.790588 251.399257 
L 107.283679 251.399257 
L 113.77677 251.399257 
L 120.269861 251.399257 
L 124.944886 251.399257 
L 124.951379 251.354435 
L 124.964366 251.24916 
L 124.990338 251.042576 
L 125.009817 250.885967 
L 125.013329 250.888644 
L 125.020353 250.898376 
L 125.0344 250.930334 
L 125.062494 250.955344 
L 125.117098 250.936563 
L 125.182401 250.892502 
L 125.295411 250.80646 
L 125.521433 250.598043 
L 125.973474 250.073768 
L 126.877557 248.677332 
L 128.454853 245.365816 
L 131.609446 236.849321 
L 136.920091 220.798901 
L 142.566751 203.795065 
L 149.059842 184.763331 
L 155.552933 166.084429 
L 162.046024 147.663469 
L 168.539115 129.453878 
L 175.032206 111.621702 
L 181.525297 95.711067 
L 188.018388 84.301012 
L 194.511479 77.57366 
L 201.00457 73.742146 
L 207.49766 71.560631 
L 213.990751 70.295575 
L 220.483842 69.560773 
L 226.976933 69.126674 
L 233.470024 68.874019 
L 239.963115 68.72423 
L 246.456206 68.637026 
L 252.949297 68.585316 
L 259.442388 68.555115 
L 265.935479 68.537327 
L 272.42857 68.526788 
L 278.92166 68.520745 
L 285.414751 68.51699 
L 291.907842 68.515013 
L 298.400933 68.5136 
L 304.894024 68.513032 
L 311.387115 68.512427 
L 317.880206 68.512347 
L 324.373297 68.512024 
L 330.866388 68.51211 
L 337.359479 68.511884 
L 343.85257 68.512027 
L 350.34566 68.511837 
L 356.838751 68.511998 
L 363.331842 68.511823 
L 369.824933 68.511987 
L 376.318024 68.511818 
L 382.811115 68.511984 
L 384.668523 68.511819 
" clip-path="url(#p16e4e017fa)" style="fill: none; stroke: #e377c2; stroke-width: 1.5; stroke-linecap: square"/>
   </g>
   <g id="line2d_32">
    <path d="M 60.013977 261.216 
L 60.046443 261.216 
L 60.078908 261.216 
L 60.143839 261.216 
L 60.273701 261.216 
L 60.533425 261.216 
L 61.052872 261.216 
L 62.091766 261.216 
L 64.169555 261.216 
L 68.325134 261.216 
L 74.818225 261.216 
L 81.311315 261.216 
L 87.804406 261.216 
L 94.297497 261.216 
L 100.790588 261.216 
L 107.283679 261.216 
L 113.77677 261.216 
L 120.269861 261.216 
L 124.944886 261.216 
L 124.951379 237.024 
L 124.964366 188.64 
L 124.990338 91.872 
L 125.009817 19.296 
L 125.013329 19.296 
L 125.020353 19.296 
L 125.0344 19.296 
L 125.062494 19.296 
L 125.117098 19.296 
L 125.182401 19.296 
L 125.295411 19.296 
L 125.521433 19.296 
L 125.973474 19.296 
L 126.877557 19.296 
L 128.454853 19.296 
L 131.609446 19.296 
L 136.920091 19.296 
L 142.566751 19.296 
L 149.059842 19.296 
L 155.552933 19.296 
L 162.046024 19.296 
L 168.539115 19.296 
L 175.032206 19.296 
L 181.525297 19.296 
L 188.018388 19.296 
L 194.511479 19.296 
L 201.00457 19.296 
L 207.49766 19.296 
L 213.990751 19.296 
L 220.483842 19.296 
L 226.976933 19.296 
L 233.470024 19.296 
L 239.963115 19.296 
L 246.456206 19.296 
L 252.949297 19.296 
L 259.442388 19.296 
L 265.935479 19.296 
L 272.42857 19.296 
L 278.92166 19.296 
L 285.414751 19.296 
L 291.907842 19.296 
L 298.400933 19.296 
L 304.894024 19.296 
L 311.387115 19.296 
L 317.880206 19.296 
L 324.373297 19.296 
L 330.866388 19.296 
L 337.359479 19.296 
L 343.85257 19.296 
L 350.34566 19.296 
L 356.838751 19.296 
L 363.331842 19.296 
L 369.824933 19.296 
L 376.318024 19.296 
L 382.811115 19.296 
L 384.668523 19.296 
" clip-path="url(#p16e4e017fa)" style="fill: none; stroke: #7f7f7f; stroke-width: 1.5; stroke-linecap: square"/>
   </g>
   <g id="patch_3">
    <path d="M 43.78125 273.312 
L 43.78125 7.2 
" style="fill: none; stroke: #000000; stroke-width: 0.8; stroke-linejoin: miter; stroke-linecap: square"/>
   </g>
   <g id="patch_4">
    <path d="M 400.90125 273.312 
L 400.90125 7.2 
" style="fill: none; stroke: #000000; stroke-width: 0.8; stroke-linejoin: miter; stroke-linecap: square"/>
   </g>
   <g id="patch_5">
    <path d="M 43.78125 273.312 
L 400.90125 273.312 
" style="fill: none; stroke: #000000; stroke-width: 0.8; stroke-linejoin: miter; stroke-linecap: square"/>
   </g>
   <g id="patch_6">
    <path d="M 43.78125 7.2 
L 400.90125 7.2 
" style="fill: none; stroke: #000000; stroke-width: 0.8; stroke-linejoin: miter; stroke-linecap: square"/>
   </g>
   <g id="legend_1">
    <g id="patch_7">
     <path d="M 417.18605 279.4125 
L 635.595425 279.4125 
Q 637.595425 279.4125 637.595425 277.4125 
L 637.595425 9.2 
Q 637.595425 7.2 635.595425 7.2 
L 417.18605 7.2 
Q 415.18605 7.2 415.18605 9.2 
L 415.18605 277.4125 
Q 415.18605 279.4125 417.18605 279.4125 
z
" style="fill: #ffffff; opacity: 0.8; stroke: #cccccc; stroke-linejoin: miter"/>
    </g>
    <g id="line2d_33">
     <path d="M 419.18605 15.298437 
L 429.18605 15.298437 
L 439.18605 15.298437 
" style="fill: none; stroke: #1f77b4; stroke-width: 1.5; stroke-linecap: square"/>
    </g>
    <g id="text_18">
     <!-- temperature = -40, corner = mos_ss -->
     <g transform="translate(447.18605 18.798437) scale(0.1 -0.1)">
      <defs>
       <path id="DejaVuSans-72" d="M 2631 2963 
Q 2534 3019 2420 3045 
Q 2306 3072 2169 3072 
Q 1681 3072 1420 2755 
Q 1159 2438 1159 1844 
L 1159 0 
L 581 0 
L 581 3500 
L 1159 3500 
L 1159 2956 
Q 1341 3275 1631 3429 
Q 1922 3584 2338 3584 
Q 2397 3584 2469 3576 
Q 2541 3569 2628 3553 
L 2631 2963 
z
" transform="scale(0.015625)"/>
       <path id="DejaVuSans-61" d="M 2194 1759 
Q 1497 1759 1228 1600 
Q 959 1441 959 1056 
Q 959 750 1161 570 
Q 1363 391 1709 391 
Q 2188 391 2477 730 
Q 2766 1069 2766 1631 
L 2766 1759 
L 2194 1759 
z
M 3341 1997 
L 3341 0 
L 2766 0 
L 2766 531 
Q 2569 213 2275 61 
Q 1981 -91 1556 -91 
Q 1019 -91 701 211 
Q 384 513 384 1019 
Q 384 1609 779 1909 
Q 1175 2209 1959 2209 
L 2766 2209 
L 2766 2266 
Q 2766 2663 2505 2880 
Q 2244 3097 1772 3097 
Q 1472 3097 1187 3025 
Q 903 2953 641 2809 
L 641 3341 
Q 956 3463 1253 3523 
Q 1550 3584 1831 3584 
Q 2591 3584 2966 3190 
Q 3341 2797 3341 1997 
z
" transform="scale(0.015625)"/>
       <path id="DejaVuSans-3d" d="M 678 2906 
L 4684 2906 
L 4684 2381 
L 678 2381 
L 678 2906 
z
M 678 1631 
L 4684 1631 
L 4684 1100 
L 678 1100 
L 678 1631 
z
" transform="scale(0.015625)"/>
       <path id="DejaVuSans-2d" d="M 313 2009 
L 1997 2009 
L 1997 1497 
L 313 1497 
L 313 2009 
z
" transform="scale(0.015625)"/>
       <path id="DejaVuSans-63" d="M 3122 3366 
L 3122 2828 
Q 2878 2963 2633 3030 
Q 2388 3097 2138 3097 
Q 1578 3097 1268 2742 
Q 959 2388 959 1747 
Q 959 1106 1268 751 
Q 1578 397 2138 397 
Q 2388 397 2633 464 
Q 2878 531 3122 666 
L 3122 134 
Q 2881 22 2623 -34 
Q 2366 -91 2075 -91 
Q 1284 -91 818 406 
Q 353 903 353 1747 
Q 353 2603 823 3093 
Q 1294 3584 2113 3584 
Q 2378 3584 2631 3529 
Q 2884 3475 3122 3366 
z
" transform="scale(0.015625)"/>
       <path id="DejaVuSans-5f" d="M 3263 -1063 
L 3263 -1509 
L -63 -1509 
L -63 -1063 
L 3263 -1063 
z
" transform="scale(0.015625)"/>
      </defs>
      <use xlink:href="#DejaVuSans-74"/>
      <use xlink:href="#DejaVuSans-65" x="39.208984"/>
      <use xlink:href="#DejaVuSans-6d" x="100.732422"/>
      <use xlink:href="#DejaVuSans-70" x="198.144531"/>
      <use xlink:href="#DejaVuSans-65" x="261.621094"/>
      <use xlink:href="#DejaVuSans-72" x="323.144531"/>
      <use xlink:href="#DejaVuSans-61" x="364.257812"/>
      <use xlink:href="#DejaVuSans-74" x="425.537109"/>
      <use xlink:href="#DejaVuSans-75" x="464.746094"/>
      <use xlink:href="#DejaVuSans-72" x="528.125"/>
      <use xlink:href="#DejaVuSans-65" x="566.988281"/>
      <use xlink:href="#DejaVuSans-20" x="628.511719"/>
      <use xlink:href="#DejaVuSans-3d" x="660.298828"/>
      <use xlink:href="#DejaVuSans-20" x="744.087891"/>
      <use xlink:href="#DejaVuSans-2d" x="775.875"/>
      <use xlink:href="#DejaVuSans-34" x="811.958984"/>
      <use xlink:href="#DejaVuSans-30" x="875.582031"/>
      <use xlink:href="#DejaVuSans-2c" x="939.205078"/>
      <use xlink:href="#DejaVuSans-20" x="970.992188"/>
      <use xlink:href="#DejaVuSans-63" x="1002.779297"/>
      <use xlink:href="#DejaVuSans-6f" x="1057.759766"/>
      <use xlink:href="#DejaVuSans-72" x="1118.941406"/>
      <use xlink:href="#DejaVuSans-6e" x="1158.304688"/>
      <use xlink:href="#DejaVuSans-65" x="1221.683594"/>
      <use xlink:href="#DejaVuSans-72" x="1283.207031"/>
      <use xlink:href="#DejaVuSans-20" x="1324.320312"/>
      <use xlink:href="#DejaVuSans-3d" x="1356.107422"/>
      <use xlink:href="#DejaVuSans-20" x="1439.896484"/>
      <use xlink:href="#DejaVuSans-6d" x="1471.683594"/>
      <use xlink:href="#DejaVuSans-6f" x="1569.095703"/>
      <use xlink:href="#DejaVuSans-73" x="1630.277344"/>
      <use xlink:href="#DejaVuSans-5f" x="1682.376953"/>
      <use xlink:href="#DejaVuSans-73" x="1732.376953"/>
      <use xlink:href="#DejaVuSans-73" x="1784.476562"/>
     </g>
    </g>
    <g id="line2d_34">
     <path d="M 419.18605 30.254687 
L 429.18605 30.254687 
L 439.18605 30.254687 
" style="fill: none; stroke: #ff7f0e; stroke-width: 1.5; stroke-linecap: square"/>
    </g>
    <g id="text_19">
     <!-- temperature = -40, corner = mos_ss -->
     <g transform="translate(447.18605 33.754687) scale(0.1 -0.1)">
      <use xlink:href="#DejaVuSans-74"/>
      <use xlink:href="#DejaVuSans-65" x="39.208984"/>
      <use xlink:href="#DejaVuSans-6d" x="100.732422"/>
      <use xlink:href="#DejaVuSans-70" x="198.144531"/>
      <use xlink:href="#DejaVuSans-65" x="261.621094"/>
      <use xlink:href="#DejaVuSans-72" x="323.144531"/>
      <use xlink:href="#DejaVuSans-61" x="364.257812"/>
      <use xlink:href="#DejaVuSans-74" x="425.537109"/>
      <use xlink:href="#DejaVuSans-75" x="464.746094"/>
      <use xlink:href="#DejaVuSans-72" x="528.125"/>
      <use xlink:href="#DejaVuSans-65" x="566.988281"/>
      <use xlink:href="#DejaVuSans-20" x="628.511719"/>
      <use xlink:href="#DejaVuSans-3d" x="660.298828"/>
      <use xlink:href="#DejaVuSans-20" x="744.087891"/>
      <use xlink:href="#DejaVuSans-2d" x="775.875"/>
      <use xlink:href="#DejaVuSans-34" x="811.958984"/>
      <use xlink:href="#DejaVuSans-30" x="875.582031"/>
      <use xlink:href="#DejaVuSans-2c" x="939.205078"/>
      <use xlink:href="#DejaVuSans-20" x="970.992188"/>
      <use xlink:href="#DejaVuSans-63" x="1002.779297"/>
      <use xlink:href="#DejaVuSans-6f" x="1057.759766"/>
      <use xlink:href="#DejaVuSans-72" x="1118.941406"/>
      <use xlink:href="#DejaVuSans-6e" x="1158.304688"/>
      <use xlink:href="#DejaVuSans-65" x="1221.683594"/>
      <use xlink:href="#DejaVuSans-72" x="1283.207031"/>
      <use xlink:href="#DejaVuSans-20" x="1324.320312"/>
      <use xlink:href="#DejaVuSans-3d" x="1356.107422"/>
      <use xlink:href="#DejaVuSans-20" x="1439.896484"/>
      <use xlink:href="#DejaVuSans-6d" x="1471.683594"/>
      <use xlink:href="#DejaVuSans-6f" x="1569.095703"/>
      <use xlink:href="#DejaVuSans-73" x="1630.277344"/>
      <use xlink:href="#DejaVuSans-5f" x="1682.376953"/>
      <use xlink:href="#DejaVuSans-73" x="1732.376953"/>
      <use xlink:href="#DejaVuSans-73" x="1784.476562"/>
     </g>
    </g>
    <g id="line2d_35">
     <path d="M 419.18605 45.210938 
L 429.18605 45.210938 
L 439.18605 45.210938 
" style="fill: none; stroke: #2ca02c; stroke-width: 1.5; stroke-linecap: square"/>
    </g>
    <g id="text_20">
     <!-- temperature = 27, corner = mos_ss -->
     <g transform="translate(447.18605 48.710938) scale(0.1 -0.1)">
      <use xlink:href="#DejaVuSans-74"/>
      <use xlink:href="#DejaVuSans-65" x="39.208984"/>
      <use xlink:href="#DejaVuSans-6d" x="100.732422"/>
      <use xlink:href="#DejaVuSans-70" x="198.144531"/>
      <use xlink:href="#DejaVuSans-65" x="261.621094"/>
      <use xlink:href="#DejaVuSans-72" x="323.144531"/>
      <use xlink:href="#DejaVuSans-61" x="364.257812"/>
      <use xlink:href="#DejaVuSans-74" x="425.537109"/>
      <use xlink:href="#DejaVuSans-75" x="464.746094"/>
      <use xlink:href="#DejaVuSans-72" x="528.125"/>
      <use xlink:href="#DejaVuSans-65" x="566.988281"/>
      <use xlink:href="#DejaVuSans-20" x="628.511719"/>
      <use xlink:href="#DejaVuSans-3d" x="660.298828"/>
      <use xlink:href="#DejaVuSans-20" x="744.087891"/>
      <use xlink:href="#DejaVuSans-32" x="775.875"/>
      <use xlink:href="#DejaVuSans-37" x="839.498047"/>
      <use xlink:href="#DejaVuSans-2c" x="903.121094"/>
      <use xlink:href="#DejaVuSans-20" x="934.908203"/>
      <use xlink:href="#DejaVuSans-63" x="966.695312"/>
      <use xlink:href="#DejaVuSans-6f" x="1021.675781"/>
      <use xlink:href="#DejaVuSans-72" x="1082.857422"/>
      <use xlink:href="#DejaVuSans-6e" x="1122.220703"/>
      <use xlink:href="#DejaVuSans-65" x="1185.599609"/>
      <use xlink:href="#DejaVuSans-72" x="1247.123047"/>
      <use xlink:href="#DejaVuSans-20" x="1288.236328"/>
      <use xlink:href="#DejaVuSans-3d" x="1320.023438"/>
      <use xlink:href="#DejaVuSans-20" x="1403.8125"/>
      <use xlink:href="#DejaVuSans-6d" x="1435.599609"/>
      <use xlink:href="#DejaVuSans-6f" x="1533.011719"/>
      <use xlink:href="#DejaVuSans-73" x="1594.193359"/>
      <use xlink:href="#DejaVuSans-5f" x="1646.292969"/>
      <use xlink:href="#DejaVuSans-73" x="1696.292969"/>
      <use xlink:href="#DejaVuSans-73" x="1748.392578"/>
     </g>
    </g>
    <g id="line2d_36">
     <path d="M 419.18605 60.167188 
L 429.18605 60.167188 
L 439.18605 60.167188 
" style="fill: none; stroke: #d62728; stroke-width: 1.5; stroke-linecap: square"/>
    </g>
    <g id="text_21">
     <!-- temperature = 27, corner = mos_ss -->
     <g transform="translate(447.18605 63.667188) scale(0.1 -0.1)">
      <use xlink:href="#DejaVuSans-74"/>
      <use xlink:href="#DejaVuSans-65" x="39.208984"/>
      <use xlink:href="#DejaVuSans-6d" x="100.732422"/>
      <use xlink:href="#DejaVuSans-70" x="198.144531"/>
      <use xlink:href="#DejaVuSans-65" x="261.621094"/>
      <use xlink:href="#DejaVuSans-72" x="323.144531"/>
      <use xlink:href="#DejaVuSans-61" x="364.257812"/>
      <use xlink:href="#DejaVuSans-74" x="425.537109"/>
      <use xlink:href="#DejaVuSans-75" x="464.746094"/>
      <use xlink:href="#DejaVuSans-72" x="528.125"/>
      <use xlink:href="#DejaVuSans-65" x="566.988281"/>
      <use xlink:href="#DejaVuSans-20" x="628.511719"/>
      <use xlink:href="#DejaVuSans-3d" x="660.298828"/>
      <use xlink:href="#DejaVuSans-20" x="744.087891"/>
      <use xlink:href="#DejaVuSans-32" x="775.875"/>
      <use xlink:href="#DejaVuSans-37" x="839.498047"/>
      <use xlink:href="#DejaVuSans-2c" x="903.121094"/>
      <use xlink:href="#DejaVuSans-20" x="934.908203"/>
      <use xlink:href="#DejaVuSans-63" x="966.695312"/>
      <use xlink:href="#DejaVuSans-6f" x="1021.675781"/>
      <use xlink:href="#DejaVuSans-72" x="1082.857422"/>
      <use xlink:href="#DejaVuSans-6e" x="1122.220703"/>
      <use xlink:href="#DejaVuSans-65" x="1185.599609"/>
      <use xlink:href="#DejaVuSans-72" x="1247.123047"/>
      <use xlink:href="#DejaVuSans-20" x="1288.236328"/>
      <use xlink:href="#DejaVuSans-3d" x="1320.023438"/>
      <use xlink:href="#DejaVuSans-20" x="1403.8125"/>
      <use xlink:href="#DejaVuSans-6d" x="1435.599609"/>
      <use xlink:href="#DejaVuSans-6f" x="1533.011719"/>
      <use xlink:href="#DejaVuSans-73" x="1594.193359"/>
      <use xlink:href="#DejaVuSans-5f" x="1646.292969"/>
      <use xlink:href="#DejaVuSans-73" x="1696.292969"/>
      <use xlink:href="#DejaVuSans-73" x="1748.392578"/>
     </g>
    </g>
    <g id="line2d_37">
     <path d="M 419.18605 75.123437 
L 429.18605 75.123437 
L 439.18605 75.123437 
" style="fill: none; stroke: #9467bd; stroke-width: 1.5; stroke-linecap: square"/>
    </g>
    <g id="text_22">
     <!-- temperature = 130, corner = mos_ss -->
     <g transform="translate(447.18605 78.623437) scale(0.1 -0.1)">
      <use xlink:href="#DejaVuSans-74"/>
      <use xlink:href="#DejaVuSans-65" x="39.208984"/>
      <use xlink:href="#DejaVuSans-6d" x="100.732422"/>
      <use xlink:href="#DejaVuSans-70" x="198.144531"/>
      <use xlink:href="#DejaVuSans-65" x="261.621094"/>
      <use xlink:href="#DejaVuSans-72" x="323.144531"/>
      <use xlink:href="#DejaVuSans-61" x="364.257812"/>
      <use xlink:href="#DejaVuSans-74" x="425.537109"/>
      <use xlink:href="#DejaVuSans-75" x="464.746094"/>
      <use xlink:href="#DejaVuSans-72" x="528.125"/>
      <use xlink:href="#DejaVuSans-65" x="566.988281"/>
      <use xlink:href="#DejaVuSans-20" x="628.511719"/>
      <use xlink:href="#DejaVuSans-3d" x="660.298828"/>
      <use xlink:href="#DejaVuSans-20" x="744.087891"/>
      <use xlink:href="#DejaVuSans-31" x="775.875"/>
      <use xlink:href="#DejaVuSans-33" x="839.498047"/>
      <use xlink:href="#DejaVuSans-30" x="903.121094"/>
      <use xlink:href="#DejaVuSans-2c" x="966.744141"/>
      <use xlink:href="#DejaVuSans-20" x="998.53125"/>
      <use xlink:href="#DejaVuSans-63" x="1030.318359"/>
      <use xlink:href="#DejaVuSans-6f" x="1085.298828"/>
      <use xlink:href="#DejaVuSans-72" x="1146.480469"/>
      <use xlink:href="#DejaVuSans-6e" x="1185.84375"/>
      <use xlink:href="#DejaVuSans-65" x="1249.222656"/>
      <use xlink:href="#DejaVuSans-72" x="1310.746094"/>
      <use xlink:href="#DejaVuSans-20" x="1351.859375"/>
      <use xlink:href="#DejaVuSans-3d" x="1383.646484"/>
      <use xlink:href="#DejaVuSans-20" x="1467.435547"/>
      <use xlink:href="#DejaVuSans-6d" x="1499.222656"/>
      <use xlink:href="#DejaVuSans-6f" x="1596.634766"/>
      <use xlink:href="#DejaVuSans-73" x="1657.816406"/>
      <use xlink:href="#DejaVuSans-5f" x="1709.916016"/>
      <use xlink:href="#DejaVuSans-73" x="1759.916016"/>
      <use xlink:href="#DejaVuSans-73" x="1812.015625"/>
     </g>
    </g>
    <g id="line2d_38">
     <path d="M 419.18605 90.079687 
L 429.18605 90.079687 
L 439.18605 90.079687 
" style="fill: none; stroke: #8c564b; stroke-width: 1.5; stroke-linecap: square"/>
    </g>
    <g id="text_23">
     <!-- temperature = 130, corner = mos_ss -->
     <g transform="translate(447.18605 93.579687) scale(0.1 -0.1)">
      <use xlink:href="#DejaVuSans-74"/>
      <use xlink:href="#DejaVuSans-65" x="39.208984"/>
      <use xlink:href="#DejaVuSans-6d" x="100.732422"/>
      <use xlink:href="#DejaVuSans-70" x="198.144531"/>
      <use xlink:href="#DejaVuSans-65" x="261.621094"/>
      <use xlink:href="#DejaVuSans-72" x="323.144531"/>
      <use xlink:href="#DejaVuSans-61" x="364.257812"/>
      <use xlink:href="#DejaVuSans-74" x="425.537109"/>
      <use xlink:href="#DejaVuSans-75" x="464.746094"/>
      <use xlink:href="#DejaVuSans-72" x="528.125"/>
      <use xlink:href="#DejaVuSans-65" x="566.988281"/>
      <use xlink:href="#DejaVuSans-20" x="628.511719"/>
      <use xlink:href="#DejaVuSans-3d" x="660.298828"/>
      <use xlink:href="#DejaVuSans-20" x="744.087891"/>
      <use xlink:href="#DejaVuSans-31" x="775.875"/>
      <use xlink:href="#DejaVuSans-33" x="839.498047"/>
      <use xlink:href="#DejaVuSans-30" x="903.121094"/>
      <use xlink:href="#DejaVuSans-2c" x="966.744141"/>
      <use xlink:href="#DejaVuSans-20" x="998.53125"/>
      <use xlink:href="#DejaVuSans-63" x="1030.318359"/>
      <use xlink:href="#DejaVuSans-6f" x="1085.298828"/>
      <use xlink:href="#DejaVuSans-72" x="1146.480469"/>
      <use xlink:href="#DejaVuSans-6e" x="1185.84375"/>
      <use xlink:href="#DejaVuSans-65" x="1249.222656"/>
      <use xlink:href="#DejaVuSans-72" x="1310.746094"/>
      <use xlink:href="#DejaVuSans-20" x="1351.859375"/>
      <use xlink:href="#DejaVuSans-3d" x="1383.646484"/>
      <use xlink:href="#DejaVuSans-20" x="1467.435547"/>
      <use xlink:href="#DejaVuSans-6d" x="1499.222656"/>
      <use xlink:href="#DejaVuSans-6f" x="1596.634766"/>
      <use xlink:href="#DejaVuSans-73" x="1657.816406"/>
      <use xlink:href="#DejaVuSans-5f" x="1709.916016"/>
      <use xlink:href="#DejaVuSans-73" x="1759.916016"/>
      <use xlink:href="#DejaVuSans-73" x="1812.015625"/>
     </g>
    </g>
    <g id="line2d_39">
     <path d="M 419.18605 105.035937 
L 429.18605 105.035937 
L 439.18605 105.035937 
" style="fill: none; stroke: #e377c2; stroke-width: 1.5; stroke-linecap: square"/>
    </g>
    <g id="text_24">
     <!-- temperature = -40, corner = mos_tt -->
     <g transform="translate(447.18605 108.535937) scale(0.1 -0.1)">
      <use xlink:href="#DejaVuSans-74"/>
      <use xlink:href="#DejaVuSans-65" x="39.208984"/>
      <use xlink:href="#DejaVuSans-6d" x="100.732422"/>
      <use xlink:href="#DejaVuSans-70" x="198.144531"/>
      <use xlink:href="#DejaVuSans-65" x="261.621094"/>
      <use xlink:href="#DejaVuSans-72" x="323.144531"/>
      <use xlink:href="#DejaVuSans-61" x="364.257812"/>
      <use xlink:href="#DejaVuSans-74" x="425.537109"/>
      <use xlink:href="#DejaVuSans-75" x="464.746094"/>
      <use xlink:href="#DejaVuSans-72" x="528.125"/>
      <use xlink:href="#DejaVuSans-65" x="566.988281"/>
      <use xlink:href="#DejaVuSans-20" x="628.511719"/>
      <use xlink:href="#DejaVuSans-3d" x="660.298828"/>
      <use xlink:href="#DejaVuSans-20" x="744.087891"/>
      <use xlink:href="#DejaVuSans-2d" x="775.875"/>
      <use xlink:href="#DejaVuSans-34" x="811.958984"/>
      <use xlink:href="#DejaVuSans-30" x="875.582031"/>
      <use xlink:href="#DejaVuSans-2c" x="939.205078"/>
      <use xlink:href="#DejaVuSans-20" x="970.992188"/>
      <use xlink:href="#DejaVuSans-63" x="1002.779297"/>
      <use xlink:href="#DejaVuSans-6f" x="1057.759766"/>
      <use xlink:href="#DejaVuSans-72" x="1118.941406"/>
      <use xlink:href="#DejaVuSans-6e" x="1158.304688"/>
      <use xlink:href="#DejaVuSans-65" x="1221.683594"/>
      <use xlink:href="#DejaVuSans-72" x="1283.207031"/>
      <use xlink:href="#DejaVuSans-20" x="1324.320312"/>
      <use xlink:href="#DejaVuSans-3d" x="1356.107422"/>
      <use xlink:href="#DejaVuSans-20" x="1439.896484"/>
      <use xlink:href="#DejaVuSans-6d" x="1471.683594"/>
      <use xlink:href="#DejaVuSans-6f" x="1569.095703"/>
      <use xlink:href="#DejaVuSans-73" x="1630.277344"/>
      <use xlink:href="#DejaVuSans-5f" x="1682.376953"/>
      <use xlink:href="#DejaVuSans-74" x="1732.376953"/>
      <use xlink:href="#DejaVuSans-74" x="1771.585938"/>
     </g>
    </g>
    <g id="line2d_40">
     <path d="M 419.18605 119.992188 
L 429.18605 119.992188 
L 439.18605 119.992188 
" style="fill: none; stroke: #7f7f7f; stroke-width: 1.5; stroke-linecap: square"/>
    </g>
    <g id="text_25">
     <!-- temperature = -40, corner = mos_tt -->
     <g transform="translate(447.18605 123.492188) scale(0.1 -0.1)">
      <use xlink:href="#DejaVuSans-74"/>
      <use xlink:href="#DejaVuSans-65" x="39.208984"/>
      <use xlink:href="#DejaVuSans-6d" x="100.732422"/>
      <use xlink:href="#DejaVuSans-70" x="198.144531"/>
      <use xlink:href="#DejaVuSans-65" x="261.621094"/>
      <use xlink:href="#DejaVuSans-72" x="323.144531"/>
      <use xlink:href="#DejaVuSans-61" x="364.257812"/>
      <use xlink:href="#DejaVuSans-74" x="425.537109"/>
      <use xlink:href="#DejaVuSans-75" x="464.746094"/>
      <use xlink:href="#DejaVuSans-72" x="528.125"/>
      <use xlink:href="#DejaVuSans-65" x="566.988281"/>
      <use xlink:href="#DejaVuSans-20" x="628.511719"/>
      <use xlink:href="#DejaVuSans-3d" x="660.298828"/>
      <use xlink:href="#DejaVuSans-20" x="744.087891"/>
      <use xlink:href="#DejaVuSans-2d" x="775.875"/>
      <use xlink:href="#DejaVuSans-34" x="811.958984"/>
      <use xlink:href="#DejaVuSans-30" x="875.582031"/>
      <use xlink:href="#DejaVuSans-2c" x="939.205078"/>
      <use xlink:href="#DejaVuSans-20" x="970.992188"/>
      <use xlink:href="#DejaVuSans-63" x="1002.779297"/>
      <use xlink:href="#DejaVuSans-6f" x="1057.759766"/>
      <use xlink:href="#DejaVuSans-72" x="1118.941406"/>
      <use xlink:href="#DejaVuSans-6e" x="1158.304688"/>
      <use xlink:href="#DejaVuSans-65" x="1221.683594"/>
      <use xlink:href="#DejaVuSans-72" x="1283.207031"/>
      <use xlink:href="#DejaVuSans-20" x="1324.320312"/>
      <use xlink:href="#DejaVuSans-3d" x="1356.107422"/>
      <use xlink:href="#DejaVuSans-20" x="1439.896484"/>
      <use xlink:href="#DejaVuSans-6d" x="1471.683594"/>
      <use xlink:href="#DejaVuSans-6f" x="1569.095703"/>
      <use xlink:href="#DejaVuSans-73" x="1630.277344"/>
      <use xlink:href="#DejaVuSans-5f" x="1682.376953"/>
      <use xlink:href="#DejaVuSans-74" x="1732.376953"/>
      <use xlink:href="#DejaVuSans-74" x="1771.585938"/>
     </g>
    </g>
    <g id="line2d_41">
     <path d="M 419.18605 134.948437 
L 429.18605 134.948437 
L 439.18605 134.948437 
" style="fill: none; stroke: #bcbd22; stroke-width: 1.5; stroke-linecap: square"/>
    </g>
    <g id="text_26">
     <!-- temperature = 27, corner = mos_tt -->
     <g transform="translate(447.18605 138.448437) scale(0.1 -0.1)">
      <use xlink:href="#DejaVuSans-74"/>
      <use xlink:href="#DejaVuSans-65" x="39.208984"/>
      <use xlink:href="#DejaVuSans-6d" x="100.732422"/>
      <use xlink:href="#DejaVuSans-70" x="198.144531"/>
      <use xlink:href="#DejaVuSans-65" x="261.621094"/>
      <use xlink:href="#DejaVuSans-72" x="323.144531"/>
      <use xlink:href="#DejaVuSans-61" x="364.257812"/>
      <use xlink:href="#DejaVuSans-74" x="425.537109"/>
      <use xlink:href="#DejaVuSans-75" x="464.746094"/>
      <use xlink:href="#DejaVuSans-72" x="528.125"/>
      <use xlink:href="#DejaVuSans-65" x="566.988281"/>
      <use xlink:href="#DejaVuSans-20" x="628.511719"/>
      <use xlink:href="#DejaVuSans-3d" x="660.298828"/>
      <use xlink:href="#DejaVuSans-20" x="744.087891"/>
      <use xlink:href="#DejaVuSans-32" x="775.875"/>
      <use xlink:href="#DejaVuSans-37" x="839.498047"/>
      <use xlink:href="#DejaVuSans-2c" x="903.121094"/>
      <use xlink:href="#DejaVuSans-20" x="934.908203"/>
      <use xlink:href="#DejaVuSans-63" x="966.695312"/>
      <use xlink:href="#DejaVuSans-6f" x="1021.675781"/>
      <use xlink:href="#DejaVuSans-72" x="1082.857422"/>
      <use xlink:href="#DejaVuSans-6e" x="1122.220703"/>
      <use xlink:href="#DejaVuSans-65" x="1185.599609"/>
      <use xlink:href="#DejaVuSans-72" x="1247.123047"/>
      <use xlink:href="#DejaVuSans-20" x="1288.236328"/>
      <use xlink:href="#DejaVuSans-3d" x="1320.023438"/>
      <use xlink:href="#DejaVuSans-20" x="1403.8125"/>
      <use xlink:href="#DejaVuSans-6d" x="1435.599609"/>
      <use xlink:href="#DejaVuSans-6f" x="1533.011719"/>
      <use xlink:href="#DejaVuSans-73" x="1594.193359"/>
      <use xlink:href="#DejaVuSans-5f" x="1646.292969"/>
      <use xlink:href="#DejaVuSans-74" x="1696.292969"/>
      <use xlink:href="#DejaVuSans-74" x="1735.501953"/>
     </g>
    </g>
    <g id="line2d_42">
     <path d="M 419.18605 149.904687 
L 429.18605 149.904687 
L 439.18605 149.904687 
" style="fill: none; stroke: #17becf; stroke-width: 1.5; stroke-linecap: square"/>
    </g>
    <g id="text_27">
     <!-- temperature = 27, corner = mos_tt -->
     <g transform="translate(447.18605 153.404687) scale(0.1 -0.1)">
      <use xlink:href="#DejaVuSans-74"/>
      <use xlink:href="#DejaVuSans-65" x="39.208984"/>
      <use xlink:href="#DejaVuSans-6d" x="100.732422"/>
      <use xlink:href="#DejaVuSans-70" x="198.144531"/>
      <use xlink:href="#DejaVuSans-65" x="261.621094"/>
      <use xlink:href="#DejaVuSans-72" x="323.144531"/>
      <use xlink:href="#DejaVuSans-61" x="364.257812"/>
      <use xlink:href="#DejaVuSans-74" x="425.537109"/>
      <use xlink:href="#DejaVuSans-75" x="464.746094"/>
      <use xlink:href="#DejaVuSans-72" x="528.125"/>
      <use xlink:href="#DejaVuSans-65" x="566.988281"/>
      <use xlink:href="#DejaVuSans-20" x="628.511719"/>
      <use xlink:href="#DejaVuSans-3d" x="660.298828"/>
      <use xlink:href="#DejaVuSans-20" x="744.087891"/>
      <use xlink:href="#DejaVuSans-32" x="775.875"/>
      <use xlink:href="#DejaVuSans-37" x="839.498047"/>
      <use xlink:href="#DejaVuSans-2c" x="903.121094"/>
      <use xlink:href="#DejaVuSans-20" x="934.908203"/>
      <use xlink:href="#DejaVuSans-63" x="966.695312"/>
      <use xlink:href="#DejaVuSans-6f" x="1021.675781"/>
      <use xlink:href="#DejaVuSans-72" x="1082.857422"/>
      <use xlink:href="#DejaVuSans-6e" x="1122.220703"/>
      <use xlink:href="#DejaVuSans-65" x="1185.599609"/>
      <use xlink:href="#DejaVuSans-72" x="1247.123047"/>
      <use xlink:href="#DejaVuSans-20" x="1288.236328"/>
      <use xlink:href="#DejaVuSans-3d" x="1320.023438"/>
      <use xlink:href="#DejaVuSans-20" x="1403.8125"/>
      <use xlink:href="#DejaVuSans-6d" x="1435.599609"/>
      <use xlink:href="#DejaVuSans-6f" x="1533.011719"/>
      <use xlink:href="#DejaVuSans-73" x="1594.193359"/>
      <use xlink:href="#DejaVuSans-5f" x="1646.292969"/>
      <use xlink:href="#DejaVuSans-74" x="1696.292969"/>
      <use xlink:href="#DejaVuSans-74" x="1735.501953"/>
     </g>
    </g>
    <g id="line2d_43">
     <path d="M 419.18605 164.860937 
L 429.18605 164.860937 
L 439.18605 164.860937 
" style="fill: none; stroke: #1f77b4; stroke-width: 1.5; stroke-linecap: square"/>
    </g>
    <g id="text_28">
     <!-- temperature = 130, corner = mos_tt -->
     <g transform="translate(447.18605 168.360937) scale(0.1 -0.1)">
      <use xlink:href="#DejaVuSans-74"/>
      <use xlink:href="#DejaVuSans-65" x="39.208984"/>
      <use xlink:href="#DejaVuSans-6d" x="100.732422"/>
      <use xlink:href="#DejaVuSans-70" x="198.144531"/>
      <use xlink:href="#DejaVuSans-65" x="261.621094"/>
      <use xlink:href="#DejaVuSans-72" x="323.144531"/>
      <use xlink:href="#DejaVuSans-61" x="364.257812"/>
      <use xlink:href="#DejaVuSans-74" x="425.537109"/>
      <use xlink:href="#DejaVuSans-75" x="464.746094"/>
      <use xlink:href="#DejaVuSans-72" x="528.125"/>
      <use xlink:href="#DejaVuSans-65" x="566.988281"/>
      <use xlink:href="#DejaVuSans-20" x="628.511719"/>
      <use xlink:href="#DejaVuSans-3d" x="660.298828"/>
      <use xlink:href="#DejaVuSans-20" x="744.087891"/>
      <use xlink:href="#DejaVuSans-31" x="775.875"/>
      <use xlink:href="#DejaVuSans-33" x="839.498047"/>
      <use xlink:href="#DejaVuSans-30" x="903.121094"/>
      <use xlink:href="#DejaVuSans-2c" x="966.744141"/>
      <use xlink:href="#DejaVuSans-20" x="998.53125"/>
      <use xlink:href="#DejaVuSans-63" x="1030.318359"/>
      <use xlink:href="#DejaVuSans-6f" x="1085.298828"/>
      <use xlink:href="#DejaVuSans-72" x="1146.480469"/>
      <use xlink:href="#DejaVuSans-6e" x="1185.84375"/>
      <use xlink:href="#DejaVuSans-65" x="1249.222656"/>
      <use xlink:href="#DejaVuSans-72" x="1310.746094"/>
      <use xlink:href="#DejaVuSans-20" x="1351.859375"/>
      <use xlink:href="#DejaVuSans-3d" x="1383.646484"/>
      <use xlink:href="#DejaVuSans-20" x="1467.435547"/>
      <use xlink:href="#DejaVuSans-6d" x="1499.222656"/>
      <use xlink:href="#DejaVuSans-6f" x="1596.634766"/>
      <use xlink:href="#DejaVuSans-73" x="1657.816406"/>
      <use xlink:href="#DejaVuSans-5f" x="1709.916016"/>
      <use xlink:href="#DejaVuSans-74" x="1759.916016"/>
      <use xlink:href="#DejaVuSans-74" x="1799.125"/>
     </g>
    </g>
    <g id="line2d_44">
     <path d="M 419.18605 179.817187 
L 429.18605 179.817187 
L 439.18605 179.817187 
" style="fill: none; stroke: #ff7f0e; stroke-width: 1.5; stroke-linecap: square"/>
    </g>
    <g id="text_29">
     <!-- temperature = 130, corner = mos_tt -->
     <g transform="translate(447.18605 183.317187) scale(0.1 -0.1)">
      <use xlink:href="#DejaVuSans-74"/>
      <use xlink:href="#DejaVuSans-65" x="39.208984"/>
      <use xlink:href="#DejaVuSans-6d" x="100.732422"/>
      <use xlink:href="#DejaVuSans-70" x="198.144531"/>
      <use xlink:href="#DejaVuSans-65" x="261.621094"/>
      <use xlink:href="#DejaVuSans-72" x="323.144531"/>
      <use xlink:href="#DejaVuSans-61" x="364.257812"/>
      <use xlink:href="#DejaVuSans-74" x="425.537109"/>
      <use xlink:href="#DejaVuSans-75" x="464.746094"/>
      <use xlink:href="#DejaVuSans-72" x="528.125"/>
      <use xlink:href="#DejaVuSans-65" x="566.988281"/>
      <use xlink:href="#DejaVuSans-20" x="628.511719"/>
      <use xlink:href="#DejaVuSans-3d" x="660.298828"/>
      <use xlink:href="#DejaVuSans-20" x="744.087891"/>
      <use xlink:href="#DejaVuSans-31" x="775.875"/>
      <use xlink:href="#DejaVuSans-33" x="839.498047"/>
      <use xlink:href="#DejaVuSans-30" x="903.121094"/>
      <use xlink:href="#DejaVuSans-2c" x="966.744141"/>
      <use xlink:href="#DejaVuSans-20" x="998.53125"/>
      <use xlink:href="#DejaVuSans-63" x="1030.318359"/>
      <use xlink:href="#DejaVuSans-6f" x="1085.298828"/>
      <use xlink:href="#DejaVuSans-72" x="1146.480469"/>
      <use xlink:href="#DejaVuSans-6e" x="1185.84375"/>
      <use xlink:href="#DejaVuSans-65" x="1249.222656"/>
      <use xlink:href="#DejaVuSans-72" x="1310.746094"/>
      <use xlink:href="#DejaVuSans-20" x="1351.859375"/>
      <use xlink:href="#DejaVuSans-3d" x="1383.646484"/>
      <use xlink:href="#DejaVuSans-20" x="1467.435547"/>
      <use xlink:href="#DejaVuSans-6d" x="1499.222656"/>
      <use xlink:href="#DejaVuSans-6f" x="1596.634766"/>
      <use xlink:href="#DejaVuSans-73" x="1657.816406"/>
      <use xlink:href="#DejaVuSans-5f" x="1709.916016"/>
      <use xlink:href="#DejaVuSans-74" x="1759.916016"/>
      <use xlink:href="#DejaVuSans-74" x="1799.125"/>
     </g>
    </g>
    <g id="line2d_45">
     <path d="M 419.18605 194.773438 
L 429.18605 194.773438 
L 439.18605 194.773438 
" style="fill: none; stroke: #2ca02c; stroke-width: 1.5; stroke-linecap: square"/>
    </g>
    <g id="text_30">
     <!-- temperature = -40, corner = mos_ff -->
     <g transform="translate(447.18605 198.273438) scale(0.1 -0.1)">
      <defs>
       <path id="DejaVuSans-66" d="M 2375 4863 
L 2375 4384 
L 1825 4384 
Q 1516 4384 1395 4259 
Q 1275 4134 1275 3809 
L 1275 3500 
L 2222 3500 
L 2222 3053 
L 1275 3053 
L 1275 0 
L 697 0 
L 697 3053 
L 147 3053 
L 147 3500 
L 697 3500 
L 697 3744 
Q 697 4328 969 4595 
Q 1241 4863 1831 4863 
L 2375 4863 
z
" transform="scale(0.015625)"/>
      </defs>
      <use xlink:href="#DejaVuSans-74"/>
      <use xlink:href="#DejaVuSans-65" x="39.208984"/>
      <use xlink:href="#DejaVuSans-6d" x="100.732422"/>
      <use xlink:href="#DejaVuSans-70" x="198.144531"/>
      <use xlink:href="#DejaVuSans-65" x="261.621094"/>
      <use xlink:href="#DejaVuSans-72" x="323.144531"/>
      <use xlink:href="#DejaVuSans-61" x="364.257812"/>
      <use xlink:href="#DejaVuSans-74" x="425.537109"/>
      <use xlink:href="#DejaVuSans-75" x="464.746094"/>
      <use xlink:href="#DejaVuSans-72" x="528.125"/>
      <use xlink:href="#DejaVuSans-65" x="566.988281"/>
      <use xlink:href="#DejaVuSans-20" x="628.511719"/>
      <use xlink:href="#DejaVuSans-3d" x="660.298828"/>
      <use xlink:href="#DejaVuSans-20" x="744.087891"/>
      <use xlink:href="#DejaVuSans-2d" x="775.875"/>
      <use xlink:href="#DejaVuSans-34" x="811.958984"/>
      <use xlink:href="#DejaVuSans-30" x="875.582031"/>
      <use xlink:href="#DejaVuSans-2c" x="939.205078"/>
      <use xlink:href="#DejaVuSans-20" x="970.992188"/>
      <use xlink:href="#DejaVuSans-63" x="1002.779297"/>
      <use xlink:href="#DejaVuSans-6f" x="1057.759766"/>
      <use xlink:href="#DejaVuSans-72" x="1118.941406"/>
      <use xlink:href="#DejaVuSans-6e" x="1158.304688"/>
      <use xlink:href="#DejaVuSans-65" x="1221.683594"/>
      <use xlink:href="#DejaVuSans-72" x="1283.207031"/>
      <use xlink:href="#DejaVuSans-20" x="1324.320312"/>
      <use xlink:href="#DejaVuSans-3d" x="1356.107422"/>
      <use xlink:href="#DejaVuSans-20" x="1439.896484"/>
      <use xlink:href="#DejaVuSans-6d" x="1471.683594"/>
      <use xlink:href="#DejaVuSans-6f" x="1569.095703"/>
      <use xlink:href="#DejaVuSans-73" x="1630.277344"/>
      <use xlink:href="#DejaVuSans-5f" x="1682.376953"/>
      <use xlink:href="#DejaVuSans-66" x="1732.376953"/>
      <use xlink:href="#DejaVuSans-66" x="1767.582031"/>
     </g>
    </g>
    <g id="line2d_46">
     <path d="M 419.18605 209.729688 
L 429.18605 209.729688 
L 439.18605 209.729688 
" style="fill: none; stroke: #d62728; stroke-width: 1.5; stroke-linecap: square"/>
    </g>
    <g id="text_31">
     <!-- temperature = -40, corner = mos_ff -->
     <g transform="translate(447.18605 213.229688) scale(0.1 -0.1)">
      <use xlink:href="#DejaVuSans-74"/>
      <use xlink:href="#DejaVuSans-65" x="39.208984"/>
      <use xlink:href="#DejaVuSans-6d" x="100.732422"/>
      <use xlink:href="#DejaVuSans-70" x="198.144531"/>
      <use xlink:href="#DejaVuSans-65" x="261.621094"/>
      <use xlink:href="#DejaVuSans-72" x="323.144531"/>
      <use xlink:href="#DejaVuSans-61" x="364.257812"/>
      <use xlink:href="#DejaVuSans-74" x="425.537109"/>
      <use xlink:href="#DejaVuSans-75" x="464.746094"/>
      <use xlink:href="#DejaVuSans-72" x="528.125"/>
      <use xlink:href="#DejaVuSans-65" x="566.988281"/>
      <use xlink:href="#DejaVuSans-20" x="628.511719"/>
      <use xlink:href="#DejaVuSans-3d" x="660.298828"/>
      <use xlink:href="#DejaVuSans-20" x="744.087891"/>
      <use xlink:href="#DejaVuSans-2d" x="775.875"/>
      <use xlink:href="#DejaVuSans-34" x="811.958984"/>
      <use xlink:href="#DejaVuSans-30" x="875.582031"/>
      <use xlink:href="#DejaVuSans-2c" x="939.205078"/>
      <use xlink:href="#DejaVuSans-20" x="970.992188"/>
      <use xlink:href="#DejaVuSans-63" x="1002.779297"/>
      <use xlink:href="#DejaVuSans-6f" x="1057.759766"/>
      <use xlink:href="#DejaVuSans-72" x="1118.941406"/>
      <use xlink:href="#DejaVuSans-6e" x="1158.304688"/>
      <use xlink:href="#DejaVuSans-65" x="1221.683594"/>
      <use xlink:href="#DejaVuSans-72" x="1283.207031"/>
      <use xlink:href="#DejaVuSans-20" x="1324.320312"/>
      <use xlink:href="#DejaVuSans-3d" x="1356.107422"/>
      <use xlink:href="#DejaVuSans-20" x="1439.896484"/>
      <use xlink:href="#DejaVuSans-6d" x="1471.683594"/>
      <use xlink:href="#DejaVuSans-6f" x="1569.095703"/>
      <use xlink:href="#DejaVuSans-73" x="1630.277344"/>
      <use xlink:href="#DejaVuSans-5f" x="1682.376953"/>
      <use xlink:href="#DejaVuSans-66" x="1732.376953"/>
      <use xlink:href="#DejaVuSans-66" x="1767.582031"/>
     </g>
    </g>
    <g id="line2d_47">
     <path d="M 419.18605 224.685938 
L 429.18605 224.685938 
L 439.18605 224.685938 
" style="fill: none; stroke: #9467bd; stroke-width: 1.5; stroke-linecap: square"/>
    </g>
    <g id="text_32">
     <!-- temperature = 27, corner = mos_ff -->
     <g transform="translate(447.18605 228.185938) scale(0.1 -0.1)">
      <use xlink:href="#DejaVuSans-74"/>
      <use xlink:href="#DejaVuSans-65" x="39.208984"/>
      <use xlink:href="#DejaVuSans-6d" x="100.732422"/>
      <use xlink:href="#DejaVuSans-70" x="198.144531"/>
      <use xlink:href="#DejaVuSans-65" x="261.621094"/>
      <use xlink:href="#DejaVuSans-72" x="323.144531"/>
      <use xlink:href="#DejaVuSans-61" x="364.257812"/>
      <use xlink:href="#DejaVuSans-74" x="425.537109"/>
      <use xlink:href="#DejaVuSans-75" x="464.746094"/>
      <use xlink:href="#DejaVuSans-72" x="528.125"/>
      <use xlink:href="#DejaVuSans-65" x="566.988281"/>
      <use xlink:href="#DejaVuSans-20" x="628.511719"/>
      <use xlink:href="#DejaVuSans-3d" x="660.298828"/>
      <use xlink:href="#DejaVuSans-20" x="744.087891"/>
      <use xlink:href="#DejaVuSans-32" x="775.875"/>
      <use xlink:href="#DejaVuSans-37" x="839.498047"/>
      <use xlink:href="#DejaVuSans-2c" x="903.121094"/>
      <use xlink:href="#DejaVuSans-20" x="934.908203"/>
      <use xlink:href="#DejaVuSans-63" x="966.695312"/>
      <use xlink:href="#DejaVuSans-6f" x="1021.675781"/>
      <use xlink:href="#DejaVuSans-72" x="1082.857422"/>
      <use xlink:href="#DejaVuSans-6e" x="1122.220703"/>
      <use xlink:href="#DejaVuSans-65" x="1185.599609"/>
      <use xlink:href="#DejaVuSans-72" x="1247.123047"/>
      <use xlink:href="#DejaVuSans-20" x="1288.236328"/>
      <use xlink:href="#DejaVuSans-3d" x="1320.023438"/>
      <use xlink:href="#DejaVuSans-20" x="1403.8125"/>
      <use xlink:href="#DejaVuSans-6d" x="1435.599609"/>
      <use xlink:href="#DejaVuSans-6f" x="1533.011719"/>
      <use xlink:href="#DejaVuSans-73" x="1594.193359"/>
      <use xlink:href="#DejaVuSans-5f" x="1646.292969"/>
      <use xlink:href="#DejaVuSans-66" x="1696.292969"/>
      <use xlink:href="#DejaVuSans-66" x="1731.498047"/>
     </g>
    </g>
    <g id="line2d_48">
     <path d="M 419.18605 239.642188 
L 429.18605 239.642188 
L 439.18605 239.642188 
" style="fill: none; stroke: #8c564b; stroke-width: 1.5; stroke-linecap: square"/>
    </g>
    <g id="text_33">
     <!-- temperature = 27, corner = mos_ff -->
     <g transform="translate(447.18605 243.142188) scale(0.1 -0.1)">
      <use xlink:href="#DejaVuSans-74"/>
      <use xlink:href="#DejaVuSans-65" x="39.208984"/>
      <use xlink:href="#DejaVuSans-6d" x="100.732422"/>
      <use xlink:href="#DejaVuSans-70" x="198.144531"/>
      <use xlink:href="#DejaVuSans-65" x="261.621094"/>
      <use xlink:href="#DejaVuSans-72" x="323.144531"/>
      <use xlink:href="#DejaVuSans-61" x="364.257812"/>
      <use xlink:href="#DejaVuSans-74" x="425.537109"/>
      <use xlink:href="#DejaVuSans-75" x="464.746094"/>
      <use xlink:href="#DejaVuSans-72" x="528.125"/>
      <use xlink:href="#DejaVuSans-65" x="566.988281"/>
      <use xlink:href="#DejaVuSans-20" x="628.511719"/>
      <use xlink:href="#DejaVuSans-3d" x="660.298828"/>
      <use xlink:href="#DejaVuSans-20" x="744.087891"/>
      <use xlink:href="#DejaVuSans-32" x="775.875"/>
      <use xlink:href="#DejaVuSans-37" x="839.498047"/>
      <use xlink:href="#DejaVuSans-2c" x="903.121094"/>
      <use xlink:href="#DejaVuSans-20" x="934.908203"/>
      <use xlink:href="#DejaVuSans-63" x="966.695312"/>
      <use xlink:href="#DejaVuSans-6f" x="1021.675781"/>
      <use xlink:href="#DejaVuSans-72" x="1082.857422"/>
      <use xlink:href="#DejaVuSans-6e" x="1122.220703"/>
      <use xlink:href="#DejaVuSans-65" x="1185.599609"/>
      <use xlink:href="#DejaVuSans-72" x="1247.123047"/>
      <use xlink:href="#DejaVuSans-20" x="1288.236328"/>
      <use xlink:href="#DejaVuSans-3d" x="1320.023438"/>
      <use xlink:href="#DejaVuSans-20" x="1403.8125"/>
      <use xlink:href="#DejaVuSans-6d" x="1435.599609"/>
      <use xlink:href="#DejaVuSans-6f" x="1533.011719"/>
      <use xlink:href="#DejaVuSans-73" x="1594.193359"/>
      <use xlink:href="#DejaVuSans-5f" x="1646.292969"/>
      <use xlink:href="#DejaVuSans-66" x="1696.292969"/>
      <use xlink:href="#DejaVuSans-66" x="1731.498047"/>
     </g>
    </g>
    <g id="line2d_49">
     <path d="M 419.18605 254.598438 
L 429.18605 254.598438 
L 439.18605 254.598438 
" style="fill: none; stroke: #e377c2; stroke-width: 1.5; stroke-linecap: square"/>
    </g>
    <g id="text_34">
     <!-- temperature = 130, corner = mos_ff -->
     <g transform="translate(447.18605 258.098438) scale(0.1 -0.1)">
      <use xlink:href="#DejaVuSans-74"/>
      <use xlink:href="#DejaVuSans-65" x="39.208984"/>
      <use xlink:href="#DejaVuSans-6d" x="100.732422"/>
      <use xlink:href="#DejaVuSans-70" x="198.144531"/>
      <use xlink:href="#DejaVuSans-65" x="261.621094"/>
      <use xlink:href="#DejaVuSans-72" x="323.144531"/>
      <use xlink:href="#DejaVuSans-61" x="364.257812"/>
      <use xlink:href="#DejaVuSans-74" x="425.537109"/>
      <use xlink:href="#DejaVuSans-75" x="464.746094"/>
      <use xlink:href="#DejaVuSans-72" x="528.125"/>
      <use xlink:href="#DejaVuSans-65" x="566.988281"/>
      <use xlink:href="#DejaVuSans-20" x="628.511719"/>
      <use xlink:href="#DejaVuSans-3d" x="660.298828"/>
      <use xlink:href="#DejaVuSans-20" x="744.087891"/>
      <use xlink:href="#DejaVuSans-31" x="775.875"/>
      <use xlink:href="#DejaVuSans-33" x="839.498047"/>
      <use xlink:href="#DejaVuSans-30" x="903.121094"/>
      <use xlink:href="#DejaVuSans-2c" x="966.744141"/>
      <use xlink:href="#DejaVuSans-20" x="998.53125"/>
      <use xlink:href="#DejaVuSans-63" x="1030.318359"/>
      <use xlink:href="#DejaVuSans-6f" x="1085.298828"/>
      <use xlink:href="#DejaVuSans-72" x="1146.480469"/>
      <use xlink:href="#DejaVuSans-6e" x="1185.84375"/>
      <use xlink:href="#DejaVuSans-65" x="1249.222656"/>
      <use xlink:href="#DejaVuSans-72" x="1310.746094"/>
      <use xlink:href="#DejaVuSans-20" x="1351.859375"/>
      <use xlink:href="#DejaVuSans-3d" x="1383.646484"/>
      <use xlink:href="#DejaVuSans-20" x="1467.435547"/>
      <use xlink:href="#DejaVuSans-6d" x="1499.222656"/>
      <use xlink:href="#DejaVuSans-6f" x="1596.634766"/>
      <use xlink:href="#DejaVuSans-73" x="1657.816406"/>
      <use xlink:href="#DejaVuSans-5f" x="1709.916016"/>
      <use xlink:href="#DejaVuSans-66" x="1759.916016"/>
      <use xlink:href="#DejaVuSans-66" x="1795.121094"/>
     </g>
    </g>
    <g id="line2d_50">
     <path d="M 419.18605 269.554688 
L 429.18605 269.554688 
L 439.18605 269.554688 
" style="fill: none; stroke: #7f7f7f; stroke-width: 1.5; stroke-linecap: square"/>
    </g>
    <g id="text_35">
     <!-- temperature = 130, corner = mos_ff -->
     <g transform="translate(447.18605 273.054688) scale(0.1 -0.1)">
      <use xlink:href="#DejaVuSans-74"/>
      <use xlink:href="#DejaVuSans-65" x="39.208984"/>
      <use xlink:href="#DejaVuSans-6d" x="100.732422"/>
      <use xlink:href="#DejaVuSans-70" x="198.144531"/>
      <use xlink:href="#DejaVuSans-65" x="261.621094"/>
      <use xlink:href="#DejaVuSans-72" x="323.144531"/>
      <use xlink:href="#DejaVuSans-61" x="364.257812"/>
      <use xlink:href="#DejaVuSans-74" x="425.537109"/>
      <use xlink:href="#DejaVuSans-75" x="464.746094"/>
      <use xlink:href="#DejaVuSans-72" x="528.125"/>
      <use xlink:href="#DejaVuSans-65" x="566.988281"/>
      <use xlink:href="#DejaVuSans-20" x="628.511719"/>
      <use xlink:href="#DejaVuSans-3d" x="660.298828"/>
      <use xlink:href="#DejaVuSans-20" x="744.087891"/>
      <use xlink:href="#DejaVuSans-31" x="775.875"/>
      <use xlink:href="#DejaVuSans-33" x="839.498047"/>
      <use xlink:href="#DejaVuSans-30" x="903.121094"/>
      <use xlink:href="#DejaVuSans-2c" x="966.744141"/>
      <use xlink:href="#DejaVuSans-20" x="998.53125"/>
      <use xlink:href="#DejaVuSans-63" x="1030.318359"/>
      <use xlink:href="#DejaVuSans-6f" x="1085.298828"/>
      <use xlink:href="#DejaVuSans-72" x="1146.480469"/>
      <use xlink:href="#DejaVuSans-6e" x="1185.84375"/>
      <use xlink:href="#DejaVuSans-65" x="1249.222656"/>
      <use xlink:href="#DejaVuSans-72" x="1310.746094"/>
      <use xlink:href="#DejaVuSans-20" x="1351.859375"/>
      <use xlink:href="#DejaVuSans-3d" x="1383.646484"/>
      <use xlink:href="#DejaVuSans-20" x="1467.435547"/>
      <use xlink:href="#DejaVuSans-6d" x="1499.222656"/>
      <use xlink:href="#DejaVuSans-6f" x="1596.634766"/>
      <use xlink:href="#DejaVuSans-73" x="1657.816406"/>
      <use xlink:href="#DejaVuSans-5f" x="1709.916016"/>
      <use xlink:href="#DejaVuSans-66" x="1759.916016"/>
      <use xlink:href="#DejaVuSans-66" x="1795.121094"/>
     </g>
    </g>
   </g>
  </g>
 </g>
 <defs>
  <clipPath id="p16e4e017fa">
   <rect x="43.78125" y="7.2" width="357.12" height="266.112"/>
  </clipPath>
 </defs>
</svg>
