<?xml version="1.0" encoding="utf-8" standalone="no"?>
<!DOCTYPE svg PUBLIC "-//W3C//DTD SVG 1.1//EN"
  "http://www.w3.org/Graphics/SVG/1.1/DTD/svg11.dtd">
<svg xmlns:xlink="http://www.w3.org/1999/xlink" width="644.795425pt" height="310.86825pt" viewBox="0 0 644.795425 310.86825" xmlns="http://www.w3.org/2000/svg" version="1.1">
 <metadata>
  <rdf:RDF xmlns:dc="http://purl.org/dc/elements/1.1/" xmlns:cc="http://creativecommons.org/ns#" xmlns:rdf="http://www.w3.org/1999/02/22-rdf-syntax-ns#">
   <cc:Work>
    <dc:type rdf:resource="http://purl.org/dc/dcmitype/StillImage"/>
    <dc:date>2025-06-27T20:15:16.929010</dc:date>
    <dc:format>image/svg+xml</dc:format>
    <dc:creator>
     <cc:Agent>
      <dc:title>Matplotlib v3.9.2, https://matplotlib.org/</dc:title>
     </cc:Agent>
    </dc:creator>
   </cc:Work>
  </rdf:RDF>
 </metadata>
 <defs>
  <style type="text/css">*{stroke-linejoin: round; stroke-linecap: butt}</style>
 </defs>
 <g id="figure_1">
  <g id="patch_1">
   <path d="M 0 310.86825 
L 644.795425 310.86825 
L 644.795425 0 
L 0 0 
z
" style="fill: #ffffff"/>
  </g>
  <g id="axes_1">
   <g id="patch_2">
    <path d="M 43.78125 273.312 
L 400.90125 273.312 
L 400.90125 7.2 
L 43.78125 7.2 
z
" style="fill: #ffffff"/>
   </g>
   <g id="matplotlib.axis_1">
    <g id="xtick_1">
     <g id="line2d_1">
      <defs>
       <path id="mc4886ce09f" d="M 0 0 
L 0 3.5 
" style="stroke: #000000; stroke-width: 0.8"/>
      </defs>
      <g>
       <use xlink:href="#mc4886ce09f" x="60.013977" y="273.312" style="stroke: #000000; stroke-width: 0.8"/>
      </g>
     </g>
     <g id="text_1">
      <!-- 0 -->
      <g transform="translate(56.832727 287.910437) scale(0.1 -0.1)">
       <defs>
        <path id="DejaVuSans-30" d="M 2034 4250 
Q 1547 4250 1301 3770 
Q 1056 3291 1056 2328 
Q 1056 1369 1301 889 
Q 1547 409 2034 409 
Q 2525 409 2770 889 
Q 3016 1369 3016 2328 
Q 3016 3291 2770 3770 
Q 2525 4250 2034 4250 
z
M 2034 4750 
Q 2819 4750 3233 4129 
Q 3647 3509 3647 2328 
Q 3647 1150 3233 529 
Q 2819 -91 2034 -91 
Q 1250 -91 836 529 
Q 422 1150 422 2328 
Q 422 3509 836 4129 
Q 1250 4750 2034 4750 
z
" transform="scale(0.015625)"/>
       </defs>
       <use xlink:href="#DejaVuSans-30"/>
      </g>
     </g>
    </g>
    <g id="xtick_2">
     <g id="line2d_2">
      <g>
       <use xlink:href="#mc4886ce09f" x="124.944886" y="273.312" style="stroke: #000000; stroke-width: 0.8"/>
      </g>
     </g>
     <g id="text_2">
      <!-- 1 -->
      <g transform="translate(121.763636 287.910437) scale(0.1 -0.1)">
       <defs>
        <path id="DejaVuSans-31" d="M 794 531 
L 1825 531 
L 1825 4091 
L 703 3866 
L 703 4441 
L 1819 4666 
L 2450 4666 
L 2450 531 
L 3481 531 
L 3481 0 
L 794 0 
L 794 531 
z
" transform="scale(0.015625)"/>
       </defs>
       <use xlink:href="#DejaVuSans-31"/>
      </g>
     </g>
    </g>
    <g id="xtick_3">
     <g id="line2d_3">
      <g>
       <use xlink:href="#mc4886ce09f" x="189.875795" y="273.312" style="stroke: #000000; stroke-width: 0.8"/>
      </g>
     </g>
     <g id="text_3">
      <!-- 2 -->
      <g transform="translate(186.694545 287.910437) scale(0.1 -0.1)">
       <defs>
        <path id="DejaVuSans-32" d="M 1228 531 
L 3431 531 
L 3431 0 
L 469 0 
L 469 531 
Q 828 903 1448 1529 
Q 2069 2156 2228 2338 
Q 2531 2678 2651 2914 
Q 2772 3150 2772 3378 
Q 2772 3750 2511 3984 
Q 2250 4219 1831 4219 
Q 1534 4219 1204 4116 
Q 875 4013 500 3803 
L 500 4441 
Q 881 4594 1212 4672 
Q 1544 4750 1819 4750 
Q 2544 4750 2975 4387 
Q 3406 4025 3406 3419 
Q 3406 3131 3298 2873 
Q 3191 2616 2906 2266 
Q 2828 2175 2409 1742 
Q 1991 1309 1228 531 
z
" transform="scale(0.015625)"/>
       </defs>
       <use xlink:href="#DejaVuSans-32"/>
      </g>
     </g>
    </g>
    <g id="xtick_4">
     <g id="line2d_4">
      <g>
       <use xlink:href="#mc4886ce09f" x="254.806705" y="273.312" style="stroke: #000000; stroke-width: 0.8"/>
      </g>
     </g>
     <g id="text_4">
      <!-- 3 -->
      <g transform="translate(251.625455 287.910437) scale(0.1 -0.1)">
       <defs>
        <path id="DejaVuSans-33" d="M 2597 2516 
Q 3050 2419 3304 2112 
Q 3559 1806 3559 1356 
Q 3559 666 3084 287 
Q 2609 -91 1734 -91 
Q 1441 -91 1130 -33 
Q 819 25 488 141 
L 488 750 
Q 750 597 1062 519 
Q 1375 441 1716 441 
Q 2309 441 2620 675 
Q 2931 909 2931 1356 
Q 2931 1769 2642 2001 
Q 2353 2234 1838 2234 
L 1294 2234 
L 1294 2753 
L 1863 2753 
Q 2328 2753 2575 2939 
Q 2822 3125 2822 3475 
Q 2822 3834 2567 4026 
Q 2313 4219 1838 4219 
Q 1578 4219 1281 4162 
Q 984 4106 628 3988 
L 628 4550 
Q 988 4650 1302 4700 
Q 1616 4750 1894 4750 
Q 2613 4750 3031 4423 
Q 3450 4097 3450 3541 
Q 3450 3153 3228 2886 
Q 3006 2619 2597 2516 
z
" transform="scale(0.015625)"/>
       </defs>
       <use xlink:href="#DejaVuSans-33"/>
      </g>
     </g>
    </g>
    <g id="xtick_5">
     <g id="line2d_5">
      <g>
       <use xlink:href="#mc4886ce09f" x="319.737614" y="273.312" style="stroke: #000000; stroke-width: 0.8"/>
      </g>
     </g>
     <g id="text_5">
      <!-- 4 -->
      <g transform="translate(316.556364 287.910437) scale(0.1 -0.1)">
       <defs>
        <path id="DejaVuSans-34" d="M 2419 4116 
L 825 1625 
L 2419 1625 
L 2419 4116 
z
M 2253 4666 
L 3047 4666 
L 3047 1625 
L 3713 1625 
L 3713 1100 
L 3047 1100 
L 3047 0 
L 2419 0 
L 2419 1100 
L 313 1100 
L 313 1709 
L 2253 4666 
z
" transform="scale(0.015625)"/>
       </defs>
       <use xlink:href="#DejaVuSans-34"/>
      </g>
     </g>
    </g>
    <g id="xtick_6">
     <g id="line2d_6">
      <g>
       <use xlink:href="#mc4886ce09f" x="384.668523" y="273.312" style="stroke: #000000; stroke-width: 0.8"/>
      </g>
     </g>
     <g id="text_6">
      <!-- 5 -->
      <g transform="translate(381.487273 287.910437) scale(0.1 -0.1)">
       <defs>
        <path id="DejaVuSans-35" d="M 691 4666 
L 3169 4666 
L 3169 4134 
L 1269 4134 
L 1269 2991 
Q 1406 3038 1543 3061 
Q 1681 3084 1819 3084 
Q 2600 3084 3056 2656 
Q 3513 2228 3513 1497 
Q 3513 744 3044 326 
Q 2575 -91 1722 -91 
Q 1428 -91 1123 -41 
Q 819 9 494 109 
L 494 744 
Q 775 591 1075 516 
Q 1375 441 1709 441 
Q 2250 441 2565 725 
Q 2881 1009 2881 1497 
Q 2881 1984 2565 2268 
Q 2250 2553 1709 2553 
Q 1456 2553 1204 2497 
Q 953 2441 691 2322 
L 691 4666 
z
" transform="scale(0.015625)"/>
       </defs>
       <use xlink:href="#DejaVuSans-35"/>
      </g>
     </g>
    </g>
    <g id="text_7">
     <!-- Time (ms) -->
     <g transform="translate(197.142031 301.588562) scale(0.1 -0.1)">
      <defs>
       <path id="DejaVuSans-54" d="M -19 4666 
L 3928 4666 
L 3928 4134 
L 2272 4134 
L 2272 0 
L 1638 0 
L 1638 4134 
L -19 4134 
L -19 4666 
z
" transform="scale(0.015625)"/>
       <path id="DejaVuSans-69" d="M 603 3500 
L 1178 3500 
L 1178 0 
L 603 0 
L 603 3500 
z
M 603 4863 
L 1178 4863 
L 1178 4134 
L 603 4134 
L 603 4863 
z
" transform="scale(0.015625)"/>
       <path id="DejaVuSans-6d" d="M 3328 2828 
Q 3544 3216 3844 3400 
Q 4144 3584 4550 3584 
Q 5097 3584 5394 3201 
Q 5691 2819 5691 2113 
L 5691 0 
L 5113 0 
L 5113 2094 
Q 5113 2597 4934 2840 
Q 4756 3084 4391 3084 
Q 3944 3084 3684 2787 
Q 3425 2491 3425 1978 
L 3425 0 
L 2847 0 
L 2847 2094 
Q 2847 2600 2669 2842 
Q 2491 3084 2119 3084 
Q 1678 3084 1418 2786 
Q 1159 2488 1159 1978 
L 1159 0 
L 581 0 
L 581 3500 
L 1159 3500 
L 1159 2956 
Q 1356 3278 1631 3431 
Q 1906 3584 2284 3584 
Q 2666 3584 2933 3390 
Q 3200 3197 3328 2828 
z
" transform="scale(0.015625)"/>
       <path id="DejaVuSans-65" d="M 3597 1894 
L 3597 1613 
L 953 1613 
Q 991 1019 1311 708 
Q 1631 397 2203 397 
Q 2534 397 2845 478 
Q 3156 559 3463 722 
L 3463 178 
Q 3153 47 2828 -22 
Q 2503 -91 2169 -91 
Q 1331 -91 842 396 
Q 353 884 353 1716 
Q 353 2575 817 3079 
Q 1281 3584 2069 3584 
Q 2775 3584 3186 3129 
Q 3597 2675 3597 1894 
z
M 3022 2063 
Q 3016 2534 2758 2815 
Q 2500 3097 2075 3097 
Q 1594 3097 1305 2825 
Q 1016 2553 972 2059 
L 3022 2063 
z
" transform="scale(0.015625)"/>
       <path id="DejaVuSans-20" transform="scale(0.015625)"/>
       <path id="DejaVuSans-28" d="M 1984 4856 
Q 1566 4138 1362 3434 
Q 1159 2731 1159 2009 
Q 1159 1288 1364 580 
Q 1569 -128 1984 -844 
L 1484 -844 
Q 1016 -109 783 600 
Q 550 1309 550 2009 
Q 550 2706 781 3412 
Q 1013 4119 1484 4856 
L 1984 4856 
z
" transform="scale(0.015625)"/>
       <path id="DejaVuSans-73" d="M 2834 3397 
L 2834 2853 
Q 2591 2978 2328 3040 
Q 2066 3103 1784 3103 
Q 1356 3103 1142 2972 
Q 928 2841 928 2578 
Q 928 2378 1081 2264 
Q 1234 2150 1697 2047 
L 1894 2003 
Q 2506 1872 2764 1633 
Q 3022 1394 3022 966 
Q 3022 478 2636 193 
Q 2250 -91 1575 -91 
Q 1294 -91 989 -36 
Q 684 19 347 128 
L 347 722 
Q 666 556 975 473 
Q 1284 391 1588 391 
Q 1994 391 2212 530 
Q 2431 669 2431 922 
Q 2431 1156 2273 1281 
Q 2116 1406 1581 1522 
L 1381 1569 
Q 847 1681 609 1914 
Q 372 2147 372 2553 
Q 372 3047 722 3315 
Q 1072 3584 1716 3584 
Q 2034 3584 2315 3537 
Q 2597 3491 2834 3397 
z
" transform="scale(0.015625)"/>
       <path id="DejaVuSans-29" d="M 513 4856 
L 1013 4856 
Q 1481 4119 1714 3412 
Q 1947 2706 1947 2009 
Q 1947 1309 1714 600 
Q 1481 -109 1013 -844 
L 513 -844 
Q 928 -128 1133 580 
Q 1338 1288 1338 2009 
Q 1338 2731 1133 3434 
Q 928 4138 513 4856 
z
" transform="scale(0.015625)"/>
      </defs>
      <use xlink:href="#DejaVuSans-54"/>
      <use xlink:href="#DejaVuSans-69" x="57.958984"/>
      <use xlink:href="#DejaVuSans-6d" x="85.742188"/>
      <use xlink:href="#DejaVuSans-65" x="183.154297"/>
      <use xlink:href="#DejaVuSans-20" x="244.677734"/>
      <use xlink:href="#DejaVuSans-28" x="276.464844"/>
      <use xlink:href="#DejaVuSans-6d" x="315.478516"/>
      <use xlink:href="#DejaVuSans-73" x="412.890625"/>
      <use xlink:href="#DejaVuSans-29" x="464.990234"/>
     </g>
    </g>
    <g id="text_8">
     <!-- 1e−7 -->
     <g transform="translate(373.643438 300.588562) scale(0.1 -0.1)">
      <defs>
       <path id="DejaVuSans-2212" d="M 678 2272 
L 4684 2272 
L 4684 1741 
L 678 1741 
L 678 2272 
z
" transform="scale(0.015625)"/>
       <path id="DejaVuSans-37" d="M 525 4666 
L 3525 4666 
L 3525 4397 
L 1831 0 
L 1172 0 
L 2766 4134 
L 525 4134 
L 525 4666 
z
" transform="scale(0.015625)"/>
      </defs>
      <use xlink:href="#DejaVuSans-31"/>
      <use xlink:href="#DejaVuSans-65" x="63.623047"/>
      <use xlink:href="#DejaVuSans-2212" x="125.146484"/>
      <use xlink:href="#DejaVuSans-37" x="208.935547"/>
     </g>
    </g>
   </g>
   <g id="matplotlib.axis_2">
    <g id="ytick_1">
     <g id="line2d_7">
      <defs>
       <path id="m9d4af9a41d" d="M 0 0 
L -3.5 0 
" style="stroke: #000000; stroke-width: 0.8"/>
      </defs>
      <g>
       <use xlink:href="#m9d4af9a41d" x="43.78125" y="261.216" style="stroke: #000000; stroke-width: 0.8"/>
      </g>
     </g>
     <g id="text_9">
      <!-- 0.0 -->
      <g transform="translate(20.878125 265.015219) scale(0.1 -0.1)">
       <defs>
        <path id="DejaVuSans-2e" d="M 684 794 
L 1344 794 
L 1344 0 
L 684 0 
L 684 794 
z
" transform="scale(0.015625)"/>
       </defs>
       <use xlink:href="#DejaVuSans-30"/>
       <use xlink:href="#DejaVuSans-2e" x="63.623047"/>
       <use xlink:href="#DejaVuSans-30" x="95.410156"/>
      </g>
     </g>
    </g>
    <g id="ytick_2">
     <g id="line2d_8">
      <g>
       <use xlink:href="#m9d4af9a41d" x="43.78125" y="228.96" style="stroke: #000000; stroke-width: 0.8"/>
      </g>
     </g>
     <g id="text_10">
      <!-- 0.2 -->
      <g transform="translate(20.878125 232.759219) scale(0.1 -0.1)">
       <use xlink:href="#DejaVuSans-30"/>
       <use xlink:href="#DejaVuSans-2e" x="63.623047"/>
       <use xlink:href="#DejaVuSans-32" x="95.410156"/>
      </g>
     </g>
    </g>
    <g id="ytick_3">
     <g id="line2d_9">
      <g>
       <use xlink:href="#m9d4af9a41d" x="43.78125" y="196.704" style="stroke: #000000; stroke-width: 0.8"/>
      </g>
     </g>
     <g id="text_11">
      <!-- 0.4 -->
      <g transform="translate(20.878125 200.503219) scale(0.1 -0.1)">
       <use xlink:href="#DejaVuSans-30"/>
       <use xlink:href="#DejaVuSans-2e" x="63.623047"/>
       <use xlink:href="#DejaVuSans-34" x="95.410156"/>
      </g>
     </g>
    </g>
    <g id="ytick_4">
     <g id="line2d_10">
      <g>
       <use xlink:href="#m9d4af9a41d" x="43.78125" y="164.448" style="stroke: #000000; stroke-width: 0.8"/>
      </g>
     </g>
     <g id="text_12">
      <!-- 0.6 -->
      <g transform="translate(20.878125 168.247219) scale(0.1 -0.1)">
       <defs>
        <path id="DejaVuSans-36" d="M 2113 2584 
Q 1688 2584 1439 2293 
Q 1191 2003 1191 1497 
Q 1191 994 1439 701 
Q 1688 409 2113 409 
Q 2538 409 2786 701 
Q 3034 994 3034 1497 
Q 3034 2003 2786 2293 
Q 2538 2584 2113 2584 
z
M 3366 4563 
L 3366 3988 
Q 3128 4100 2886 4159 
Q 2644 4219 2406 4219 
Q 1781 4219 1451 3797 
Q 1122 3375 1075 2522 
Q 1259 2794 1537 2939 
Q 1816 3084 2150 3084 
Q 2853 3084 3261 2657 
Q 3669 2231 3669 1497 
Q 3669 778 3244 343 
Q 2819 -91 2113 -91 
Q 1303 -91 875 529 
Q 447 1150 447 2328 
Q 447 3434 972 4092 
Q 1497 4750 2381 4750 
Q 2619 4750 2861 4703 
Q 3103 4656 3366 4563 
z
" transform="scale(0.015625)"/>
       </defs>
       <use xlink:href="#DejaVuSans-30"/>
       <use xlink:href="#DejaVuSans-2e" x="63.623047"/>
       <use xlink:href="#DejaVuSans-36" x="95.410156"/>
      </g>
     </g>
    </g>
    <g id="ytick_5">
     <g id="line2d_11">
      <g>
       <use xlink:href="#m9d4af9a41d" x="43.78125" y="132.192" style="stroke: #000000; stroke-width: 0.8"/>
      </g>
     </g>
     <g id="text_13">
      <!-- 0.8 -->
      <g transform="translate(20.878125 135.991219) scale(0.1 -0.1)">
       <defs>
        <path id="DejaVuSans-38" d="M 2034 2216 
Q 1584 2216 1326 1975 
Q 1069 1734 1069 1313 
Q 1069 891 1326 650 
Q 1584 409 2034 409 
Q 2484 409 2743 651 
Q 3003 894 3003 1313 
Q 3003 1734 2745 1975 
Q 2488 2216 2034 2216 
z
M 1403 2484 
Q 997 2584 770 2862 
Q 544 3141 544 3541 
Q 544 4100 942 4425 
Q 1341 4750 2034 4750 
Q 2731 4750 3128 4425 
Q 3525 4100 3525 3541 
Q 3525 3141 3298 2862 
Q 3072 2584 2669 2484 
Q 3125 2378 3379 2068 
Q 3634 1759 3634 1313 
Q 3634 634 3220 271 
Q 2806 -91 2034 -91 
Q 1263 -91 848 271 
Q 434 634 434 1313 
Q 434 1759 690 2068 
Q 947 2378 1403 2484 
z
M 1172 3481 
Q 1172 3119 1398 2916 
Q 1625 2713 2034 2713 
Q 2441 2713 2670 2916 
Q 2900 3119 2900 3481 
Q 2900 3844 2670 4047 
Q 2441 4250 2034 4250 
Q 1625 4250 1398 4047 
Q 1172 3844 1172 3481 
z
" transform="scale(0.015625)"/>
       </defs>
       <use xlink:href="#DejaVuSans-30"/>
       <use xlink:href="#DejaVuSans-2e" x="63.623047"/>
       <use xlink:href="#DejaVuSans-38" x="95.410156"/>
      </g>
     </g>
    </g>
    <g id="ytick_6">
     <g id="line2d_12">
      <g>
       <use xlink:href="#m9d4af9a41d" x="43.78125" y="99.936" style="stroke: #000000; stroke-width: 0.8"/>
      </g>
     </g>
     <g id="text_14">
      <!-- 1.0 -->
      <g transform="translate(20.878125 103.735219) scale(0.1 -0.1)">
       <use xlink:href="#DejaVuSans-31"/>
       <use xlink:href="#DejaVuSans-2e" x="63.623047"/>
       <use xlink:href="#DejaVuSans-30" x="95.410156"/>
      </g>
     </g>
    </g>
    <g id="ytick_7">
     <g id="line2d_13">
      <g>
       <use xlink:href="#m9d4af9a41d" x="43.78125" y="67.68" style="stroke: #000000; stroke-width: 0.8"/>
      </g>
     </g>
     <g id="text_15">
      <!-- 1.2 -->
      <g transform="translate(20.878125 71.479219) scale(0.1 -0.1)">
       <use xlink:href="#DejaVuSans-31"/>
       <use xlink:href="#DejaVuSans-2e" x="63.623047"/>
       <use xlink:href="#DejaVuSans-32" x="95.410156"/>
      </g>
     </g>
    </g>
    <g id="ytick_8">
     <g id="line2d_14">
      <g>
       <use xlink:href="#m9d4af9a41d" x="43.78125" y="35.424" style="stroke: #000000; stroke-width: 0.8"/>
      </g>
     </g>
     <g id="text_16">
      <!-- 1.4 -->
      <g transform="translate(20.878125 39.223219) scale(0.1 -0.1)">
       <use xlink:href="#DejaVuSans-31"/>
       <use xlink:href="#DejaVuSans-2e" x="63.623047"/>
       <use xlink:href="#DejaVuSans-34" x="95.410156"/>
      </g>
     </g>
    </g>
    <g id="text_17">
     <!-- Vout (V), Vinp (V) -->
     <g transform="translate(14.798438 183.516937) rotate(-90) scale(0.1 -0.1)">
      <defs>
       <path id="DejaVuSans-56" d="M 1831 0 
L 50 4666 
L 709 4666 
L 2188 738 
L 3669 4666 
L 4325 4666 
L 2547 0 
L 1831 0 
z
" transform="scale(0.015625)"/>
       <path id="DejaVuSans-6f" d="M 1959 3097 
Q 1497 3097 1228 2736 
Q 959 2375 959 1747 
Q 959 1119 1226 758 
Q 1494 397 1959 397 
Q 2419 397 2687 759 
Q 2956 1122 2956 1747 
Q 2956 2369 2687 2733 
Q 2419 3097 1959 3097 
z
M 1959 3584 
Q 2709 3584 3137 3096 
Q 3566 2609 3566 1747 
Q 3566 888 3137 398 
Q 2709 -91 1959 -91 
Q 1206 -91 779 398 
Q 353 888 353 1747 
Q 353 2609 779 3096 
Q 1206 3584 1959 3584 
z
" transform="scale(0.015625)"/>
       <path id="DejaVuSans-75" d="M 544 1381 
L 544 3500 
L 1119 3500 
L 1119 1403 
Q 1119 906 1312 657 
Q 1506 409 1894 409 
Q 2359 409 2629 706 
Q 2900 1003 2900 1516 
L 2900 3500 
L 3475 3500 
L 3475 0 
L 2900 0 
L 2900 538 
Q 2691 219 2414 64 
Q 2138 -91 1772 -91 
Q 1169 -91 856 284 
Q 544 659 544 1381 
z
M 1991 3584 
L 1991 3584 
z
" transform="scale(0.015625)"/>
       <path id="DejaVuSans-74" d="M 1172 4494 
L 1172 3500 
L 2356 3500 
L 2356 3053 
L 1172 3053 
L 1172 1153 
Q 1172 725 1289 603 
Q 1406 481 1766 481 
L 2356 481 
L 2356 0 
L 1766 0 
Q 1100 0 847 248 
Q 594 497 594 1153 
L 594 3053 
L 172 3053 
L 172 3500 
L 594 3500 
L 594 4494 
L 1172 4494 
z
" transform="scale(0.015625)"/>
       <path id="DejaVuSans-2c" d="M 750 794 
L 1409 794 
L 1409 256 
L 897 -744 
L 494 -744 
L 750 256 
L 750 794 
z
" transform="scale(0.015625)"/>
       <path id="DejaVuSans-6e" d="M 3513 2113 
L 3513 0 
L 2938 0 
L 2938 2094 
Q 2938 2591 2744 2837 
Q 2550 3084 2163 3084 
Q 1697 3084 1428 2787 
Q 1159 2491 1159 1978 
L 1159 0 
L 581 0 
L 581 3500 
L 1159 3500 
L 1159 2956 
Q 1366 3272 1645 3428 
Q 1925 3584 2291 3584 
Q 2894 3584 3203 3211 
Q 3513 2838 3513 2113 
z
" transform="scale(0.015625)"/>
       <path id="DejaVuSans-70" d="M 1159 525 
L 1159 -1331 
L 581 -1331 
L 581 3500 
L 1159 3500 
L 1159 2969 
Q 1341 3281 1617 3432 
Q 1894 3584 2278 3584 
Q 2916 3584 3314 3078 
Q 3713 2572 3713 1747 
Q 3713 922 3314 415 
Q 2916 -91 2278 -91 
Q 1894 -91 1617 61 
Q 1341 213 1159 525 
z
M 3116 1747 
Q 3116 2381 2855 2742 
Q 2594 3103 2138 3103 
Q 1681 3103 1420 2742 
Q 1159 2381 1159 1747 
Q 1159 1113 1420 752 
Q 1681 391 2138 391 
Q 2594 391 2855 752 
Q 3116 1113 3116 1747 
z
" transform="scale(0.015625)"/>
      </defs>
      <use xlink:href="#DejaVuSans-56"/>
      <use xlink:href="#DejaVuSans-6f" x="60.658203"/>
      <use xlink:href="#DejaVuSans-75" x="121.839844"/>
      <use xlink:href="#DejaVuSans-74" x="185.21875"/>
      <use xlink:href="#DejaVuSans-20" x="224.427734"/>
      <use xlink:href="#DejaVuSans-28" x="256.214844"/>
      <use xlink:href="#DejaVuSans-56" x="295.228516"/>
      <use xlink:href="#DejaVuSans-29" x="363.636719"/>
      <use xlink:href="#DejaVuSans-2c" x="402.650391"/>
      <use xlink:href="#DejaVuSans-20" x="434.4375"/>
      <use xlink:href="#DejaVuSans-56" x="466.224609"/>
      <use xlink:href="#DejaVuSans-69" x="532.382812"/>
      <use xlink:href="#DejaVuSans-6e" x="560.166016"/>
      <use xlink:href="#DejaVuSans-70" x="623.544922"/>
      <use xlink:href="#DejaVuSans-20" x="687.021484"/>
      <use xlink:href="#DejaVuSans-28" x="718.808594"/>
      <use xlink:href="#DejaVuSans-56" x="757.822266"/>
      <use xlink:href="#DejaVuSans-29" x="826.230469"/>
     </g>
    </g>
   </g>
   <g id="line2d_15">
    <path d="M 60.013977 254.921339 
L 60.046443 254.921339 
L 60.078908 254.921339 
L 60.143839 254.921339 
L 60.273701 254.921339 
L 60.533425 254.921339 
L 61.052872 254.921339 
L 62.091766 254.921339 
L 64.169555 254.921339 
L 68.325134 254.921339 
L 74.818225 254.921339 
L 81.311315 254.921339 
L 87.804406 254.921339 
L 94.297497 254.921339 
L 100.790588 254.921339 
L 107.283679 254.921339 
L 113.77677 254.921339 
L 120.269861 254.921339 
L 124.944886 254.921339 
L 124.951379 254.910698 
L 124.964366 254.892803 
L 124.990338 254.868035 
L 125.009817 254.878989 
L 125.013994 254.891622 
L 125.022346 254.90974 
L 125.039052 254.9298 
L 125.072463 254.951261 
L 125.119697 254.974052 
L 125.202521 254.989057 
L 125.352953 254.97672 
L 125.631181 254.910083 
L 126.130716 254.666216 
L 127.129784 253.69675 
L 129.127922 250.195268 
L 133.124196 240.302554 
L 137.498317 228.392979 
L 143.692862 211.644347 
L 150.185953 194.128952 
L 156.679044 176.67258 
L 163.172134 159.279519 
L 169.665225 141.961139 
L 176.158316 124.729536 
L 182.651407 107.603482 
L 189.144498 90.673543 
L 195.637589 75.50896 
L 202.13068 65.574636 
L 208.623771 60.828337 
L 215.116862 58.609642 
L 221.609953 57.587725 
L 228.103044 57.082332 
L 234.596134 56.846635 
L 241.089225 56.72395 
L 247.582316 56.670935 
L 254.075407 56.640179 
L 260.568498 56.629181 
L 267.061589 56.620842 
L 273.55468 56.619155 
L 280.047771 56.616513 
L 286.540862 56.616682 
L 293.033953 56.615621 
L 299.527044 56.616036 
L 306.020134 56.615484 
L 312.513225 56.615847 
L 319.006316 56.615494 
L 325.499407 56.615782 
L 331.992498 56.615519 
L 338.485589 56.615753 
L 344.97868 56.615539 
L 351.471771 56.61574 
L 357.964862 56.615552 
L 364.457953 56.615734 
L 370.951044 56.615558 
L 377.444134 56.615729 
L 383.937225 56.615563 
L 384.668523 56.615723 
" clip-path="url(#p7a6e0aa083)" style="fill: none; stroke: #1f77b4; stroke-width: 1.5; stroke-linecap: square"/>
   </g>
   <g id="line2d_16">
    <path d="M 60.013977 261.216 
L 60.046443 261.216 
L 60.078908 261.216 
L 60.143839 261.216 
L 60.273701 261.216 
L 60.533425 261.216 
L 61.052872 261.216 
L 62.091766 261.216 
L 64.169555 261.216 
L 68.325134 261.216 
L 74.818225 261.216 
L 81.311315 261.216 
L 87.804406 261.216 
L 94.297497 261.216 
L 100.790588 261.216 
L 107.283679 261.216 
L 113.77677 261.216 
L 120.269861 261.216 
L 124.944886 261.216 
L 124.951379 237.024 
L 124.964366 188.64 
L 124.990338 91.872 
L 125.009817 19.296 
L 125.013994 19.296 
L 125.022346 19.296 
L 125.039052 19.296 
L 125.072463 19.296 
L 125.119697 19.296 
L 125.202521 19.296 
L 125.352953 19.296 
L 125.631181 19.296 
L 126.130716 19.296 
L 127.129784 19.296 
L 129.127922 19.296 
L 133.124196 19.296 
L 137.498317 19.296 
L 143.692862 19.296 
L 150.185953 19.296 
L 156.679044 19.296 
L 163.172134 19.296 
L 169.665225 19.296 
L 176.158316 19.296 
L 182.651407 19.296 
L 189.144498 19.296 
L 195.637589 19.296 
L 202.13068 19.296 
L 208.623771 19.296 
L 215.116862 19.296 
L 221.609953 19.296 
L 228.103044 19.296 
L 234.596134 19.296 
L 241.089225 19.296 
L 247.582316 19.296 
L 254.075407 19.296 
L 260.568498 19.296 
L 267.061589 19.296 
L 273.55468 19.296 
L 280.047771 19.296 
L 286.540862 19.296 
L 293.033953 19.296 
L 299.527044 19.296 
L 306.020134 19.296 
L 312.513225 19.296 
L 319.006316 19.296 
L 325.499407 19.296 
L 331.992498 19.296 
L 338.485589 19.296 
L 344.97868 19.296 
L 351.471771 19.296 
L 357.964862 19.296 
L 364.457953 19.296 
L 370.951044 19.296 
L 377.444134 19.296 
L 383.937225 19.296 
L 384.668523 19.296 
" clip-path="url(#p7a6e0aa083)" style="fill: none; stroke: #ff7f0e; stroke-width: 1.5; stroke-linecap: square"/>
   </g>
   <g id="line2d_17">
    <path d="M 60.013977 254.425084 
L 60.046443 254.425084 
L 60.078908 254.425084 
L 60.143839 254.425084 
L 60.273701 254.425084 
L 60.533425 254.425084 
L 61.052872 254.425084 
L 62.091766 254.425084 
L 64.169555 254.425084 
L 68.325134 254.425084 
L 74.818225 254.425084 
L 81.311315 254.425084 
L 87.804406 254.425084 
L 94.297497 254.425084 
L 100.790588 254.425084 
L 107.283679 254.425084 
L 113.77677 254.425084 
L 120.269861 254.425084 
L 124.944886 254.425084 
L 124.951379 254.414299 
L 124.964366 254.39602 
L 124.990338 254.371749 
L 125.009817 254.38078 
L 125.014743 254.394834 
L 125.024594 254.415093 
L 125.044297 254.43914 
L 125.083702 254.476516 
L 125.136387 254.49242 
L 125.230319 254.487614 
L 125.380068 254.460537 
L 125.679565 254.367047 
L 126.278559 254.027178 
L 127.476546 252.752334 
L 129.872522 248.357045 
L 134.664474 236.383654 
L 139.534225 223.228116 
L 146.027316 205.835201 
L 152.520407 188.47897 
L 159.013498 171.177333 
L 165.506589 153.933349 
L 171.99968 136.75864 
L 178.492771 119.667926 
L 184.985862 102.762958 
L 191.478953 87.347211 
L 197.972043 76.398276 
L 204.465134 70.420029 
L 210.958225 67.297195 
L 217.451316 65.678838 
L 223.944407 64.800362 
L 230.437498 64.332001 
L 236.930589 64.07267 
L 243.42368 63.936153 
L 249.916771 63.859269 
L 256.409862 63.819529 
L 262.902953 63.79666 
L 269.396043 63.785088 
L 275.889134 63.778309 
L 282.382225 63.774884 
L 288.875316 63.772942 
L 295.368407 63.771844 
L 301.861498 63.771379 
L 308.354589 63.770931 
L 314.84768 63.770928 
L 321.340771 63.770653 
L 327.833862 63.770799 
L 334.326953 63.77057 
L 340.820043 63.770763 
L 347.313134 63.770542 
L 353.806225 63.770753 
L 360.299316 63.770536 
L 366.792407 63.770752 
L 373.285498 63.770534 
L 379.778589 63.770752 
L 384.668523 63.770534 
" clip-path="url(#p7a6e0aa083)" style="fill: none; stroke: #2ca02c; stroke-width: 1.5; stroke-linecap: square"/>
   </g>
   <g id="line2d_18">
    <path d="M 60.013977 261.216 
L 60.046443 261.216 
L 60.078908 261.216 
L 60.143839 261.216 
L 60.273701 261.216 
L 60.533425 261.216 
L 61.052872 261.216 
L 62.091766 261.216 
L 64.169555 261.216 
L 68.325134 261.216 
L 74.818225 261.216 
L 81.311315 261.216 
L 87.804406 261.216 
L 94.297497 261.216 
L 100.790588 261.216 
L 107.283679 261.216 
L 113.77677 261.216 
L 120.269861 261.216 
L 124.944886 261.216 
L 124.951379 237.024 
L 124.964366 188.64 
L 124.990338 91.872 
L 125.009817 19.296 
L 125.014743 19.296 
L 125.024594 19.296 
L 125.044297 19.296 
L 125.083702 19.296 
L 125.136387 19.296 
L 125.230319 19.296 
L 125.380068 19.296 
L 125.679565 19.296 
L 126.278559 19.296 
L 127.476546 19.296 
L 129.872522 19.296 
L 134.664474 19.296 
L 139.534225 19.296 
L 146.027316 19.296 
L 152.520407 19.296 
L 159.013498 19.296 
L 165.506589 19.296 
L 171.99968 19.296 
L 178.492771 19.296 
L 184.985862 19.296 
L 191.478953 19.296 
L 197.972043 19.296 
L 204.465134 19.296 
L 210.958225 19.296 
L 217.451316 19.296 
L 223.944407 19.296 
L 230.437498 19.296 
L 236.930589 19.296 
L 243.42368 19.296 
L 249.916771 19.296 
L 256.409862 19.296 
L 262.902953 19.296 
L 269.396043 19.296 
L 275.889134 19.296 
L 282.382225 19.296 
L 288.875316 19.296 
L 295.368407 19.296 
L 301.861498 19.296 
L 308.354589 19.296 
L 314.84768 19.296 
L 321.340771 19.296 
L 327.833862 19.296 
L 334.326953 19.296 
L 340.820043 19.296 
L 347.313134 19.296 
L 353.806225 19.296 
L 360.299316 19.296 
L 366.792407 19.296 
L 373.285498 19.296 
L 379.778589 19.296 
L 384.668523 19.296 
" clip-path="url(#p7a6e0aa083)" style="fill: none; stroke: #d62728; stroke-width: 1.5; stroke-linecap: square"/>
   </g>
   <g id="line2d_19">
    <path d="M 60.013977 252.391551 
L 60.046443 252.391551 
L 60.078908 252.391551 
L 60.143839 252.391551 
L 60.273701 252.391551 
L 60.533425 252.391551 
L 61.052872 252.391551 
L 62.091766 252.391551 
L 64.169555 252.391551 
L 68.325134 252.391551 
L 74.818225 252.391551 
L 81.311315 252.391551 
L 87.804406 252.391551 
L 94.297497 252.391551 
L 100.790588 252.391551 
L 107.283679 252.391551 
L 113.77677 252.391551 
L 120.269861 252.391551 
L 124.944886 252.391551 
L 124.951379 252.37532 
L 124.964366 252.352581 
L 124.990338 252.328575 
L 125.009817 252.33272 
L 125.014074 252.345168 
L 125.022588 252.364029 
L 125.039616 252.399156 
L 125.073672 252.44604 
L 125.133031 252.453742 
L 125.209267 252.434135 
L 125.34197 252.390672 
L 125.607376 252.272237 
L 126.138189 251.925394 
L 127.199814 250.825905 
L 129.323064 247.27976 
L 133.569564 237.284853 
L 139.026316 222.694505 
L 145.519407 205.26311 
L 152.012498 187.925302 
L 158.505589 170.657958 
L 164.99868 153.460461 
L 171.491771 136.336419 
L 177.984862 119.399184 
L 184.477953 103.577366 
L 190.971044 91.292732 
L 197.464134 83.540661 
L 203.957225 78.966371 
L 210.450316 76.284652 
L 216.943407 74.68661 
L 223.436498 73.719781 
L 229.929589 73.135854 
L 236.42268 72.781153 
L 242.915771 72.566274 
L 249.408862 72.435621 
L 255.901953 72.356246 
L 262.395044 72.30812 
L 268.888134 72.278685 
L 275.381225 72.261031 
L 281.874316 72.250027 
L 288.367407 72.243634 
L 294.860498 72.239436 
L 301.353589 72.237205 
L 307.84668 72.235521 
L 314.339771 72.234829 
L 320.832862 72.234075 
L 327.325953 72.233952 
L 333.819044 72.233541 
L 340.312134 72.233628 
L 346.805225 72.233342 
L 353.298316 72.233507 
L 359.791407 72.23327 
L 366.284498 72.233463 
L 372.777589 72.233244 
L 379.27068 72.233447 
L 384.668523 72.233234 
" clip-path="url(#p7a6e0aa083)" style="fill: none; stroke: #9467bd; stroke-width: 1.5; stroke-linecap: square"/>
   </g>
   <g id="line2d_20">
    <path d="M 60.013977 261.216 
L 60.046443 261.216 
L 60.078908 261.216 
L 60.143839 261.216 
L 60.273701 261.216 
L 60.533425 261.216 
L 61.052872 261.216 
L 62.091766 261.216 
L 64.169555 261.216 
L 68.325134 261.216 
L 74.818225 261.216 
L 81.311315 261.216 
L 87.804406 261.216 
L 94.297497 261.216 
L 100.790588 261.216 
L 107.283679 261.216 
L 113.77677 261.216 
L 120.269861 261.216 
L 124.944886 261.216 
L 124.951379 237.024 
L 124.964366 188.64 
L 124.990338 91.872 
L 125.009817 19.296 
L 125.014074 19.296 
L 125.022588 19.296 
L 125.039616 19.296 
L 125.073672 19.296 
L 125.133031 19.296 
L 125.209267 19.296 
L 125.34197 19.296 
L 125.607376 19.296 
L 126.138189 19.296 
L 127.199814 19.296 
L 129.323064 19.296 
L 133.569564 19.296 
L 139.026316 19.296 
L 145.519407 19.296 
L 152.012498 19.296 
L 158.505589 19.296 
L 164.99868 19.296 
L 171.491771 19.296 
L 177.984862 19.296 
L 184.477953 19.296 
L 190.971044 19.296 
L 197.464134 19.296 
L 203.957225 19.296 
L 210.450316 19.296 
L 216.943407 19.296 
L 223.436498 19.296 
L 229.929589 19.296 
L 236.42268 19.296 
L 242.915771 19.296 
L 249.408862 19.296 
L 255.901953 19.296 
L 262.395044 19.296 
L 268.888134 19.296 
L 275.381225 19.296 
L 281.874316 19.296 
L 288.367407 19.296 
L 294.860498 19.296 
L 301.353589 19.296 
L 307.84668 19.296 
L 314.339771 19.296 
L 320.832862 19.296 
L 327.325953 19.296 
L 333.819044 19.296 
L 340.312134 19.296 
L 346.805225 19.296 
L 353.298316 19.296 
L 359.791407 19.296 
L 366.284498 19.296 
L 372.777589 19.296 
L 379.27068 19.296 
L 384.668523 19.296 
" clip-path="url(#p7a6e0aa083)" style="fill: none; stroke: #8c564b; stroke-width: 1.5; stroke-linecap: square"/>
   </g>
   <g id="line2d_21">
    <path d="M 60.013977 255.31177 
L 60.046443 255.31177 
L 60.078908 255.31177 
L 60.143839 255.31177 
L 60.273701 255.31177 
L 60.533425 255.31177 
L 61.052872 255.31177 
L 62.091766 255.31177 
L 64.169555 255.31177 
L 68.325134 255.31177 
L 74.818225 255.31177 
L 81.311315 255.31177 
L 87.804406 255.31177 
L 94.297497 255.31177 
L 100.790588 255.31177 
L 107.283679 255.31177 
L 113.77677 255.31177 
L 120.269861 255.311769 
L 124.944886 255.311769 
L 124.951379 255.300943 
L 124.964366 255.28239 
L 124.990338 255.260103 
L 125.009817 255.272627 
L 125.014458 255.286176 
L 125.023739 255.305414 
L 125.042302 255.326439 
L 125.079427 255.35924 
L 125.128267 255.377837 
L 125.220826 255.375987 
L 125.373837 255.345654 
L 125.666582 255.24103 
L 126.252072 254.853421 
L 127.423053 253.406059 
L 129.765014 248.590776 
L 134.223833 236.689419 
L 138.667655 224.15925 
L 145.160746 205.999577 
L 151.653837 187.899861 
L 158.146928 169.863285 
L 164.640018 151.900374 
L 171.133109 134.022221 
L 177.6262 116.245693 
L 184.119291 98.596358 
L 190.612382 81.602993 
L 197.105473 68.705746 
L 203.598564 61.913138 
L 210.091655 58.854084 
L 216.584746 57.463894 
L 223.077837 56.792373 
L 229.570928 56.476556 
L 236.064018 56.320093 
L 242.557109 56.249054 
L 249.0502 56.212219 
L 255.543291 56.1966 
L 262.036382 56.187708 
L 268.529473 56.184389 
L 275.022564 56.182199 
L 281.515655 56.181475 
L 288.008746 56.180992 
L 294.501837 56.180739 
L 300.994928 56.180747 
L 307.488018 56.180533 
L 313.981109 56.18071 
L 320.4742 56.180465 
L 326.967291 56.180712 
L 333.460382 56.180438 
L 339.953473 56.180718 
L 346.446564 56.180426 
L 352.939655 56.180723 
L 359.432746 56.180422 
L 365.925837 56.180728 
L 372.418928 56.18042 
L 378.912018 56.18073 
L 384.668523 56.18042 
" clip-path="url(#p7a6e0aa083)" style="fill: none; stroke: #e377c2; stroke-width: 1.5; stroke-linecap: square"/>
   </g>
   <g id="line2d_22">
    <path d="M 60.013977 261.216 
L 60.046443 261.216 
L 60.078908 261.216 
L 60.143839 261.216 
L 60.273701 261.216 
L 60.533425 261.216 
L 61.052872 261.216 
L 62.091766 261.216 
L 64.169555 261.216 
L 68.325134 261.216 
L 74.818225 261.216 
L 81.311315 261.216 
L 87.804406 261.216 
L 94.297497 261.216 
L 100.790588 261.216 
L 107.283679 261.216 
L 113.77677 261.216 
L 120.269861 261.216 
L 124.944886 261.216 
L 124.951379 237.024 
L 124.964366 188.64 
L 124.990338 91.872 
L 125.009817 19.296 
L 125.014458 19.296 
L 125.023739 19.296 
L 125.042302 19.296 
L 125.079427 19.296 
L 125.128267 19.296 
L 125.220826 19.296 
L 125.373837 19.296 
L 125.666582 19.296 
L 126.252072 19.296 
L 127.423053 19.296 
L 129.765014 19.296 
L 134.223833 19.296 
L 138.667655 19.296 
L 145.160746 19.296 
L 151.653837 19.296 
L 158.146928 19.296 
L 164.640018 19.296 
L 171.133109 19.296 
L 177.6262 19.296 
L 184.119291 19.296 
L 190.612382 19.296 
L 197.105473 19.296 
L 203.598564 19.296 
L 210.091655 19.296 
L 216.584746 19.296 
L 223.077837 19.296 
L 229.570928 19.296 
L 236.064018 19.296 
L 242.557109 19.296 
L 249.0502 19.296 
L 255.543291 19.296 
L 262.036382 19.296 
L 268.529473 19.296 
L 275.022564 19.296 
L 281.515655 19.296 
L 288.008746 19.296 
L 294.501837 19.296 
L 300.994928 19.296 
L 307.488018 19.296 
L 313.981109 19.296 
L 320.4742 19.296 
L 326.967291 19.296 
L 333.460382 19.296 
L 339.953473 19.296 
L 346.446564 19.296 
L 352.939655 19.296 
L 359.432746 19.296 
L 365.925837 19.296 
L 372.418928 19.296 
L 378.912018 19.296 
L 384.668523 19.296 
" clip-path="url(#p7a6e0aa083)" style="fill: none; stroke: #7f7f7f; stroke-width: 1.5; stroke-linecap: square"/>
   </g>
   <g id="line2d_23">
    <path d="M 60.013977 254.364965 
L 60.046443 254.364965 
L 60.078908 254.364965 
L 60.143839 254.364965 
L 60.273701 254.364965 
L 60.533425 254.364965 
L 61.052872 254.364965 
L 62.091766 254.364965 
L 64.169555 254.364965 
L 68.325134 254.364965 
L 74.818225 254.364965 
L 81.311315 254.364965 
L 87.804406 254.364965 
L 94.297497 254.364965 
L 100.790588 254.364965 
L 107.283679 254.364965 
L 113.77677 254.364965 
L 120.269861 254.364965 
L 124.944886 254.364965 
L 124.951379 254.353546 
L 124.964366 254.334212 
L 124.990338 254.313003 
L 125.009817 254.322863 
L 125.014612 254.336736 
L 125.024203 254.356757 
L 125.043384 254.386461 
L 125.081746 254.427151 
L 125.134733 254.434202 
L 125.223198 254.420554 
L 125.367894 254.383346 
L 125.657288 254.267129 
L 126.236075 253.881541 
L 127.39365 252.531592 
L 129.7088 248.076296 
L 134.339098 236.131498 
L 139.00121 223.13966 
L 145.494301 205.180039 
L 151.987392 187.266718 
L 158.480483 169.412521 
L 164.973574 151.621779 
L 171.466665 133.907284 
L 177.959756 116.286182 
L 184.452846 98.946615 
L 190.945937 83.83125 
L 197.439028 73.821907 
L 203.932119 68.605417 
L 210.42521 65.937699 
L 216.918301 64.567306 
L 223.411392 63.833528 
L 229.904483 63.447023 
L 236.397574 63.236981 
L 242.890665 63.127522 
L 249.383756 63.067195 
L 255.876846 63.036246 
L 262.369937 63.018874 
L 268.863028 63.010118 
L 275.356119 63.00514 
L 281.84921 63.002617 
L 288.342301 63.001245 
L 294.835392 63.000453 
L 301.328483 63.000145 
L 307.821574 62.999824 
L 314.314665 62.999837 
L 320.807756 62.999638 
L 327.300846 62.999753 
L 333.793937 62.999583 
L 340.287028 62.99973 
L 346.780119 62.999566 
L 353.27321 62.999724 
L 359.766301 62.999561 
L 366.259392 62.999722 
L 372.752483 62.999559 
L 379.245574 62.999722 
L 384.668523 62.999559 
" clip-path="url(#p7a6e0aa083)" style="fill: none; stroke: #bcbd22; stroke-width: 1.5; stroke-linecap: square"/>
   </g>
   <g id="line2d_24">
    <path d="M 60.013977 261.216 
L 60.046443 261.216 
L 60.078908 261.216 
L 60.143839 261.216 
L 60.273701 261.216 
L 60.533425 261.216 
L 61.052872 261.216 
L 62.091766 261.216 
L 64.169555 261.216 
L 68.325134 261.216 
L 74.818225 261.216 
L 81.311315 261.216 
L 87.804406 261.216 
L 94.297497 261.216 
L 100.790588 261.216 
L 107.283679 261.216 
L 113.77677 261.216 
L 120.269861 261.216 
L 124.944886 261.216 
L 124.951379 237.024 
L 124.964366 188.64 
L 124.990338 91.872 
L 125.009817 19.296 
L 125.014612 19.296 
L 125.024203 19.296 
L 125.043384 19.296 
L 125.081746 19.296 
L 125.134733 19.296 
L 125.223198 19.296 
L 125.367894 19.296 
L 125.657288 19.296 
L 126.236075 19.296 
L 127.39365 19.296 
L 129.7088 19.296 
L 134.339098 19.296 
L 139.00121 19.296 
L 145.494301 19.296 
L 151.987392 19.296 
L 158.480483 19.296 
L 164.973574 19.296 
L 171.466665 19.296 
L 177.959756 19.296 
L 184.452846 19.296 
L 190.945937 19.296 
L 197.439028 19.296 
L 203.932119 19.296 
L 210.42521 19.296 
L 216.918301 19.296 
L 223.411392 19.296 
L 229.904483 19.296 
L 236.397574 19.296 
L 242.890665 19.296 
L 249.383756 19.296 
L 255.876846 19.296 
L 262.369937 19.296 
L 268.863028 19.296 
L 275.356119 19.296 
L 281.84921 19.296 
L 288.342301 19.296 
L 294.835392 19.296 
L 301.328483 19.296 
L 307.821574 19.296 
L 314.314665 19.296 
L 320.807756 19.296 
L 327.300846 19.296 
L 333.793937 19.296 
L 340.287028 19.296 
L 346.780119 19.296 
L 353.27321 19.296 
L 359.766301 19.296 
L 366.259392 19.296 
L 372.752483 19.296 
L 379.245574 19.296 
L 384.668523 19.296 
" clip-path="url(#p7a6e0aa083)" style="fill: none; stroke: #17becf; stroke-width: 1.5; stroke-linecap: square"/>
   </g>
   <g id="line2d_25">
    <path d="M 60.013977 252.017053 
L 60.046443 252.017053 
L 60.078908 252.017053 
L 60.143839 252.017053 
L 60.273701 252.017053 
L 60.533425 252.017053 
L 61.052872 252.017053 
L 62.091766 252.017053 
L 64.169555 252.017053 
L 68.325134 252.017053 
L 74.818225 252.017053 
L 81.311315 252.017053 
L 87.804406 252.017053 
L 94.297497 252.017053 
L 100.790588 252.017053 
L 107.283679 252.017053 
L 113.77677 252.017053 
L 120.269861 252.017053 
L 124.944886 252.017053 
L 124.951379 251.995372 
L 124.964366 251.964559 
L 124.990338 251.940984 
L 125.009817 251.944228 
L 125.013494 251.955499 
L 125.020849 251.974051 
L 125.035557 252.013648 
L 125.064975 252.056962 
L 125.123404 252.056869 
L 125.189789 252.029492 
L 125.314746 251.971262 
L 125.560421 251.825779 
L 126.051769 251.430752 
L 127.034467 250.267766 
L 128.999861 246.720707 
L 132.93065 236.966474 
L 138.27237 221.995963 
L 144.59478 204.271449 
L 151.087871 186.267356 
L 157.580962 168.404693 
L 164.074053 150.65529 
L 170.567144 133.023294 
L 177.060235 115.660676 
L 183.553325 99.852997 
L 190.046416 88.115858 
L 196.539507 80.963103 
L 203.032598 76.809246 
L 209.525689 74.406537 
L 216.01878 72.989313 
L 222.511871 72.144577 
L 229.004962 71.640277 
L 235.498053 71.338893 
L 241.991144 71.158337 
L 248.484235 71.0505 
L 254.977325 70.985606 
L 261.470416 70.947073 
L 267.963507 70.923625 
L 274.456598 70.909956 
L 280.949689 70.901374 
L 287.44278 70.896631 
L 293.935871 70.893386 
L 300.428962 70.891848 
L 306.922053 70.890517 
L 313.415144 70.890132 
L 319.908235 70.889487 
L 326.401325 70.889514 
L 332.894416 70.889116 
L 339.387507 70.889293 
L 345.880598 70.888982 
L 352.373689 70.889214 
L 358.86678 70.888933 
L 365.359871 70.889185 
L 371.852962 70.888916 
L 378.346053 70.889175 
L 384.668523 70.888909 
" clip-path="url(#p7a6e0aa083)" style="fill: none; stroke: #1f77b4; stroke-width: 1.5; stroke-linecap: square"/>
   </g>
   <g id="line2d_26">
    <path d="M 60.013977 261.216 
L 60.046443 261.216 
L 60.078908 261.216 
L 60.143839 261.216 
L 60.273701 261.216 
L 60.533425 261.216 
L 61.052872 261.216 
L 62.091766 261.216 
L 64.169555 261.216 
L 68.325134 261.216 
L 74.818225 261.216 
L 81.311315 261.216 
L 87.804406 261.216 
L 94.297497 261.216 
L 100.790588 261.216 
L 107.283679 261.216 
L 113.77677 261.216 
L 120.269861 261.216 
L 124.944886 261.216 
L 124.951379 237.024 
L 124.964366 188.64 
L 124.990338 91.872 
L 125.009817 19.296 
L 125.013494 19.296 
L 125.020849 19.296 
L 125.035557 19.296 
L 125.064975 19.296 
L 125.123404 19.296 
L 125.189789 19.296 
L 125.314746 19.296 
L 125.560421 19.296 
L 126.051769 19.296 
L 127.034467 19.296 
L 128.999861 19.296 
L 132.93065 19.296 
L 138.27237 19.296 
L 144.59478 19.296 
L 151.087871 19.296 
L 157.580962 19.296 
L 164.074053 19.296 
L 170.567144 19.296 
L 177.060235 19.296 
L 183.553325 19.296 
L 190.046416 19.296 
L 196.539507 19.296 
L 203.032598 19.296 
L 209.525689 19.296 
L 216.01878 19.296 
L 222.511871 19.296 
L 229.004962 19.296 
L 235.498053 19.296 
L 241.991144 19.296 
L 248.484235 19.296 
L 254.977325 19.296 
L 261.470416 19.296 
L 267.963507 19.296 
L 274.456598 19.296 
L 280.949689 19.296 
L 287.44278 19.296 
L 293.935871 19.296 
L 300.428962 19.296 
L 306.922053 19.296 
L 313.415144 19.296 
L 319.908235 19.296 
L 326.401325 19.296 
L 332.894416 19.296 
L 339.387507 19.296 
L 345.880598 19.296 
L 352.373689 19.296 
L 358.86678 19.296 
L 365.359871 19.296 
L 371.852962 19.296 
L 378.346053 19.296 
L 384.668523 19.296 
" clip-path="url(#p7a6e0aa083)" style="fill: none; stroke: #ff7f0e; stroke-width: 1.5; stroke-linecap: square"/>
   </g>
   <g id="line2d_27">
    <path d="M 60.013977 255.476415 
L 60.046443 255.476415 
L 60.078908 255.476415 
L 60.143839 255.476415 
L 60.273701 255.476415 
L 60.533425 255.476415 
L 61.052872 255.476415 
L 62.091766 255.476415 
L 64.169555 255.476415 
L 68.325134 255.476415 
L 74.818225 255.476415 
L 81.311315 255.476415 
L 87.804406 255.476415 
L 94.297497 255.476415 
L 100.790588 255.476415 
L 107.283679 255.476415 
L 113.77677 255.476415 
L 120.269861 255.476415 
L 124.944886 255.476415 
L 124.951379 255.465369 
L 124.964366 255.445974 
L 124.990338 255.427171 
L 125.009817 255.440325 
L 125.014507 255.453981 
L 125.023888 255.473237 
L 125.042649 255.498648 
L 125.080171 255.539127 
L 125.129861 255.548743 
L 125.221795 255.534304 
L 125.369536 255.490026 
L 125.665018 255.348488 
L 126.255983 254.8713 
L 127.437913 253.21406 
L 129.801772 247.989183 
L 134.054592 236.150761 
L 138.502702 223.179893 
L 144.995793 204.370548 
L 151.488884 185.625391 
L 157.981974 166.949879 
L 164.475065 148.355742 
L 170.968156 129.856036 
L 177.461247 111.471349 
L 183.954338 93.268498 
L 190.447429 76.415346 
L 196.94052 64.83704 
L 203.433611 59.321293 
L 209.926702 56.849974 
L 216.419793 55.764758 
L 222.912884 55.240551 
L 229.405974 55.010316 
L 235.899065 54.890162 
L 242.392156 54.843543 
L 248.885247 54.814502 
L 255.378338 54.806337 
L 261.871429 54.798466 
L 268.36452 54.797758 
L 274.857611 54.795226 
L 281.350702 54.795617 
L 287.843793 54.794663 
L 294.336884 54.794991 
L 300.829974 54.79462 
L 307.323065 54.794763 
L 313.816156 54.794657 
L 320.309247 54.794662 
L 326.802338 54.794691 
L 333.295429 54.794609 
L 339.78852 54.794713 
L 346.281611 54.794581 
L 352.774702 54.794726 
L 359.267793 54.794565 
L 365.760884 54.794734 
L 372.253974 54.794557 
L 378.747065 54.794739 
L 384.668523 54.794554 
" clip-path="url(#p7a6e0aa083)" style="fill: none; stroke: #2ca02c; stroke-width: 1.5; stroke-linecap: square"/>
   </g>
   <g id="line2d_28">
    <path d="M 60.013977 261.216 
L 60.046443 261.216 
L 60.078908 261.216 
L 60.143839 261.216 
L 60.273701 261.216 
L 60.533425 261.216 
L 61.052872 261.216 
L 62.091766 261.216 
L 64.169555 261.216 
L 68.325134 261.216 
L 74.818225 261.216 
L 81.311315 261.216 
L 87.804406 261.216 
L 94.297497 261.216 
L 100.790588 261.216 
L 107.283679 261.216 
L 113.77677 261.216 
L 120.269861 261.216 
L 124.944886 261.216 
L 124.951379 237.024 
L 124.964366 188.64 
L 124.990338 91.872 
L 125.009817 19.296 
L 125.014507 19.296 
L 125.023888 19.296 
L 125.042649 19.296 
L 125.080171 19.296 
L 125.129861 19.296 
L 125.221795 19.296 
L 125.369536 19.296 
L 125.665018 19.296 
L 126.255983 19.296 
L 127.437913 19.296 
L 129.801772 19.296 
L 134.054592 19.296 
L 138.502702 19.296 
L 144.995793 19.296 
L 151.488884 19.296 
L 157.981974 19.296 
L 164.475065 19.296 
L 170.968156 19.296 
L 177.461247 19.296 
L 183.954338 19.296 
L 190.447429 19.296 
L 196.94052 19.296 
L 203.433611 19.296 
L 209.926702 19.296 
L 216.419793 19.296 
L 222.912884 19.296 
L 229.405974 19.296 
L 235.899065 19.296 
L 242.392156 19.296 
L 248.885247 19.296 
L 255.378338 19.296 
L 261.871429 19.296 
L 268.36452 19.296 
L 274.857611 19.296 
L 281.350702 19.296 
L 287.843793 19.296 
L 294.336884 19.296 
L 300.829974 19.296 
L 307.323065 19.296 
L 313.816156 19.296 
L 320.309247 19.296 
L 326.802338 19.296 
L 333.295429 19.296 
L 339.78852 19.296 
L 346.281611 19.296 
L 352.774702 19.296 
L 359.267793 19.296 
L 365.760884 19.296 
L 372.253974 19.296 
L 378.747065 19.296 
L 384.668523 19.296 
" clip-path="url(#p7a6e0aa083)" style="fill: none; stroke: #d62728; stroke-width: 1.5; stroke-linecap: square"/>
   </g>
   <g id="line2d_29">
    <path d="M 60.013977 254.355793 
L 60.046443 254.355793 
L 60.078908 254.355793 
L 60.143839 254.355793 
L 60.273701 254.355793 
L 60.533425 254.355793 
L 61.052872 254.355793 
L 62.091766 254.355793 
L 64.169555 254.355793 
L 68.325134 254.355793 
L 74.818225 254.355793 
L 81.311315 254.355793 
L 87.804406 254.355793 
L 94.297497 254.355793 
L 100.790588 254.355793 
L 107.283679 254.355793 
L 113.77677 254.355793 
L 120.269861 254.355793 
L 124.944886 254.355793 
L 124.951379 254.342567 
L 124.964366 254.321826 
L 124.990338 254.303994 
L 125.009817 254.313995 
L 125.013689 254.326006 
L 125.021433 254.343694 
L 125.036919 254.376072 
L 125.067894 254.419451 
L 125.119167 254.426507 
L 125.192092 254.409179 
L 125.317822 254.367586 
L 125.56928 254.247464 
L 126.072199 253.880323 
L 127.078035 252.681719 
L 129.089707 248.83387 
L 133.113052 238.361825 
L 137.788874 224.939822 
L 144.261127 206.41199 
L 150.754218 187.890342 
L 157.247308 169.435439 
L 163.740399 151.053729 
L 170.23349 132.756545 
L 176.726581 114.561561 
L 183.219672 96.685619 
L 189.712763 81.318034 
L 196.205854 71.419625 
L 202.698945 66.399564 
L 209.192036 63.878619 
L 215.685127 62.609536 
L 222.178218 61.941517 
L 228.671308 61.597323 
L 235.164399 61.413241 
L 241.65749 61.319725 
L 248.150581 61.268828 
L 254.643672 61.24348 
L 261.136763 61.229381 
L 267.629854 61.222483 
L 274.122945 61.218626 
L 280.616036 61.216675 
L 287.109127 61.215707 
L 293.602218 61.215054 
L 300.095308 61.21492 
L 306.588399 61.214594 
L 313.08149 61.214712 
L 319.574581 61.214462 
L 326.067672 61.214657 
L 332.560763 61.214422 
L 339.053854 61.214644 
L 345.546945 61.214411 
L 352.040036 61.214641 
L 358.533127 61.214406 
L 365.026218 61.214641 
L 371.519308 61.214404 
L 378.012399 61.214641 
L 384.50549 61.214404 
L 384.668523 61.214641 
" clip-path="url(#p7a6e0aa083)" style="fill: none; stroke: #9467bd; stroke-width: 1.5; stroke-linecap: square"/>
   </g>
   <g id="line2d_30">
    <path d="M 60.013977 261.216 
L 60.046443 261.216 
L 60.078908 261.216 
L 60.143839 261.216 
L 60.273701 261.216 
L 60.533425 261.216 
L 61.052872 261.216 
L 62.091766 261.216 
L 64.169555 261.216 
L 68.325134 261.216 
L 74.818225 261.216 
L 81.311315 261.216 
L 87.804406 261.216 
L 94.297497 261.216 
L 100.790588 261.216 
L 107.283679 261.216 
L 113.77677 261.216 
L 120.269861 261.216 
L 124.944886 261.216 
L 124.951379 237.024 
L 124.964366 188.64 
L 124.990338 91.872 
L 125.009817 19.296 
L 125.013689 19.296 
L 125.021433 19.296 
L 125.036919 19.296 
L 125.067894 19.296 
L 125.119167 19.296 
L 125.192092 19.296 
L 125.317822 19.296 
L 125.56928 19.296 
L 126.072199 19.296 
L 127.078035 19.296 
L 129.089707 19.296 
L 133.113052 19.296 
L 137.788874 19.296 
L 144.261127 19.296 
L 150.754218 19.296 
L 157.247308 19.296 
L 163.740399 19.296 
L 170.23349 19.296 
L 176.726581 19.296 
L 183.219672 19.296 
L 189.712763 19.296 
L 196.205854 19.296 
L 202.698945 19.296 
L 209.192036 19.296 
L 215.685127 19.296 
L 222.178218 19.296 
L 228.671308 19.296 
L 235.164399 19.296 
L 241.65749 19.296 
L 248.150581 19.296 
L 254.643672 19.296 
L 261.136763 19.296 
L 267.629854 19.296 
L 274.122945 19.296 
L 280.616036 19.296 
L 287.109127 19.296 
L 293.602218 19.296 
L 300.095308 19.296 
L 306.588399 19.296 
L 313.08149 19.296 
L 319.574581 19.296 
L 326.067672 19.296 
L 332.560763 19.296 
L 339.053854 19.296 
L 345.546945 19.296 
L 352.040036 19.296 
L 358.533127 19.296 
L 365.026218 19.296 
L 371.519308 19.296 
L 378.012399 19.296 
L 384.50549 19.296 
L 384.668523 19.296 
" clip-path="url(#p7a6e0aa083)" style="fill: none; stroke: #8c564b; stroke-width: 1.5; stroke-linecap: square"/>
   </g>
   <g id="line2d_31">
    <path d="M 60.013977 251.396564 
L 60.046443 251.396564 
L 60.078908 251.396564 
L 60.143839 251.396564 
L 60.273701 251.396564 
L 60.533425 251.396564 
L 61.052872 251.396564 
L 62.091766 251.396564 
L 64.169555 251.396564 
L 68.325134 251.396564 
L 74.818225 251.396564 
L 81.311315 251.396564 
L 87.804406 251.396564 
L 94.297497 251.396564 
L 100.790588 251.396564 
L 107.283679 251.396564 
L 113.77677 251.396564 
L 120.269861 251.396564 
L 124.944886 251.396564 
L 124.951379 251.371396 
L 124.964366 251.32782 
L 124.990338 251.299914 
L 125.009817 251.300102 
L 125.013071 251.310645 
L 125.019578 251.330803 
L 125.032591 251.37242 
L 125.058618 251.409247 
L 125.110672 251.397916 
L 125.172496 251.356527 
L 125.285866 251.274099 
L 125.511315 251.080059 
L 125.962212 250.591852 
L 126.864006 249.266448 
L 128.667595 245.496959 
L 132.274772 235.553555 
L 137.288774 220.237556 
L 143.207527 202.412026 
L 149.700617 183.38606 
L 156.193708 164.713946 
L 162.686799 146.273423 
L 169.17989 128.040811 
L 175.672981 110.234725 
L 182.166072 94.592707 
L 188.659163 83.605326 
L 195.152254 77.179619 
L 201.645345 73.533014 
L 208.138436 71.453736 
L 214.631527 70.244876 
L 221.124617 69.535693 
L 227.617708 69.119519 
L 234.110799 68.874846 
L 240.60389 68.730834 
L 247.096981 68.646272 
L 253.590072 68.596249 
L 260.083163 68.5671 
L 266.576254 68.549607 
L 273.069345 68.539663 
L 279.562436 68.533437 
L 286.055527 68.530154 
L 292.548617 68.52783 
L 299.041708 68.526857 
L 305.534799 68.525885 
L 312.02789 68.525715 
L 318.520981 68.525209 
L 325.014072 68.52532 
L 331.507163 68.524973 
L 338.000254 68.525183 
L 344.493345 68.524891 
L 350.986436 68.525135 
L 357.479527 68.524862 
L 363.972617 68.525118 
L 370.465708 68.524851 
L 376.958799 68.525114 
L 383.45189 68.524846 
L 384.668523 68.525114 
" clip-path="url(#p7a6e0aa083)" style="fill: none; stroke: #e377c2; stroke-width: 1.5; stroke-linecap: square"/>
   </g>
   <g id="line2d_32">
    <path d="M 60.013977 261.216 
L 60.046443 261.216 
L 60.078908 261.216 
L 60.143839 261.216 
L 60.273701 261.216 
L 60.533425 261.216 
L 61.052872 261.216 
L 62.091766 261.216 
L 64.169555 261.216 
L 68.325134 261.216 
L 74.818225 261.216 
L 81.311315 261.216 
L 87.804406 261.216 
L 94.297497 261.216 
L 100.790588 261.216 
L 107.283679 261.216 
L 113.77677 261.216 
L 120.269861 261.216 
L 124.944886 261.216 
L 124.951379 237.024 
L 124.964366 188.64 
L 124.990338 91.872 
L 125.009817 19.296 
L 125.013071 19.296 
L 125.019578 19.296 
L 125.032591 19.296 
L 125.058618 19.296 
L 125.110672 19.296 
L 125.172496 19.296 
L 125.285866 19.296 
L 125.511315 19.296 
L 125.962212 19.296 
L 126.864006 19.296 
L 128.667595 19.296 
L 132.274772 19.296 
L 137.288774 19.296 
L 143.207527 19.296 
L 149.700617 19.296 
L 156.193708 19.296 
L 162.686799 19.296 
L 169.17989 19.296 
L 175.672981 19.296 
L 182.166072 19.296 
L 188.659163 19.296 
L 195.152254 19.296 
L 201.645345 19.296 
L 208.138436 19.296 
L 214.631527 19.296 
L 221.124617 19.296 
L 227.617708 19.296 
L 234.110799 19.296 
L 240.60389 19.296 
L 247.096981 19.296 
L 253.590072 19.296 
L 260.083163 19.296 
L 266.576254 19.296 
L 273.069345 19.296 
L 279.562436 19.296 
L 286.055527 19.296 
L 292.548617 19.296 
L 299.041708 19.296 
L 305.534799 19.296 
L 312.02789 19.296 
L 318.520981 19.296 
L 325.014072 19.296 
L 331.507163 19.296 
L 338.000254 19.296 
L 344.493345 19.296 
L 350.986436 19.296 
L 357.479527 19.296 
L 363.972617 19.296 
L 370.465708 19.296 
L 376.958799 19.296 
L 383.45189 19.296 
L 384.668523 19.296 
" clip-path="url(#p7a6e0aa083)" style="fill: none; stroke: #7f7f7f; stroke-width: 1.5; stroke-linecap: square"/>
   </g>
   <g id="patch_3">
    <path d="M 43.78125 273.312 
L 43.78125 7.2 
" style="fill: none; stroke: #000000; stroke-width: 0.8; stroke-linejoin: miter; stroke-linecap: square"/>
   </g>
   <g id="patch_4">
    <path d="M 400.90125 273.312 
L 400.90125 7.2 
" style="fill: none; stroke: #000000; stroke-width: 0.8; stroke-linejoin: miter; stroke-linecap: square"/>
   </g>
   <g id="patch_5">
    <path d="M 43.78125 273.312 
L 400.90125 273.312 
" style="fill: none; stroke: #000000; stroke-width: 0.8; stroke-linejoin: miter; stroke-linecap: square"/>
   </g>
   <g id="patch_6">
    <path d="M 43.78125 7.2 
L 400.90125 7.2 
" style="fill: none; stroke: #000000; stroke-width: 0.8; stroke-linejoin: miter; stroke-linecap: square"/>
   </g>
   <g id="legend_1">
    <g id="patch_7">
     <path d="M 417.18605 279.4125 
L 635.595425 279.4125 
Q 637.595425 279.4125 637.595425 277.4125 
L 637.595425 9.2 
Q 637.595425 7.2 635.595425 7.2 
L 417.18605 7.2 
Q 415.18605 7.2 415.18605 9.2 
L 415.18605 277.4125 
Q 415.18605 279.4125 417.18605 279.4125 
z
" style="fill: #ffffff; opacity: 0.8; stroke: #cccccc; stroke-linejoin: miter"/>
    </g>
    <g id="line2d_33">
     <path d="M 419.18605 15.298437 
L 429.18605 15.298437 
L 439.18605 15.298437 
" style="fill: none; stroke: #1f77b4; stroke-width: 1.5; stroke-linecap: square"/>
    </g>
    <g id="text_18">
     <!-- temperature = -40, corner = mos_ss -->
     <g transform="translate(447.18605 18.798437) scale(0.1 -0.1)">
      <defs>
       <path id="DejaVuSans-72" d="M 2631 2963 
Q 2534 3019 2420 3045 
Q 2306 3072 2169 3072 
Q 1681 3072 1420 2755 
Q 1159 2438 1159 1844 
L 1159 0 
L 581 0 
L 581 3500 
L 1159 3500 
L 1159 2956 
Q 1341 3275 1631 3429 
Q 1922 3584 2338 3584 
Q 2397 3584 2469 3576 
Q 2541 3569 2628 3553 
L 2631 2963 
z
" transform="scale(0.015625)"/>
       <path id="DejaVuSans-61" d="M 2194 1759 
Q 1497 1759 1228 1600 
Q 959 1441 959 1056 
Q 959 750 1161 570 
Q 1363 391 1709 391 
Q 2188 391 2477 730 
Q 2766 1069 2766 1631 
L 2766 1759 
L 2194 1759 
z
M 3341 1997 
L 3341 0 
L 2766 0 
L 2766 531 
Q 2569 213 2275 61 
Q 1981 -91 1556 -91 
Q 1019 -91 701 211 
Q 384 513 384 1019 
Q 384 1609 779 1909 
Q 1175 2209 1959 2209 
L 2766 2209 
L 2766 2266 
Q 2766 2663 2505 2880 
Q 2244 3097 1772 3097 
Q 1472 3097 1187 3025 
Q 903 2953 641 2809 
L 641 3341 
Q 956 3463 1253 3523 
Q 1550 3584 1831 3584 
Q 2591 3584 2966 3190 
Q 3341 2797 3341 1997 
z
" transform="scale(0.015625)"/>
       <path id="DejaVuSans-3d" d="M 678 2906 
L 4684 2906 
L 4684 2381 
L 678 2381 
L 678 2906 
z
M 678 1631 
L 4684 1631 
L 4684 1100 
L 678 1100 
L 678 1631 
z
" transform="scale(0.015625)"/>
       <path id="DejaVuSans-2d" d="M 313 2009 
L 1997 2009 
L 1997 1497 
L 313 1497 
L 313 2009 
z
" transform="scale(0.015625)"/>
       <path id="DejaVuSans-63" d="M 3122 3366 
L 3122 2828 
Q 2878 2963 2633 3030 
Q 2388 3097 2138 3097 
Q 1578 3097 1268 2742 
Q 959 2388 959 1747 
Q 959 1106 1268 751 
Q 1578 397 2138 397 
Q 2388 397 2633 464 
Q 2878 531 3122 666 
L 3122 134 
Q 2881 22 2623 -34 
Q 2366 -91 2075 -91 
Q 1284 -91 818 406 
Q 353 903 353 1747 
Q 353 2603 823 3093 
Q 1294 3584 2113 3584 
Q 2378 3584 2631 3529 
Q 2884 3475 3122 3366 
z
" transform="scale(0.015625)"/>
       <path id="DejaVuSans-5f" d="M 3263 -1063 
L 3263 -1509 
L -63 -1509 
L -63 -1063 
L 3263 -1063 
z
" transform="scale(0.015625)"/>
      </defs>
      <use xlink:href="#DejaVuSans-74"/>
      <use xlink:href="#DejaVuSans-65" x="39.208984"/>
      <use xlink:href="#DejaVuSans-6d" x="100.732422"/>
      <use xlink:href="#DejaVuSans-70" x="198.144531"/>
      <use xlink:href="#DejaVuSans-65" x="261.621094"/>
      <use xlink:href="#DejaVuSans-72" x="323.144531"/>
      <use xlink:href="#DejaVuSans-61" x="364.257812"/>
      <use xlink:href="#DejaVuSans-74" x="425.537109"/>
      <use xlink:href="#DejaVuSans-75" x="464.746094"/>
      <use xlink:href="#DejaVuSans-72" x="528.125"/>
      <use xlink:href="#DejaVuSans-65" x="566.988281"/>
      <use xlink:href="#DejaVuSans-20" x="628.511719"/>
      <use xlink:href="#DejaVuSans-3d" x="660.298828"/>
      <use xlink:href="#DejaVuSans-20" x="744.087891"/>
      <use xlink:href="#DejaVuSans-2d" x="775.875"/>
      <use xlink:href="#DejaVuSans-34" x="811.958984"/>
      <use xlink:href="#DejaVuSans-30" x="875.582031"/>
      <use xlink:href="#DejaVuSans-2c" x="939.205078"/>
      <use xlink:href="#DejaVuSans-20" x="970.992188"/>
      <use xlink:href="#DejaVuSans-63" x="1002.779297"/>
      <use xlink:href="#DejaVuSans-6f" x="1057.759766"/>
      <use xlink:href="#DejaVuSans-72" x="1118.941406"/>
      <use xlink:href="#DejaVuSans-6e" x="1158.304688"/>
      <use xlink:href="#DejaVuSans-65" x="1221.683594"/>
      <use xlink:href="#DejaVuSans-72" x="1283.207031"/>
      <use xlink:href="#DejaVuSans-20" x="1324.320312"/>
      <use xlink:href="#DejaVuSans-3d" x="1356.107422"/>
      <use xlink:href="#DejaVuSans-20" x="1439.896484"/>
      <use xlink:href="#DejaVuSans-6d" x="1471.683594"/>
      <use xlink:href="#DejaVuSans-6f" x="1569.095703"/>
      <use xlink:href="#DejaVuSans-73" x="1630.277344"/>
      <use xlink:href="#DejaVuSans-5f" x="1682.376953"/>
      <use xlink:href="#DejaVuSans-73" x="1732.376953"/>
      <use xlink:href="#DejaVuSans-73" x="1784.476562"/>
     </g>
    </g>
    <g id="line2d_34">
     <path d="M 419.18605 30.254687 
L 429.18605 30.254687 
L 439.18605 30.254687 
" style="fill: none; stroke: #ff7f0e; stroke-width: 1.5; stroke-linecap: square"/>
    </g>
    <g id="text_19">
     <!-- temperature = -40, corner = mos_ss -->
     <g transform="translate(447.18605 33.754687) scale(0.1 -0.1)">
      <use xlink:href="#DejaVuSans-74"/>
      <use xlink:href="#DejaVuSans-65" x="39.208984"/>
      <use xlink:href="#DejaVuSans-6d" x="100.732422"/>
      <use xlink:href="#DejaVuSans-70" x="198.144531"/>
      <use xlink:href="#DejaVuSans-65" x="261.621094"/>
      <use xlink:href="#DejaVuSans-72" x="323.144531"/>
      <use xlink:href="#DejaVuSans-61" x="364.257812"/>
      <use xlink:href="#DejaVuSans-74" x="425.537109"/>
      <use xlink:href="#DejaVuSans-75" x="464.746094"/>
      <use xlink:href="#DejaVuSans-72" x="528.125"/>
      <use xlink:href="#DejaVuSans-65" x="566.988281"/>
      <use xlink:href="#DejaVuSans-20" x="628.511719"/>
      <use xlink:href="#DejaVuSans-3d" x="660.298828"/>
      <use xlink:href="#DejaVuSans-20" x="744.087891"/>
      <use xlink:href="#DejaVuSans-2d" x="775.875"/>
      <use xlink:href="#DejaVuSans-34" x="811.958984"/>
      <use xlink:href="#DejaVuSans-30" x="875.582031"/>
      <use xlink:href="#DejaVuSans-2c" x="939.205078"/>
      <use xlink:href="#DejaVuSans-20" x="970.992188"/>
      <use xlink:href="#DejaVuSans-63" x="1002.779297"/>
      <use xlink:href="#DejaVuSans-6f" x="1057.759766"/>
      <use xlink:href="#DejaVuSans-72" x="1118.941406"/>
      <use xlink:href="#DejaVuSans-6e" x="1158.304688"/>
      <use xlink:href="#DejaVuSans-65" x="1221.683594"/>
      <use xlink:href="#DejaVuSans-72" x="1283.207031"/>
      <use xlink:href="#DejaVuSans-20" x="1324.320312"/>
      <use xlink:href="#DejaVuSans-3d" x="1356.107422"/>
      <use xlink:href="#DejaVuSans-20" x="1439.896484"/>
      <use xlink:href="#DejaVuSans-6d" x="1471.683594"/>
      <use xlink:href="#DejaVuSans-6f" x="1569.095703"/>
      <use xlink:href="#DejaVuSans-73" x="1630.277344"/>
      <use xlink:href="#DejaVuSans-5f" x="1682.376953"/>
      <use xlink:href="#DejaVuSans-73" x="1732.376953"/>
      <use xlink:href="#DejaVuSans-73" x="1784.476562"/>
     </g>
    </g>
    <g id="line2d_35">
     <path d="M 419.18605 45.210938 
L 429.18605 45.210938 
L 439.18605 45.210938 
" style="fill: none; stroke: #2ca02c; stroke-width: 1.5; stroke-linecap: square"/>
    </g>
    <g id="text_20">
     <!-- temperature = 27, corner = mos_ss -->
     <g transform="translate(447.18605 48.710938) scale(0.1 -0.1)">
      <use xlink:href="#DejaVuSans-74"/>
      <use xlink:href="#DejaVuSans-65" x="39.208984"/>
      <use xlink:href="#DejaVuSans-6d" x="100.732422"/>
      <use xlink:href="#DejaVuSans-70" x="198.144531"/>
      <use xlink:href="#DejaVuSans-65" x="261.621094"/>
      <use xlink:href="#DejaVuSans-72" x="323.144531"/>
      <use xlink:href="#DejaVuSans-61" x="364.257812"/>
      <use xlink:href="#DejaVuSans-74" x="425.537109"/>
      <use xlink:href="#DejaVuSans-75" x="464.746094"/>
      <use xlink:href="#DejaVuSans-72" x="528.125"/>
      <use xlink:href="#DejaVuSans-65" x="566.988281"/>
      <use xlink:href="#DejaVuSans-20" x="628.511719"/>
      <use xlink:href="#DejaVuSans-3d" x="660.298828"/>
      <use xlink:href="#DejaVuSans-20" x="744.087891"/>
      <use xlink:href="#DejaVuSans-32" x="775.875"/>
      <use xlink:href="#DejaVuSans-37" x="839.498047"/>
      <use xlink:href="#DejaVuSans-2c" x="903.121094"/>
      <use xlink:href="#DejaVuSans-20" x="934.908203"/>
      <use xlink:href="#DejaVuSans-63" x="966.695312"/>
      <use xlink:href="#DejaVuSans-6f" x="1021.675781"/>
      <use xlink:href="#DejaVuSans-72" x="1082.857422"/>
      <use xlink:href="#DejaVuSans-6e" x="1122.220703"/>
      <use xlink:href="#DejaVuSans-65" x="1185.599609"/>
      <use xlink:href="#DejaVuSans-72" x="1247.123047"/>
      <use xlink:href="#DejaVuSans-20" x="1288.236328"/>
      <use xlink:href="#DejaVuSans-3d" x="1320.023438"/>
      <use xlink:href="#DejaVuSans-20" x="1403.8125"/>
      <use xlink:href="#DejaVuSans-6d" x="1435.599609"/>
      <use xlink:href="#DejaVuSans-6f" x="1533.011719"/>
      <use xlink:href="#DejaVuSans-73" x="1594.193359"/>
      <use xlink:href="#DejaVuSans-5f" x="1646.292969"/>
      <use xlink:href="#DejaVuSans-73" x="1696.292969"/>
      <use xlink:href="#DejaVuSans-73" x="1748.392578"/>
     </g>
    </g>
    <g id="line2d_36">
     <path d="M 419.18605 60.167188 
L 429.18605 60.167188 
L 439.18605 60.167188 
" style="fill: none; stroke: #d62728; stroke-width: 1.5; stroke-linecap: square"/>
    </g>
    <g id="text_21">
     <!-- temperature = 27, corner = mos_ss -->
     <g transform="translate(447.18605 63.667188) scale(0.1 -0.1)">
      <use xlink:href="#DejaVuSans-74"/>
      <use xlink:href="#DejaVuSans-65" x="39.208984"/>
      <use xlink:href="#DejaVuSans-6d" x="100.732422"/>
      <use xlink:href="#DejaVuSans-70" x="198.144531"/>
      <use xlink:href="#DejaVuSans-65" x="261.621094"/>
      <use xlink:href="#DejaVuSans-72" x="323.144531"/>
      <use xlink:href="#DejaVuSans-61" x="364.257812"/>
      <use xlink:href="#DejaVuSans-74" x="425.537109"/>
      <use xlink:href="#DejaVuSans-75" x="464.746094"/>
      <use xlink:href="#DejaVuSans-72" x="528.125"/>
      <use xlink:href="#DejaVuSans-65" x="566.988281"/>
      <use xlink:href="#DejaVuSans-20" x="628.511719"/>
      <use xlink:href="#DejaVuSans-3d" x="660.298828"/>
      <use xlink:href="#DejaVuSans-20" x="744.087891"/>
      <use xlink:href="#DejaVuSans-32" x="775.875"/>
      <use xlink:href="#DejaVuSans-37" x="839.498047"/>
      <use xlink:href="#DejaVuSans-2c" x="903.121094"/>
      <use xlink:href="#DejaVuSans-20" x="934.908203"/>
      <use xlink:href="#DejaVuSans-63" x="966.695312"/>
      <use xlink:href="#DejaVuSans-6f" x="1021.675781"/>
      <use xlink:href="#DejaVuSans-72" x="1082.857422"/>
      <use xlink:href="#DejaVuSans-6e" x="1122.220703"/>
      <use xlink:href="#DejaVuSans-65" x="1185.599609"/>
      <use xlink:href="#DejaVuSans-72" x="1247.123047"/>
      <use xlink:href="#DejaVuSans-20" x="1288.236328"/>
      <use xlink:href="#DejaVuSans-3d" x="1320.023438"/>
      <use xlink:href="#DejaVuSans-20" x="1403.8125"/>
      <use xlink:href="#DejaVuSans-6d" x="1435.599609"/>
      <use xlink:href="#DejaVuSans-6f" x="1533.011719"/>
      <use xlink:href="#DejaVuSans-73" x="1594.193359"/>
      <use xlink:href="#DejaVuSans-5f" x="1646.292969"/>
      <use xlink:href="#DejaVuSans-73" x="1696.292969"/>
      <use xlink:href="#DejaVuSans-73" x="1748.392578"/>
     </g>
    </g>
    <g id="line2d_37">
     <path d="M 419.18605 75.123437 
L 429.18605 75.123437 
L 439.18605 75.123437 
" style="fill: none; stroke: #9467bd; stroke-width: 1.5; stroke-linecap: square"/>
    </g>
    <g id="text_22">
     <!-- temperature = 130, corner = mos_ss -->
     <g transform="translate(447.18605 78.623437) scale(0.1 -0.1)">
      <use xlink:href="#DejaVuSans-74"/>
      <use xlink:href="#DejaVuSans-65" x="39.208984"/>
      <use xlink:href="#DejaVuSans-6d" x="100.732422"/>
      <use xlink:href="#DejaVuSans-70" x="198.144531"/>
      <use xlink:href="#DejaVuSans-65" x="261.621094"/>
      <use xlink:href="#DejaVuSans-72" x="323.144531"/>
      <use xlink:href="#DejaVuSans-61" x="364.257812"/>
      <use xlink:href="#DejaVuSans-74" x="425.537109"/>
      <use xlink:href="#DejaVuSans-75" x="464.746094"/>
      <use xlink:href="#DejaVuSans-72" x="528.125"/>
      <use xlink:href="#DejaVuSans-65" x="566.988281"/>
      <use xlink:href="#DejaVuSans-20" x="628.511719"/>
      <use xlink:href="#DejaVuSans-3d" x="660.298828"/>
      <use xlink:href="#DejaVuSans-20" x="744.087891"/>
      <use xlink:href="#DejaVuSans-31" x="775.875"/>
      <use xlink:href="#DejaVuSans-33" x="839.498047"/>
      <use xlink:href="#DejaVuSans-30" x="903.121094"/>
      <use xlink:href="#DejaVuSans-2c" x="966.744141"/>
      <use xlink:href="#DejaVuSans-20" x="998.53125"/>
      <use xlink:href="#DejaVuSans-63" x="1030.318359"/>
      <use xlink:href="#DejaVuSans-6f" x="1085.298828"/>
      <use xlink:href="#DejaVuSans-72" x="1146.480469"/>
      <use xlink:href="#DejaVuSans-6e" x="1185.84375"/>
      <use xlink:href="#DejaVuSans-65" x="1249.222656"/>
      <use xlink:href="#DejaVuSans-72" x="1310.746094"/>
      <use xlink:href="#DejaVuSans-20" x="1351.859375"/>
      <use xlink:href="#DejaVuSans-3d" x="1383.646484"/>
      <use xlink:href="#DejaVuSans-20" x="1467.435547"/>
      <use xlink:href="#DejaVuSans-6d" x="1499.222656"/>
      <use xlink:href="#DejaVuSans-6f" x="1596.634766"/>
      <use xlink:href="#DejaVuSans-73" x="1657.816406"/>
      <use xlink:href="#DejaVuSans-5f" x="1709.916016"/>
      <use xlink:href="#DejaVuSans-73" x="1759.916016"/>
      <use xlink:href="#DejaVuSans-73" x="1812.015625"/>
     </g>
    </g>
    <g id="line2d_38">
     <path d="M 419.18605 90.079687 
L 429.18605 90.079687 
L 439.18605 90.079687 
" style="fill: none; stroke: #8c564b; stroke-width: 1.5; stroke-linecap: square"/>
    </g>
    <g id="text_23">
     <!-- temperature = 130, corner = mos_ss -->
     <g transform="translate(447.18605 93.579687) scale(0.1 -0.1)">
      <use xlink:href="#DejaVuSans-74"/>
      <use xlink:href="#DejaVuSans-65" x="39.208984"/>
      <use xlink:href="#DejaVuSans-6d" x="100.732422"/>
      <use xlink:href="#DejaVuSans-70" x="198.144531"/>
      <use xlink:href="#DejaVuSans-65" x="261.621094"/>
      <use xlink:href="#DejaVuSans-72" x="323.144531"/>
      <use xlink:href="#DejaVuSans-61" x="364.257812"/>
      <use xlink:href="#DejaVuSans-74" x="425.537109"/>
      <use xlink:href="#DejaVuSans-75" x="464.746094"/>
      <use xlink:href="#DejaVuSans-72" x="528.125"/>
      <use xlink:href="#DejaVuSans-65" x="566.988281"/>
      <use xlink:href="#DejaVuSans-20" x="628.511719"/>
      <use xlink:href="#DejaVuSans-3d" x="660.298828"/>
      <use xlink:href="#DejaVuSans-20" x="744.087891"/>
      <use xlink:href="#DejaVuSans-31" x="775.875"/>
      <use xlink:href="#DejaVuSans-33" x="839.498047"/>
      <use xlink:href="#DejaVuSans-30" x="903.121094"/>
      <use xlink:href="#DejaVuSans-2c" x="966.744141"/>
      <use xlink:href="#DejaVuSans-20" x="998.53125"/>
      <use xlink:href="#DejaVuSans-63" x="1030.318359"/>
      <use xlink:href="#DejaVuSans-6f" x="1085.298828"/>
      <use xlink:href="#DejaVuSans-72" x="1146.480469"/>
      <use xlink:href="#DejaVuSans-6e" x="1185.84375"/>
      <use xlink:href="#DejaVuSans-65" x="1249.222656"/>
      <use xlink:href="#DejaVuSans-72" x="1310.746094"/>
      <use xlink:href="#DejaVuSans-20" x="1351.859375"/>
      <use xlink:href="#DejaVuSans-3d" x="1383.646484"/>
      <use xlink:href="#DejaVuSans-20" x="1467.435547"/>
      <use xlink:href="#DejaVuSans-6d" x="1499.222656"/>
      <use xlink:href="#DejaVuSans-6f" x="1596.634766"/>
      <use xlink:href="#DejaVuSans-73" x="1657.816406"/>
      <use xlink:href="#DejaVuSans-5f" x="1709.916016"/>
      <use xlink:href="#DejaVuSans-73" x="1759.916016"/>
      <use xlink:href="#DejaVuSans-73" x="1812.015625"/>
     </g>
    </g>
    <g id="line2d_39">
     <path d="M 419.18605 105.035937 
L 429.18605 105.035937 
L 439.18605 105.035937 
" style="fill: none; stroke: #e377c2; stroke-width: 1.5; stroke-linecap: square"/>
    </g>
    <g id="text_24">
     <!-- temperature = -40, corner = mos_tt -->
     <g transform="translate(447.18605 108.535937) scale(0.1 -0.1)">
      <use xlink:href="#DejaVuSans-74"/>
      <use xlink:href="#DejaVuSans-65" x="39.208984"/>
      <use xlink:href="#DejaVuSans-6d" x="100.732422"/>
      <use xlink:href="#DejaVuSans-70" x="198.144531"/>
      <use xlink:href="#DejaVuSans-65" x="261.621094"/>
      <use xlink:href="#DejaVuSans-72" x="323.144531"/>
      <use xlink:href="#DejaVuSans-61" x="364.257812"/>
      <use xlink:href="#DejaVuSans-74" x="425.537109"/>
      <use xlink:href="#DejaVuSans-75" x="464.746094"/>
      <use xlink:href="#DejaVuSans-72" x="528.125"/>
      <use xlink:href="#DejaVuSans-65" x="566.988281"/>
      <use xlink:href="#DejaVuSans-20" x="628.511719"/>
      <use xlink:href="#DejaVuSans-3d" x="660.298828"/>
      <use xlink:href="#DejaVuSans-20" x="744.087891"/>
      <use xlink:href="#DejaVuSans-2d" x="775.875"/>
      <use xlink:href="#DejaVuSans-34" x="811.958984"/>
      <use xlink:href="#DejaVuSans-30" x="875.582031"/>
      <use xlink:href="#DejaVuSans-2c" x="939.205078"/>
      <use xlink:href="#DejaVuSans-20" x="970.992188"/>
      <use xlink:href="#DejaVuSans-63" x="1002.779297"/>
      <use xlink:href="#DejaVuSans-6f" x="1057.759766"/>
      <use xlink:href="#DejaVuSans-72" x="1118.941406"/>
      <use xlink:href="#DejaVuSans-6e" x="1158.304688"/>
      <use xlink:href="#DejaVuSans-65" x="1221.683594"/>
      <use xlink:href="#DejaVuSans-72" x="1283.207031"/>
      <use xlink:href="#DejaVuSans-20" x="1324.320312"/>
      <use xlink:href="#DejaVuSans-3d" x="1356.107422"/>
      <use xlink:href="#DejaVuSans-20" x="1439.896484"/>
      <use xlink:href="#DejaVuSans-6d" x="1471.683594"/>
      <use xlink:href="#DejaVuSans-6f" x="1569.095703"/>
      <use xlink:href="#DejaVuSans-73" x="1630.277344"/>
      <use xlink:href="#DejaVuSans-5f" x="1682.376953"/>
      <use xlink:href="#DejaVuSans-74" x="1732.376953"/>
      <use xlink:href="#DejaVuSans-74" x="1771.585938"/>
     </g>
    </g>
    <g id="line2d_40">
     <path d="M 419.18605 119.992188 
L 429.18605 119.992188 
L 439.18605 119.992188 
" style="fill: none; stroke: #7f7f7f; stroke-width: 1.5; stroke-linecap: square"/>
    </g>
    <g id="text_25">
     <!-- temperature = -40, corner = mos_tt -->
     <g transform="translate(447.18605 123.492188) scale(0.1 -0.1)">
      <use xlink:href="#DejaVuSans-74"/>
      <use xlink:href="#DejaVuSans-65" x="39.208984"/>
      <use xlink:href="#DejaVuSans-6d" x="100.732422"/>
      <use xlink:href="#DejaVuSans-70" x="198.144531"/>
      <use xlink:href="#DejaVuSans-65" x="261.621094"/>
      <use xlink:href="#DejaVuSans-72" x="323.144531"/>
      <use xlink:href="#DejaVuSans-61" x="364.257812"/>
      <use xlink:href="#DejaVuSans-74" x="425.537109"/>
      <use xlink:href="#DejaVuSans-75" x="464.746094"/>
      <use xlink:href="#DejaVuSans-72" x="528.125"/>
      <use xlink:href="#DejaVuSans-65" x="566.988281"/>
      <use xlink:href="#DejaVuSans-20" x="628.511719"/>
      <use xlink:href="#DejaVuSans-3d" x="660.298828"/>
      <use xlink:href="#DejaVuSans-20" x="744.087891"/>
      <use xlink:href="#DejaVuSans-2d" x="775.875"/>
      <use xlink:href="#DejaVuSans-34" x="811.958984"/>
      <use xlink:href="#DejaVuSans-30" x="875.582031"/>
      <use xlink:href="#DejaVuSans-2c" x="939.205078"/>
      <use xlink:href="#DejaVuSans-20" x="970.992188"/>
      <use xlink:href="#DejaVuSans-63" x="1002.779297"/>
      <use xlink:href="#DejaVuSans-6f" x="1057.759766"/>
      <use xlink:href="#DejaVuSans-72" x="1118.941406"/>
      <use xlink:href="#DejaVuSans-6e" x="1158.304688"/>
      <use xlink:href="#DejaVuSans-65" x="1221.683594"/>
      <use xlink:href="#DejaVuSans-72" x="1283.207031"/>
      <use xlink:href="#DejaVuSans-20" x="1324.320312"/>
      <use xlink:href="#DejaVuSans-3d" x="1356.107422"/>
      <use xlink:href="#DejaVuSans-20" x="1439.896484"/>
      <use xlink:href="#DejaVuSans-6d" x="1471.683594"/>
      <use xlink:href="#DejaVuSans-6f" x="1569.095703"/>
      <use xlink:href="#DejaVuSans-73" x="1630.277344"/>
      <use xlink:href="#DejaVuSans-5f" x="1682.376953"/>
      <use xlink:href="#DejaVuSans-74" x="1732.376953"/>
      <use xlink:href="#DejaVuSans-74" x="1771.585938"/>
     </g>
    </g>
    <g id="line2d_41">
     <path d="M 419.18605 134.948437 
L 429.18605 134.948437 
L 439.18605 134.948437 
" style="fill: none; stroke: #bcbd22; stroke-width: 1.5; stroke-linecap: square"/>
    </g>
    <g id="text_26">
     <!-- temperature = 27, corner = mos_tt -->
     <g transform="translate(447.18605 138.448437) scale(0.1 -0.1)">
      <use xlink:href="#DejaVuSans-74"/>
      <use xlink:href="#DejaVuSans-65" x="39.208984"/>
      <use xlink:href="#DejaVuSans-6d" x="100.732422"/>
      <use xlink:href="#DejaVuSans-70" x="198.144531"/>
      <use xlink:href="#DejaVuSans-65" x="261.621094"/>
      <use xlink:href="#DejaVuSans-72" x="323.144531"/>
      <use xlink:href="#DejaVuSans-61" x="364.257812"/>
      <use xlink:href="#DejaVuSans-74" x="425.537109"/>
      <use xlink:href="#DejaVuSans-75" x="464.746094"/>
      <use xlink:href="#DejaVuSans-72" x="528.125"/>
      <use xlink:href="#DejaVuSans-65" x="566.988281"/>
      <use xlink:href="#DejaVuSans-20" x="628.511719"/>
      <use xlink:href="#DejaVuSans-3d" x="660.298828"/>
      <use xlink:href="#DejaVuSans-20" x="744.087891"/>
      <use xlink:href="#DejaVuSans-32" x="775.875"/>
      <use xlink:href="#DejaVuSans-37" x="839.498047"/>
      <use xlink:href="#DejaVuSans-2c" x="903.121094"/>
      <use xlink:href="#DejaVuSans-20" x="934.908203"/>
      <use xlink:href="#DejaVuSans-63" x="966.695312"/>
      <use xlink:href="#DejaVuSans-6f" x="1021.675781"/>
      <use xlink:href="#DejaVuSans-72" x="1082.857422"/>
      <use xlink:href="#DejaVuSans-6e" x="1122.220703"/>
      <use xlink:href="#DejaVuSans-65" x="1185.599609"/>
      <use xlink:href="#DejaVuSans-72" x="1247.123047"/>
      <use xlink:href="#DejaVuSans-20" x="1288.236328"/>
      <use xlink:href="#DejaVuSans-3d" x="1320.023438"/>
      <use xlink:href="#DejaVuSans-20" x="1403.8125"/>
      <use xlink:href="#DejaVuSans-6d" x="1435.599609"/>
      <use xlink:href="#DejaVuSans-6f" x="1533.011719"/>
      <use xlink:href="#DejaVuSans-73" x="1594.193359"/>
      <use xlink:href="#DejaVuSans-5f" x="1646.292969"/>
      <use xlink:href="#DejaVuSans-74" x="1696.292969"/>
      <use xlink:href="#DejaVuSans-74" x="1735.501953"/>
     </g>
    </g>
    <g id="line2d_42">
     <path d="M 419.18605 149.904687 
L 429.18605 149.904687 
L 439.18605 149.904687 
" style="fill: none; stroke: #17becf; stroke-width: 1.5; stroke-linecap: square"/>
    </g>
    <g id="text_27">
     <!-- temperature = 27, corner = mos_tt -->
     <g transform="translate(447.18605 153.404687) scale(0.1 -0.1)">
      <use xlink:href="#DejaVuSans-74"/>
      <use xlink:href="#DejaVuSans-65" x="39.208984"/>
      <use xlink:href="#DejaVuSans-6d" x="100.732422"/>
      <use xlink:href="#DejaVuSans-70" x="198.144531"/>
      <use xlink:href="#DejaVuSans-65" x="261.621094"/>
      <use xlink:href="#DejaVuSans-72" x="323.144531"/>
      <use xlink:href="#DejaVuSans-61" x="364.257812"/>
      <use xlink:href="#DejaVuSans-74" x="425.537109"/>
      <use xlink:href="#DejaVuSans-75" x="464.746094"/>
      <use xlink:href="#DejaVuSans-72" x="528.125"/>
      <use xlink:href="#DejaVuSans-65" x="566.988281"/>
      <use xlink:href="#DejaVuSans-20" x="628.511719"/>
      <use xlink:href="#DejaVuSans-3d" x="660.298828"/>
      <use xlink:href="#DejaVuSans-20" x="744.087891"/>
      <use xlink:href="#DejaVuSans-32" x="775.875"/>
      <use xlink:href="#DejaVuSans-37" x="839.498047"/>
      <use xlink:href="#DejaVuSans-2c" x="903.121094"/>
      <use xlink:href="#DejaVuSans-20" x="934.908203"/>
      <use xlink:href="#DejaVuSans-63" x="966.695312"/>
      <use xlink:href="#DejaVuSans-6f" x="1021.675781"/>
      <use xlink:href="#DejaVuSans-72" x="1082.857422"/>
      <use xlink:href="#DejaVuSans-6e" x="1122.220703"/>
      <use xlink:href="#DejaVuSans-65" x="1185.599609"/>
      <use xlink:href="#DejaVuSans-72" x="1247.123047"/>
      <use xlink:href="#DejaVuSans-20" x="1288.236328"/>
      <use xlink:href="#DejaVuSans-3d" x="1320.023438"/>
      <use xlink:href="#DejaVuSans-20" x="1403.8125"/>
      <use xlink:href="#DejaVuSans-6d" x="1435.599609"/>
      <use xlink:href="#DejaVuSans-6f" x="1533.011719"/>
      <use xlink:href="#DejaVuSans-73" x="1594.193359"/>
      <use xlink:href="#DejaVuSans-5f" x="1646.292969"/>
      <use xlink:href="#DejaVuSans-74" x="1696.292969"/>
      <use xlink:href="#DejaVuSans-74" x="1735.501953"/>
     </g>
    </g>
    <g id="line2d_43">
     <path d="M 419.18605 164.860937 
L 429.18605 164.860937 
L 439.18605 164.860937 
" style="fill: none; stroke: #1f77b4; stroke-width: 1.5; stroke-linecap: square"/>
    </g>
    <g id="text_28">
     <!-- temperature = 130, corner = mos_tt -->
     <g transform="translate(447.18605 168.360937) scale(0.1 -0.1)">
      <use xlink:href="#DejaVuSans-74"/>
      <use xlink:href="#DejaVuSans-65" x="39.208984"/>
      <use xlink:href="#DejaVuSans-6d" x="100.732422"/>
      <use xlink:href="#DejaVuSans-70" x="198.144531"/>
      <use xlink:href="#DejaVuSans-65" x="261.621094"/>
      <use xlink:href="#DejaVuSans-72" x="323.144531"/>
      <use xlink:href="#DejaVuSans-61" x="364.257812"/>
      <use xlink:href="#DejaVuSans-74" x="425.537109"/>
      <use xlink:href="#DejaVuSans-75" x="464.746094"/>
      <use xlink:href="#DejaVuSans-72" x="528.125"/>
      <use xlink:href="#DejaVuSans-65" x="566.988281"/>
      <use xlink:href="#DejaVuSans-20" x="628.511719"/>
      <use xlink:href="#DejaVuSans-3d" x="660.298828"/>
      <use xlink:href="#DejaVuSans-20" x="744.087891"/>
      <use xlink:href="#DejaVuSans-31" x="775.875"/>
      <use xlink:href="#DejaVuSans-33" x="839.498047"/>
      <use xlink:href="#DejaVuSans-30" x="903.121094"/>
      <use xlink:href="#DejaVuSans-2c" x="966.744141"/>
      <use xlink:href="#DejaVuSans-20" x="998.53125"/>
      <use xlink:href="#DejaVuSans-63" x="1030.318359"/>
      <use xlink:href="#DejaVuSans-6f" x="1085.298828"/>
      <use xlink:href="#DejaVuSans-72" x="1146.480469"/>
      <use xlink:href="#DejaVuSans-6e" x="1185.84375"/>
      <use xlink:href="#DejaVuSans-65" x="1249.222656"/>
      <use xlink:href="#DejaVuSans-72" x="1310.746094"/>
      <use xlink:href="#DejaVuSans-20" x="1351.859375"/>
      <use xlink:href="#DejaVuSans-3d" x="1383.646484"/>
      <use xlink:href="#DejaVuSans-20" x="1467.435547"/>
      <use xlink:href="#DejaVuSans-6d" x="1499.222656"/>
      <use xlink:href="#DejaVuSans-6f" x="1596.634766"/>
      <use xlink:href="#DejaVuSans-73" x="1657.816406"/>
      <use xlink:href="#DejaVuSans-5f" x="1709.916016"/>
      <use xlink:href="#DejaVuSans-74" x="1759.916016"/>
      <use xlink:href="#DejaVuSans-74" x="1799.125"/>
     </g>
    </g>
    <g id="line2d_44">
     <path d="M 419.18605 179.817187 
L 429.18605 179.817187 
L 439.18605 179.817187 
" style="fill: none; stroke: #ff7f0e; stroke-width: 1.5; stroke-linecap: square"/>
    </g>
    <g id="text_29">
     <!-- temperature = 130, corner = mos_tt -->
     <g transform="translate(447.18605 183.317187) scale(0.1 -0.1)">
      <use xlink:href="#DejaVuSans-74"/>
      <use xlink:href="#DejaVuSans-65" x="39.208984"/>
      <use xlink:href="#DejaVuSans-6d" x="100.732422"/>
      <use xlink:href="#DejaVuSans-70" x="198.144531"/>
      <use xlink:href="#DejaVuSans-65" x="261.621094"/>
      <use xlink:href="#DejaVuSans-72" x="323.144531"/>
      <use xlink:href="#DejaVuSans-61" x="364.257812"/>
      <use xlink:href="#DejaVuSans-74" x="425.537109"/>
      <use xlink:href="#DejaVuSans-75" x="464.746094"/>
      <use xlink:href="#DejaVuSans-72" x="528.125"/>
      <use xlink:href="#DejaVuSans-65" x="566.988281"/>
      <use xlink:href="#DejaVuSans-20" x="628.511719"/>
      <use xlink:href="#DejaVuSans-3d" x="660.298828"/>
      <use xlink:href="#DejaVuSans-20" x="744.087891"/>
      <use xlink:href="#DejaVuSans-31" x="775.875"/>
      <use xlink:href="#DejaVuSans-33" x="839.498047"/>
      <use xlink:href="#DejaVuSans-30" x="903.121094"/>
      <use xlink:href="#DejaVuSans-2c" x="966.744141"/>
      <use xlink:href="#DejaVuSans-20" x="998.53125"/>
      <use xlink:href="#DejaVuSans-63" x="1030.318359"/>
      <use xlink:href="#DejaVuSans-6f" x="1085.298828"/>
      <use xlink:href="#DejaVuSans-72" x="1146.480469"/>
      <use xlink:href="#DejaVuSans-6e" x="1185.84375"/>
      <use xlink:href="#DejaVuSans-65" x="1249.222656"/>
      <use xlink:href="#DejaVuSans-72" x="1310.746094"/>
      <use xlink:href="#DejaVuSans-20" x="1351.859375"/>
      <use xlink:href="#DejaVuSans-3d" x="1383.646484"/>
      <use xlink:href="#DejaVuSans-20" x="1467.435547"/>
      <use xlink:href="#DejaVuSans-6d" x="1499.222656"/>
      <use xlink:href="#DejaVuSans-6f" x="1596.634766"/>
      <use xlink:href="#DejaVuSans-73" x="1657.816406"/>
      <use xlink:href="#DejaVuSans-5f" x="1709.916016"/>
      <use xlink:href="#DejaVuSans-74" x="1759.916016"/>
      <use xlink:href="#DejaVuSans-74" x="1799.125"/>
     </g>
    </g>
    <g id="line2d_45">
     <path d="M 419.18605 194.773438 
L 429.18605 194.773438 
L 439.18605 194.773438 
" style="fill: none; stroke: #2ca02c; stroke-width: 1.5; stroke-linecap: square"/>
    </g>
    <g id="text_30">
     <!-- temperature = -40, corner = mos_ff -->
     <g transform="translate(447.18605 198.273438) scale(0.1 -0.1)">
      <defs>
       <path id="DejaVuSans-66" d="M 2375 4863 
L 2375 4384 
L 1825 4384 
Q 1516 4384 1395 4259 
Q 1275 4134 1275 3809 
L 1275 3500 
L 2222 3500 
L 2222 3053 
L 1275 3053 
L 1275 0 
L 697 0 
L 697 3053 
L 147 3053 
L 147 3500 
L 697 3500 
L 697 3744 
Q 697 4328 969 4595 
Q 1241 4863 1831 4863 
L 2375 4863 
z
" transform="scale(0.015625)"/>
      </defs>
      <use xlink:href="#DejaVuSans-74"/>
      <use xlink:href="#DejaVuSans-65" x="39.208984"/>
      <use xlink:href="#DejaVuSans-6d" x="100.732422"/>
      <use xlink:href="#DejaVuSans-70" x="198.144531"/>
      <use xlink:href="#DejaVuSans-65" x="261.621094"/>
      <use xlink:href="#DejaVuSans-72" x="323.144531"/>
      <use xlink:href="#DejaVuSans-61" x="364.257812"/>
      <use xlink:href="#DejaVuSans-74" x="425.537109"/>
      <use xlink:href="#DejaVuSans-75" x="464.746094"/>
      <use xlink:href="#DejaVuSans-72" x="528.125"/>
      <use xlink:href="#DejaVuSans-65" x="566.988281"/>
      <use xlink:href="#DejaVuSans-20" x="628.511719"/>
      <use xlink:href="#DejaVuSans-3d" x="660.298828"/>
      <use xlink:href="#DejaVuSans-20" x="744.087891"/>
      <use xlink:href="#DejaVuSans-2d" x="775.875"/>
      <use xlink:href="#DejaVuSans-34" x="811.958984"/>
      <use xlink:href="#DejaVuSans-30" x="875.582031"/>
      <use xlink:href="#DejaVuSans-2c" x="939.205078"/>
      <use xlink:href="#DejaVuSans-20" x="970.992188"/>
      <use xlink:href="#DejaVuSans-63" x="1002.779297"/>
      <use xlink:href="#DejaVuSans-6f" x="1057.759766"/>
      <use xlink:href="#DejaVuSans-72" x="1118.941406"/>
      <use xlink:href="#DejaVuSans-6e" x="1158.304688"/>
      <use xlink:href="#DejaVuSans-65" x="1221.683594"/>
      <use xlink:href="#DejaVuSans-72" x="1283.207031"/>
      <use xlink:href="#DejaVuSans-20" x="1324.320312"/>
      <use xlink:href="#DejaVuSans-3d" x="1356.107422"/>
      <use xlink:href="#DejaVuSans-20" x="1439.896484"/>
      <use xlink:href="#DejaVuSans-6d" x="1471.683594"/>
      <use xlink:href="#DejaVuSans-6f" x="1569.095703"/>
      <use xlink:href="#DejaVuSans-73" x="1630.277344"/>
      <use xlink:href="#DejaVuSans-5f" x="1682.376953"/>
      <use xlink:href="#DejaVuSans-66" x="1732.376953"/>
      <use xlink:href="#DejaVuSans-66" x="1767.582031"/>
     </g>
    </g>
    <g id="line2d_46">
     <path d="M 419.18605 209.729688 
L 429.18605 209.729688 
L 439.18605 209.729688 
" style="fill: none; stroke: #d62728; stroke-width: 1.5; stroke-linecap: square"/>
    </g>
    <g id="text_31">
     <!-- temperature = -40, corner = mos_ff -->
     <g transform="translate(447.18605 213.229688) scale(0.1 -0.1)">
      <use xlink:href="#DejaVuSans-74"/>
      <use xlink:href="#DejaVuSans-65" x="39.208984"/>
      <use xlink:href="#DejaVuSans-6d" x="100.732422"/>
      <use xlink:href="#DejaVuSans-70" x="198.144531"/>
      <use xlink:href="#DejaVuSans-65" x="261.621094"/>
      <use xlink:href="#DejaVuSans-72" x="323.144531"/>
      <use xlink:href="#DejaVuSans-61" x="364.257812"/>
      <use xlink:href="#DejaVuSans-74" x="425.537109"/>
      <use xlink:href="#DejaVuSans-75" x="464.746094"/>
      <use xlink:href="#DejaVuSans-72" x="528.125"/>
      <use xlink:href="#DejaVuSans-65" x="566.988281"/>
      <use xlink:href="#DejaVuSans-20" x="628.511719"/>
      <use xlink:href="#DejaVuSans-3d" x="660.298828"/>
      <use xlink:href="#DejaVuSans-20" x="744.087891"/>
      <use xlink:href="#DejaVuSans-2d" x="775.875"/>
      <use xlink:href="#DejaVuSans-34" x="811.958984"/>
      <use xlink:href="#DejaVuSans-30" x="875.582031"/>
      <use xlink:href="#DejaVuSans-2c" x="939.205078"/>
      <use xlink:href="#DejaVuSans-20" x="970.992188"/>
      <use xlink:href="#DejaVuSans-63" x="1002.779297"/>
      <use xlink:href="#DejaVuSans-6f" x="1057.759766"/>
      <use xlink:href="#DejaVuSans-72" x="1118.941406"/>
      <use xlink:href="#DejaVuSans-6e" x="1158.304688"/>
      <use xlink:href="#DejaVuSans-65" x="1221.683594"/>
      <use xlink:href="#DejaVuSans-72" x="1283.207031"/>
      <use xlink:href="#DejaVuSans-20" x="1324.320312"/>
      <use xlink:href="#DejaVuSans-3d" x="1356.107422"/>
      <use xlink:href="#DejaVuSans-20" x="1439.896484"/>
      <use xlink:href="#DejaVuSans-6d" x="1471.683594"/>
      <use xlink:href="#DejaVuSans-6f" x="1569.095703"/>
      <use xlink:href="#DejaVuSans-73" x="1630.277344"/>
      <use xlink:href="#DejaVuSans-5f" x="1682.376953"/>
      <use xlink:href="#DejaVuSans-66" x="1732.376953"/>
      <use xlink:href="#DejaVuSans-66" x="1767.582031"/>
     </g>
    </g>
    <g id="line2d_47">
     <path d="M 419.18605 224.685938 
L 429.18605 224.685938 
L 439.18605 224.685938 
" style="fill: none; stroke: #9467bd; stroke-width: 1.5; stroke-linecap: square"/>
    </g>
    <g id="text_32">
     <!-- temperature = 27, corner = mos_ff -->
     <g transform="translate(447.18605 228.185938) scale(0.1 -0.1)">
      <use xlink:href="#DejaVuSans-74"/>
      <use xlink:href="#DejaVuSans-65" x="39.208984"/>
      <use xlink:href="#DejaVuSans-6d" x="100.732422"/>
      <use xlink:href="#DejaVuSans-70" x="198.144531"/>
      <use xlink:href="#DejaVuSans-65" x="261.621094"/>
      <use xlink:href="#DejaVuSans-72" x="323.144531"/>
      <use xlink:href="#DejaVuSans-61" x="364.257812"/>
      <use xlink:href="#DejaVuSans-74" x="425.537109"/>
      <use xlink:href="#DejaVuSans-75" x="464.746094"/>
      <use xlink:href="#DejaVuSans-72" x="528.125"/>
      <use xlink:href="#DejaVuSans-65" x="566.988281"/>
      <use xlink:href="#DejaVuSans-20" x="628.511719"/>
      <use xlink:href="#DejaVuSans-3d" x="660.298828"/>
      <use xlink:href="#DejaVuSans-20" x="744.087891"/>
      <use xlink:href="#DejaVuSans-32" x="775.875"/>
      <use xlink:href="#DejaVuSans-37" x="839.498047"/>
      <use xlink:href="#DejaVuSans-2c" x="903.121094"/>
      <use xlink:href="#DejaVuSans-20" x="934.908203"/>
      <use xlink:href="#DejaVuSans-63" x="966.695312"/>
      <use xlink:href="#DejaVuSans-6f" x="1021.675781"/>
      <use xlink:href="#DejaVuSans-72" x="1082.857422"/>
      <use xlink:href="#DejaVuSans-6e" x="1122.220703"/>
      <use xlink:href="#DejaVuSans-65" x="1185.599609"/>
      <use xlink:href="#DejaVuSans-72" x="1247.123047"/>
      <use xlink:href="#DejaVuSans-20" x="1288.236328"/>
      <use xlink:href="#DejaVuSans-3d" x="1320.023438"/>
      <use xlink:href="#DejaVuSans-20" x="1403.8125"/>
      <use xlink:href="#DejaVuSans-6d" x="1435.599609"/>
      <use xlink:href="#DejaVuSans-6f" x="1533.011719"/>
      <use xlink:href="#DejaVuSans-73" x="1594.193359"/>
      <use xlink:href="#DejaVuSans-5f" x="1646.292969"/>
      <use xlink:href="#DejaVuSans-66" x="1696.292969"/>
      <use xlink:href="#DejaVuSans-66" x="1731.498047"/>
     </g>
    </g>
    <g id="line2d_48">
     <path d="M 419.18605 239.642188 
L 429.18605 239.642188 
L 439.18605 239.642188 
" style="fill: none; stroke: #8c564b; stroke-width: 1.5; stroke-linecap: square"/>
    </g>
    <g id="text_33">
     <!-- temperature = 27, corner = mos_ff -->
     <g transform="translate(447.18605 243.142188) scale(0.1 -0.1)">
      <use xlink:href="#DejaVuSans-74"/>
      <use xlink:href="#DejaVuSans-65" x="39.208984"/>
      <use xlink:href="#DejaVuSans-6d" x="100.732422"/>
      <use xlink:href="#DejaVuSans-70" x="198.144531"/>
      <use xlink:href="#DejaVuSans-65" x="261.621094"/>
      <use xlink:href="#DejaVuSans-72" x="323.144531"/>
      <use xlink:href="#DejaVuSans-61" x="364.257812"/>
      <use xlink:href="#DejaVuSans-74" x="425.537109"/>
      <use xlink:href="#DejaVuSans-75" x="464.746094"/>
      <use xlink:href="#DejaVuSans-72" x="528.125"/>
      <use xlink:href="#DejaVuSans-65" x="566.988281"/>
      <use xlink:href="#DejaVuSans-20" x="628.511719"/>
      <use xlink:href="#DejaVuSans-3d" x="660.298828"/>
      <use xlink:href="#DejaVuSans-20" x="744.087891"/>
      <use xlink:href="#DejaVuSans-32" x="775.875"/>
      <use xlink:href="#DejaVuSans-37" x="839.498047"/>
      <use xlink:href="#DejaVuSans-2c" x="903.121094"/>
      <use xlink:href="#DejaVuSans-20" x="934.908203"/>
      <use xlink:href="#DejaVuSans-63" x="966.695312"/>
      <use xlink:href="#DejaVuSans-6f" x="1021.675781"/>
      <use xlink:href="#DejaVuSans-72" x="1082.857422"/>
      <use xlink:href="#DejaVuSans-6e" x="1122.220703"/>
      <use xlink:href="#DejaVuSans-65" x="1185.599609"/>
      <use xlink:href="#DejaVuSans-72" x="1247.123047"/>
      <use xlink:href="#DejaVuSans-20" x="1288.236328"/>
      <use xlink:href="#DejaVuSans-3d" x="1320.023438"/>
      <use xlink:href="#DejaVuSans-20" x="1403.8125"/>
      <use xlink:href="#DejaVuSans-6d" x="1435.599609"/>
      <use xlink:href="#DejaVuSans-6f" x="1533.011719"/>
      <use xlink:href="#DejaVuSans-73" x="1594.193359"/>
      <use xlink:href="#DejaVuSans-5f" x="1646.292969"/>
      <use xlink:href="#DejaVuSans-66" x="1696.292969"/>
      <use xlink:href="#DejaVuSans-66" x="1731.498047"/>
     </g>
    </g>
    <g id="line2d_49">
     <path d="M 419.18605 254.598438 
L 429.18605 254.598438 
L 439.18605 254.598438 
" style="fill: none; stroke: #e377c2; stroke-width: 1.5; stroke-linecap: square"/>
    </g>
    <g id="text_34">
     <!-- temperature = 130, corner = mos_ff -->
     <g transform="translate(447.18605 258.098438) scale(0.1 -0.1)">
      <use xlink:href="#DejaVuSans-74"/>
      <use xlink:href="#DejaVuSans-65" x="39.208984"/>
      <use xlink:href="#DejaVuSans-6d" x="100.732422"/>
      <use xlink:href="#DejaVuSans-70" x="198.144531"/>
      <use xlink:href="#DejaVuSans-65" x="261.621094"/>
      <use xlink:href="#DejaVuSans-72" x="323.144531"/>
      <use xlink:href="#DejaVuSans-61" x="364.257812"/>
      <use xlink:href="#DejaVuSans-74" x="425.537109"/>
      <use xlink:href="#DejaVuSans-75" x="464.746094"/>
      <use xlink:href="#DejaVuSans-72" x="528.125"/>
      <use xlink:href="#DejaVuSans-65" x="566.988281"/>
      <use xlink:href="#DejaVuSans-20" x="628.511719"/>
      <use xlink:href="#DejaVuSans-3d" x="660.298828"/>
      <use xlink:href="#DejaVuSans-20" x="744.087891"/>
      <use xlink:href="#DejaVuSans-31" x="775.875"/>
      <use xlink:href="#DejaVuSans-33" x="839.498047"/>
      <use xlink:href="#DejaVuSans-30" x="903.121094"/>
      <use xlink:href="#DejaVuSans-2c" x="966.744141"/>
      <use xlink:href="#DejaVuSans-20" x="998.53125"/>
      <use xlink:href="#DejaVuSans-63" x="1030.318359"/>
      <use xlink:href="#DejaVuSans-6f" x="1085.298828"/>
      <use xlink:href="#DejaVuSans-72" x="1146.480469"/>
      <use xlink:href="#DejaVuSans-6e" x="1185.84375"/>
      <use xlink:href="#DejaVuSans-65" x="1249.222656"/>
      <use xlink:href="#DejaVuSans-72" x="1310.746094"/>
      <use xlink:href="#DejaVuSans-20" x="1351.859375"/>
      <use xlink:href="#DejaVuSans-3d" x="1383.646484"/>
      <use xlink:href="#DejaVuSans-20" x="1467.435547"/>
      <use xlink:href="#DejaVuSans-6d" x="1499.222656"/>
      <use xlink:href="#DejaVuSans-6f" x="1596.634766"/>
      <use xlink:href="#DejaVuSans-73" x="1657.816406"/>
      <use xlink:href="#DejaVuSans-5f" x="1709.916016"/>
      <use xlink:href="#DejaVuSans-66" x="1759.916016"/>
      <use xlink:href="#DejaVuSans-66" x="1795.121094"/>
     </g>
    </g>
    <g id="line2d_50">
     <path d="M 419.18605 269.554688 
L 429.18605 269.554688 
L 439.18605 269.554688 
" style="fill: none; stroke: #7f7f7f; stroke-width: 1.5; stroke-linecap: square"/>
    </g>
    <g id="text_35">
     <!-- temperature = 130, corner = mos_ff -->
     <g transform="translate(447.18605 273.054688) scale(0.1 -0.1)">
      <use xlink:href="#DejaVuSans-74"/>
      <use xlink:href="#DejaVuSans-65" x="39.208984"/>
      <use xlink:href="#DejaVuSans-6d" x="100.732422"/>
      <use xlink:href="#DejaVuSans-70" x="198.144531"/>
      <use xlink:href="#DejaVuSans-65" x="261.621094"/>
      <use xlink:href="#DejaVuSans-72" x="323.144531"/>
      <use xlink:href="#DejaVuSans-61" x="364.257812"/>
      <use xlink:href="#DejaVuSans-74" x="425.537109"/>
      <use xlink:href="#DejaVuSans-75" x="464.746094"/>
      <use xlink:href="#DejaVuSans-72" x="528.125"/>
      <use xlink:href="#DejaVuSans-65" x="566.988281"/>
      <use xlink:href="#DejaVuSans-20" x="628.511719"/>
      <use xlink:href="#DejaVuSans-3d" x="660.298828"/>
      <use xlink:href="#DejaVuSans-20" x="744.087891"/>
      <use xlink:href="#DejaVuSans-31" x="775.875"/>
      <use xlink:href="#DejaVuSans-33" x="839.498047"/>
      <use xlink:href="#DejaVuSans-30" x="903.121094"/>
      <use xlink:href="#DejaVuSans-2c" x="966.744141"/>
      <use xlink:href="#DejaVuSans-20" x="998.53125"/>
      <use xlink:href="#DejaVuSans-63" x="1030.318359"/>
      <use xlink:href="#DejaVuSans-6f" x="1085.298828"/>
      <use xlink:href="#DejaVuSans-72" x="1146.480469"/>
      <use xlink:href="#DejaVuSans-6e" x="1185.84375"/>
      <use xlink:href="#DejaVuSans-65" x="1249.222656"/>
      <use xlink:href="#DejaVuSans-72" x="1310.746094"/>
      <use xlink:href="#DejaVuSans-20" x="1351.859375"/>
      <use xlink:href="#DejaVuSans-3d" x="1383.646484"/>
      <use xlink:href="#DejaVuSans-20" x="1467.435547"/>
      <use xlink:href="#DejaVuSans-6d" x="1499.222656"/>
      <use xlink:href="#DejaVuSans-6f" x="1596.634766"/>
      <use xlink:href="#DejaVuSans-73" x="1657.816406"/>
      <use xlink:href="#DejaVuSans-5f" x="1709.916016"/>
      <use xlink:href="#DejaVuSans-66" x="1759.916016"/>
      <use xlink:href="#DejaVuSans-66" x="1795.121094"/>
     </g>
    </g>
   </g>
  </g>
 </g>
 <defs>
  <clipPath id="p7a6e0aa083">
   <rect x="43.78125" y="7.2" width="357.12" height="266.112"/>
  </clipPath>
 </defs>
</svg>
