<?xml version="1.0" encoding="utf-8" standalone="no"?>
<!DOCTYPE svg PUBLIC "-//W3C//DTD SVG 1.1//EN"
  "http://www.w3.org/Graphics/SVG/1.1/DTD/svg11.dtd">
<svg xmlns:xlink="http://www.w3.org/1999/xlink" width="644.795425pt" height="310.86825pt" viewBox="0 0 644.795425 310.86825" xmlns="http://www.w3.org/2000/svg" version="1.1">
 <metadata>
  <rdf:RDF xmlns:dc="http://purl.org/dc/elements/1.1/" xmlns:cc="http://creativecommons.org/ns#" xmlns:rdf="http://www.w3.org/1999/02/22-rdf-syntax-ns#">
   <cc:Work>
    <dc:type rdf:resource="http://purl.org/dc/dcmitype/StillImage"/>
    <dc:date>2025-06-27T20:12:28.477907</dc:date>
    <dc:format>image/svg+xml</dc:format>
    <dc:creator>
     <cc:Agent>
      <dc:title>Matplotlib v3.9.2, https://matplotlib.org/</dc:title>
     </cc:Agent>
    </dc:creator>
   </cc:Work>
  </rdf:RDF>
 </metadata>
 <defs>
  <style type="text/css">*{stroke-linejoin: round; stroke-linecap: butt}</style>
 </defs>
 <g id="figure_1">
  <g id="patch_1">
   <path d="M 0 310.86825 
L 644.795425 310.86825 
L 644.795425 0 
L 0 0 
z
" style="fill: #ffffff"/>
  </g>
  <g id="axes_1">
   <g id="patch_2">
    <path d="M 43.78125 273.312 
L 400.90125 273.312 
L 400.90125 7.2 
L 43.78125 7.2 
z
" style="fill: #ffffff"/>
   </g>
   <g id="matplotlib.axis_1">
    <g id="xtick_1">
     <g id="line2d_1">
      <defs>
       <path id="m35a44c4a01" d="M 0 0 
L 0 3.5 
" style="stroke: #000000; stroke-width: 0.8"/>
      </defs>
      <g>
       <use xlink:href="#m35a44c4a01" x="60.013977" y="273.312" style="stroke: #000000; stroke-width: 0.8"/>
      </g>
     </g>
     <g id="text_1">
      <!-- 0 -->
      <g transform="translate(56.832727 287.910437) scale(0.1 -0.1)">
       <defs>
        <path id="DejaVuSans-30" d="M 2034 4250 
Q 1547 4250 1301 3770 
Q 1056 3291 1056 2328 
Q 1056 1369 1301 889 
Q 1547 409 2034 409 
Q 2525 409 2770 889 
Q 3016 1369 3016 2328 
Q 3016 3291 2770 3770 
Q 2525 4250 2034 4250 
z
M 2034 4750 
Q 2819 4750 3233 4129 
Q 3647 3509 3647 2328 
Q 3647 1150 3233 529 
Q 2819 -91 2034 -91 
Q 1250 -91 836 529 
Q 422 1150 422 2328 
Q 422 3509 836 4129 
Q 1250 4750 2034 4750 
z
" transform="scale(0.015625)"/>
       </defs>
       <use xlink:href="#DejaVuSans-30"/>
      </g>
     </g>
    </g>
    <g id="xtick_2">
     <g id="line2d_2">
      <g>
       <use xlink:href="#m35a44c4a01" x="124.944886" y="273.312" style="stroke: #000000; stroke-width: 0.8"/>
      </g>
     </g>
     <g id="text_2">
      <!-- 1 -->
      <g transform="translate(121.763636 287.910437) scale(0.1 -0.1)">
       <defs>
        <path id="DejaVuSans-31" d="M 794 531 
L 1825 531 
L 1825 4091 
L 703 3866 
L 703 4441 
L 1819 4666 
L 2450 4666 
L 2450 531 
L 3481 531 
L 3481 0 
L 794 0 
L 794 531 
z
" transform="scale(0.015625)"/>
       </defs>
       <use xlink:href="#DejaVuSans-31"/>
      </g>
     </g>
    </g>
    <g id="xtick_3">
     <g id="line2d_3">
      <g>
       <use xlink:href="#m35a44c4a01" x="189.875795" y="273.312" style="stroke: #000000; stroke-width: 0.8"/>
      </g>
     </g>
     <g id="text_3">
      <!-- 2 -->
      <g transform="translate(186.694545 287.910437) scale(0.1 -0.1)">
       <defs>
        <path id="DejaVuSans-32" d="M 1228 531 
L 3431 531 
L 3431 0 
L 469 0 
L 469 531 
Q 828 903 1448 1529 
Q 2069 2156 2228 2338 
Q 2531 2678 2651 2914 
Q 2772 3150 2772 3378 
Q 2772 3750 2511 3984 
Q 2250 4219 1831 4219 
Q 1534 4219 1204 4116 
Q 875 4013 500 3803 
L 500 4441 
Q 881 4594 1212 4672 
Q 1544 4750 1819 4750 
Q 2544 4750 2975 4387 
Q 3406 4025 3406 3419 
Q 3406 3131 3298 2873 
Q 3191 2616 2906 2266 
Q 2828 2175 2409 1742 
Q 1991 1309 1228 531 
z
" transform="scale(0.015625)"/>
       </defs>
       <use xlink:href="#DejaVuSans-32"/>
      </g>
     </g>
    </g>
    <g id="xtick_4">
     <g id="line2d_4">
      <g>
       <use xlink:href="#m35a44c4a01" x="254.806705" y="273.312" style="stroke: #000000; stroke-width: 0.8"/>
      </g>
     </g>
     <g id="text_4">
      <!-- 3 -->
      <g transform="translate(251.625455 287.910437) scale(0.1 -0.1)">
       <defs>
        <path id="DejaVuSans-33" d="M 2597 2516 
Q 3050 2419 3304 2112 
Q 3559 1806 3559 1356 
Q 3559 666 3084 287 
Q 2609 -91 1734 -91 
Q 1441 -91 1130 -33 
Q 819 25 488 141 
L 488 750 
Q 750 597 1062 519 
Q 1375 441 1716 441 
Q 2309 441 2620 675 
Q 2931 909 2931 1356 
Q 2931 1769 2642 2001 
Q 2353 2234 1838 2234 
L 1294 2234 
L 1294 2753 
L 1863 2753 
Q 2328 2753 2575 2939 
Q 2822 3125 2822 3475 
Q 2822 3834 2567 4026 
Q 2313 4219 1838 4219 
Q 1578 4219 1281 4162 
Q 984 4106 628 3988 
L 628 4550 
Q 988 4650 1302 4700 
Q 1616 4750 1894 4750 
Q 2613 4750 3031 4423 
Q 3450 4097 3450 3541 
Q 3450 3153 3228 2886 
Q 3006 2619 2597 2516 
z
" transform="scale(0.015625)"/>
       </defs>
       <use xlink:href="#DejaVuSans-33"/>
      </g>
     </g>
    </g>
    <g id="xtick_5">
     <g id="line2d_5">
      <g>
       <use xlink:href="#m35a44c4a01" x="319.737614" y="273.312" style="stroke: #000000; stroke-width: 0.8"/>
      </g>
     </g>
     <g id="text_5">
      <!-- 4 -->
      <g transform="translate(316.556364 287.910437) scale(0.1 -0.1)">
       <defs>
        <path id="DejaVuSans-34" d="M 2419 4116 
L 825 1625 
L 2419 1625 
L 2419 4116 
z
M 2253 4666 
L 3047 4666 
L 3047 1625 
L 3713 1625 
L 3713 1100 
L 3047 1100 
L 3047 0 
L 2419 0 
L 2419 1100 
L 313 1100 
L 313 1709 
L 2253 4666 
z
" transform="scale(0.015625)"/>
       </defs>
       <use xlink:href="#DejaVuSans-34"/>
      </g>
     </g>
    </g>
    <g id="xtick_6">
     <g id="line2d_6">
      <g>
       <use xlink:href="#m35a44c4a01" x="384.668523" y="273.312" style="stroke: #000000; stroke-width: 0.8"/>
      </g>
     </g>
     <g id="text_6">
      <!-- 5 -->
      <g transform="translate(381.487273 287.910437) scale(0.1 -0.1)">
       <defs>
        <path id="DejaVuSans-35" d="M 691 4666 
L 3169 4666 
L 3169 4134 
L 1269 4134 
L 1269 2991 
Q 1406 3038 1543 3061 
Q 1681 3084 1819 3084 
Q 2600 3084 3056 2656 
Q 3513 2228 3513 1497 
Q 3513 744 3044 326 
Q 2575 -91 1722 -91 
Q 1428 -91 1123 -41 
Q 819 9 494 109 
L 494 744 
Q 775 591 1075 516 
Q 1375 441 1709 441 
Q 2250 441 2565 725 
Q 2881 1009 2881 1497 
Q 2881 1984 2565 2268 
Q 2250 2553 1709 2553 
Q 1456 2553 1204 2497 
Q 953 2441 691 2322 
L 691 4666 
z
" transform="scale(0.015625)"/>
       </defs>
       <use xlink:href="#DejaVuSans-35"/>
      </g>
     </g>
    </g>
    <g id="text_7">
     <!-- Time (ms) -->
     <g transform="translate(197.142031 301.588562) scale(0.1 -0.1)">
      <defs>
       <path id="DejaVuSans-54" d="M -19 4666 
L 3928 4666 
L 3928 4134 
L 2272 4134 
L 2272 0 
L 1638 0 
L 1638 4134 
L -19 4134 
L -19 4666 
z
" transform="scale(0.015625)"/>
       <path id="DejaVuSans-69" d="M 603 3500 
L 1178 3500 
L 1178 0 
L 603 0 
L 603 3500 
z
M 603 4863 
L 1178 4863 
L 1178 4134 
L 603 4134 
L 603 4863 
z
" transform="scale(0.015625)"/>
       <path id="DejaVuSans-6d" d="M 3328 2828 
Q 3544 3216 3844 3400 
Q 4144 3584 4550 3584 
Q 5097 3584 5394 3201 
Q 5691 2819 5691 2113 
L 5691 0 
L 5113 0 
L 5113 2094 
Q 5113 2597 4934 2840 
Q 4756 3084 4391 3084 
Q 3944 3084 3684 2787 
Q 3425 2491 3425 1978 
L 3425 0 
L 2847 0 
L 2847 2094 
Q 2847 2600 2669 2842 
Q 2491 3084 2119 3084 
Q 1678 3084 1418 2786 
Q 1159 2488 1159 1978 
L 1159 0 
L 581 0 
L 581 3500 
L 1159 3500 
L 1159 2956 
Q 1356 3278 1631 3431 
Q 1906 3584 2284 3584 
Q 2666 3584 2933 3390 
Q 3200 3197 3328 2828 
z
" transform="scale(0.015625)"/>
       <path id="DejaVuSans-65" d="M 3597 1894 
L 3597 1613 
L 953 1613 
Q 991 1019 1311 708 
Q 1631 397 2203 397 
Q 2534 397 2845 478 
Q 3156 559 3463 722 
L 3463 178 
Q 3153 47 2828 -22 
Q 2503 -91 2169 -91 
Q 1331 -91 842 396 
Q 353 884 353 1716 
Q 353 2575 817 3079 
Q 1281 3584 2069 3584 
Q 2775 3584 3186 3129 
Q 3597 2675 3597 1894 
z
M 3022 2063 
Q 3016 2534 2758 2815 
Q 2500 3097 2075 3097 
Q 1594 3097 1305 2825 
Q 1016 2553 972 2059 
L 3022 2063 
z
" transform="scale(0.015625)"/>
       <path id="DejaVuSans-20" transform="scale(0.015625)"/>
       <path id="DejaVuSans-28" d="M 1984 4856 
Q 1566 4138 1362 3434 
Q 1159 2731 1159 2009 
Q 1159 1288 1364 580 
Q 1569 -128 1984 -844 
L 1484 -844 
Q 1016 -109 783 600 
Q 550 1309 550 2009 
Q 550 2706 781 3412 
Q 1013 4119 1484 4856 
L 1984 4856 
z
" transform="scale(0.015625)"/>
       <path id="DejaVuSans-73" d="M 2834 3397 
L 2834 2853 
Q 2591 2978 2328 3040 
Q 2066 3103 1784 3103 
Q 1356 3103 1142 2972 
Q 928 2841 928 2578 
Q 928 2378 1081 2264 
Q 1234 2150 1697 2047 
L 1894 2003 
Q 2506 1872 2764 1633 
Q 3022 1394 3022 966 
Q 3022 478 2636 193 
Q 2250 -91 1575 -91 
Q 1294 -91 989 -36 
Q 684 19 347 128 
L 347 722 
Q 666 556 975 473 
Q 1284 391 1588 391 
Q 1994 391 2212 530 
Q 2431 669 2431 922 
Q 2431 1156 2273 1281 
Q 2116 1406 1581 1522 
L 1381 1569 
Q 847 1681 609 1914 
Q 372 2147 372 2553 
Q 372 3047 722 3315 
Q 1072 3584 1716 3584 
Q 2034 3584 2315 3537 
Q 2597 3491 2834 3397 
z
" transform="scale(0.015625)"/>
       <path id="DejaVuSans-29" d="M 513 4856 
L 1013 4856 
Q 1481 4119 1714 3412 
Q 1947 2706 1947 2009 
Q 1947 1309 1714 600 
Q 1481 -109 1013 -844 
L 513 -844 
Q 928 -128 1133 580 
Q 1338 1288 1338 2009 
Q 1338 2731 1133 3434 
Q 928 4138 513 4856 
z
" transform="scale(0.015625)"/>
      </defs>
      <use xlink:href="#DejaVuSans-54"/>
      <use xlink:href="#DejaVuSans-69" x="57.958984"/>
      <use xlink:href="#DejaVuSans-6d" x="85.742188"/>
      <use xlink:href="#DejaVuSans-65" x="183.154297"/>
      <use xlink:href="#DejaVuSans-20" x="244.677734"/>
      <use xlink:href="#DejaVuSans-28" x="276.464844"/>
      <use xlink:href="#DejaVuSans-6d" x="315.478516"/>
      <use xlink:href="#DejaVuSans-73" x="412.890625"/>
      <use xlink:href="#DejaVuSans-29" x="464.990234"/>
     </g>
    </g>
    <g id="text_8">
     <!-- 1e−7 -->
     <g transform="translate(373.643438 300.588562) scale(0.1 -0.1)">
      <defs>
       <path id="DejaVuSans-2212" d="M 678 2272 
L 4684 2272 
L 4684 1741 
L 678 1741 
L 678 2272 
z
" transform="scale(0.015625)"/>
       <path id="DejaVuSans-37" d="M 525 4666 
L 3525 4666 
L 3525 4397 
L 1831 0 
L 1172 0 
L 2766 4134 
L 525 4134 
L 525 4666 
z
" transform="scale(0.015625)"/>
      </defs>
      <use xlink:href="#DejaVuSans-31"/>
      <use xlink:href="#DejaVuSans-65" x="63.623047"/>
      <use xlink:href="#DejaVuSans-2212" x="125.146484"/>
      <use xlink:href="#DejaVuSans-37" x="208.935547"/>
     </g>
    </g>
   </g>
   <g id="matplotlib.axis_2">
    <g id="ytick_1">
     <g id="line2d_7">
      <defs>
       <path id="me90f0bcb60" d="M 0 0 
L -3.5 0 
" style="stroke: #000000; stroke-width: 0.8"/>
      </defs>
      <g>
       <use xlink:href="#me90f0bcb60" x="43.78125" y="261.216" style="stroke: #000000; stroke-width: 0.8"/>
      </g>
     </g>
     <g id="text_9">
      <!-- 0.0 -->
      <g transform="translate(20.878125 265.015219) scale(0.1 -0.1)">
       <defs>
        <path id="DejaVuSans-2e" d="M 684 794 
L 1344 794 
L 1344 0 
L 684 0 
L 684 794 
z
" transform="scale(0.015625)"/>
       </defs>
       <use xlink:href="#DejaVuSans-30"/>
       <use xlink:href="#DejaVuSans-2e" x="63.623047"/>
       <use xlink:href="#DejaVuSans-30" x="95.410156"/>
      </g>
     </g>
    </g>
    <g id="ytick_2">
     <g id="line2d_8">
      <g>
       <use xlink:href="#me90f0bcb60" x="43.78125" y="228.96" style="stroke: #000000; stroke-width: 0.8"/>
      </g>
     </g>
     <g id="text_10">
      <!-- 0.2 -->
      <g transform="translate(20.878125 232.759219) scale(0.1 -0.1)">
       <use xlink:href="#DejaVuSans-30"/>
       <use xlink:href="#DejaVuSans-2e" x="63.623047"/>
       <use xlink:href="#DejaVuSans-32" x="95.410156"/>
      </g>
     </g>
    </g>
    <g id="ytick_3">
     <g id="line2d_9">
      <g>
       <use xlink:href="#me90f0bcb60" x="43.78125" y="196.704" style="stroke: #000000; stroke-width: 0.8"/>
      </g>
     </g>
     <g id="text_11">
      <!-- 0.4 -->
      <g transform="translate(20.878125 200.503219) scale(0.1 -0.1)">
       <use xlink:href="#DejaVuSans-30"/>
       <use xlink:href="#DejaVuSans-2e" x="63.623047"/>
       <use xlink:href="#DejaVuSans-34" x="95.410156"/>
      </g>
     </g>
    </g>
    <g id="ytick_4">
     <g id="line2d_10">
      <g>
       <use xlink:href="#me90f0bcb60" x="43.78125" y="164.448" style="stroke: #000000; stroke-width: 0.8"/>
      </g>
     </g>
     <g id="text_12">
      <!-- 0.6 -->
      <g transform="translate(20.878125 168.247219) scale(0.1 -0.1)">
       <defs>
        <path id="DejaVuSans-36" d="M 2113 2584 
Q 1688 2584 1439 2293 
Q 1191 2003 1191 1497 
Q 1191 994 1439 701 
Q 1688 409 2113 409 
Q 2538 409 2786 701 
Q 3034 994 3034 1497 
Q 3034 2003 2786 2293 
Q 2538 2584 2113 2584 
z
M 3366 4563 
L 3366 3988 
Q 3128 4100 2886 4159 
Q 2644 4219 2406 4219 
Q 1781 4219 1451 3797 
Q 1122 3375 1075 2522 
Q 1259 2794 1537 2939 
Q 1816 3084 2150 3084 
Q 2853 3084 3261 2657 
Q 3669 2231 3669 1497 
Q 3669 778 3244 343 
Q 2819 -91 2113 -91 
Q 1303 -91 875 529 
Q 447 1150 447 2328 
Q 447 3434 972 4092 
Q 1497 4750 2381 4750 
Q 2619 4750 2861 4703 
Q 3103 4656 3366 4563 
z
" transform="scale(0.015625)"/>
       </defs>
       <use xlink:href="#DejaVuSans-30"/>
       <use xlink:href="#DejaVuSans-2e" x="63.623047"/>
       <use xlink:href="#DejaVuSans-36" x="95.410156"/>
      </g>
     </g>
    </g>
    <g id="ytick_5">
     <g id="line2d_11">
      <g>
       <use xlink:href="#me90f0bcb60" x="43.78125" y="132.192" style="stroke: #000000; stroke-width: 0.8"/>
      </g>
     </g>
     <g id="text_13">
      <!-- 0.8 -->
      <g transform="translate(20.878125 135.991219) scale(0.1 -0.1)">
       <defs>
        <path id="DejaVuSans-38" d="M 2034 2216 
Q 1584 2216 1326 1975 
Q 1069 1734 1069 1313 
Q 1069 891 1326 650 
Q 1584 409 2034 409 
Q 2484 409 2743 651 
Q 3003 894 3003 1313 
Q 3003 1734 2745 1975 
Q 2488 2216 2034 2216 
z
M 1403 2484 
Q 997 2584 770 2862 
Q 544 3141 544 3541 
Q 544 4100 942 4425 
Q 1341 4750 2034 4750 
Q 2731 4750 3128 4425 
Q 3525 4100 3525 3541 
Q 3525 3141 3298 2862 
Q 3072 2584 2669 2484 
Q 3125 2378 3379 2068 
Q 3634 1759 3634 1313 
Q 3634 634 3220 271 
Q 2806 -91 2034 -91 
Q 1263 -91 848 271 
Q 434 634 434 1313 
Q 434 1759 690 2068 
Q 947 2378 1403 2484 
z
M 1172 3481 
Q 1172 3119 1398 2916 
Q 1625 2713 2034 2713 
Q 2441 2713 2670 2916 
Q 2900 3119 2900 3481 
Q 2900 3844 2670 4047 
Q 2441 4250 2034 4250 
Q 1625 4250 1398 4047 
Q 1172 3844 1172 3481 
z
" transform="scale(0.015625)"/>
       </defs>
       <use xlink:href="#DejaVuSans-30"/>
       <use xlink:href="#DejaVuSans-2e" x="63.623047"/>
       <use xlink:href="#DejaVuSans-38" x="95.410156"/>
      </g>
     </g>
    </g>
    <g id="ytick_6">
     <g id="line2d_12">
      <g>
       <use xlink:href="#me90f0bcb60" x="43.78125" y="99.936" style="stroke: #000000; stroke-width: 0.8"/>
      </g>
     </g>
     <g id="text_14">
      <!-- 1.0 -->
      <g transform="translate(20.878125 103.735219) scale(0.1 -0.1)">
       <use xlink:href="#DejaVuSans-31"/>
       <use xlink:href="#DejaVuSans-2e" x="63.623047"/>
       <use xlink:href="#DejaVuSans-30" x="95.410156"/>
      </g>
     </g>
    </g>
    <g id="ytick_7">
     <g id="line2d_13">
      <g>
       <use xlink:href="#me90f0bcb60" x="43.78125" y="67.68" style="stroke: #000000; stroke-width: 0.8"/>
      </g>
     </g>
     <g id="text_15">
      <!-- 1.2 -->
      <g transform="translate(20.878125 71.479219) scale(0.1 -0.1)">
       <use xlink:href="#DejaVuSans-31"/>
       <use xlink:href="#DejaVuSans-2e" x="63.623047"/>
       <use xlink:href="#DejaVuSans-32" x="95.410156"/>
      </g>
     </g>
    </g>
    <g id="ytick_8">
     <g id="line2d_14">
      <g>
       <use xlink:href="#me90f0bcb60" x="43.78125" y="35.424" style="stroke: #000000; stroke-width: 0.8"/>
      </g>
     </g>
     <g id="text_16">
      <!-- 1.4 -->
      <g transform="translate(20.878125 39.223219) scale(0.1 -0.1)">
       <use xlink:href="#DejaVuSans-31"/>
       <use xlink:href="#DejaVuSans-2e" x="63.623047"/>
       <use xlink:href="#DejaVuSans-34" x="95.410156"/>
      </g>
     </g>
    </g>
    <g id="text_17">
     <!-- Vout (V), Vinp (V) -->
     <g transform="translate(14.798438 183.516937) rotate(-90) scale(0.1 -0.1)">
      <defs>
       <path id="DejaVuSans-56" d="M 1831 0 
L 50 4666 
L 709 4666 
L 2188 738 
L 3669 4666 
L 4325 4666 
L 2547 0 
L 1831 0 
z
" transform="scale(0.015625)"/>
       <path id="DejaVuSans-6f" d="M 1959 3097 
Q 1497 3097 1228 2736 
Q 959 2375 959 1747 
Q 959 1119 1226 758 
Q 1494 397 1959 397 
Q 2419 397 2687 759 
Q 2956 1122 2956 1747 
Q 2956 2369 2687 2733 
Q 2419 3097 1959 3097 
z
M 1959 3584 
Q 2709 3584 3137 3096 
Q 3566 2609 3566 1747 
Q 3566 888 3137 398 
Q 2709 -91 1959 -91 
Q 1206 -91 779 398 
Q 353 888 353 1747 
Q 353 2609 779 3096 
Q 1206 3584 1959 3584 
z
" transform="scale(0.015625)"/>
       <path id="DejaVuSans-75" d="M 544 1381 
L 544 3500 
L 1119 3500 
L 1119 1403 
Q 1119 906 1312 657 
Q 1506 409 1894 409 
Q 2359 409 2629 706 
Q 2900 1003 2900 1516 
L 2900 3500 
L 3475 3500 
L 3475 0 
L 2900 0 
L 2900 538 
Q 2691 219 2414 64 
Q 2138 -91 1772 -91 
Q 1169 -91 856 284 
Q 544 659 544 1381 
z
M 1991 3584 
L 1991 3584 
z
" transform="scale(0.015625)"/>
       <path id="DejaVuSans-74" d="M 1172 4494 
L 1172 3500 
L 2356 3500 
L 2356 3053 
L 1172 3053 
L 1172 1153 
Q 1172 725 1289 603 
Q 1406 481 1766 481 
L 2356 481 
L 2356 0 
L 1766 0 
Q 1100 0 847 248 
Q 594 497 594 1153 
L 594 3053 
L 172 3053 
L 172 3500 
L 594 3500 
L 594 4494 
L 1172 4494 
z
" transform="scale(0.015625)"/>
       <path id="DejaVuSans-2c" d="M 750 794 
L 1409 794 
L 1409 256 
L 897 -744 
L 494 -744 
L 750 256 
L 750 794 
z
" transform="scale(0.015625)"/>
       <path id="DejaVuSans-6e" d="M 3513 2113 
L 3513 0 
L 2938 0 
L 2938 2094 
Q 2938 2591 2744 2837 
Q 2550 3084 2163 3084 
Q 1697 3084 1428 2787 
Q 1159 2491 1159 1978 
L 1159 0 
L 581 0 
L 581 3500 
L 1159 3500 
L 1159 2956 
Q 1366 3272 1645 3428 
Q 1925 3584 2291 3584 
Q 2894 3584 3203 3211 
Q 3513 2838 3513 2113 
z
" transform="scale(0.015625)"/>
       <path id="DejaVuSans-70" d="M 1159 525 
L 1159 -1331 
L 581 -1331 
L 581 3500 
L 1159 3500 
L 1159 2969 
Q 1341 3281 1617 3432 
Q 1894 3584 2278 3584 
Q 2916 3584 3314 3078 
Q 3713 2572 3713 1747 
Q 3713 922 3314 415 
Q 2916 -91 2278 -91 
Q 1894 -91 1617 61 
Q 1341 213 1159 525 
z
M 3116 1747 
Q 3116 2381 2855 2742 
Q 2594 3103 2138 3103 
Q 1681 3103 1420 2742 
Q 1159 2381 1159 1747 
Q 1159 1113 1420 752 
Q 1681 391 2138 391 
Q 2594 391 2855 752 
Q 3116 1113 3116 1747 
z
" transform="scale(0.015625)"/>
      </defs>
      <use xlink:href="#DejaVuSans-56"/>
      <use xlink:href="#DejaVuSans-6f" x="60.658203"/>
      <use xlink:href="#DejaVuSans-75" x="121.839844"/>
      <use xlink:href="#DejaVuSans-74" x="185.21875"/>
      <use xlink:href="#DejaVuSans-20" x="224.427734"/>
      <use xlink:href="#DejaVuSans-28" x="256.214844"/>
      <use xlink:href="#DejaVuSans-56" x="295.228516"/>
      <use xlink:href="#DejaVuSans-29" x="363.636719"/>
      <use xlink:href="#DejaVuSans-2c" x="402.650391"/>
      <use xlink:href="#DejaVuSans-20" x="434.4375"/>
      <use xlink:href="#DejaVuSans-56" x="466.224609"/>
      <use xlink:href="#DejaVuSans-69" x="532.382812"/>
      <use xlink:href="#DejaVuSans-6e" x="560.166016"/>
      <use xlink:href="#DejaVuSans-70" x="623.544922"/>
      <use xlink:href="#DejaVuSans-20" x="687.021484"/>
      <use xlink:href="#DejaVuSans-28" x="718.808594"/>
      <use xlink:href="#DejaVuSans-56" x="757.822266"/>
      <use xlink:href="#DejaVuSans-29" x="826.230469"/>
     </g>
    </g>
   </g>
   <g id="line2d_15">
    <path d="M 60.013977 254.925211 
L 60.046443 254.925211 
L 60.078908 254.925211 
L 60.143839 254.925211 
L 60.273701 254.925211 
L 60.533425 254.925211 
L 61.052872 254.925211 
L 62.091766 254.925211 
L 64.169555 254.925211 
L 68.325134 254.925211 
L 74.818225 254.925211 
L 81.311315 254.925211 
L 87.804406 254.925211 
L 94.297497 254.925211 
L 100.790588 254.925211 
L 107.283679 254.925211 
L 113.77677 254.925211 
L 120.269861 254.925211 
L 124.944886 254.925211 
L 124.951379 254.919773 
L 124.964366 254.909044 
L 124.987108 254.896073 
L 125.009817 254.903446 
L 125.012098 254.907713 
L 125.016659 254.915151 
L 125.025781 254.925639 
L 125.044025 254.93819 
L 125.068354 254.951128 
L 125.104671 254.969336 
L 125.159004 254.980292 
L 125.257947 254.976972 
L 125.394002 254.955252 
L 125.637839 254.882391 
L 126.125511 254.606368 
L 127.100857 253.542382 
L 129.051548 249.860408 
L 131.632052 243.374964 
L 134.546308 235.479992 
L 138.158161 225.626842 
L 144.513564 208.322264 
L 151.006655 190.696869 
L 157.499746 173.131999 
L 163.992837 155.635943 
L 170.485928 138.219246 
L 176.979019 120.89707 
L 183.47211 103.694011 
L 189.965201 86.78205 
L 196.458292 72.569108 
L 202.951383 64.029187 
L 209.444473 60.082131 
L 215.937564 58.249312 
L 222.430655 57.399637 
L 228.923746 56.984464 
L 235.416837 56.789597 
L 241.909928 56.691295 
L 248.403019 56.64743 
L 254.89611 56.623606 
L 261.389201 56.614213 
L 267.882292 56.608102 
L 274.375383 56.606365 
L 280.868473 56.604622 
L 287.361564 56.604457 
L 293.854655 56.603883 
L 300.347746 56.603962 
L 306.840837 56.603751 
L 313.333928 56.603814 
L 319.827019 56.603744 
L 326.32011 56.603761 
L 332.813201 56.603757 
L 339.306292 56.603736 
L 345.799383 56.603769 
L 352.292473 56.603723 
L 358.785564 56.603777 
L 365.278655 56.603717 
L 371.771746 56.603782 
L 378.264837 56.603712 
L 384.668523 56.603785 
" clip-path="url(#p2f5c0c44b7)" style="fill: none; stroke: #1f77b4; stroke-width: 1.5; stroke-linecap: square"/>
   </g>
   <g id="line2d_16">
    <path d="M 60.013977 261.216 
L 60.046443 261.216 
L 60.078908 261.216 
L 60.143839 261.216 
L 60.273701 261.216 
L 60.533425 261.216 
L 61.052872 261.216 
L 62.091766 261.216 
L 64.169555 261.216 
L 68.325134 261.216 
L 74.818225 261.216 
L 81.311315 261.216 
L 87.804406 261.216 
L 94.297497 261.216 
L 100.790588 261.216 
L 107.283679 261.216 
L 113.77677 261.216 
L 120.269861 261.216 
L 124.944886 261.216 
L 124.951379 237.024 
L 124.964366 188.64 
L 124.987108 103.906199 
L 125.009817 19.296 
L 125.012098 19.296 
L 125.016659 19.296 
L 125.025781 19.296 
L 125.044025 19.296 
L 125.068354 19.296 
L 125.104671 19.296 
L 125.159004 19.296 
L 125.257947 19.296 
L 125.394002 19.296 
L 125.637839 19.296 
L 126.125511 19.296 
L 127.100857 19.296 
L 129.051548 19.296 
L 131.632052 19.296 
L 134.546308 19.296 
L 138.158161 19.296 
L 144.513564 19.296 
L 151.006655 19.296 
L 157.499746 19.296 
L 163.992837 19.296 
L 170.485928 19.296 
L 176.979019 19.296 
L 183.47211 19.296 
L 189.965201 19.296 
L 196.458292 19.296 
L 202.951383 19.296 
L 209.444473 19.296 
L 215.937564 19.296 
L 222.430655 19.296 
L 228.923746 19.296 
L 235.416837 19.296 
L 241.909928 19.296 
L 248.403019 19.296 
L 254.89611 19.296 
L 261.389201 19.296 
L 267.882292 19.296 
L 274.375383 19.296 
L 280.868473 19.296 
L 287.361564 19.296 
L 293.854655 19.296 
L 300.347746 19.296 
L 306.840837 19.296 
L 313.333928 19.296 
L 319.827019 19.296 
L 326.32011 19.296 
L 332.813201 19.296 
L 339.306292 19.296 
L 345.799383 19.296 
L 352.292473 19.296 
L 358.785564 19.296 
L 365.278655 19.296 
L 371.771746 19.296 
L 378.264837 19.296 
L 384.668523 19.296 
" clip-path="url(#p2f5c0c44b7)" style="fill: none; stroke: #ff7f0e; stroke-width: 1.5; stroke-linecap: square"/>
   </g>
   <g id="line2d_17">
    <path d="M 60.013977 254.42684 
L 60.046443 254.42684 
L 60.078908 254.42684 
L 60.143839 254.42684 
L 60.273701 254.42684 
L 60.533425 254.42684 
L 61.052872 254.42684 
L 62.091766 254.42684 
L 64.169555 254.42684 
L 68.325134 254.42684 
L 74.818225 254.42684 
L 81.311315 254.42684 
L 87.804406 254.42684 
L 94.297497 254.42684 
L 100.790588 254.42684 
L 107.283679 254.42684 
L 113.77677 254.42684 
L 120.269861 254.42684 
L 124.944886 254.42684 
L 124.951379 254.421293 
L 124.964366 254.410382 
L 124.990338 254.397849 
L 125.009817 254.404519 
L 125.012623 254.409466 
L 125.018234 254.418075 
L 125.029455 254.430378 
L 125.051898 254.452796 
L 125.079073 254.473131 
L 125.122657 254.483783 
L 125.182048 254.482011 
L 125.280102 254.469003 
L 125.437515 254.433129 
L 125.752342 254.312779 
L 126.381996 253.882573 
L 127.641303 252.302968 
L 130.159918 247.159154 
L 133.559576 238.386163 
L 136.810641 229.600357 
L 141.56543 216.751058 
L 148.058521 199.243076 
L 154.551612 181.785982 
L 161.044702 164.386147 
L 167.537793 147.052239 
L 174.030884 129.796612 
L 180.523975 112.646521 
L 187.017066 95.925313 
L 193.510157 82.017065 
L 200.003248 73.304561 
L 206.496339 68.769267 
L 212.98943 66.418295 
L 219.482521 65.187829 
L 225.975612 64.527353 
L 232.468702 64.172976 
L 238.961793 63.981471 
L 245.454884 63.878937 
L 251.947975 63.823294 
L 258.441066 63.793636 
L 264.934157 63.777438 
L 271.427248 63.768871 
L 277.920339 63.764149 
L 284.41343 63.761677 
L 290.906521 63.760301 
L 297.399612 63.759585 
L 303.892702 63.759188 
L 310.385793 63.758975 
L 316.878884 63.758867 
L 323.371975 63.758796 
L 329.865066 63.758775 
L 336.358157 63.758743 
L 342.851248 63.758748 
L 349.344339 63.758728 
L 355.83743 63.758741 
L 362.330521 63.758724 
L 368.823612 63.75874 
L 375.316702 63.758722 
L 381.809793 63.758738 
L 384.668523 63.758722 
" clip-path="url(#p2f5c0c44b7)" style="fill: none; stroke: #2ca02c; stroke-width: 1.5; stroke-linecap: square"/>
   </g>
   <g id="line2d_18">
    <path d="M 60.013977 261.216 
L 60.046443 261.216 
L 60.078908 261.216 
L 60.143839 261.216 
L 60.273701 261.216 
L 60.533425 261.216 
L 61.052872 261.216 
L 62.091766 261.216 
L 64.169555 261.216 
L 68.325134 261.216 
L 74.818225 261.216 
L 81.311315 261.216 
L 87.804406 261.216 
L 94.297497 261.216 
L 100.790588 261.216 
L 107.283679 261.216 
L 113.77677 261.216 
L 120.269861 261.216 
L 124.944886 261.216 
L 124.951379 237.024 
L 124.964366 188.64 
L 124.990338 91.872 
L 125.009817 19.296 
L 125.012623 19.296 
L 125.018234 19.296 
L 125.029455 19.296 
L 125.051898 19.296 
L 125.079073 19.296 
L 125.122657 19.296 
L 125.182048 19.296 
L 125.280102 19.296 
L 125.437515 19.296 
L 125.752342 19.296 
L 126.381996 19.296 
L 127.641303 19.296 
L 130.159918 19.296 
L 133.559576 19.296 
L 136.810641 19.296 
L 141.56543 19.296 
L 148.058521 19.296 
L 154.551612 19.296 
L 161.044702 19.296 
L 167.537793 19.296 
L 174.030884 19.296 
L 180.523975 19.296 
L 187.017066 19.296 
L 193.510157 19.296 
L 200.003248 19.296 
L 206.496339 19.296 
L 212.98943 19.296 
L 219.482521 19.296 
L 225.975612 19.296 
L 232.468702 19.296 
L 238.961793 19.296 
L 245.454884 19.296 
L 251.947975 19.296 
L 258.441066 19.296 
L 264.934157 19.296 
L 271.427248 19.296 
L 277.920339 19.296 
L 284.41343 19.296 
L 290.906521 19.296 
L 297.399612 19.296 
L 303.892702 19.296 
L 310.385793 19.296 
L 316.878884 19.296 
L 323.371975 19.296 
L 329.865066 19.296 
L 336.358157 19.296 
L 342.851248 19.296 
L 349.344339 19.296 
L 355.83743 19.296 
L 362.330521 19.296 
L 368.823612 19.296 
L 375.316702 19.296 
L 381.809793 19.296 
L 384.668523 19.296 
" clip-path="url(#p2f5c0c44b7)" style="fill: none; stroke: #d62728; stroke-width: 1.5; stroke-linecap: square"/>
   </g>
   <g id="line2d_19">
    <path d="M 60.013977 252.39348 
L 60.046443 252.39348 
L 60.078908 252.39348 
L 60.143839 252.39348 
L 60.273701 252.39348 
L 60.533425 252.39348 
L 61.052872 252.39348 
L 62.091766 252.39348 
L 64.169555 252.39348 
L 68.325134 252.39348 
L 74.818225 252.39348 
L 81.311315 252.39348 
L 87.804406 252.39348 
L 94.297497 252.39348 
L 100.790588 252.39348 
L 107.283679 252.39348 
L 113.77677 252.39348 
L 120.269861 252.39348 
L 124.944886 252.39348 
L 124.951379 252.38304 
L 124.964366 252.367812 
L 124.986568 252.355354 
L 125.009817 252.358644 
L 125.012172 252.362762 
L 125.01688 252.370559 
L 125.026299 252.387057 
L 125.045134 252.421735 
L 125.077396 252.445551 
L 125.115534 252.446007 
L 125.169762 252.435682 
L 125.248978 252.414516 
L 125.407411 252.358484 
L 125.724278 252.199518 
L 126.358011 251.711995 
L 127.444451 250.386373 
L 129.611063 246.329682 
L 132.977204 238.069461 
L 136.655182 228.1963 
L 141.384528 215.398566 
L 147.877619 197.89121 
L 154.370709 180.461947 
L 160.8638 163.104526 
L 167.356891 145.821152 
L 173.849982 128.641329 
L 180.343073 111.890016 
L 186.836164 97.356522 
L 193.329255 87.166909 
L 199.822346 81.057726 
L 206.315437 77.48012 
L 212.808528 75.379165 
L 219.301619 74.124475 
L 225.794709 73.36961 
L 232.2878 72.914678 
L 238.780891 72.64011 
L 245.273982 72.474282 
L 251.767073 72.374074 
L 258.260164 72.313499 
L 264.753255 72.276883 
L 271.246346 72.254735 
L 277.739437 72.241355 
L 284.232528 72.233249 
L 290.725619 72.228364 
L 297.218709 72.225391 
L 303.7118 72.223614 
L 310.204891 72.222517 
L 316.697982 72.221877 
L 323.191073 72.221467 
L 329.684164 72.221242 
L 336.177255 72.221082 
L 342.670346 72.221009 
L 349.163437 72.220942 
L 355.656528 72.220924 
L 362.149619 72.22089 
L 368.642709 72.220893 
L 375.1358 72.220872 
L 381.628891 72.220882 
L 384.668523 72.220866 
" clip-path="url(#p2f5c0c44b7)" style="fill: none; stroke: #9467bd; stroke-width: 1.5; stroke-linecap: square"/>
   </g>
   <g id="line2d_20">
    <path d="M 60.013977 261.216 
L 60.046443 261.216 
L 60.078908 261.216 
L 60.143839 261.216 
L 60.273701 261.216 
L 60.533425 261.216 
L 61.052872 261.216 
L 62.091766 261.216 
L 64.169555 261.216 
L 68.325134 261.216 
L 74.818225 261.216 
L 81.311315 261.216 
L 87.804406 261.216 
L 94.297497 261.216 
L 100.790588 261.216 
L 107.283679 261.216 
L 113.77677 261.216 
L 120.269861 261.216 
L 124.944886 261.216 
L 124.951379 237.024 
L 124.964366 188.64 
L 124.986568 105.918616 
L 125.009817 19.296 
L 125.012172 19.296 
L 125.01688 19.296 
L 125.026299 19.296 
L 125.045134 19.296 
L 125.077396 19.296 
L 125.115534 19.296 
L 125.169762 19.296 
L 125.248978 19.296 
L 125.407411 19.296 
L 125.724278 19.296 
L 126.358011 19.296 
L 127.444451 19.296 
L 129.611063 19.296 
L 132.977204 19.296 
L 136.655182 19.296 
L 141.384528 19.296 
L 147.877619 19.296 
L 154.370709 19.296 
L 160.8638 19.296 
L 167.356891 19.296 
L 173.849982 19.296 
L 180.343073 19.296 
L 186.836164 19.296 
L 193.329255 19.296 
L 199.822346 19.296 
L 206.315437 19.296 
L 212.808528 19.296 
L 219.301619 19.296 
L 225.794709 19.296 
L 232.2878 19.296 
L 238.780891 19.296 
L 245.273982 19.296 
L 251.767073 19.296 
L 258.260164 19.296 
L 264.753255 19.296 
L 271.246346 19.296 
L 277.739437 19.296 
L 284.232528 19.296 
L 290.725619 19.296 
L 297.218709 19.296 
L 303.7118 19.296 
L 310.204891 19.296 
L 316.697982 19.296 
L 323.191073 19.296 
L 329.684164 19.296 
L 336.177255 19.296 
L 342.670346 19.296 
L 349.163437 19.296 
L 355.656528 19.296 
L 362.149619 19.296 
L 368.642709 19.296 
L 375.1358 19.296 
L 381.628891 19.296 
L 384.668523 19.296 
" clip-path="url(#p2f5c0c44b7)" style="fill: none; stroke: #8c564b; stroke-width: 1.5; stroke-linecap: square"/>
   </g>
   <g id="line2d_21">
    <path d="M 60.013977 255.314795 
L 60.046443 255.314795 
L 60.078908 255.314795 
L 60.143839 255.314795 
L 60.273701 255.314795 
L 60.533425 255.314795 
L 61.052872 255.314795 
L 62.091766 255.314795 
L 64.169555 255.314795 
L 68.325134 255.314795 
L 74.818225 255.314795 
L 81.311315 255.314795 
L 87.804406 255.314795 
L 94.297497 255.314795 
L 100.790588 255.314794 
L 107.283679 255.314794 
L 113.77677 255.314794 
L 120.269861 255.314794 
L 124.944886 255.314794 
L 124.951379 255.309156 
L 124.964366 255.298013 
L 124.990338 255.286432 
L 125.009817 255.294465 
L 125.012474 255.299208 
L 125.017788 255.307348 
L 125.028415 255.318435 
L 125.049671 255.334951 
L 125.074923 255.354388 
L 125.116542 255.369324 
L 125.17697 255.37045 
L 125.280336 255.356569 
L 125.428994 255.319455 
L 125.72631 255.192521 
L 126.320942 254.733932 
L 127.510207 253.064828 
L 129.888735 247.780877 
L 132.722365 240.054542 
L 135.752186 231.511728 
L 139.980153 219.585767 
L 146.473244 201.315797 
L 152.966335 183.106919 
L 159.459426 164.966754 
L 165.952517 146.905462 
L 172.445608 128.936903 
L 178.938699 111.08214 
L 185.43179 93.401475 
L 191.924881 77.141103 
L 198.417971 66.047292 
L 204.911062 60.696186 
L 211.404153 58.26409 
L 217.897244 57.167142 
L 224.390335 56.63466 
L 230.883426 56.395667 
L 237.376517 56.271025 
L 243.869608 56.221117 
L 250.362699 56.190345 
L 256.85579 56.181362 
L 263.348881 56.172799 
L 269.841971 56.172096 
L 276.335062 56.169185 
L 282.828153 56.169803 
L 289.321244 56.168563 
L 295.814335 56.169156 
L 302.307426 56.168534 
L 308.800517 56.168929 
L 315.293608 56.168592 
L 321.786699 56.16883 
L 328.27979 56.168643 
L 334.772881 56.168777 
L 341.265971 56.168679 
L 347.759062 56.168748 
L 354.252153 56.1687 
L 360.745244 56.16873 
L 367.238335 56.168713 
L 373.731426 56.168721 
L 380.224517 56.168721 
L 384.668523 56.168713 
" clip-path="url(#p2f5c0c44b7)" style="fill: none; stroke: #e377c2; stroke-width: 1.5; stroke-linecap: square"/>
   </g>
   <g id="line2d_22">
    <path d="M 60.013977 261.216 
L 60.046443 261.216 
L 60.078908 261.216 
L 60.143839 261.216 
L 60.273701 261.216 
L 60.533425 261.216 
L 61.052872 261.216 
L 62.091766 261.216 
L 64.169555 261.216 
L 68.325134 261.216 
L 74.818225 261.216 
L 81.311315 261.216 
L 87.804406 261.216 
L 94.297497 261.216 
L 100.790588 261.216 
L 107.283679 261.216 
L 113.77677 261.216 
L 120.269861 261.216 
L 124.944886 261.216 
L 124.951379 237.024 
L 124.964366 188.64 
L 124.990338 91.872 
L 125.009817 19.296 
L 125.012474 19.296 
L 125.017788 19.296 
L 125.028415 19.296 
L 125.049671 19.296 
L 125.074923 19.296 
L 125.116542 19.296 
L 125.17697 19.296 
L 125.280336 19.296 
L 125.428994 19.296 
L 125.72631 19.296 
L 126.320942 19.296 
L 127.510207 19.296 
L 129.888735 19.296 
L 132.722365 19.296 
L 135.752186 19.296 
L 139.980153 19.296 
L 146.473244 19.296 
L 152.966335 19.296 
L 159.459426 19.296 
L 165.952517 19.296 
L 172.445608 19.296 
L 178.938699 19.296 
L 185.43179 19.296 
L 191.924881 19.296 
L 198.417971 19.296 
L 204.911062 19.296 
L 211.404153 19.296 
L 217.897244 19.296 
L 224.390335 19.296 
L 230.883426 19.296 
L 237.376517 19.296 
L 243.869608 19.296 
L 250.362699 19.296 
L 256.85579 19.296 
L 263.348881 19.296 
L 269.841971 19.296 
L 276.335062 19.296 
L 282.828153 19.296 
L 289.321244 19.296 
L 295.814335 19.296 
L 302.307426 19.296 
L 308.800517 19.296 
L 315.293608 19.296 
L 321.786699 19.296 
L 328.27979 19.296 
L 334.772881 19.296 
L 341.265971 19.296 
L 347.759062 19.296 
L 354.252153 19.296 
L 360.745244 19.296 
L 367.238335 19.296 
L 373.731426 19.296 
L 380.224517 19.296 
L 384.668523 19.296 
" clip-path="url(#p2f5c0c44b7)" style="fill: none; stroke: #7f7f7f; stroke-width: 1.5; stroke-linecap: square"/>
   </g>
   <g id="line2d_23">
    <path d="M 60.013977 254.366697 
L 60.046443 254.366697 
L 60.078908 254.366697 
L 60.143839 254.366697 
L 60.273701 254.366697 
L 60.533425 254.366697 
L 61.052872 254.366697 
L 62.091766 254.366697 
L 64.169555 254.366697 
L 68.325134 254.366697 
L 74.818225 254.366697 
L 81.311315 254.366697 
L 87.804406 254.366697 
L 94.297497 254.366697 
L 100.790588 254.366697 
L 107.283679 254.366697 
L 113.77677 254.366697 
L 120.269861 254.366697 
L 124.944886 254.366697 
L 124.951379 254.360507 
L 124.964366 254.348902 
L 124.990338 254.338022 
L 125.009817 254.344703 
L 125.012339 254.349177 
L 125.017382 254.357035 
L 125.027468 254.369453 
L 125.04764 254.396909 
L 125.075023 254.418136 
L 125.115718 254.424771 
L 125.171106 254.419928 
L 125.259962 254.403976 
L 125.422974 254.357734 
L 125.748999 254.20854 
L 126.401049 253.695116 
L 127.623695 252.01998 
L 130.068989 246.788743 
L 133.360929 238.0166 
L 136.62461 228.915514 
L 141.353407 215.722361 
L 147.846498 197.650776 
L 154.339589 179.63619 
L 160.83268 161.685082 
L 167.325771 143.80705 
L 173.818861 126.016707 
L 180.311952 108.358255 
L 186.805043 91.482339 
L 193.298134 78.430581 
L 199.791225 70.919699 
L 206.284316 67.096634 
L 212.777407 65.154958 
L 219.270498 64.135535 
L 225.763589 63.596765 
L 232.25668 63.309783 
L 238.749771 63.158831 
L 245.242861 63.077899 
L 251.735952 63.035662 
L 258.229043 63.012754 
L 264.722134 63.00099 
L 271.215225 62.99446 
L 277.708316 62.991219 
L 284.201407 62.989328 
L 290.694498 62.988462 
L 297.187589 62.987894 
L 303.68068 62.987679 
L 310.173771 62.987494 
L 316.666861 62.987457 
L 323.159952 62.987384 
L 329.653043 62.987392 
L 336.146134 62.987355 
L 342.639225 62.987373 
L 349.132316 62.987347 
L 355.625407 62.987366 
L 362.118498 62.987346 
L 368.611589 62.987365 
L 375.10468 62.987346 
L 381.597771 62.987363 
L 384.668523 62.987346 
" clip-path="url(#p2f5c0c44b7)" style="fill: none; stroke: #bcbd22; stroke-width: 1.5; stroke-linecap: square"/>
   </g>
   <g id="line2d_24">
    <path d="M 60.013977 261.216 
L 60.046443 261.216 
L 60.078908 261.216 
L 60.143839 261.216 
L 60.273701 261.216 
L 60.533425 261.216 
L 61.052872 261.216 
L 62.091766 261.216 
L 64.169555 261.216 
L 68.325134 261.216 
L 74.818225 261.216 
L 81.311315 261.216 
L 87.804406 261.216 
L 94.297497 261.216 
L 100.790588 261.216 
L 107.283679 261.216 
L 113.77677 261.216 
L 120.269861 261.216 
L 124.944886 261.216 
L 124.951379 237.024 
L 124.964366 188.64 
L 124.990338 91.872 
L 125.009817 19.296 
L 125.012339 19.296 
L 125.017382 19.296 
L 125.027468 19.296 
L 125.04764 19.296 
L 125.075023 19.296 
L 125.115718 19.296 
L 125.171106 19.296 
L 125.259962 19.296 
L 125.422974 19.296 
L 125.748999 19.296 
L 126.401049 19.296 
L 127.623695 19.296 
L 130.068989 19.296 
L 133.360929 19.296 
L 136.62461 19.296 
L 141.353407 19.296 
L 147.846498 19.296 
L 154.339589 19.296 
L 160.83268 19.296 
L 167.325771 19.296 
L 173.818861 19.296 
L 180.311952 19.296 
L 186.805043 19.296 
L 193.298134 19.296 
L 199.791225 19.296 
L 206.284316 19.296 
L 212.777407 19.296 
L 219.270498 19.296 
L 225.763589 19.296 
L 232.25668 19.296 
L 238.749771 19.296 
L 245.242861 19.296 
L 251.735952 19.296 
L 258.229043 19.296 
L 264.722134 19.296 
L 271.215225 19.296 
L 277.708316 19.296 
L 284.201407 19.296 
L 290.694498 19.296 
L 297.187589 19.296 
L 303.68068 19.296 
L 310.173771 19.296 
L 316.666861 19.296 
L 323.159952 19.296 
L 329.653043 19.296 
L 336.146134 19.296 
L 342.639225 19.296 
L 349.132316 19.296 
L 355.625407 19.296 
L 362.118498 19.296 
L 368.611589 19.296 
L 375.10468 19.296 
L 381.597771 19.296 
L 384.668523 19.296 
" clip-path="url(#p2f5c0c44b7)" style="fill: none; stroke: #17becf; stroke-width: 1.5; stroke-linecap: square"/>
   </g>
   <g id="line2d_25">
    <path d="M 60.013977 252.019261 
L 60.046443 252.019261 
L 60.078908 252.019261 
L 60.143839 252.019261 
L 60.273701 252.019261 
L 60.533425 252.019261 
L 61.052872 252.019261 
L 62.091766 252.019261 
L 64.169555 252.019261 
L 68.325134 252.019261 
L 74.818225 252.019261 
L 81.311315 252.019261 
L 87.804406 252.019261 
L 94.297497 252.019261 
L 100.790588 252.019261 
L 107.283679 252.019261 
L 113.77677 252.019261 
L 120.269861 252.019261 
L 124.944886 252.019261 
L 124.951379 252.00431 
L 124.964366 251.980716 
L 124.984505 251.967665 
L 125.006186 251.968476 
L 125.009817 251.969339 
L 125.011244 251.972042 
L 125.014099 251.977489 
L 125.019809 251.989884 
L 125.03123 252.017655 
L 125.054069 252.048229 
L 125.088851 252.054289 
L 125.129635 252.04394 
L 125.190543 252.022476 
L 125.295401 251.977598 
L 125.505115 251.863113 
L 125.924543 251.549296 
L 126.7634 250.612515 
L 128.081354 248.416259 
L 130.717262 242.326147 
L 134.32964 232.408589 
L 138.173436 221.483447 
L 143.645855 206.029646 
L 150.138946 187.870657 
L 156.632037 169.862218 
L 163.125128 151.976707 
L 169.618219 134.210552 
L 176.11131 116.695971 
L 182.6044 100.6425 
L 189.097491 88.580322 
L 195.590582 81.186869 
L 202.083673 76.904808 
L 208.576764 74.439306 
L 215.069855 72.992234 
L 221.562946 72.13475 
L 228.056037 71.625125 
L 234.549128 71.322328 
L 241.042219 71.141895 
L 247.53531 71.034579 
L 254.0284 70.970559 
L 260.521491 70.932474 
L 267.014582 70.909743 
L 273.507673 70.89622 
L 280.000764 70.88815 
L 286.493855 70.883343 
L 292.986946 70.880481 
L 299.480037 70.878769 
L 305.973128 70.877757 
L 312.466219 70.877145 
L 318.95931 70.876789 
L 325.4524 70.876568 
L 331.945491 70.876445 
L 338.438582 70.876363 
L 344.931673 70.876324 
L 351.424764 70.876289 
L 357.917855 70.876281 
L 364.410946 70.876263 
L 370.904037 70.876265 
L 377.397128 70.876255 
L 383.890219 70.87626 
L 384.668523 70.876252 
" clip-path="url(#p2f5c0c44b7)" style="fill: none; stroke: #1f77b4; stroke-width: 1.5; stroke-linecap: square"/>
   </g>
   <g id="line2d_26">
    <path d="M 60.013977 261.216 
L 60.046443 261.216 
L 60.078908 261.216 
L 60.143839 261.216 
L 60.273701 261.216 
L 60.533425 261.216 
L 61.052872 261.216 
L 62.091766 261.216 
L 64.169555 261.216 
L 68.325134 261.216 
L 74.818225 261.216 
L 81.311315 261.216 
L 87.804406 261.216 
L 94.297497 261.216 
L 100.790588 261.216 
L 107.283679 261.216 
L 113.77677 261.216 
L 120.269861 261.216 
L 124.944886 261.216 
L 124.951379 237.024 
L 124.964366 188.64 
L 124.984505 113.604018 
L 125.006186 32.826795 
L 125.009817 19.296 
L 125.011244 19.296 
L 125.014099 19.296 
L 125.019809 19.296 
L 125.03123 19.296 
L 125.054069 19.296 
L 125.088851 19.296 
L 125.129635 19.296 
L 125.190543 19.296 
L 125.295401 19.296 
L 125.505115 19.296 
L 125.924543 19.296 
L 126.7634 19.296 
L 128.081354 19.296 
L 130.717262 19.296 
L 134.32964 19.296 
L 138.173436 19.296 
L 143.645855 19.296 
L 150.138946 19.296 
L 156.632037 19.296 
L 163.125128 19.296 
L 169.618219 19.296 
L 176.11131 19.296 
L 182.6044 19.296 
L 189.097491 19.296 
L 195.590582 19.296 
L 202.083673 19.296 
L 208.576764 19.296 
L 215.069855 19.296 
L 221.562946 19.296 
L 228.056037 19.296 
L 234.549128 19.296 
L 241.042219 19.296 
L 247.53531 19.296 
L 254.0284 19.296 
L 260.521491 19.296 
L 267.014582 19.296 
L 273.507673 19.296 
L 280.000764 19.296 
L 286.493855 19.296 
L 292.986946 19.296 
L 299.480037 19.296 
L 305.973128 19.296 
L 312.466219 19.296 
L 318.95931 19.296 
L 325.4524 19.296 
L 331.945491 19.296 
L 338.438582 19.296 
L 344.931673 19.296 
L 351.424764 19.296 
L 357.917855 19.296 
L 364.410946 19.296 
L 370.904037 19.296 
L 377.397128 19.296 
L 383.890219 19.296 
L 384.668523 19.296 
" clip-path="url(#p2f5c0c44b7)" style="fill: none; stroke: #ff7f0e; stroke-width: 1.5; stroke-linecap: square"/>
   </g>
   <g id="line2d_27">
    <path d="M 60.013977 255.478363 
L 60.046443 255.478363 
L 60.078908 255.478363 
L 60.143839 255.478363 
L 60.273701 255.478363 
L 60.533425 255.478363 
L 61.052872 255.478363 
L 62.091766 255.478363 
L 64.169555 255.478363 
L 68.325134 255.478363 
L 74.818225 255.478363 
L 81.311315 255.478363 
L 87.804406 255.478363 
L 94.297497 255.478363 
L 100.790588 255.478363 
L 107.283679 255.478363 
L 113.77677 255.478363 
L 120.269861 255.478363 
L 124.944886 255.478363 
L 124.951379 255.472487 
L 124.964366 255.460874 
L 124.990338 255.451136 
L 125.009817 255.459035 
L 125.012364 255.463541 
L 125.017456 255.47128 
L 125.027641 255.482258 
L 125.048012 255.504832 
L 125.073524 255.526809 
L 125.114591 255.537668 
L 125.173365 255.533709 
L 125.269173 255.514332 
L 125.422964 255.4638 
L 125.730546 255.30115 
L 126.34571 254.744007 
L 127.576038 252.814179 
L 130.036694 246.958143 
L 132.717253 239.327322 
L 135.864654 230.135591 
L 140.104318 217.747893 
L 146.597409 198.826666 
L 153.0905 179.972661 
L 159.583591 161.194793 
L 166.076682 142.504948 
L 172.569773 123.920001 
L 179.062864 105.467222 
L 185.555954 87.286898 
L 192.049045 71.769446 
L 198.542136 62.396495 
L 205.035227 58.210914 
L 211.528318 56.337124 
L 218.021409 55.508213 
L 224.5145 55.114243 
L 231.007591 54.940091 
L 237.500682 54.852205 
L 243.993773 54.817214 
L 250.486864 54.796563 
L 256.979954 54.790472 
L 263.473045 54.78498 
L 269.966136 54.784506 
L 276.459227 54.782698 
L 282.952318 54.783084 
L 289.445409 54.782329 
L 295.9385 54.782693 
L 302.431591 54.782321 
L 308.924682 54.782556 
L 315.417773 54.782361 
L 321.910864 54.782495 
L 328.403954 54.782395 
L 334.897045 54.782463 
L 341.390136 54.782416 
L 347.883227 54.782443 
L 354.376318 54.78243 
L 360.869409 54.782434 
L 367.3625 54.782438 
L 373.855591 54.782427 
L 380.348682 54.782443 
L 384.668523 54.782422 
" clip-path="url(#p2f5c0c44b7)" style="fill: none; stroke: #2ca02c; stroke-width: 1.5; stroke-linecap: square"/>
   </g>
   <g id="line2d_28">
    <path d="M 60.013977 261.216 
L 60.046443 261.216 
L 60.078908 261.216 
L 60.143839 261.216 
L 60.273701 261.216 
L 60.533425 261.216 
L 61.052872 261.216 
L 62.091766 261.216 
L 64.169555 261.216 
L 68.325134 261.216 
L 74.818225 261.216 
L 81.311315 261.216 
L 87.804406 261.216 
L 94.297497 261.216 
L 100.790588 261.216 
L 107.283679 261.216 
L 113.77677 261.216 
L 120.269861 261.216 
L 124.944886 261.216 
L 124.951379 237.024 
L 124.964366 188.64 
L 124.990338 91.872 
L 125.009817 19.296 
L 125.012364 19.296 
L 125.017456 19.296 
L 125.027641 19.296 
L 125.048012 19.296 
L 125.073524 19.296 
L 125.114591 19.296 
L 125.173365 19.296 
L 125.269173 19.296 
L 125.422964 19.296 
L 125.730546 19.296 
L 126.34571 19.296 
L 127.576038 19.296 
L 130.036694 19.296 
L 132.717253 19.296 
L 135.864654 19.296 
L 140.104318 19.296 
L 146.597409 19.296 
L 153.0905 19.296 
L 159.583591 19.296 
L 166.076682 19.296 
L 172.569773 19.296 
L 179.062864 19.296 
L 185.555954 19.296 
L 192.049045 19.296 
L 198.542136 19.296 
L 205.035227 19.296 
L 211.528318 19.296 
L 218.021409 19.296 
L 224.5145 19.296 
L 231.007591 19.296 
L 237.500682 19.296 
L 243.993773 19.296 
L 250.486864 19.296 
L 256.979954 19.296 
L 263.473045 19.296 
L 269.966136 19.296 
L 276.459227 19.296 
L 282.952318 19.296 
L 289.445409 19.296 
L 295.9385 19.296 
L 302.431591 19.296 
L 308.924682 19.296 
L 315.417773 19.296 
L 321.910864 19.296 
L 328.403954 19.296 
L 334.897045 19.296 
L 341.390136 19.296 
L 347.883227 19.296 
L 354.376318 19.296 
L 360.869409 19.296 
L 367.3625 19.296 
L 373.855591 19.296 
L 380.348682 19.296 
L 384.668523 19.296 
" clip-path="url(#p2f5c0c44b7)" style="fill: none; stroke: #d62728; stroke-width: 1.5; stroke-linecap: square"/>
   </g>
   <g id="line2d_29">
    <path d="M 60.013977 254.357518 
L 60.046443 254.357518 
L 60.078908 254.357518 
L 60.143839 254.357518 
L 60.273701 254.357518 
L 60.533425 254.357518 
L 61.052872 254.357518 
L 62.091766 254.357518 
L 64.169555 254.357518 
L 68.325134 254.357518 
L 74.818225 254.357518 
L 81.311315 254.357518 
L 87.804406 254.357518 
L 94.297497 254.357518 
L 100.790588 254.357518 
L 107.283679 254.357518 
L 113.77677 254.357518 
L 120.269861 254.357518 
L 124.944886 254.357518 
L 124.951379 254.349562 
L 124.964366 254.336899 
L 124.985469 254.327725 
L 125.00793 254.333253 
L 125.009817 254.333961 
L 125.010959 254.336178 
L 125.013243 254.340167 
L 125.01781 254.347098 
L 125.026945 254.361172 
L 125.045216 254.392311 
L 125.074681 254.41355 
L 125.113653 254.415333 
L 125.168597 254.40631 
L 125.253299 254.384804 
L 125.422703 254.322045 
L 125.761509 254.129771 
L 126.439121 253.499333 
L 127.62802 251.687519 
L 130.005818 246.301812 
L 133.154109 237.596975 
L 136.438782 228.123315 
L 141.118921 214.616636 
L 147.612012 195.934009 
L 154.105102 177.32076 
L 160.598193 158.778295 
L 167.091284 140.314185 
L 173.584375 121.944786 
L 180.077466 103.748503 
L 186.570557 86.828861 
L 193.063648 74.555723 
L 199.556739 67.926855 
L 206.04983 64.619912 
L 212.542921 62.96956 
L 219.036012 62.114971 
L 225.529102 61.679794 
L 232.022193 61.447249 
L 238.515284 61.331561 
L 245.008375 61.267631 
L 251.501466 61.237308 
L 257.994557 61.219409 
L 264.487648 61.211716 
L 270.980739 61.206522 
L 277.47383 61.204724 
L 283.966921 61.203115 
L 290.460012 61.202789 
L 296.953102 61.202231 
L 303.446193 61.20224 
L 309.939284 61.202013 
L 316.432375 61.202078 
L 322.925466 61.201966 
L 329.418557 61.202026 
L 335.911648 61.20196 
L 342.404739 61.202008 
L 348.89783 61.201961 
L 355.390921 61.202 
L 361.884012 61.201963 
L 368.377102 61.201997 
L 374.870193 61.201965 
L 381.363284 61.201995 
L 384.668523 61.201966 
" clip-path="url(#p2f5c0c44b7)" style="fill: none; stroke: #9467bd; stroke-width: 1.5; stroke-linecap: square"/>
   </g>
   <g id="line2d_30">
    <path d="M 60.013977 261.216 
L 60.046443 261.216 
L 60.078908 261.216 
L 60.143839 261.216 
L 60.273701 261.216 
L 60.533425 261.216 
L 61.052872 261.216 
L 62.091766 261.216 
L 64.169555 261.216 
L 68.325134 261.216 
L 74.818225 261.216 
L 81.311315 261.216 
L 87.804406 261.216 
L 94.297497 261.216 
L 100.790588 261.216 
L 107.283679 261.216 
L 113.77677 261.216 
L 120.269861 261.216 
L 124.944886 261.216 
L 124.951379 237.024 
L 124.964366 188.64 
L 124.985469 110.011818 
L 125.00793 26.32879 
L 125.009817 19.296 
L 125.010959 19.296 
L 125.013243 19.296 
L 125.01781 19.296 
L 125.026945 19.296 
L 125.045216 19.296 
L 125.074681 19.296 
L 125.113653 19.296 
L 125.168597 19.296 
L 125.253299 19.296 
L 125.422703 19.296 
L 125.761509 19.296 
L 126.439121 19.296 
L 127.62802 19.296 
L 130.005818 19.296 
L 133.154109 19.296 
L 136.438782 19.296 
L 141.118921 19.296 
L 147.612012 19.296 
L 154.105102 19.296 
L 160.598193 19.296 
L 167.091284 19.296 
L 173.584375 19.296 
L 180.077466 19.296 
L 186.570557 19.296 
L 193.063648 19.296 
L 199.556739 19.296 
L 206.04983 19.296 
L 212.542921 19.296 
L 219.036012 19.296 
L 225.529102 19.296 
L 232.022193 19.296 
L 238.515284 19.296 
L 245.008375 19.296 
L 251.501466 19.296 
L 257.994557 19.296 
L 264.487648 19.296 
L 270.980739 19.296 
L 277.47383 19.296 
L 283.966921 19.296 
L 290.460012 19.296 
L 296.953102 19.296 
L 303.446193 19.296 
L 309.939284 19.296 
L 316.432375 19.296 
L 322.925466 19.296 
L 329.418557 19.296 
L 335.911648 19.296 
L 342.404739 19.296 
L 348.89783 19.296 
L 355.390921 19.296 
L 361.884012 19.296 
L 368.377102 19.296 
L 374.870193 19.296 
L 381.363284 19.296 
L 384.668523 19.296 
" clip-path="url(#p2f5c0c44b7)" style="fill: none; stroke: #8c564b; stroke-width: 1.5; stroke-linecap: square"/>
   </g>
   <g id="line2d_31">
    <path d="M 60.013977 251.399297 
L 60.046443 251.399297 
L 60.078908 251.399297 
L 60.143839 251.399297 
L 60.273701 251.399297 
L 60.533425 251.399297 
L 61.052872 251.399297 
L 62.091766 251.399297 
L 64.169555 251.399297 
L 68.325134 251.399297 
L 74.818225 251.399297 
L 81.311315 251.399297 
L 87.804406 251.399297 
L 94.297497 251.399297 
L 100.790588 251.399297 
L 107.283679 251.399297 
L 113.77677 251.399297 
L 120.269861 251.399297 
L 124.944886 251.399297 
L 124.951379 251.382029 
L 124.964366 251.346352 
L 124.984324 251.327491 
L 125.005572 251.324857 
L 125.009817 251.32502 
L 125.01125 251.328196 
L 125.014115 251.335329 
L 125.019846 251.351879 
L 125.031307 251.38064 
L 125.05423 251.402924 
L 125.088421 251.397589 
L 125.128782 251.376636 
L 125.190525 251.339294 
L 125.304426 251.260481 
L 125.532228 251.070547 
L 125.987833 250.579812 
L 126.876165 249.24377 
L 128.27694 246.300325 
L 131.07849 238.668419 
L 134.369426 228.598344 
L 138.386565 216.253094 
L 143.810041 199.915295 
L 150.303132 180.784311 
L 156.796223 161.988987 
L 163.289314 143.446419 
L 169.782405 125.126025 
L 176.275496 107.37871 
L 182.768587 92.320944 
L 189.261678 82.177322 
L 195.754769 76.333738 
L 202.247859 73.022816 
L 208.74095 71.138504 
L 215.234041 70.045947 
L 221.727132 69.408817 
L 228.220223 69.036521 
L 234.713314 68.818943 
L 241.206405 68.69159 
L 247.699496 68.617105 
L 254.192587 68.57348 
L 260.685678 68.547957 
L 267.178769 68.533007 
L 273.671859 68.524259 
L 280.16495 68.519137 
L 286.658041 68.516135 
L 293.151132 68.51438 
L 299.644223 68.51335 
L 306.137314 68.512752 
L 312.630405 68.512395 
L 319.123496 68.512192 
L 325.616587 68.512068 
L 332.109678 68.512 
L 338.602769 68.511956 
L 345.095859 68.511935 
L 351.58895 68.511918 
L 358.082041 68.511913 
L 364.575132 68.511905 
L 371.068223 68.511905 
L 377.561314 68.5119 
L 384.054405 68.511902 
L 384.668523 68.5119 
" clip-path="url(#p2f5c0c44b7)" style="fill: none; stroke: #e377c2; stroke-width: 1.5; stroke-linecap: square"/>
   </g>
   <g id="line2d_32">
    <path d="M 60.013977 261.216 
L 60.046443 261.216 
L 60.078908 261.216 
L 60.143839 261.216 
L 60.273701 261.216 
L 60.533425 261.216 
L 61.052872 261.216 
L 62.091766 261.216 
L 64.169555 261.216 
L 68.325134 261.216 
L 74.818225 261.216 
L 81.311315 261.216 
L 87.804406 261.216 
L 94.297497 261.216 
L 100.790588 261.216 
L 107.283679 261.216 
L 113.77677 261.216 
L 120.269861 261.216 
L 124.944886 261.216 
L 124.951379 237.024 
L 124.964366 188.64 
L 124.984324 114.279725 
L 125.005572 35.112097 
L 125.009817 19.296 
L 125.01125 19.296 
L 125.014115 19.296 
L 125.019846 19.296 
L 125.031307 19.296 
L 125.05423 19.296 
L 125.088421 19.296 
L 125.128782 19.296 
L 125.190525 19.296 
L 125.304426 19.296 
L 125.532228 19.296 
L 125.987833 19.296 
L 126.876165 19.296 
L 128.27694 19.296 
L 131.07849 19.296 
L 134.369426 19.296 
L 138.386565 19.296 
L 143.810041 19.296 
L 150.303132 19.296 
L 156.796223 19.296 
L 163.289314 19.296 
L 169.782405 19.296 
L 176.275496 19.296 
L 182.768587 19.296 
L 189.261678 19.296 
L 195.754769 19.296 
L 202.247859 19.296 
L 208.74095 19.296 
L 215.234041 19.296 
L 221.727132 19.296 
L 228.220223 19.296 
L 234.713314 19.296 
L 241.206405 19.296 
L 247.699496 19.296 
L 254.192587 19.296 
L 260.685678 19.296 
L 267.178769 19.296 
L 273.671859 19.296 
L 280.16495 19.296 
L 286.658041 19.296 
L 293.151132 19.296 
L 299.644223 19.296 
L 306.137314 19.296 
L 312.630405 19.296 
L 319.123496 19.296 
L 325.616587 19.296 
L 332.109678 19.296 
L 338.602769 19.296 
L 345.095859 19.296 
L 351.58895 19.296 
L 358.082041 19.296 
L 364.575132 19.296 
L 371.068223 19.296 
L 377.561314 19.296 
L 384.054405 19.296 
L 384.668523 19.296 
" clip-path="url(#p2f5c0c44b7)" style="fill: none; stroke: #7f7f7f; stroke-width: 1.5; stroke-linecap: square"/>
   </g>
   <g id="patch_3">
    <path d="M 43.78125 273.312 
L 43.78125 7.2 
" style="fill: none; stroke: #000000; stroke-width: 0.8; stroke-linejoin: miter; stroke-linecap: square"/>
   </g>
   <g id="patch_4">
    <path d="M 400.90125 273.312 
L 400.90125 7.2 
" style="fill: none; stroke: #000000; stroke-width: 0.8; stroke-linejoin: miter; stroke-linecap: square"/>
   </g>
   <g id="patch_5">
    <path d="M 43.78125 273.312 
L 400.90125 273.312 
" style="fill: none; stroke: #000000; stroke-width: 0.8; stroke-linejoin: miter; stroke-linecap: square"/>
   </g>
   <g id="patch_6">
    <path d="M 43.78125 7.2 
L 400.90125 7.2 
" style="fill: none; stroke: #000000; stroke-width: 0.8; stroke-linejoin: miter; stroke-linecap: square"/>
   </g>
   <g id="legend_1">
    <g id="patch_7">
     <path d="M 417.18605 279.4125 
L 635.595425 279.4125 
Q 637.595425 279.4125 637.595425 277.4125 
L 637.595425 9.2 
Q 637.595425 7.2 635.595425 7.2 
L 417.18605 7.2 
Q 415.18605 7.2 415.18605 9.2 
L 415.18605 277.4125 
Q 415.18605 279.4125 417.18605 279.4125 
z
" style="fill: #ffffff; opacity: 0.8; stroke: #cccccc; stroke-linejoin: miter"/>
    </g>
    <g id="line2d_33">
     <path d="M 419.18605 15.298437 
L 429.18605 15.298437 
L 439.18605 15.298437 
" style="fill: none; stroke: #1f77b4; stroke-width: 1.5; stroke-linecap: square"/>
    </g>
    <g id="text_18">
     <!-- temperature = -40, corner = mos_ss -->
     <g transform="translate(447.18605 18.798437) scale(0.1 -0.1)">
      <defs>
       <path id="DejaVuSans-72" d="M 2631 2963 
Q 2534 3019 2420 3045 
Q 2306 3072 2169 3072 
Q 1681 3072 1420 2755 
Q 1159 2438 1159 1844 
L 1159 0 
L 581 0 
L 581 3500 
L 1159 3500 
L 1159 2956 
Q 1341 3275 1631 3429 
Q 1922 3584 2338 3584 
Q 2397 3584 2469 3576 
Q 2541 3569 2628 3553 
L 2631 2963 
z
" transform="scale(0.015625)"/>
       <path id="DejaVuSans-61" d="M 2194 1759 
Q 1497 1759 1228 1600 
Q 959 1441 959 1056 
Q 959 750 1161 570 
Q 1363 391 1709 391 
Q 2188 391 2477 730 
Q 2766 1069 2766 1631 
L 2766 1759 
L 2194 1759 
z
M 3341 1997 
L 3341 0 
L 2766 0 
L 2766 531 
Q 2569 213 2275 61 
Q 1981 -91 1556 -91 
Q 1019 -91 701 211 
Q 384 513 384 1019 
Q 384 1609 779 1909 
Q 1175 2209 1959 2209 
L 2766 2209 
L 2766 2266 
Q 2766 2663 2505 2880 
Q 2244 3097 1772 3097 
Q 1472 3097 1187 3025 
Q 903 2953 641 2809 
L 641 3341 
Q 956 3463 1253 3523 
Q 1550 3584 1831 3584 
Q 2591 3584 2966 3190 
Q 3341 2797 3341 1997 
z
" transform="scale(0.015625)"/>
       <path id="DejaVuSans-3d" d="M 678 2906 
L 4684 2906 
L 4684 2381 
L 678 2381 
L 678 2906 
z
M 678 1631 
L 4684 1631 
L 4684 1100 
L 678 1100 
L 678 1631 
z
" transform="scale(0.015625)"/>
       <path id="DejaVuSans-2d" d="M 313 2009 
L 1997 2009 
L 1997 1497 
L 313 1497 
L 313 2009 
z
" transform="scale(0.015625)"/>
       <path id="DejaVuSans-63" d="M 3122 3366 
L 3122 2828 
Q 2878 2963 2633 3030 
Q 2388 3097 2138 3097 
Q 1578 3097 1268 2742 
Q 959 2388 959 1747 
Q 959 1106 1268 751 
Q 1578 397 2138 397 
Q 2388 397 2633 464 
Q 2878 531 3122 666 
L 3122 134 
Q 2881 22 2623 -34 
Q 2366 -91 2075 -91 
Q 1284 -91 818 406 
Q 353 903 353 1747 
Q 353 2603 823 3093 
Q 1294 3584 2113 3584 
Q 2378 3584 2631 3529 
Q 2884 3475 3122 3366 
z
" transform="scale(0.015625)"/>
       <path id="DejaVuSans-5f" d="M 3263 -1063 
L 3263 -1509 
L -63 -1509 
L -63 -1063 
L 3263 -1063 
z
" transform="scale(0.015625)"/>
      </defs>
      <use xlink:href="#DejaVuSans-74"/>
      <use xlink:href="#DejaVuSans-65" x="39.208984"/>
      <use xlink:href="#DejaVuSans-6d" x="100.732422"/>
      <use xlink:href="#DejaVuSans-70" x="198.144531"/>
      <use xlink:href="#DejaVuSans-65" x="261.621094"/>
      <use xlink:href="#DejaVuSans-72" x="323.144531"/>
      <use xlink:href="#DejaVuSans-61" x="364.257812"/>
      <use xlink:href="#DejaVuSans-74" x="425.537109"/>
      <use xlink:href="#DejaVuSans-75" x="464.746094"/>
      <use xlink:href="#DejaVuSans-72" x="528.125"/>
      <use xlink:href="#DejaVuSans-65" x="566.988281"/>
      <use xlink:href="#DejaVuSans-20" x="628.511719"/>
      <use xlink:href="#DejaVuSans-3d" x="660.298828"/>
      <use xlink:href="#DejaVuSans-20" x="744.087891"/>
      <use xlink:href="#DejaVuSans-2d" x="775.875"/>
      <use xlink:href="#DejaVuSans-34" x="811.958984"/>
      <use xlink:href="#DejaVuSans-30" x="875.582031"/>
      <use xlink:href="#DejaVuSans-2c" x="939.205078"/>
      <use xlink:href="#DejaVuSans-20" x="970.992188"/>
      <use xlink:href="#DejaVuSans-63" x="1002.779297"/>
      <use xlink:href="#DejaVuSans-6f" x="1057.759766"/>
      <use xlink:href="#DejaVuSans-72" x="1118.941406"/>
      <use xlink:href="#DejaVuSans-6e" x="1158.304688"/>
      <use xlink:href="#DejaVuSans-65" x="1221.683594"/>
      <use xlink:href="#DejaVuSans-72" x="1283.207031"/>
      <use xlink:href="#DejaVuSans-20" x="1324.320312"/>
      <use xlink:href="#DejaVuSans-3d" x="1356.107422"/>
      <use xlink:href="#DejaVuSans-20" x="1439.896484"/>
      <use xlink:href="#DejaVuSans-6d" x="1471.683594"/>
      <use xlink:href="#DejaVuSans-6f" x="1569.095703"/>
      <use xlink:href="#DejaVuSans-73" x="1630.277344"/>
      <use xlink:href="#DejaVuSans-5f" x="1682.376953"/>
      <use xlink:href="#DejaVuSans-73" x="1732.376953"/>
      <use xlink:href="#DejaVuSans-73" x="1784.476562"/>
     </g>
    </g>
    <g id="line2d_34">
     <path d="M 419.18605 30.254687 
L 429.18605 30.254687 
L 439.18605 30.254687 
" style="fill: none; stroke: #ff7f0e; stroke-width: 1.5; stroke-linecap: square"/>
    </g>
    <g id="text_19">
     <!-- temperature = -40, corner = mos_ss -->
     <g transform="translate(447.18605 33.754687) scale(0.1 -0.1)">
      <use xlink:href="#DejaVuSans-74"/>
      <use xlink:href="#DejaVuSans-65" x="39.208984"/>
      <use xlink:href="#DejaVuSans-6d" x="100.732422"/>
      <use xlink:href="#DejaVuSans-70" x="198.144531"/>
      <use xlink:href="#DejaVuSans-65" x="261.621094"/>
      <use xlink:href="#DejaVuSans-72" x="323.144531"/>
      <use xlink:href="#DejaVuSans-61" x="364.257812"/>
      <use xlink:href="#DejaVuSans-74" x="425.537109"/>
      <use xlink:href="#DejaVuSans-75" x="464.746094"/>
      <use xlink:href="#DejaVuSans-72" x="528.125"/>
      <use xlink:href="#DejaVuSans-65" x="566.988281"/>
      <use xlink:href="#DejaVuSans-20" x="628.511719"/>
      <use xlink:href="#DejaVuSans-3d" x="660.298828"/>
      <use xlink:href="#DejaVuSans-20" x="744.087891"/>
      <use xlink:href="#DejaVuSans-2d" x="775.875"/>
      <use xlink:href="#DejaVuSans-34" x="811.958984"/>
      <use xlink:href="#DejaVuSans-30" x="875.582031"/>
      <use xlink:href="#DejaVuSans-2c" x="939.205078"/>
      <use xlink:href="#DejaVuSans-20" x="970.992188"/>
      <use xlink:href="#DejaVuSans-63" x="1002.779297"/>
      <use xlink:href="#DejaVuSans-6f" x="1057.759766"/>
      <use xlink:href="#DejaVuSans-72" x="1118.941406"/>
      <use xlink:href="#DejaVuSans-6e" x="1158.304688"/>
      <use xlink:href="#DejaVuSans-65" x="1221.683594"/>
      <use xlink:href="#DejaVuSans-72" x="1283.207031"/>
      <use xlink:href="#DejaVuSans-20" x="1324.320312"/>
      <use xlink:href="#DejaVuSans-3d" x="1356.107422"/>
      <use xlink:href="#DejaVuSans-20" x="1439.896484"/>
      <use xlink:href="#DejaVuSans-6d" x="1471.683594"/>
      <use xlink:href="#DejaVuSans-6f" x="1569.095703"/>
      <use xlink:href="#DejaVuSans-73" x="1630.277344"/>
      <use xlink:href="#DejaVuSans-5f" x="1682.376953"/>
      <use xlink:href="#DejaVuSans-73" x="1732.376953"/>
      <use xlink:href="#DejaVuSans-73" x="1784.476562"/>
     </g>
    </g>
    <g id="line2d_35">
     <path d="M 419.18605 45.210938 
L 429.18605 45.210938 
L 439.18605 45.210938 
" style="fill: none; stroke: #2ca02c; stroke-width: 1.5; stroke-linecap: square"/>
    </g>
    <g id="text_20">
     <!-- temperature = 27, corner = mos_ss -->
     <g transform="translate(447.18605 48.710938) scale(0.1 -0.1)">
      <use xlink:href="#DejaVuSans-74"/>
      <use xlink:href="#DejaVuSans-65" x="39.208984"/>
      <use xlink:href="#DejaVuSans-6d" x="100.732422"/>
      <use xlink:href="#DejaVuSans-70" x="198.144531"/>
      <use xlink:href="#DejaVuSans-65" x="261.621094"/>
      <use xlink:href="#DejaVuSans-72" x="323.144531"/>
      <use xlink:href="#DejaVuSans-61" x="364.257812"/>
      <use xlink:href="#DejaVuSans-74" x="425.537109"/>
      <use xlink:href="#DejaVuSans-75" x="464.746094"/>
      <use xlink:href="#DejaVuSans-72" x="528.125"/>
      <use xlink:href="#DejaVuSans-65" x="566.988281"/>
      <use xlink:href="#DejaVuSans-20" x="628.511719"/>
      <use xlink:href="#DejaVuSans-3d" x="660.298828"/>
      <use xlink:href="#DejaVuSans-20" x="744.087891"/>
      <use xlink:href="#DejaVuSans-32" x="775.875"/>
      <use xlink:href="#DejaVuSans-37" x="839.498047"/>
      <use xlink:href="#DejaVuSans-2c" x="903.121094"/>
      <use xlink:href="#DejaVuSans-20" x="934.908203"/>
      <use xlink:href="#DejaVuSans-63" x="966.695312"/>
      <use xlink:href="#DejaVuSans-6f" x="1021.675781"/>
      <use xlink:href="#DejaVuSans-72" x="1082.857422"/>
      <use xlink:href="#DejaVuSans-6e" x="1122.220703"/>
      <use xlink:href="#DejaVuSans-65" x="1185.599609"/>
      <use xlink:href="#DejaVuSans-72" x="1247.123047"/>
      <use xlink:href="#DejaVuSans-20" x="1288.236328"/>
      <use xlink:href="#DejaVuSans-3d" x="1320.023438"/>
      <use xlink:href="#DejaVuSans-20" x="1403.8125"/>
      <use xlink:href="#DejaVuSans-6d" x="1435.599609"/>
      <use xlink:href="#DejaVuSans-6f" x="1533.011719"/>
      <use xlink:href="#DejaVuSans-73" x="1594.193359"/>
      <use xlink:href="#DejaVuSans-5f" x="1646.292969"/>
      <use xlink:href="#DejaVuSans-73" x="1696.292969"/>
      <use xlink:href="#DejaVuSans-73" x="1748.392578"/>
     </g>
    </g>
    <g id="line2d_36">
     <path d="M 419.18605 60.167188 
L 429.18605 60.167188 
L 439.18605 60.167188 
" style="fill: none; stroke: #d62728; stroke-width: 1.5; stroke-linecap: square"/>
    </g>
    <g id="text_21">
     <!-- temperature = 27, corner = mos_ss -->
     <g transform="translate(447.18605 63.667188) scale(0.1 -0.1)">
      <use xlink:href="#DejaVuSans-74"/>
      <use xlink:href="#DejaVuSans-65" x="39.208984"/>
      <use xlink:href="#DejaVuSans-6d" x="100.732422"/>
      <use xlink:href="#DejaVuSans-70" x="198.144531"/>
      <use xlink:href="#DejaVuSans-65" x="261.621094"/>
      <use xlink:href="#DejaVuSans-72" x="323.144531"/>
      <use xlink:href="#DejaVuSans-61" x="364.257812"/>
      <use xlink:href="#DejaVuSans-74" x="425.537109"/>
      <use xlink:href="#DejaVuSans-75" x="464.746094"/>
      <use xlink:href="#DejaVuSans-72" x="528.125"/>
      <use xlink:href="#DejaVuSans-65" x="566.988281"/>
      <use xlink:href="#DejaVuSans-20" x="628.511719"/>
      <use xlink:href="#DejaVuSans-3d" x="660.298828"/>
      <use xlink:href="#DejaVuSans-20" x="744.087891"/>
      <use xlink:href="#DejaVuSans-32" x="775.875"/>
      <use xlink:href="#DejaVuSans-37" x="839.498047"/>
      <use xlink:href="#DejaVuSans-2c" x="903.121094"/>
      <use xlink:href="#DejaVuSans-20" x="934.908203"/>
      <use xlink:href="#DejaVuSans-63" x="966.695312"/>
      <use xlink:href="#DejaVuSans-6f" x="1021.675781"/>
      <use xlink:href="#DejaVuSans-72" x="1082.857422"/>
      <use xlink:href="#DejaVuSans-6e" x="1122.220703"/>
      <use xlink:href="#DejaVuSans-65" x="1185.599609"/>
      <use xlink:href="#DejaVuSans-72" x="1247.123047"/>
      <use xlink:href="#DejaVuSans-20" x="1288.236328"/>
      <use xlink:href="#DejaVuSans-3d" x="1320.023438"/>
      <use xlink:href="#DejaVuSans-20" x="1403.8125"/>
      <use xlink:href="#DejaVuSans-6d" x="1435.599609"/>
      <use xlink:href="#DejaVuSans-6f" x="1533.011719"/>
      <use xlink:href="#DejaVuSans-73" x="1594.193359"/>
      <use xlink:href="#DejaVuSans-5f" x="1646.292969"/>
      <use xlink:href="#DejaVuSans-73" x="1696.292969"/>
      <use xlink:href="#DejaVuSans-73" x="1748.392578"/>
     </g>
    </g>
    <g id="line2d_37">
     <path d="M 419.18605 75.123437 
L 429.18605 75.123437 
L 439.18605 75.123437 
" style="fill: none; stroke: #9467bd; stroke-width: 1.5; stroke-linecap: square"/>
    </g>
    <g id="text_22">
     <!-- temperature = 130, corner = mos_ss -->
     <g transform="translate(447.18605 78.623437) scale(0.1 -0.1)">
      <use xlink:href="#DejaVuSans-74"/>
      <use xlink:href="#DejaVuSans-65" x="39.208984"/>
      <use xlink:href="#DejaVuSans-6d" x="100.732422"/>
      <use xlink:href="#DejaVuSans-70" x="198.144531"/>
      <use xlink:href="#DejaVuSans-65" x="261.621094"/>
      <use xlink:href="#DejaVuSans-72" x="323.144531"/>
      <use xlink:href="#DejaVuSans-61" x="364.257812"/>
      <use xlink:href="#DejaVuSans-74" x="425.537109"/>
      <use xlink:href="#DejaVuSans-75" x="464.746094"/>
      <use xlink:href="#DejaVuSans-72" x="528.125"/>
      <use xlink:href="#DejaVuSans-65" x="566.988281"/>
      <use xlink:href="#DejaVuSans-20" x="628.511719"/>
      <use xlink:href="#DejaVuSans-3d" x="660.298828"/>
      <use xlink:href="#DejaVuSans-20" x="744.087891"/>
      <use xlink:href="#DejaVuSans-31" x="775.875"/>
      <use xlink:href="#DejaVuSans-33" x="839.498047"/>
      <use xlink:href="#DejaVuSans-30" x="903.121094"/>
      <use xlink:href="#DejaVuSans-2c" x="966.744141"/>
      <use xlink:href="#DejaVuSans-20" x="998.53125"/>
      <use xlink:href="#DejaVuSans-63" x="1030.318359"/>
      <use xlink:href="#DejaVuSans-6f" x="1085.298828"/>
      <use xlink:href="#DejaVuSans-72" x="1146.480469"/>
      <use xlink:href="#DejaVuSans-6e" x="1185.84375"/>
      <use xlink:href="#DejaVuSans-65" x="1249.222656"/>
      <use xlink:href="#DejaVuSans-72" x="1310.746094"/>
      <use xlink:href="#DejaVuSans-20" x="1351.859375"/>
      <use xlink:href="#DejaVuSans-3d" x="1383.646484"/>
      <use xlink:href="#DejaVuSans-20" x="1467.435547"/>
      <use xlink:href="#DejaVuSans-6d" x="1499.222656"/>
      <use xlink:href="#DejaVuSans-6f" x="1596.634766"/>
      <use xlink:href="#DejaVuSans-73" x="1657.816406"/>
      <use xlink:href="#DejaVuSans-5f" x="1709.916016"/>
      <use xlink:href="#DejaVuSans-73" x="1759.916016"/>
      <use xlink:href="#DejaVuSans-73" x="1812.015625"/>
     </g>
    </g>
    <g id="line2d_38">
     <path d="M 419.18605 90.079687 
L 429.18605 90.079687 
L 439.18605 90.079687 
" style="fill: none; stroke: #8c564b; stroke-width: 1.5; stroke-linecap: square"/>
    </g>
    <g id="text_23">
     <!-- temperature = 130, corner = mos_ss -->
     <g transform="translate(447.18605 93.579687) scale(0.1 -0.1)">
      <use xlink:href="#DejaVuSans-74"/>
      <use xlink:href="#DejaVuSans-65" x="39.208984"/>
      <use xlink:href="#DejaVuSans-6d" x="100.732422"/>
      <use xlink:href="#DejaVuSans-70" x="198.144531"/>
      <use xlink:href="#DejaVuSans-65" x="261.621094"/>
      <use xlink:href="#DejaVuSans-72" x="323.144531"/>
      <use xlink:href="#DejaVuSans-61" x="364.257812"/>
      <use xlink:href="#DejaVuSans-74" x="425.537109"/>
      <use xlink:href="#DejaVuSans-75" x="464.746094"/>
      <use xlink:href="#DejaVuSans-72" x="528.125"/>
      <use xlink:href="#DejaVuSans-65" x="566.988281"/>
      <use xlink:href="#DejaVuSans-20" x="628.511719"/>
      <use xlink:href="#DejaVuSans-3d" x="660.298828"/>
      <use xlink:href="#DejaVuSans-20" x="744.087891"/>
      <use xlink:href="#DejaVuSans-31" x="775.875"/>
      <use xlink:href="#DejaVuSans-33" x="839.498047"/>
      <use xlink:href="#DejaVuSans-30" x="903.121094"/>
      <use xlink:href="#DejaVuSans-2c" x="966.744141"/>
      <use xlink:href="#DejaVuSans-20" x="998.53125"/>
      <use xlink:href="#DejaVuSans-63" x="1030.318359"/>
      <use xlink:href="#DejaVuSans-6f" x="1085.298828"/>
      <use xlink:href="#DejaVuSans-72" x="1146.480469"/>
      <use xlink:href="#DejaVuSans-6e" x="1185.84375"/>
      <use xlink:href="#DejaVuSans-65" x="1249.222656"/>
      <use xlink:href="#DejaVuSans-72" x="1310.746094"/>
      <use xlink:href="#DejaVuSans-20" x="1351.859375"/>
      <use xlink:href="#DejaVuSans-3d" x="1383.646484"/>
      <use xlink:href="#DejaVuSans-20" x="1467.435547"/>
      <use xlink:href="#DejaVuSans-6d" x="1499.222656"/>
      <use xlink:href="#DejaVuSans-6f" x="1596.634766"/>
      <use xlink:href="#DejaVuSans-73" x="1657.816406"/>
      <use xlink:href="#DejaVuSans-5f" x="1709.916016"/>
      <use xlink:href="#DejaVuSans-73" x="1759.916016"/>
      <use xlink:href="#DejaVuSans-73" x="1812.015625"/>
     </g>
    </g>
    <g id="line2d_39">
     <path d="M 419.18605 105.035937 
L 429.18605 105.035937 
L 439.18605 105.035937 
" style="fill: none; stroke: #e377c2; stroke-width: 1.5; stroke-linecap: square"/>
    </g>
    <g id="text_24">
     <!-- temperature = -40, corner = mos_tt -->
     <g transform="translate(447.18605 108.535937) scale(0.1 -0.1)">
      <use xlink:href="#DejaVuSans-74"/>
      <use xlink:href="#DejaVuSans-65" x="39.208984"/>
      <use xlink:href="#DejaVuSans-6d" x="100.732422"/>
      <use xlink:href="#DejaVuSans-70" x="198.144531"/>
      <use xlink:href="#DejaVuSans-65" x="261.621094"/>
      <use xlink:href="#DejaVuSans-72" x="323.144531"/>
      <use xlink:href="#DejaVuSans-61" x="364.257812"/>
      <use xlink:href="#DejaVuSans-74" x="425.537109"/>
      <use xlink:href="#DejaVuSans-75" x="464.746094"/>
      <use xlink:href="#DejaVuSans-72" x="528.125"/>
      <use xlink:href="#DejaVuSans-65" x="566.988281"/>
      <use xlink:href="#DejaVuSans-20" x="628.511719"/>
      <use xlink:href="#DejaVuSans-3d" x="660.298828"/>
      <use xlink:href="#DejaVuSans-20" x="744.087891"/>
      <use xlink:href="#DejaVuSans-2d" x="775.875"/>
      <use xlink:href="#DejaVuSans-34" x="811.958984"/>
      <use xlink:href="#DejaVuSans-30" x="875.582031"/>
      <use xlink:href="#DejaVuSans-2c" x="939.205078"/>
      <use xlink:href="#DejaVuSans-20" x="970.992188"/>
      <use xlink:href="#DejaVuSans-63" x="1002.779297"/>
      <use xlink:href="#DejaVuSans-6f" x="1057.759766"/>
      <use xlink:href="#DejaVuSans-72" x="1118.941406"/>
      <use xlink:href="#DejaVuSans-6e" x="1158.304688"/>
      <use xlink:href="#DejaVuSans-65" x="1221.683594"/>
      <use xlink:href="#DejaVuSans-72" x="1283.207031"/>
      <use xlink:href="#DejaVuSans-20" x="1324.320312"/>
      <use xlink:href="#DejaVuSans-3d" x="1356.107422"/>
      <use xlink:href="#DejaVuSans-20" x="1439.896484"/>
      <use xlink:href="#DejaVuSans-6d" x="1471.683594"/>
      <use xlink:href="#DejaVuSans-6f" x="1569.095703"/>
      <use xlink:href="#DejaVuSans-73" x="1630.277344"/>
      <use xlink:href="#DejaVuSans-5f" x="1682.376953"/>
      <use xlink:href="#DejaVuSans-74" x="1732.376953"/>
      <use xlink:href="#DejaVuSans-74" x="1771.585938"/>
     </g>
    </g>
    <g id="line2d_40">
     <path d="M 419.18605 119.992188 
L 429.18605 119.992188 
L 439.18605 119.992188 
" style="fill: none; stroke: #7f7f7f; stroke-width: 1.5; stroke-linecap: square"/>
    </g>
    <g id="text_25">
     <!-- temperature = -40, corner = mos_tt -->
     <g transform="translate(447.18605 123.492188) scale(0.1 -0.1)">
      <use xlink:href="#DejaVuSans-74"/>
      <use xlink:href="#DejaVuSans-65" x="39.208984"/>
      <use xlink:href="#DejaVuSans-6d" x="100.732422"/>
      <use xlink:href="#DejaVuSans-70" x="198.144531"/>
      <use xlink:href="#DejaVuSans-65" x="261.621094"/>
      <use xlink:href="#DejaVuSans-72" x="323.144531"/>
      <use xlink:href="#DejaVuSans-61" x="364.257812"/>
      <use xlink:href="#DejaVuSans-74" x="425.537109"/>
      <use xlink:href="#DejaVuSans-75" x="464.746094"/>
      <use xlink:href="#DejaVuSans-72" x="528.125"/>
      <use xlink:href="#DejaVuSans-65" x="566.988281"/>
      <use xlink:href="#DejaVuSans-20" x="628.511719"/>
      <use xlink:href="#DejaVuSans-3d" x="660.298828"/>
      <use xlink:href="#DejaVuSans-20" x="744.087891"/>
      <use xlink:href="#DejaVuSans-2d" x="775.875"/>
      <use xlink:href="#DejaVuSans-34" x="811.958984"/>
      <use xlink:href="#DejaVuSans-30" x="875.582031"/>
      <use xlink:href="#DejaVuSans-2c" x="939.205078"/>
      <use xlink:href="#DejaVuSans-20" x="970.992188"/>
      <use xlink:href="#DejaVuSans-63" x="1002.779297"/>
      <use xlink:href="#DejaVuSans-6f" x="1057.759766"/>
      <use xlink:href="#DejaVuSans-72" x="1118.941406"/>
      <use xlink:href="#DejaVuSans-6e" x="1158.304688"/>
      <use xlink:href="#DejaVuSans-65" x="1221.683594"/>
      <use xlink:href="#DejaVuSans-72" x="1283.207031"/>
      <use xlink:href="#DejaVuSans-20" x="1324.320312"/>
      <use xlink:href="#DejaVuSans-3d" x="1356.107422"/>
      <use xlink:href="#DejaVuSans-20" x="1439.896484"/>
      <use xlink:href="#DejaVuSans-6d" x="1471.683594"/>
      <use xlink:href="#DejaVuSans-6f" x="1569.095703"/>
      <use xlink:href="#DejaVuSans-73" x="1630.277344"/>
      <use xlink:href="#DejaVuSans-5f" x="1682.376953"/>
      <use xlink:href="#DejaVuSans-74" x="1732.376953"/>
      <use xlink:href="#DejaVuSans-74" x="1771.585938"/>
     </g>
    </g>
    <g id="line2d_41">
     <path d="M 419.18605 134.948437 
L 429.18605 134.948437 
L 439.18605 134.948437 
" style="fill: none; stroke: #bcbd22; stroke-width: 1.5; stroke-linecap: square"/>
    </g>
    <g id="text_26">
     <!-- temperature = 27, corner = mos_tt -->
     <g transform="translate(447.18605 138.448437) scale(0.1 -0.1)">
      <use xlink:href="#DejaVuSans-74"/>
      <use xlink:href="#DejaVuSans-65" x="39.208984"/>
      <use xlink:href="#DejaVuSans-6d" x="100.732422"/>
      <use xlink:href="#DejaVuSans-70" x="198.144531"/>
      <use xlink:href="#DejaVuSans-65" x="261.621094"/>
      <use xlink:href="#DejaVuSans-72" x="323.144531"/>
      <use xlink:href="#DejaVuSans-61" x="364.257812"/>
      <use xlink:href="#DejaVuSans-74" x="425.537109"/>
      <use xlink:href="#DejaVuSans-75" x="464.746094"/>
      <use xlink:href="#DejaVuSans-72" x="528.125"/>
      <use xlink:href="#DejaVuSans-65" x="566.988281"/>
      <use xlink:href="#DejaVuSans-20" x="628.511719"/>
      <use xlink:href="#DejaVuSans-3d" x="660.298828"/>
      <use xlink:href="#DejaVuSans-20" x="744.087891"/>
      <use xlink:href="#DejaVuSans-32" x="775.875"/>
      <use xlink:href="#DejaVuSans-37" x="839.498047"/>
      <use xlink:href="#DejaVuSans-2c" x="903.121094"/>
      <use xlink:href="#DejaVuSans-20" x="934.908203"/>
      <use xlink:href="#DejaVuSans-63" x="966.695312"/>
      <use xlink:href="#DejaVuSans-6f" x="1021.675781"/>
      <use xlink:href="#DejaVuSans-72" x="1082.857422"/>
      <use xlink:href="#DejaVuSans-6e" x="1122.220703"/>
      <use xlink:href="#DejaVuSans-65" x="1185.599609"/>
      <use xlink:href="#DejaVuSans-72" x="1247.123047"/>
      <use xlink:href="#DejaVuSans-20" x="1288.236328"/>
      <use xlink:href="#DejaVuSans-3d" x="1320.023438"/>
      <use xlink:href="#DejaVuSans-20" x="1403.8125"/>
      <use xlink:href="#DejaVuSans-6d" x="1435.599609"/>
      <use xlink:href="#DejaVuSans-6f" x="1533.011719"/>
      <use xlink:href="#DejaVuSans-73" x="1594.193359"/>
      <use xlink:href="#DejaVuSans-5f" x="1646.292969"/>
      <use xlink:href="#DejaVuSans-74" x="1696.292969"/>
      <use xlink:href="#DejaVuSans-74" x="1735.501953"/>
     </g>
    </g>
    <g id="line2d_42">
     <path d="M 419.18605 149.904687 
L 429.18605 149.904687 
L 439.18605 149.904687 
" style="fill: none; stroke: #17becf; stroke-width: 1.5; stroke-linecap: square"/>
    </g>
    <g id="text_27">
     <!-- temperature = 27, corner = mos_tt -->
     <g transform="translate(447.18605 153.404687) scale(0.1 -0.1)">
      <use xlink:href="#DejaVuSans-74"/>
      <use xlink:href="#DejaVuSans-65" x="39.208984"/>
      <use xlink:href="#DejaVuSans-6d" x="100.732422"/>
      <use xlink:href="#DejaVuSans-70" x="198.144531"/>
      <use xlink:href="#DejaVuSans-65" x="261.621094"/>
      <use xlink:href="#DejaVuSans-72" x="323.144531"/>
      <use xlink:href="#DejaVuSans-61" x="364.257812"/>
      <use xlink:href="#DejaVuSans-74" x="425.537109"/>
      <use xlink:href="#DejaVuSans-75" x="464.746094"/>
      <use xlink:href="#DejaVuSans-72" x="528.125"/>
      <use xlink:href="#DejaVuSans-65" x="566.988281"/>
      <use xlink:href="#DejaVuSans-20" x="628.511719"/>
      <use xlink:href="#DejaVuSans-3d" x="660.298828"/>
      <use xlink:href="#DejaVuSans-20" x="744.087891"/>
      <use xlink:href="#DejaVuSans-32" x="775.875"/>
      <use xlink:href="#DejaVuSans-37" x="839.498047"/>
      <use xlink:href="#DejaVuSans-2c" x="903.121094"/>
      <use xlink:href="#DejaVuSans-20" x="934.908203"/>
      <use xlink:href="#DejaVuSans-63" x="966.695312"/>
      <use xlink:href="#DejaVuSans-6f" x="1021.675781"/>
      <use xlink:href="#DejaVuSans-72" x="1082.857422"/>
      <use xlink:href="#DejaVuSans-6e" x="1122.220703"/>
      <use xlink:href="#DejaVuSans-65" x="1185.599609"/>
      <use xlink:href="#DejaVuSans-72" x="1247.123047"/>
      <use xlink:href="#DejaVuSans-20" x="1288.236328"/>
      <use xlink:href="#DejaVuSans-3d" x="1320.023438"/>
      <use xlink:href="#DejaVuSans-20" x="1403.8125"/>
      <use xlink:href="#DejaVuSans-6d" x="1435.599609"/>
      <use xlink:href="#DejaVuSans-6f" x="1533.011719"/>
      <use xlink:href="#DejaVuSans-73" x="1594.193359"/>
      <use xlink:href="#DejaVuSans-5f" x="1646.292969"/>
      <use xlink:href="#DejaVuSans-74" x="1696.292969"/>
      <use xlink:href="#DejaVuSans-74" x="1735.501953"/>
     </g>
    </g>
    <g id="line2d_43">
     <path d="M 419.18605 164.860937 
L 429.18605 164.860937 
L 439.18605 164.860937 
" style="fill: none; stroke: #1f77b4; stroke-width: 1.5; stroke-linecap: square"/>
    </g>
    <g id="text_28">
     <!-- temperature = 130, corner = mos_tt -->
     <g transform="translate(447.18605 168.360937) scale(0.1 -0.1)">
      <use xlink:href="#DejaVuSans-74"/>
      <use xlink:href="#DejaVuSans-65" x="39.208984"/>
      <use xlink:href="#DejaVuSans-6d" x="100.732422"/>
      <use xlink:href="#DejaVuSans-70" x="198.144531"/>
      <use xlink:href="#DejaVuSans-65" x="261.621094"/>
      <use xlink:href="#DejaVuSans-72" x="323.144531"/>
      <use xlink:href="#DejaVuSans-61" x="364.257812"/>
      <use xlink:href="#DejaVuSans-74" x="425.537109"/>
      <use xlink:href="#DejaVuSans-75" x="464.746094"/>
      <use xlink:href="#DejaVuSans-72" x="528.125"/>
      <use xlink:href="#DejaVuSans-65" x="566.988281"/>
      <use xlink:href="#DejaVuSans-20" x="628.511719"/>
      <use xlink:href="#DejaVuSans-3d" x="660.298828"/>
      <use xlink:href="#DejaVuSans-20" x="744.087891"/>
      <use xlink:href="#DejaVuSans-31" x="775.875"/>
      <use xlink:href="#DejaVuSans-33" x="839.498047"/>
      <use xlink:href="#DejaVuSans-30" x="903.121094"/>
      <use xlink:href="#DejaVuSans-2c" x="966.744141"/>
      <use xlink:href="#DejaVuSans-20" x="998.53125"/>
      <use xlink:href="#DejaVuSans-63" x="1030.318359"/>
      <use xlink:href="#DejaVuSans-6f" x="1085.298828"/>
      <use xlink:href="#DejaVuSans-72" x="1146.480469"/>
      <use xlink:href="#DejaVuSans-6e" x="1185.84375"/>
      <use xlink:href="#DejaVuSans-65" x="1249.222656"/>
      <use xlink:href="#DejaVuSans-72" x="1310.746094"/>
      <use xlink:href="#DejaVuSans-20" x="1351.859375"/>
      <use xlink:href="#DejaVuSans-3d" x="1383.646484"/>
      <use xlink:href="#DejaVuSans-20" x="1467.435547"/>
      <use xlink:href="#DejaVuSans-6d" x="1499.222656"/>
      <use xlink:href="#DejaVuSans-6f" x="1596.634766"/>
      <use xlink:href="#DejaVuSans-73" x="1657.816406"/>
      <use xlink:href="#DejaVuSans-5f" x="1709.916016"/>
      <use xlink:href="#DejaVuSans-74" x="1759.916016"/>
      <use xlink:href="#DejaVuSans-74" x="1799.125"/>
     </g>
    </g>
    <g id="line2d_44">
     <path d="M 419.18605 179.817187 
L 429.18605 179.817187 
L 439.18605 179.817187 
" style="fill: none; stroke: #ff7f0e; stroke-width: 1.5; stroke-linecap: square"/>
    </g>
    <g id="text_29">
     <!-- temperature = 130, corner = mos_tt -->
     <g transform="translate(447.18605 183.317187) scale(0.1 -0.1)">
      <use xlink:href="#DejaVuSans-74"/>
      <use xlink:href="#DejaVuSans-65" x="39.208984"/>
      <use xlink:href="#DejaVuSans-6d" x="100.732422"/>
      <use xlink:href="#DejaVuSans-70" x="198.144531"/>
      <use xlink:href="#DejaVuSans-65" x="261.621094"/>
      <use xlink:href="#DejaVuSans-72" x="323.144531"/>
      <use xlink:href="#DejaVuSans-61" x="364.257812"/>
      <use xlink:href="#DejaVuSans-74" x="425.537109"/>
      <use xlink:href="#DejaVuSans-75" x="464.746094"/>
      <use xlink:href="#DejaVuSans-72" x="528.125"/>
      <use xlink:href="#DejaVuSans-65" x="566.988281"/>
      <use xlink:href="#DejaVuSans-20" x="628.511719"/>
      <use xlink:href="#DejaVuSans-3d" x="660.298828"/>
      <use xlink:href="#DejaVuSans-20" x="744.087891"/>
      <use xlink:href="#DejaVuSans-31" x="775.875"/>
      <use xlink:href="#DejaVuSans-33" x="839.498047"/>
      <use xlink:href="#DejaVuSans-30" x="903.121094"/>
      <use xlink:href="#DejaVuSans-2c" x="966.744141"/>
      <use xlink:href="#DejaVuSans-20" x="998.53125"/>
      <use xlink:href="#DejaVuSans-63" x="1030.318359"/>
      <use xlink:href="#DejaVuSans-6f" x="1085.298828"/>
      <use xlink:href="#DejaVuSans-72" x="1146.480469"/>
      <use xlink:href="#DejaVuSans-6e" x="1185.84375"/>
      <use xlink:href="#DejaVuSans-65" x="1249.222656"/>
      <use xlink:href="#DejaVuSans-72" x="1310.746094"/>
      <use xlink:href="#DejaVuSans-20" x="1351.859375"/>
      <use xlink:href="#DejaVuSans-3d" x="1383.646484"/>
      <use xlink:href="#DejaVuSans-20" x="1467.435547"/>
      <use xlink:href="#DejaVuSans-6d" x="1499.222656"/>
      <use xlink:href="#DejaVuSans-6f" x="1596.634766"/>
      <use xlink:href="#DejaVuSans-73" x="1657.816406"/>
      <use xlink:href="#DejaVuSans-5f" x="1709.916016"/>
      <use xlink:href="#DejaVuSans-74" x="1759.916016"/>
      <use xlink:href="#DejaVuSans-74" x="1799.125"/>
     </g>
    </g>
    <g id="line2d_45">
     <path d="M 419.18605 194.773438 
L 429.18605 194.773438 
L 439.18605 194.773438 
" style="fill: none; stroke: #2ca02c; stroke-width: 1.5; stroke-linecap: square"/>
    </g>
    <g id="text_30">
     <!-- temperature = -40, corner = mos_ff -->
     <g transform="translate(447.18605 198.273438) scale(0.1 -0.1)">
      <defs>
       <path id="DejaVuSans-66" d="M 2375 4863 
L 2375 4384 
L 1825 4384 
Q 1516 4384 1395 4259 
Q 1275 4134 1275 3809 
L 1275 3500 
L 2222 3500 
L 2222 3053 
L 1275 3053 
L 1275 0 
L 697 0 
L 697 3053 
L 147 3053 
L 147 3500 
L 697 3500 
L 697 3744 
Q 697 4328 969 4595 
Q 1241 4863 1831 4863 
L 2375 4863 
z
" transform="scale(0.015625)"/>
      </defs>
      <use xlink:href="#DejaVuSans-74"/>
      <use xlink:href="#DejaVuSans-65" x="39.208984"/>
      <use xlink:href="#DejaVuSans-6d" x="100.732422"/>
      <use xlink:href="#DejaVuSans-70" x="198.144531"/>
      <use xlink:href="#DejaVuSans-65" x="261.621094"/>
      <use xlink:href="#DejaVuSans-72" x="323.144531"/>
      <use xlink:href="#DejaVuSans-61" x="364.257812"/>
      <use xlink:href="#DejaVuSans-74" x="425.537109"/>
      <use xlink:href="#DejaVuSans-75" x="464.746094"/>
      <use xlink:href="#DejaVuSans-72" x="528.125"/>
      <use xlink:href="#DejaVuSans-65" x="566.988281"/>
      <use xlink:href="#DejaVuSans-20" x="628.511719"/>
      <use xlink:href="#DejaVuSans-3d" x="660.298828"/>
      <use xlink:href="#DejaVuSans-20" x="744.087891"/>
      <use xlink:href="#DejaVuSans-2d" x="775.875"/>
      <use xlink:href="#DejaVuSans-34" x="811.958984"/>
      <use xlink:href="#DejaVuSans-30" x="875.582031"/>
      <use xlink:href="#DejaVuSans-2c" x="939.205078"/>
      <use xlink:href="#DejaVuSans-20" x="970.992188"/>
      <use xlink:href="#DejaVuSans-63" x="1002.779297"/>
      <use xlink:href="#DejaVuSans-6f" x="1057.759766"/>
      <use xlink:href="#DejaVuSans-72" x="1118.941406"/>
      <use xlink:href="#DejaVuSans-6e" x="1158.304688"/>
      <use xlink:href="#DejaVuSans-65" x="1221.683594"/>
      <use xlink:href="#DejaVuSans-72" x="1283.207031"/>
      <use xlink:href="#DejaVuSans-20" x="1324.320312"/>
      <use xlink:href="#DejaVuSans-3d" x="1356.107422"/>
      <use xlink:href="#DejaVuSans-20" x="1439.896484"/>
      <use xlink:href="#DejaVuSans-6d" x="1471.683594"/>
      <use xlink:href="#DejaVuSans-6f" x="1569.095703"/>
      <use xlink:href="#DejaVuSans-73" x="1630.277344"/>
      <use xlink:href="#DejaVuSans-5f" x="1682.376953"/>
      <use xlink:href="#DejaVuSans-66" x="1732.376953"/>
      <use xlink:href="#DejaVuSans-66" x="1767.582031"/>
     </g>
    </g>
    <g id="line2d_46">
     <path d="M 419.18605 209.729688 
L 429.18605 209.729688 
L 439.18605 209.729688 
" style="fill: none; stroke: #d62728; stroke-width: 1.5; stroke-linecap: square"/>
    </g>
    <g id="text_31">
     <!-- temperature = -40, corner = mos_ff -->
     <g transform="translate(447.18605 213.229688) scale(0.1 -0.1)">
      <use xlink:href="#DejaVuSans-74"/>
      <use xlink:href="#DejaVuSans-65" x="39.208984"/>
      <use xlink:href="#DejaVuSans-6d" x="100.732422"/>
      <use xlink:href="#DejaVuSans-70" x="198.144531"/>
      <use xlink:href="#DejaVuSans-65" x="261.621094"/>
      <use xlink:href="#DejaVuSans-72" x="323.144531"/>
      <use xlink:href="#DejaVuSans-61" x="364.257812"/>
      <use xlink:href="#DejaVuSans-74" x="425.537109"/>
      <use xlink:href="#DejaVuSans-75" x="464.746094"/>
      <use xlink:href="#DejaVuSans-72" x="528.125"/>
      <use xlink:href="#DejaVuSans-65" x="566.988281"/>
      <use xlink:href="#DejaVuSans-20" x="628.511719"/>
      <use xlink:href="#DejaVuSans-3d" x="660.298828"/>
      <use xlink:href="#DejaVuSans-20" x="744.087891"/>
      <use xlink:href="#DejaVuSans-2d" x="775.875"/>
      <use xlink:href="#DejaVuSans-34" x="811.958984"/>
      <use xlink:href="#DejaVuSans-30" x="875.582031"/>
      <use xlink:href="#DejaVuSans-2c" x="939.205078"/>
      <use xlink:href="#DejaVuSans-20" x="970.992188"/>
      <use xlink:href="#DejaVuSans-63" x="1002.779297"/>
      <use xlink:href="#DejaVuSans-6f" x="1057.759766"/>
      <use xlink:href="#DejaVuSans-72" x="1118.941406"/>
      <use xlink:href="#DejaVuSans-6e" x="1158.304688"/>
      <use xlink:href="#DejaVuSans-65" x="1221.683594"/>
      <use xlink:href="#DejaVuSans-72" x="1283.207031"/>
      <use xlink:href="#DejaVuSans-20" x="1324.320312"/>
      <use xlink:href="#DejaVuSans-3d" x="1356.107422"/>
      <use xlink:href="#DejaVuSans-20" x="1439.896484"/>
      <use xlink:href="#DejaVuSans-6d" x="1471.683594"/>
      <use xlink:href="#DejaVuSans-6f" x="1569.095703"/>
      <use xlink:href="#DejaVuSans-73" x="1630.277344"/>
      <use xlink:href="#DejaVuSans-5f" x="1682.376953"/>
      <use xlink:href="#DejaVuSans-66" x="1732.376953"/>
      <use xlink:href="#DejaVuSans-66" x="1767.582031"/>
     </g>
    </g>
    <g id="line2d_47">
     <path d="M 419.18605 224.685938 
L 429.18605 224.685938 
L 439.18605 224.685938 
" style="fill: none; stroke: #9467bd; stroke-width: 1.5; stroke-linecap: square"/>
    </g>
    <g id="text_32">
     <!-- temperature = 27, corner = mos_ff -->
     <g transform="translate(447.18605 228.185938) scale(0.1 -0.1)">
      <use xlink:href="#DejaVuSans-74"/>
      <use xlink:href="#DejaVuSans-65" x="39.208984"/>
      <use xlink:href="#DejaVuSans-6d" x="100.732422"/>
      <use xlink:href="#DejaVuSans-70" x="198.144531"/>
      <use xlink:href="#DejaVuSans-65" x="261.621094"/>
      <use xlink:href="#DejaVuSans-72" x="323.144531"/>
      <use xlink:href="#DejaVuSans-61" x="364.257812"/>
      <use xlink:href="#DejaVuSans-74" x="425.537109"/>
      <use xlink:href="#DejaVuSans-75" x="464.746094"/>
      <use xlink:href="#DejaVuSans-72" x="528.125"/>
      <use xlink:href="#DejaVuSans-65" x="566.988281"/>
      <use xlink:href="#DejaVuSans-20" x="628.511719"/>
      <use xlink:href="#DejaVuSans-3d" x="660.298828"/>
      <use xlink:href="#DejaVuSans-20" x="744.087891"/>
      <use xlink:href="#DejaVuSans-32" x="775.875"/>
      <use xlink:href="#DejaVuSans-37" x="839.498047"/>
      <use xlink:href="#DejaVuSans-2c" x="903.121094"/>
      <use xlink:href="#DejaVuSans-20" x="934.908203"/>
      <use xlink:href="#DejaVuSans-63" x="966.695312"/>
      <use xlink:href="#DejaVuSans-6f" x="1021.675781"/>
      <use xlink:href="#DejaVuSans-72" x="1082.857422"/>
      <use xlink:href="#DejaVuSans-6e" x="1122.220703"/>
      <use xlink:href="#DejaVuSans-65" x="1185.599609"/>
      <use xlink:href="#DejaVuSans-72" x="1247.123047"/>
      <use xlink:href="#DejaVuSans-20" x="1288.236328"/>
      <use xlink:href="#DejaVuSans-3d" x="1320.023438"/>
      <use xlink:href="#DejaVuSans-20" x="1403.8125"/>
      <use xlink:href="#DejaVuSans-6d" x="1435.599609"/>
      <use xlink:href="#DejaVuSans-6f" x="1533.011719"/>
      <use xlink:href="#DejaVuSans-73" x="1594.193359"/>
      <use xlink:href="#DejaVuSans-5f" x="1646.292969"/>
      <use xlink:href="#DejaVuSans-66" x="1696.292969"/>
      <use xlink:href="#DejaVuSans-66" x="1731.498047"/>
     </g>
    </g>
    <g id="line2d_48">
     <path d="M 419.18605 239.642188 
L 429.18605 239.642188 
L 439.18605 239.642188 
" style="fill: none; stroke: #8c564b; stroke-width: 1.5; stroke-linecap: square"/>
    </g>
    <g id="text_33">
     <!-- temperature = 27, corner = mos_ff -->
     <g transform="translate(447.18605 243.142188) scale(0.1 -0.1)">
      <use xlink:href="#DejaVuSans-74"/>
      <use xlink:href="#DejaVuSans-65" x="39.208984"/>
      <use xlink:href="#DejaVuSans-6d" x="100.732422"/>
      <use xlink:href="#DejaVuSans-70" x="198.144531"/>
      <use xlink:href="#DejaVuSans-65" x="261.621094"/>
      <use xlink:href="#DejaVuSans-72" x="323.144531"/>
      <use xlink:href="#DejaVuSans-61" x="364.257812"/>
      <use xlink:href="#DejaVuSans-74" x="425.537109"/>
      <use xlink:href="#DejaVuSans-75" x="464.746094"/>
      <use xlink:href="#DejaVuSans-72" x="528.125"/>
      <use xlink:href="#DejaVuSans-65" x="566.988281"/>
      <use xlink:href="#DejaVuSans-20" x="628.511719"/>
      <use xlink:href="#DejaVuSans-3d" x="660.298828"/>
      <use xlink:href="#DejaVuSans-20" x="744.087891"/>
      <use xlink:href="#DejaVuSans-32" x="775.875"/>
      <use xlink:href="#DejaVuSans-37" x="839.498047"/>
      <use xlink:href="#DejaVuSans-2c" x="903.121094"/>
      <use xlink:href="#DejaVuSans-20" x="934.908203"/>
      <use xlink:href="#DejaVuSans-63" x="966.695312"/>
      <use xlink:href="#DejaVuSans-6f" x="1021.675781"/>
      <use xlink:href="#DejaVuSans-72" x="1082.857422"/>
      <use xlink:href="#DejaVuSans-6e" x="1122.220703"/>
      <use xlink:href="#DejaVuSans-65" x="1185.599609"/>
      <use xlink:href="#DejaVuSans-72" x="1247.123047"/>
      <use xlink:href="#DejaVuSans-20" x="1288.236328"/>
      <use xlink:href="#DejaVuSans-3d" x="1320.023438"/>
      <use xlink:href="#DejaVuSans-20" x="1403.8125"/>
      <use xlink:href="#DejaVuSans-6d" x="1435.599609"/>
      <use xlink:href="#DejaVuSans-6f" x="1533.011719"/>
      <use xlink:href="#DejaVuSans-73" x="1594.193359"/>
      <use xlink:href="#DejaVuSans-5f" x="1646.292969"/>
      <use xlink:href="#DejaVuSans-66" x="1696.292969"/>
      <use xlink:href="#DejaVuSans-66" x="1731.498047"/>
     </g>
    </g>
    <g id="line2d_49">
     <path d="M 419.18605 254.598438 
L 429.18605 254.598438 
L 439.18605 254.598438 
" style="fill: none; stroke: #e377c2; stroke-width: 1.5; stroke-linecap: square"/>
    </g>
    <g id="text_34">
     <!-- temperature = 130, corner = mos_ff -->
     <g transform="translate(447.18605 258.098438) scale(0.1 -0.1)">
      <use xlink:href="#DejaVuSans-74"/>
      <use xlink:href="#DejaVuSans-65" x="39.208984"/>
      <use xlink:href="#DejaVuSans-6d" x="100.732422"/>
      <use xlink:href="#DejaVuSans-70" x="198.144531"/>
      <use xlink:href="#DejaVuSans-65" x="261.621094"/>
      <use xlink:href="#DejaVuSans-72" x="323.144531"/>
      <use xlink:href="#DejaVuSans-61" x="364.257812"/>
      <use xlink:href="#DejaVuSans-74" x="425.537109"/>
      <use xlink:href="#DejaVuSans-75" x="464.746094"/>
      <use xlink:href="#DejaVuSans-72" x="528.125"/>
      <use xlink:href="#DejaVuSans-65" x="566.988281"/>
      <use xlink:href="#DejaVuSans-20" x="628.511719"/>
      <use xlink:href="#DejaVuSans-3d" x="660.298828"/>
      <use xlink:href="#DejaVuSans-20" x="744.087891"/>
      <use xlink:href="#DejaVuSans-31" x="775.875"/>
      <use xlink:href="#DejaVuSans-33" x="839.498047"/>
      <use xlink:href="#DejaVuSans-30" x="903.121094"/>
      <use xlink:href="#DejaVuSans-2c" x="966.744141"/>
      <use xlink:href="#DejaVuSans-20" x="998.53125"/>
      <use xlink:href="#DejaVuSans-63" x="1030.318359"/>
      <use xlink:href="#DejaVuSans-6f" x="1085.298828"/>
      <use xlink:href="#DejaVuSans-72" x="1146.480469"/>
      <use xlink:href="#DejaVuSans-6e" x="1185.84375"/>
      <use xlink:href="#DejaVuSans-65" x="1249.222656"/>
      <use xlink:href="#DejaVuSans-72" x="1310.746094"/>
      <use xlink:href="#DejaVuSans-20" x="1351.859375"/>
      <use xlink:href="#DejaVuSans-3d" x="1383.646484"/>
      <use xlink:href="#DejaVuSans-20" x="1467.435547"/>
      <use xlink:href="#DejaVuSans-6d" x="1499.222656"/>
      <use xlink:href="#DejaVuSans-6f" x="1596.634766"/>
      <use xlink:href="#DejaVuSans-73" x="1657.816406"/>
      <use xlink:href="#DejaVuSans-5f" x="1709.916016"/>
      <use xlink:href="#DejaVuSans-66" x="1759.916016"/>
      <use xlink:href="#DejaVuSans-66" x="1795.121094"/>
     </g>
    </g>
    <g id="line2d_50">
     <path d="M 419.18605 269.554688 
L 429.18605 269.554688 
L 439.18605 269.554688 
" style="fill: none; stroke: #7f7f7f; stroke-width: 1.5; stroke-linecap: square"/>
    </g>
    <g id="text_35">
     <!-- temperature = 130, corner = mos_ff -->
     <g transform="translate(447.18605 273.054688) scale(0.1 -0.1)">
      <use xlink:href="#DejaVuSans-74"/>
      <use xlink:href="#DejaVuSans-65" x="39.208984"/>
      <use xlink:href="#DejaVuSans-6d" x="100.732422"/>
      <use xlink:href="#DejaVuSans-70" x="198.144531"/>
      <use xlink:href="#DejaVuSans-65" x="261.621094"/>
      <use xlink:href="#DejaVuSans-72" x="323.144531"/>
      <use xlink:href="#DejaVuSans-61" x="364.257812"/>
      <use xlink:href="#DejaVuSans-74" x="425.537109"/>
      <use xlink:href="#DejaVuSans-75" x="464.746094"/>
      <use xlink:href="#DejaVuSans-72" x="528.125"/>
      <use xlink:href="#DejaVuSans-65" x="566.988281"/>
      <use xlink:href="#DejaVuSans-20" x="628.511719"/>
      <use xlink:href="#DejaVuSans-3d" x="660.298828"/>
      <use xlink:href="#DejaVuSans-20" x="744.087891"/>
      <use xlink:href="#DejaVuSans-31" x="775.875"/>
      <use xlink:href="#DejaVuSans-33" x="839.498047"/>
      <use xlink:href="#DejaVuSans-30" x="903.121094"/>
      <use xlink:href="#DejaVuSans-2c" x="966.744141"/>
      <use xlink:href="#DejaVuSans-20" x="998.53125"/>
      <use xlink:href="#DejaVuSans-63" x="1030.318359"/>
      <use xlink:href="#DejaVuSans-6f" x="1085.298828"/>
      <use xlink:href="#DejaVuSans-72" x="1146.480469"/>
      <use xlink:href="#DejaVuSans-6e" x="1185.84375"/>
      <use xlink:href="#DejaVuSans-65" x="1249.222656"/>
      <use xlink:href="#DejaVuSans-72" x="1310.746094"/>
      <use xlink:href="#DejaVuSans-20" x="1351.859375"/>
      <use xlink:href="#DejaVuSans-3d" x="1383.646484"/>
      <use xlink:href="#DejaVuSans-20" x="1467.435547"/>
      <use xlink:href="#DejaVuSans-6d" x="1499.222656"/>
      <use xlink:href="#DejaVuSans-6f" x="1596.634766"/>
      <use xlink:href="#DejaVuSans-73" x="1657.816406"/>
      <use xlink:href="#DejaVuSans-5f" x="1709.916016"/>
      <use xlink:href="#DejaVuSans-66" x="1759.916016"/>
      <use xlink:href="#DejaVuSans-66" x="1795.121094"/>
     </g>
    </g>
   </g>
  </g>
 </g>
 <defs>
  <clipPath id="p2f5c0c44b7">
   <rect x="43.78125" y="7.2" width="357.12" height="266.112"/>
  </clipPath>
 </defs>
</svg>
